<svg width="674" height="672" viewBox="0 0 674 672" fill="none" xmlns="http://www.w3.org/2000/svg">
<path d="M606.466 535.571H561.82V535.907H606.466V535.571Z" fill="#EBEBEB"/>
<path d="M446.484 539.228H434.77V539.564H446.484V539.228Z" fill="#EBEBEB"/>
<path d="M560.472 523.1H534.604V523.436H560.472V523.1Z" fill="#EBEBEB"/>
<path d="M128.937 525.356H70.7168V525.693H128.937V525.356Z" fill="#EBEBEB"/>
<path d="M149.48 525.356H140.947V525.693H149.48V525.356Z" fill="#EBEBEB"/>
<path d="M303.501 531.028H177.221V531.365H303.501V531.028Z" fill="#EBEBEB"/>
<path d="M319.477 454.004H59.2049C57.1635 454.004 55.2057 453.196 53.7622 451.756C52.3188 450.317 51.5078 448.365 51.5078 446.33V81.5279C51.5256 79.5043 52.3444 77.5695 53.7859 76.1448C55.2275 74.7201 57.1751 73.9208 59.2049 73.9209H319.477C321.518 73.9209 323.476 74.7294 324.919 76.1686C326.363 77.6078 327.174 79.5598 327.174 81.5951V446.33C327.174 448.365 326.363 450.317 324.919 451.756C323.476 453.196 321.518 454.004 319.477 454.004ZM59.2049 74.1897C57.254 74.1933 55.384 74.9675 54.0045 76.3429C52.625 77.7184 51.8484 79.5828 51.8448 81.5279V446.33C51.8484 448.275 52.625 450.139 54.0045 451.515C55.384 452.89 57.254 453.665 59.2049 453.668H319.477C321.428 453.665 323.298 452.89 324.677 451.515C326.057 450.139 326.833 448.275 326.837 446.33V81.5279C326.833 79.5828 326.057 77.7184 324.677 76.3429C323.298 74.9675 321.428 74.1933 319.477 74.1897H59.2049Z" fill="#EBEBEB"/>
<path d="M611.062 454.004H350.763C348.723 454.001 346.767 453.191 345.325 451.752C343.882 450.314 343.07 448.364 343.066 446.33V81.5279C343.088 79.5054 343.908 77.5726 345.348 76.1487C346.789 74.7248 348.735 73.9243 350.763 73.9209H611.062C613.087 73.9279 615.028 74.7303 616.464 76.1543C617.9 77.5782 618.715 79.5089 618.732 81.5279V446.33C618.732 448.361 617.925 450.308 616.487 451.747C615.05 453.185 613.099 453.997 611.062 454.004ZM350.763 74.1897C348.813 74.1933 346.943 74.9675 345.563 76.3429C344.184 77.7184 343.407 79.5828 343.403 81.5279V446.33C343.407 448.275 344.184 450.139 345.563 451.515C346.943 452.89 348.813 453.665 350.763 453.668H611.062C613.013 453.665 614.883 452.89 616.263 451.515C617.642 450.139 618.419 448.275 618.422 446.33V81.5279C618.419 79.5828 617.642 77.7184 616.263 76.3429C614.883 74.9675 613.013 74.1933 611.062 74.1897H350.763Z" fill="#EBEBEB"/>
<path d="M674 513.947H0V514.283H674V513.947Z" fill="#EBEBEB"/>
<path d="M420.766 513.596H116.589L114.082 505.021H423.273L420.766 513.596Z" fill="#E0E0E0"/>
<path d="M265.785 388.524H100.143V445.537H265.785V388.524Z" fill="#EBEBEB"/>
<path d="M265.785 445.523H100.143V502.536H265.785V445.523Z" fill="#EBEBEB"/>
<path d="M265.785 397.287V391.521H100.143V397.287H265.785Z" fill="#E0E0E0"/>
<path d="M265.785 453.843V448.077H100.143V453.843H265.785Z" fill="#E0E0E0"/>
<path d="M97.2598 385.971V505.022H268.685V385.971H97.2598ZM262.862 499.256H103.043V448.547H262.862V499.256ZM262.862 442.808H103.043V392.059H262.862V442.808Z" fill="#F5F5F5"/>
<path d="M437.211 388.524H271.568V445.537H437.211V388.524Z" fill="#EBEBEB"/>
<path d="M437.211 445.523H271.568V502.536H437.211V445.523Z" fill="#EBEBEB"/>
<path d="M437.211 397.287V391.521H271.569V397.287H437.211Z" fill="#E0E0E0"/>
<path d="M437.211 453.857V448.091H271.569V453.857H437.211Z" fill="#E0E0E0"/>
<path d="M268.684 385.971V505.022H440.109V385.971H268.684ZM434.326 499.256H274.467V448.547H434.326V499.256ZM434.326 442.808H274.467V392.059H434.326V442.808Z" fill="#F5F5F5"/>
<path d="M359.364 422.367C359.364 423.347 359.073 424.306 358.526 425.122C357.979 425.937 357.203 426.573 356.294 426.948C355.385 427.324 354.385 427.422 353.42 427.231C352.455 427.039 351.569 426.567 350.873 425.873C350.177 425.18 349.704 424.296 349.512 423.334C349.32 422.372 349.418 421.375 349.795 420.469C350.171 419.563 350.809 418.788 351.627 418.243C352.445 417.698 353.406 417.407 354.39 417.407C355.709 417.407 356.975 417.93 357.907 418.86C358.84 419.79 359.364 421.051 359.364 422.367Z" fill="#E0E0E0"/>
<path d="M359.364 420.969C359.364 421.95 359.073 422.909 358.526 423.724C357.979 424.54 357.203 425.176 356.294 425.551C355.385 425.926 354.385 426.025 353.42 425.833C352.455 425.642 351.569 425.169 350.873 424.476C350.177 423.782 349.704 422.899 349.512 421.937C349.32 420.975 349.418 419.977 349.795 419.071C350.171 418.165 350.809 417.391 351.627 416.846C352.445 416.301 353.406 416.01 354.39 416.01C355.709 416.01 356.975 416.532 357.907 417.462C358.84 418.392 359.364 419.654 359.364 420.969Z" fill="#FAFAFA"/>
<path d="M359.364 474.729C359.364 475.71 359.073 476.669 358.526 477.484C357.979 478.3 357.203 478.935 356.294 479.311C355.385 479.686 354.385 479.784 353.42 479.593C352.455 479.402 351.569 478.929 350.873 478.236C350.177 477.542 349.704 476.658 349.512 475.696C349.32 474.734 349.418 473.737 349.795 472.831C350.171 471.925 350.809 471.15 351.627 470.605C352.445 470.06 353.406 469.77 354.39 469.77C355.709 469.77 356.975 470.292 357.907 471.222C358.84 472.152 359.364 473.414 359.364 474.729Z" fill="#E0E0E0"/>
<path d="M359.364 473.33C359.364 474.311 359.073 475.27 358.526 476.086C357.979 476.901 357.203 477.537 356.294 477.912C355.385 478.288 354.385 478.386 353.42 478.195C352.455 478.003 351.569 477.531 350.873 476.837C350.177 476.144 349.704 475.26 349.512 474.298C349.32 473.336 349.418 472.339 349.795 471.433C350.171 470.526 350.809 469.752 351.627 469.207C352.445 468.662 353.406 468.371 354.39 468.371C355.709 468.371 356.975 468.894 357.907 469.824C358.84 470.754 359.364 472.015 359.364 473.33Z" fill="#FAFAFA"/>
<path d="M187.938 422.367C187.938 423.347 187.647 424.306 187.1 425.122C186.554 425.937 185.777 426.573 184.868 426.948C183.959 427.324 182.959 427.422 181.994 427.231C181.029 427.039 180.143 426.567 179.447 425.873C178.751 425.18 178.278 424.296 178.086 423.334C177.894 422.372 177.992 421.375 178.369 420.469C178.745 419.563 179.383 418.788 180.201 418.243C181.019 417.698 181.981 417.407 182.964 417.407C184.284 417.407 185.549 417.93 186.482 418.86C187.414 419.79 187.938 421.051 187.938 422.367Z" fill="#E0E0E0"/>
<path d="M187.938 420.969C187.938 421.95 187.647 422.909 187.1 423.724C186.554 424.54 185.777 425.176 184.868 425.551C183.959 425.926 182.959 426.025 181.994 425.833C181.029 425.642 180.143 425.169 179.447 424.476C178.751 423.782 178.278 422.899 178.086 421.937C177.894 420.975 177.992 419.977 178.369 419.071C178.745 418.165 179.383 417.391 180.201 416.846C181.019 416.301 181.981 416.01 182.964 416.01C184.284 416.01 185.549 416.532 186.482 417.462C187.414 418.392 187.938 419.654 187.938 420.969Z" fill="#FAFAFA"/>
<path d="M187.938 474.729C187.938 475.71 187.647 476.669 187.1 477.484C186.554 478.3 185.777 478.935 184.868 479.311C183.959 479.686 182.959 479.784 181.994 479.593C181.029 479.402 180.143 478.929 179.447 478.236C178.751 477.542 178.278 476.658 178.086 475.696C177.894 474.734 177.992 473.737 178.369 472.831C178.745 471.925 179.383 471.15 180.201 470.605C181.019 470.06 181.981 469.77 182.964 469.77C184.284 469.77 185.549 470.292 186.482 471.222C187.414 472.152 187.938 473.414 187.938 474.729Z" fill="#E0E0E0"/>
<path d="M187.938 473.33C187.938 474.311 187.647 475.27 187.1 476.086C186.554 476.901 185.777 477.537 184.868 477.912C183.959 478.288 182.959 478.386 181.994 478.195C181.029 478.003 180.143 477.531 179.447 476.837C178.751 476.144 178.278 475.26 178.086 474.298C177.894 473.336 177.992 472.339 178.369 471.433C178.745 470.526 179.383 469.752 180.201 469.207C181.019 468.662 181.981 468.371 182.964 468.371C184.284 468.371 185.549 468.894 186.482 469.824C187.414 470.754 187.938 472.015 187.938 473.33Z" fill="#FAFAFA"/>
<path d="M500.781 367.02C503.774 363.7 508.087 360.085 512.617 359.373C526.514 357.155 524.964 385.594 524.829 392.865C524.829 393.133 524.936 393.389 525.126 393.578C525.315 393.767 525.572 393.873 525.84 393.873C526.109 393.873 526.366 393.767 526.555 393.578C526.745 393.389 526.851 393.133 526.851 392.865C527.013 384.291 528.536 357.397 514.126 357.222C508.505 357.155 502.938 361.617 499.298 365.596C498.436 366.563 499.865 368.001 500.727 367.02H500.781Z" fill="#E0E0E0"/>
<path d="M544.026 349.549C541.155 349.992 538.904 353.325 537.569 355.556C531.18 366.308 530.762 380.797 530.344 392.866C530.344 394.21 532.325 394.21 532.366 392.866C532.757 381.294 533.121 367.706 538.93 357.263C540.036 355.274 541.963 351.887 544.565 351.498C545.846 351.296 545.293 349.347 544.026 349.549Z" fill="#E0E0E0"/>
<path d="M500.109 366.308C500.109 366.308 487.586 345.678 478.406 364.279C476.968 367.225 475.999 370.376 475.535 373.619C479.377 371.939 487.573 368.848 487.667 373.042C487.762 376.415 482.976 381.993 479.283 385.769C478.264 386.818 477.537 388.113 477.175 389.528C476.814 390.942 476.829 392.427 477.22 393.833C478.412 398.132 480.042 402.298 482.086 406.265C482.086 406.265 484.782 405.217 488.826 403.308C490.085 402.706 491.184 401.817 492.034 400.712C492.884 399.608 493.462 398.319 493.72 396.951C494.286 393.914 495.27 390.715 496.901 389.761C498.532 388.807 499.853 390.581 500.756 392.651C500.925 393.046 501.182 393.399 501.506 393.682C501.831 393.966 502.215 394.173 502.631 394.288C503.047 394.403 503.483 394.423 503.908 394.346C504.332 394.27 504.734 394.099 505.083 393.847C507.107 392.409 509.043 390.851 510.88 389.183C511.409 388.703 511.737 388.042 511.797 387.331C511.857 386.621 511.645 385.914 511.203 385.353C509.222 382.812 507.361 379.788 508.116 378.041C508.871 376.294 512.255 376.334 515.53 376.697C516.176 376.776 516.831 376.727 517.457 376.552C518.083 376.378 518.669 376.082 519.18 375.681C519.691 375.28 520.118 374.782 520.435 374.216C520.753 373.65 520.955 373.027 521.03 372.383C523.389 352.357 500.109 366.308 500.109 366.308Z" fill="#EBEBEB"/>
<path d="M548.784 345.114C548.784 345.114 561.293 324.483 570.486 343.084C571.932 346.051 572.9 349.226 573.358 352.492C569.516 350.812 561.32 347.721 561.226 351.914C561.131 355.288 565.917 360.852 569.61 364.629C570.627 365.678 571.352 366.974 571.713 368.388C572.075 369.802 572.061 371.286 571.673 372.693C570.481 376.992 568.85 381.157 566.806 385.125C566.806 385.125 564.11 384.076 560.066 382.154C558.807 381.557 557.707 380.671 556.856 379.568C556.006 378.466 555.429 377.178 555.173 375.811C554.607 372.773 553.623 369.561 551.992 368.62C550.361 367.68 549.04 369.44 548.137 371.497C547.971 371.895 547.717 372.251 547.393 372.537C547.069 372.824 546.685 373.033 546.268 373.15C545.851 373.266 545.413 373.287 544.988 373.21C544.562 373.133 544.159 372.961 543.81 372.706C541.792 371.26 539.857 369.703 538.013 368.042C537.484 367.563 537.156 366.901 537.096 366.191C537.036 365.48 537.248 364.773 537.69 364.212C539.671 361.672 541.531 358.648 540.763 356.901C539.995 355.153 536.638 355.194 533.363 355.557C532.717 355.635 532.062 355.586 531.436 355.412C530.809 355.237 530.224 354.941 529.713 354.54C529.202 354.139 528.775 353.641 528.457 353.075C528.14 352.509 527.938 351.887 527.863 351.242C525.463 331.163 548.784 345.114 548.784 345.114Z" fill="#E6E6E6"/>
<path d="M477.408 490.561C477.408 499.646 478.837 505.533 481.25 509.296C482.173 510.679 483.429 511.81 484.903 512.585C486.377 513.359 488.022 513.754 489.688 513.731H502.885C504.552 513.754 506.197 513.359 507.671 512.585C509.145 511.81 510.401 510.679 511.324 509.296C513.723 505.533 515.152 499.646 515.152 490.561C515.152 477.39 509.396 466.839 507.509 458.412C506.835 455.375 509.086 446.088 509.086 446.088H483.474C483.474 446.088 485.739 455.375 485.051 458.412C483.178 466.866 477.408 477.417 477.408 490.561Z" fill="#E6E6E6"/>
<path d="M496.279 437.258C496.279 425.821 514.275 430.538 518.804 412.811C520.53 406.091 505.891 390.863 505.891 390.863H551.52C551.52 390.863 536.881 406.091 538.606 412.811C543.136 430.565 561.132 425.821 561.132 437.258C561.132 449.865 535.749 476.1 534.522 505.641C534.414 508.329 539.307 513.705 539.307 513.705H518.117C518.117 513.705 522.997 508.235 522.889 505.641C521.676 476.1 496.279 449.865 496.279 437.258Z" fill="#F0F0F0"/>
<path d="M565.876 466.987C563.18 461.436 568.707 442.526 568.707 442.526H548.945C548.945 442.526 554.418 461.436 551.776 466.987C549.902 470.912 545.643 473.425 545.643 478.075V505.99C545.643 513.221 551.574 513.758 558.826 513.758C566.078 513.758 572.01 513.221 572.01 505.99V478.075C572.01 473.425 567.75 470.925 565.876 466.987Z" fill="#E6E6E6"/>
<path d="M537.852 385.286C537.852 385.286 550.847 375.515 553.165 389.156C553.53 391.287 553.53 393.464 553.165 395.594C550.901 393.645 545.954 389.802 544.97 392.369C544.188 394.425 546.318 398.994 547.989 402.193C548.47 403.041 548.695 404.01 548.637 404.982C548.58 405.955 548.243 406.89 547.666 407.677C545.916 410.062 543.909 412.248 541.68 414.195C541.68 414.195 540.022 412.851 537.637 410.768C536.919 410.143 536.364 409.355 536.016 408.471C535.669 407.587 535.54 406.632 535.641 405.688C535.898 403.685 535.911 401.481 534.994 400.5C534.078 399.519 532.797 400.312 531.746 401.373C531.521 401.578 531.257 401.733 530.969 401.83C530.681 401.927 530.376 401.964 530.073 401.937C529.77 401.911 529.476 401.822 529.209 401.676C528.943 401.53 528.709 401.331 528.524 401.091C527.455 399.738 526.465 398.324 525.558 396.858C525.428 396.66 525.34 396.439 525.299 396.206C525.258 395.974 525.266 395.735 525.322 395.506C525.377 395.276 525.48 395.061 525.622 394.873C525.765 394.684 525.945 394.527 526.152 394.411C528.052 393.309 529.966 391.885 529.832 390.621C529.697 389.358 527.365 388.605 525.033 388.081C524.136 387.917 523.338 387.412 522.807 386.672C522.276 385.932 522.055 385.016 522.188 384.116C524.925 371.174 537.852 385.286 537.852 385.286Z" fill="#E0E0E0"/>
<path d="M330.502 569.466C474.85 569.466 591.866 562.655 591.866 554.252C591.866 545.85 474.85 539.038 330.502 539.038C186.155 539.038 69.1387 545.85 69.1387 554.252C69.1387 562.655 186.155 569.466 330.502 569.466Z" fill="#F5F5F5"/>
<path d="M507.778 227.874H513.709V210.644H507.778V227.874Z" fill="#263238"/>
<path d="M491.371 200.86C491.623 198.525 492.742 196.368 494.508 194.814C496.274 193.26 498.559 192.42 500.914 192.46C501.508 192.46 505.511 192.46 506.239 192.46C506.87 192.443 507.501 192.479 508.126 192.568C510.067 192.837 511.712 193.011 513.262 193.105C514.812 193.2 516.511 192.837 518.533 192.568C519.247 192.474 524.963 192.46 525.461 192.46C530.409 192.46 533.792 195.552 533.239 200.86V201.129C532.633 206.976 527.389 213.225 521.485 214.045C517.92 214.606 514.305 214.795 510.701 214.609C507.123 214.803 503.535 214.614 499.998 214.045C494.296 213.265 490.562 206.976 491.424 201.129L491.371 200.86Z" fill="#263238"/>
<path d="M531.988 218.466C531.206 218.466 527.553 218.399 526.407 218.466C525.431 218.52 524.464 218.678 523.522 218.937C519.034 220.228 514.428 221.07 509.773 221.45C505.318 221.09 500.915 220.247 496.643 218.937C495.461 218.598 494.234 218.434 493.004 218.453C492.181 218.453 488.717 218.453 487.8 218.453C485.683 218.398 483.625 219.155 482.05 220.568C480.475 221.98 479.503 223.941 479.335 226.047L471.166 279.807H521.541C526.101 279.818 530.563 278.48 534.36 275.963C535.933 259.324 537.506 242.69 539.078 226.06C539.564 220.939 536.584 218.292 531.988 218.466Z" fill="#263238"/>
<path opacity="0.2" d="M499.905 214.046C505.261 214.921 510.725 214.921 516.081 214.046C521.985 213.266 527.229 206.976 527.836 201.13V200.861C528.442 195.015 524.277 191.802 518.521 192.568C513.289 193.415 507.954 193.415 502.722 192.568C501.425 192.323 500.091 192.347 498.803 192.637C497.515 192.927 496.301 193.478 495.235 194.256C494.17 195.033 493.276 196.021 492.609 197.157C491.942 198.293 491.517 199.554 491.359 200.861V201.13C490.496 206.976 494.203 213.266 499.905 214.046Z" fill="white"/>
<path opacity="0.2" d="M523.522 218.937C510.42 222.418 503.491 222.418 491.251 218.937C485.387 217.271 480.265 219.878 479.335 226.047L471.166 279.807H521.541C523.98 279.806 526.404 279.425 528.726 278.678C530.37 261.134 532.024 243.595 533.686 226.06C534.266 219.878 529.764 217.271 523.522 218.937Z" fill="white"/>
<path d="M442.67 253.223L433.382 254.11L419.161 250.777L413.998 259.258L417.314 260.951L421.951 259.527L428.354 260.79L434.124 259.89L445.083 260.158L442.67 253.223Z" fill="#FFC3BD"/>
<path d="M438.906 252.874L441.117 260.79C441.117 260.79 457.131 262.954 463.426 260.212C469.722 257.47 464.963 211.129 458.911 211.64C452.858 212.151 456.215 237.781 456.215 245.831C456.188 251.987 438.906 252.874 438.906 252.874Z" fill="#3C63B0"/>
<path opacity="0.7" d="M438.906 252.874L441.117 260.79C441.117 260.79 457.131 262.954 463.426 260.212C469.722 257.47 464.963 211.129 458.911 211.64C452.858 212.151 456.215 237.781 456.215 245.831C456.188 251.987 438.906 252.874 438.906 252.874Z" fill="white"/>
<path d="M457.712 211.707C451.646 220.349 465.598 233.937 465.881 279.794H510.891C512.239 267.416 516.849 218.857 510.365 209.691C502.91 199.181 463.495 203.455 457.712 211.707Z" fill="#3C63B0"/>
<path d="M472.27 203.508C472.27 203.508 461.486 207.54 471.245 217.056L476.448 214.932L483.93 217.056C483.93 217.056 502.896 196.224 472.27 203.508Z" fill="#3C63B0"/>
<path opacity="0.7" d="M472.27 203.508C472.27 203.508 461.486 207.54 471.245 217.056L476.448 214.932L483.93 217.056C483.93 217.056 502.896 196.224 472.27 203.508Z" fill="white"/>
<path d="M473.767 213.225C471.071 211.061 468.052 207.755 470.653 205.591C476.007 204.329 481.478 203.631 486.978 203.508C488.501 204.502 487.652 207.11 479.523 213.306C478.695 213.941 477.676 214.278 476.631 214.264C475.586 214.249 474.577 213.883 473.767 213.225Z" fill="#FFC3BD"/>
<path d="M471.002 199.53L480.034 189.759C480.896 197.258 484.9 203.4 485.709 203.656L484.725 207.083C473.779 219.354 471.245 207.58 471.245 207.58C473.914 205.349 471.002 199.53 471.002 199.53Z" fill="#FFC3BD"/>
<path opacity="0.2" d="M476.421 193.671L480.627 193.254C480.627 193.254 480.451 205.834 471.811 206.909C473.415 204.369 471.002 199.53 471.002 199.53L476.421 193.671Z" fill="#263238"/>
<path d="M478.807 178.993C480.762 187.891 482.366 192.971 479.279 198.858C478.293 200.777 476.801 202.392 474.962 203.528C473.123 204.664 471.008 205.278 468.845 205.302C466.682 205.327 464.553 204.763 462.688 203.67C460.823 202.576 459.293 200.996 458.264 199.1C454.22 191.869 451.645 178.55 459.126 172.354C460.71 170.973 462.629 170.03 464.693 169.621C466.756 169.212 468.891 169.351 470.884 170.023C472.877 170.696 474.658 171.878 476.048 173.452C477.439 175.026 478.39 176.937 478.807 178.993Z" fill="#FFC3BD"/>
<path d="M466.405 185.661C466.608 186.373 466.405 187.005 465.92 187.18C465.435 187.354 464.923 186.87 464.72 186.158C464.518 185.446 464.72 184.814 465.206 184.653C465.691 184.492 466.19 184.962 466.405 185.661Z" fill="#263238"/>
<path d="M458.427 188.227C458.642 188.939 458.427 189.571 457.955 189.732C457.483 189.894 456.957 189.423 456.742 188.711C456.526 187.999 456.742 187.367 457.24 187.206C457.739 187.044 458.224 187.515 458.427 188.227Z" fill="#263238"/>
<path d="M468.106 182.286C468.173 182.263 468.237 182.232 468.295 182.192C468.375 182.112 468.42 182.003 468.42 181.89C468.42 181.777 468.375 181.668 468.295 181.588C467.751 181.165 467.112 180.881 466.434 180.76C465.755 180.638 465.057 180.682 464.399 180.889C464.292 180.928 464.205 181.008 464.157 181.111C464.109 181.215 464.104 181.333 464.143 181.44C464.161 181.494 464.19 181.543 464.228 181.586C464.266 181.628 464.312 181.663 464.364 181.687C464.416 181.71 464.472 181.724 464.529 181.725C464.586 181.727 464.643 181.716 464.696 181.695C465.208 181.537 465.75 181.503 466.278 181.596C466.806 181.69 467.303 181.908 467.729 182.233C467.782 182.273 467.845 182.299 467.911 182.309C467.977 182.318 468.044 182.31 468.106 182.286Z" fill="#263238"/>
<path d="M454.275 186.561C454.34 186.537 454.397 186.495 454.44 186.44C454.483 186.386 454.51 186.321 454.518 186.252C454.592 185.696 454.793 185.164 455.107 184.698C455.42 184.232 455.836 183.844 456.324 183.564C456.42 183.496 456.486 183.394 456.509 183.279C456.531 183.164 456.509 183.044 456.446 182.946C456.389 182.874 456.314 182.819 456.228 182.789C456.142 182.758 456.049 182.751 455.96 182.771C455.352 183.105 454.83 183.574 454.434 184.143C454.039 184.712 453.782 185.365 453.682 186.05C453.663 186.162 453.689 186.278 453.754 186.371C453.82 186.464 453.92 186.528 454.033 186.547C454.07 186.567 454.111 186.578 454.153 186.58C454.194 186.582 454.236 186.576 454.275 186.561Z" fill="#263238"/>
<path d="M467.014 196.868C466.616 196.977 466.21 197.058 465.801 197.11C465.769 197.116 465.737 197.115 465.707 197.108C465.676 197.101 465.647 197.087 465.622 197.068C465.596 197.049 465.575 197.026 465.56 196.998C465.544 196.971 465.534 196.94 465.531 196.909C465.523 196.843 465.541 196.777 465.582 196.724C465.622 196.671 465.681 196.636 465.747 196.626C466.783 196.519 467.78 196.17 468.656 195.608C469.532 195.045 470.262 194.284 470.788 193.387C470.801 193.358 470.82 193.332 470.844 193.31C470.867 193.288 470.895 193.272 470.926 193.262C470.957 193.252 470.989 193.248 471.021 193.251C471.053 193.254 471.084 193.264 471.112 193.28C471.141 193.293 471.168 193.312 471.19 193.335C471.212 193.358 471.229 193.386 471.24 193.416C471.251 193.446 471.257 193.478 471.255 193.51C471.254 193.542 471.247 193.573 471.233 193.602C470.782 194.399 470.177 195.097 469.453 195.658C468.728 196.219 467.899 196.63 467.014 196.868Z" fill="#263238"/>
<path d="M461.204 187.771C460.978 190.214 460.434 192.617 459.586 194.921C460.171 195.114 460.792 195.176 461.405 195.104C462.017 195.032 462.607 194.828 463.131 194.504L461.204 187.771Z" fill="#ED893E"/>
<path d="M473.955 165.688C445.216 160.177 453.627 183.522 453.627 183.522C453.627 183.522 453.843 179.49 457.59 179.49C460.188 179.284 462.653 178.258 464.627 176.56C463.3 178.155 461.554 179.351 459.585 180.015C462.123 180.036 464.626 179.418 466.86 178.218C469.094 177.017 470.988 175.273 472.364 173.147C472.498 173.803 472.584 174.467 472.621 175.136C472.621 178.415 475.317 180.189 476.665 184.665C478.013 189.14 483.337 184.665 483.337 184.665C490.778 165.567 473.955 165.688 473.955 165.688Z" fill="#263238"/>
<path d="M484.202 185.31C484.163 187.345 483.354 189.289 481.937 190.754C480.077 192.649 477.893 191.224 477.448 188.711C477.003 186.439 477.448 182.743 479.834 181.803C482.22 180.862 484.229 182.784 484.202 185.31Z" fill="#FFC3BD"/>
<path d="M474.495 166.978C474.495 166.978 468.416 159.586 464.21 161.602C460.004 163.618 471.799 163.968 474.495 166.978Z" fill="#263238"/>
<path d="M473.97 254.768L464.682 255.655L450.461 250.897L443.883 257.967L447.185 259.647H453.251L459.668 262.321L465.424 261.434L476.383 261.703L473.97 254.768Z" fill="#FFC3BD"/>
<path d="M508.087 208.938C505.108 206.909 501.914 208.938 498.651 227.431C494.81 249.46 492.262 250.454 470.182 254.405L472.581 262.322C472.581 262.322 491.453 264.647 500.552 258.733C509.651 252.82 516.149 214.421 508.087 208.938Z" fill="#3C63B0"/>
<path opacity="0.7" d="M508.087 208.938C505.108 206.909 501.914 208.938 498.651 227.431C494.81 249.46 492.262 250.454 470.182 254.405L472.581 262.322C472.581 262.322 491.453 264.647 500.552 258.733C509.651 252.82 516.149 214.421 508.087 208.938Z" fill="white"/>
<path d="M481.235 264.539H358.041C358.836 266.698 359.949 268.728 361.344 270.56H481.235C482.036 270.56 482.804 270.243 483.37 269.678C483.936 269.114 484.254 268.348 484.254 267.55C484.254 266.751 483.936 265.985 483.37 265.421C482.804 264.856 482.036 264.539 481.235 264.539Z" fill="#263238"/>
<path opacity="0.6" d="M481.235 264.539H358.041C358.836 266.698 359.949 268.728 361.344 270.56H481.235C482.036 270.56 482.804 270.243 483.37 269.678C483.936 269.114 484.254 268.348 484.254 267.55C484.254 266.751 483.936 265.985 483.37 265.421C482.804 264.856 482.036 264.539 481.235 264.539Z" fill="white"/>
<path d="M379.879 279.794H478.404V270.561H361.344C363.502 273.429 366.301 275.757 369.518 277.359C372.735 278.962 376.282 279.795 379.879 279.794Z" fill="#263238"/>
<path opacity="0.4" d="M379.879 279.794H478.404V270.561H361.344C363.502 273.429 366.301 275.757 369.518 277.359C372.735 278.962 376.282 279.795 379.879 279.794Z" fill="white"/>
<path d="M462.243 260.629H390.462C389.969 260.67 389.511 260.893 389.176 261.255C388.842 261.618 388.656 262.092 388.656 262.584C388.656 263.077 388.842 263.551 389.176 263.913C389.511 264.275 389.969 264.499 390.462 264.54H462.243C462.514 264.562 462.787 264.528 463.044 264.44C463.302 264.352 463.538 264.212 463.738 264.028C463.938 263.844 464.098 263.621 464.208 263.373C464.317 263.124 464.373 262.856 464.373 262.584C464.373 262.313 464.317 262.045 464.208 261.796C464.098 261.548 463.938 261.324 463.738 261.141C463.538 260.957 463.302 260.816 463.044 260.728C462.787 260.64 462.514 260.606 462.243 260.629Z" fill="#263238"/>
<path opacity="0.3" d="M462.243 260.629H390.462C389.969 260.67 389.511 260.893 389.176 261.255C388.842 261.618 388.656 262.092 388.656 262.584C388.656 263.077 388.842 263.551 389.176 263.913C389.511 264.275 389.969 264.499 390.462 264.54H462.243C462.514 264.562 462.787 264.528 463.044 264.44C463.302 264.352 463.538 264.212 463.738 264.028C463.938 263.844 464.098 263.621 464.208 263.373C464.317 263.124 464.373 262.856 464.373 262.584C464.373 262.313 464.317 262.045 464.208 261.796C464.098 261.548 463.938 261.324 463.738 261.141C463.538 260.957 463.302 260.816 463.044 260.728C462.787 260.64 462.514 260.606 462.243 260.629Z" fill="white"/>
<path d="M391.524 263.343H416.058C416.206 263.343 416.353 263.307 416.485 263.239C416.617 263.171 416.731 263.072 416.817 262.951C416.902 262.83 416.958 262.69 416.978 262.543C416.999 262.396 416.983 262.246 416.934 262.107L403.454 223.789C403.276 223.272 402.939 222.824 402.492 222.508C402.044 222.192 401.508 222.024 400.96 222.028H376.426C376.278 222.026 376.132 222.06 375.999 222.127C375.867 222.193 375.753 222.291 375.667 222.411C375.581 222.531 375.525 222.671 375.505 222.817C375.484 222.963 375.5 223.112 375.55 223.251L389.03 261.582C389.218 262.093 389.557 262.535 390.003 262.849C390.448 263.163 390.978 263.336 391.524 263.343Z" fill="#263238"/>
<path opacity="0.5" d="M391.524 263.343H416.058C416.206 263.343 416.353 263.307 416.485 263.239C416.617 263.171 416.731 263.072 416.817 262.951C416.902 262.83 416.958 262.69 416.978 262.543C416.999 262.396 416.983 262.246 416.934 262.107L403.454 223.789C403.276 223.272 402.939 222.824 402.492 222.508C402.044 222.192 401.508 222.024 400.96 222.028H376.426C376.278 222.026 376.132 222.06 375.999 222.127C375.867 222.193 375.753 222.291 375.667 222.411C375.581 222.531 375.525 222.671 375.505 222.817C375.484 222.963 375.5 223.112 375.55 223.251L389.03 261.582C389.218 262.093 389.557 262.535 390.003 262.849C390.448 263.163 390.978 263.336 391.524 263.343Z" fill="white"/>
<path d="M390.339 263.343H414.886C415.034 263.34 415.179 263.302 415.309 263.233C415.44 263.164 415.552 263.066 415.637 262.945C415.722 262.825 415.778 262.686 415.8 262.541C415.822 262.395 415.809 262.246 415.762 262.107L402.282 223.789C402.104 223.272 401.768 222.824 401.32 222.508C400.873 222.192 400.337 222.024 399.788 222.028H375.255C375.108 222.029 374.963 222.065 374.832 222.132C374.702 222.2 374.589 222.297 374.503 222.417C374.418 222.536 374.362 222.674 374.34 222.819C374.319 222.964 374.332 223.112 374.379 223.251L387.859 261.582C388.046 262.091 388.383 262.531 388.826 262.845C389.268 263.159 389.796 263.333 390.339 263.343Z" fill="#263238"/>
<path opacity="0.7" d="M390.339 263.343H414.886C415.034 263.34 415.179 263.302 415.309 263.233C415.44 263.164 415.552 263.066 415.637 262.945C415.722 262.825 415.778 262.686 415.8 262.541C415.822 262.395 415.809 262.246 415.762 262.107L402.282 223.789C402.104 223.272 401.768 222.824 401.32 222.508C400.873 222.192 400.337 222.024 399.788 222.028H375.255C375.108 222.029 374.963 222.065 374.832 222.132C374.702 222.2 374.589 222.297 374.503 222.417C374.418 222.536 374.362 222.674 374.34 222.819C374.319 222.964 374.332 223.112 374.379 223.251L387.859 261.582C388.046 262.091 388.383 262.531 388.826 262.845C389.268 263.159 389.796 263.333 390.339 263.343Z" fill="white"/>
<path d="M393.089 242.686C393.399 244.151 394.437 245.374 395.367 245.374C396.297 245.374 396.809 244.178 396.499 242.686C396.189 241.194 395.151 239.998 394.221 239.998C393.291 239.998 392.779 241.208 393.089 242.686Z" fill="white"/>
<path opacity="0.2" d="M419.227 264.54C418.735 264.499 418.276 264.275 417.942 263.913C417.607 263.551 417.422 263.077 417.422 262.584C417.422 262.092 417.607 261.618 417.942 261.255C418.276 260.893 418.735 260.67 419.227 260.629H462.255C462.527 260.606 462.8 260.64 463.057 260.728C463.314 260.816 463.551 260.957 463.751 261.141C463.951 261.324 464.111 261.548 464.22 261.796C464.33 262.045 464.386 262.313 464.386 262.584C464.386 262.856 464.33 263.124 464.22 263.373C464.111 263.621 463.951 263.844 463.751 264.028C463.551 264.212 463.314 264.352 463.057 264.44C462.8 264.528 462.527 264.562 462.255 264.54H419.227Z" fill="white"/>
<path d="M375.619 200.081H370.699V210.766H375.619V200.081Z" fill="#3C63B0"/>
<path d="M434.553 200.081H429.633V210.766H434.553V200.081Z" fill="#3C63B0"/>
<path d="M405.005 179.423H404.426C405.585 162.26 403.078 156.683 400.678 155.03C400.312 154.748 399.883 154.56 399.427 154.48C398.972 154.4 398.504 154.432 398.063 154.573L397.834 154.049C398.363 153.862 398.93 153.811 399.483 153.9C400.037 153.989 400.559 154.216 401.002 154.559C403.482 156.266 406.178 161.992 405.005 179.423Z" fill="#3C63B0"/>
<path d="M401.701 177.69C401.135 163.094 403.669 157.637 405.907 155.648C406.253 155.286 406.673 155.002 407.138 154.814C407.602 154.626 408.102 154.54 408.603 154.559L408.522 155.137C408.106 155.132 407.693 155.216 407.312 155.383C406.931 155.55 406.59 155.796 406.312 156.105C404.195 158.04 401.782 163.349 402.335 177.609L401.701 177.69Z" fill="#3C63B0"/>
<path d="M404.196 177.69H403.63C404.223 168.927 403.132 163.713 400.489 162.611C397.025 161.159 391.862 166.925 391.808 166.992L391.377 166.602C391.593 166.36 396.863 160.474 400.705 162.073C403.644 163.256 404.83 168.524 404.196 177.69Z" fill="#3C63B0"/>
<path d="M402.742 178.254C402.742 172.878 403.861 169.531 406.085 168.375C408.579 167.031 411.477 168.993 411.599 169.088L411.262 169.558C411.262 169.558 408.566 167.73 406.355 168.886C404.144 170.042 403.322 173.093 403.322 178.294L402.742 178.254Z" fill="#3C63B0"/>
<g opacity="0.2">
<path opacity="0.2" d="M405.005 179.423H404.426C405.585 162.26 403.078 156.683 400.678 155.03C400.312 154.748 399.883 154.56 399.427 154.48C398.972 154.4 398.504 154.432 398.063 154.573L397.834 154.049C398.363 153.862 398.93 153.811 399.483 153.9C400.037 153.989 400.559 154.216 401.002 154.559C403.482 156.266 406.178 161.992 405.005 179.423Z" fill="black"/>
<path opacity="0.2" d="M401.703 177.69C401.137 163.094 403.671 157.637 405.909 155.648C406.255 155.286 406.675 155.002 407.139 154.814C407.604 154.626 408.104 154.54 408.605 154.559L408.524 155.137C408.108 155.132 407.695 155.216 407.314 155.383C406.933 155.55 406.592 155.796 406.314 156.105C404.197 158.04 401.784 163.349 402.337 177.609L401.703 177.69Z" fill="black"/>
<path opacity="0.2" d="M404.196 177.689H403.63C404.223 168.926 403.132 163.712 400.489 162.61C397.025 161.158 391.862 166.924 391.808 166.991L391.377 166.601C391.593 166.359 396.863 160.473 400.705 162.072C403.644 163.255 404.83 168.523 404.196 177.689Z" fill="black"/>
<path opacity="0.2" d="M402.74 178.254C402.74 172.878 403.859 169.531 406.083 168.375C408.577 167.031 411.475 168.993 411.597 169.088L411.26 169.558C411.26 169.558 408.564 167.73 406.353 168.886C404.142 170.042 403.32 173.093 403.32 178.294L402.74 178.254Z" fill="black"/>
</g>
<path d="M389.678 176.709L392.158 190.848C392.432 192.409 393.25 193.824 394.468 194.843C395.687 195.861 397.227 196.417 398.817 196.412H408.685C410.274 196.417 411.815 195.861 413.033 194.843C414.252 193.824 415.07 192.409 415.344 190.848L417.878 176.709H389.678Z" fill="#263238"/>
<path opacity="0.3" d="M389.678 176.709L392.158 190.848C392.432 192.409 393.25 193.824 394.468 194.843C395.687 195.861 397.227 196.417 398.817 196.412H408.685C410.274 196.417 411.815 195.861 413.033 194.843C414.252 193.824 415.07 192.409 415.344 190.848L417.878 176.709H389.678Z" fill="white"/>
<path d="M399.088 154.157C399.088 154.157 404.951 144.346 394.639 144.211C393.158 144.201 391.683 144.4 390.258 144.803C391.606 145.717 393.763 147.383 392.644 147.8C391.525 148.216 387.252 147.397 385.284 146.953C381.928 149.021 378.973 151.675 376.562 154.789C378.646 156.743 380.871 158.54 383.222 160.165C384.246 159.143 385.796 157.866 386.686 158.364C387.576 158.861 388.533 161.616 389.112 163.565C391.045 164.497 393.109 165.132 395.232 165.447C395.232 163.887 395.232 161.415 395.96 160.944C396.688 160.474 399.452 163.135 400.988 164.707C408.861 161.28 399.088 154.157 399.088 154.157Z" fill="#3C63B0"/>
<path opacity="0.1" d="M399.088 154.157C399.088 154.157 404.951 144.346 394.639 144.211C393.158 144.201 391.683 144.4 390.258 144.803C391.606 145.717 393.763 147.383 392.644 147.8C391.525 148.216 387.252 147.397 385.284 146.953C381.928 149.021 378.973 151.675 376.562 154.789C378.646 156.743 380.871 158.54 383.222 160.165C384.246 159.143 385.796 157.866 386.686 158.364C387.576 158.861 388.533 161.616 389.112 163.565C391.045 164.497 393.109 165.132 395.232 165.447C395.232 163.887 395.232 161.415 395.96 160.944C396.688 160.474 399.452 163.135 400.988 164.707C408.861 161.28 399.088 154.157 399.088 154.157Z" fill="white"/>
<path opacity="0.3" d="M399.088 154.157C399.088 154.157 404.951 144.346 394.639 144.211C393.158 144.201 391.683 144.4 390.258 144.803C391.606 145.717 393.763 147.383 392.644 147.8C391.525 148.216 387.252 147.397 385.284 146.953C381.928 149.021 378.973 151.675 376.562 154.789C387.791 150.031 399.088 154.157 399.088 154.157Z" fill="white"/>
<path d="M411.286 160.796C412.364 160.487 413.712 162.651 414.413 163.941C416.678 162.934 418.766 161.573 420.601 159.909C420.102 158.807 419.536 157.301 419.9 156.723C420.264 156.146 422.218 156.603 423.62 157.033C424.892 155.704 426.076 154.294 427.165 152.812C426.096 151.952 424.965 151.171 423.782 150.474C421.76 150.702 418.902 150.877 418.201 150.178C417.5 149.479 419.05 148.834 420.169 148.633C418.29 147.804 416.302 147.247 414.265 146.979C413.995 147.893 413.402 149.305 412.31 149.305C411.218 149.305 410.073 148.082 409.318 147.181C400.879 148.995 407.579 155.017 407.579 155.017C407.579 155.017 400.313 163.618 408.927 164.761C409.399 163.323 410.261 161.091 411.286 160.796Z" fill="#3C63B0"/>
<path opacity="0.2" d="M411.286 160.796C412.364 160.487 413.712 162.651 414.413 163.941C416.678 162.934 418.766 161.573 420.601 159.909C420.102 158.807 419.536 157.301 419.9 156.723C420.264 156.146 422.218 156.603 423.62 157.033C424.892 155.704 426.076 154.294 427.165 152.812C426.096 151.952 424.965 151.171 423.782 150.474C421.76 150.702 418.902 150.877 418.201 150.178C417.5 149.479 419.05 148.834 420.169 148.633C418.29 147.804 416.302 147.247 414.265 146.979C413.995 147.893 413.402 149.305 412.31 149.305C411.218 149.305 410.073 148.082 409.318 147.181C400.879 148.995 407.579 155.017 407.579 155.017C407.579 155.017 400.313 163.618 408.927 164.761C409.399 163.323 410.261 161.091 411.286 160.796Z" fill="white"/>
<path opacity="0.3" d="M418.203 150.218C417.462 149.479 419.052 148.874 420.171 148.673C418.292 147.844 416.304 147.287 414.267 147.02C413.997 147.933 413.404 149.345 412.312 149.345C411.22 149.345 410.075 148.122 409.32 147.221C400.881 149.036 407.581 155.057 407.581 155.057C407.581 155.057 418.54 151.025 427.167 152.853C426.098 151.992 424.967 151.211 423.784 150.514C421.762 150.742 418.904 150.917 418.203 150.218Z" fill="white"/>
<path d="M423.634 168.349C422.462 168.981 420.211 170.002 419.307 169.102C418.404 168.201 419.779 164.398 420.467 162.825C419.422 161.524 418.095 160.476 416.584 159.761C407.418 155.729 410.532 168.847 410.532 168.847C410.532 168.847 399.006 171.629 406.42 178.752C406.966 179.237 407.542 179.686 408.146 180.096C408.726 178.752 409.858 176.48 410.99 176.79C412.123 177.099 411.691 180.015 411.314 181.83C413.263 182.627 415.313 183.152 417.407 183.389C417.676 182.045 418.189 180.418 419.011 180.459C419.833 180.499 421.033 182.354 421.707 183.631C423.442 183.618 425.174 183.461 426.883 183.16C426.507 178.095 425.414 173.108 423.634 168.349Z" fill="#3C63B0"/>
<path opacity="0.2" d="M410.532 168.847C410.532 168.847 399.006 171.629 406.42 178.752C406.966 179.237 407.542 179.686 408.146 180.096C408.726 178.752 409.858 176.481 410.99 176.79C412.123 177.099 411.691 180.015 411.314 181.83C413.263 182.627 415.313 183.152 417.407 183.389C417.676 182.045 418.189 180.419 419.011 180.459C419.833 180.499 421.033 182.354 421.707 183.631C423.442 183.618 425.174 183.461 426.883 183.16C425.276 179.792 422.998 176.785 420.186 174.324C417.375 171.863 414.09 169.999 410.532 168.847Z" fill="white"/>
<path d="M392.549 166.051C392.549 166.051 386.348 155.823 381.765 165.043C381.054 166.507 380.572 168.071 380.336 169.68C382.237 168.847 386.308 167.315 386.362 169.384C386.415 171.454 382.061 175.903 380.592 177.26C381.188 180.255 382.195 183.154 383.585 185.875C385.464 185.136 387.3 184.293 389.084 183.348C389.26 181.695 389.732 178.416 390.958 177.69C392.185 176.964 393.128 179.599 393.439 180.808C395.383 179.558 397.19 178.108 398.831 176.481C397.644 175.137 396.013 172.986 396.498 171.884C396.984 170.782 400.367 171.199 402.227 171.588C402.567 170.785 402.793 169.94 402.901 169.075C404.101 159.143 392.549 166.051 392.549 166.051Z" fill="#3C63B0"/>
<path opacity="0.2" d="M383.613 185.875C385.492 185.136 387.329 184.292 389.113 183.348C389.288 181.695 389.76 178.416 390.987 177.69C392.214 176.964 393.157 179.599 393.467 180.808C395.412 179.558 397.219 178.108 398.859 176.48C397.673 175.136 396.042 172.986 396.527 171.884C397.012 170.782 400.396 171.199 402.256 171.588C402.595 170.785 402.822 169.94 402.93 169.075C404.076 159.143 392.524 166.051 392.524 166.051C392.524 166.051 385.716 172.408 383.613 185.875Z" fill="white"/>
<path d="M440.633 195.189H364.633V201.224H440.633V195.189Z" fill="#3C63B0"/>
<path opacity="0.3" d="M440.633 195.189H364.633V201.224H440.633V195.189Z" fill="white"/>
<path d="M521.54 101.929H379.879C372.203 101.939 364.844 104.984 359.416 110.396C353.989 115.808 350.935 123.145 350.924 130.798V256.61C350.931 264.264 353.984 271.603 359.412 277.015C364.841 282.428 372.202 285.472 379.879 285.479H521.54C529.217 285.472 536.578 282.428 542.007 277.015C547.435 271.603 550.488 264.264 550.495 256.61V130.798C550.485 123.145 547.43 115.808 542.003 110.396C536.575 104.984 529.216 101.939 521.54 101.929ZM544.793 256.61C544.793 262.758 542.343 268.655 537.983 273.003C533.622 277.351 527.707 279.794 521.54 279.794H379.879C373.712 279.794 367.797 277.351 363.437 273.003C359.076 268.655 356.626 262.758 356.626 256.61V130.798C356.626 124.649 359.076 118.752 363.437 114.404C367.797 110.056 373.712 107.614 379.879 107.614H521.54C527.707 107.614 533.622 110.056 537.983 114.404C542.343 118.752 544.793 124.649 544.793 130.798V256.61Z" fill="#3C63B0"/>
<path opacity="0.4" d="M521.54 101.929H379.879C372.203 101.939 364.844 104.984 359.416 110.396C353.989 115.808 350.935 123.145 350.924 130.798V256.61C350.931 264.264 353.984 271.603 359.412 277.015C364.841 282.428 372.202 285.472 379.879 285.479H521.54C529.217 285.472 536.578 282.428 542.007 277.015C547.435 271.603 550.488 264.264 550.495 256.61V130.798C550.485 123.145 547.43 115.808 542.003 110.396C536.575 104.984 529.216 101.939 521.54 101.929ZM544.793 256.61C544.793 262.758 542.343 268.655 537.983 273.003C533.622 277.351 527.707 279.794 521.54 279.794H379.879C373.712 279.794 367.797 277.351 363.437 273.003C359.076 268.655 356.626 262.758 356.626 256.61V130.798C356.626 124.649 359.076 118.752 363.437 114.404C367.797 110.056 373.712 107.614 379.879 107.614H521.54C527.707 107.614 533.622 110.056 537.983 114.404C542.343 118.752 544.793 124.649 544.793 130.798V256.61Z" fill="white"/>
<path d="M504.15 147.678H486.396C484.498 147.678 482.959 149.212 482.959 151.105V154.223C482.959 156.116 484.498 157.65 486.396 157.65H504.15C506.048 157.65 507.587 156.116 507.587 154.223V151.105C507.587 149.212 506.048 147.678 504.15 147.678Z" fill="#3C63B0"/>
<path d="M519.626 135.341H501.873C499.975 135.341 498.436 136.875 498.436 138.768V141.886C498.436 143.779 499.975 145.313 501.873 145.313H519.626C521.525 145.313 523.063 143.779 523.063 141.886V138.768C523.063 136.875 521.525 135.341 519.626 135.341Z" fill="#3C63B0"/>
<path d="M514.06 160.017H496.307C494.408 160.017 492.869 161.551 492.869 163.444V166.562C492.869 168.455 494.408 169.989 496.307 169.989H514.06C515.958 169.989 517.497 168.455 517.497 166.562V163.444C517.497 161.551 515.958 160.017 514.06 160.017Z" fill="#3C63B0"/>
<path d="M531.935 147.678H514.182C512.283 147.678 510.744 149.212 510.744 151.105V154.223C510.744 156.116 512.283 157.65 514.182 157.65H531.935C533.833 157.65 535.372 156.116 535.372 154.223V151.105C535.372 149.212 533.833 147.678 531.935 147.678Z" fill="#3C63B0"/>
<path opacity="0.7" d="M504.15 147.678H486.396C484.498 147.678 482.959 149.212 482.959 151.105V154.223C482.959 156.116 484.498 157.65 486.396 157.65H504.15C506.048 157.65 507.587 156.116 507.587 154.223V151.105C507.587 149.212 506.048 147.678 504.15 147.678Z" fill="white"/>
<path opacity="0.8" d="M519.626 135.341H501.873C499.975 135.341 498.436 136.875 498.436 138.768V141.886C498.436 143.779 499.975 145.313 501.873 145.313H519.626C521.525 145.313 523.063 143.779 523.063 141.886V138.768C523.063 136.875 521.525 135.341 519.626 135.341Z" fill="white"/>
<path opacity="0.8" d="M514.06 160.017H496.307C494.408 160.017 492.869 161.551 492.869 163.444V166.562C492.869 168.455 494.408 169.989 496.307 169.989H514.06C515.958 169.989 517.497 168.455 517.497 166.562V163.444C517.497 161.551 515.958 160.017 514.06 160.017Z" fill="white"/>
<path opacity="0.7" d="M531.935 147.678H514.182C512.283 147.678 510.744 149.212 510.744 151.105V154.223C510.744 156.116 512.283 157.65 514.182 157.65H531.935C533.833 157.65 535.372 156.116 535.372 154.223V151.105C535.372 149.212 533.833 147.678 531.935 147.678Z" fill="white"/>
<path d="M460.071 134.158H477.824C479.723 134.158 481.262 132.624 481.262 130.731V127.613C481.262 125.72 479.723 124.186 477.824 124.186H460.071C458.173 124.186 456.634 125.72 456.634 127.613V130.731C456.634 132.624 458.173 134.158 460.071 134.158Z" fill="#3C63B0"/>
<path d="M450.138 146.496H467.891C469.789 146.496 471.328 144.962 471.328 143.069V139.951C471.328 138.058 469.789 136.524 467.891 136.524H450.138C448.239 136.524 446.7 138.058 446.7 139.951V143.069C446.7 144.962 448.239 146.496 450.138 146.496Z" fill="#3C63B0"/>
<path d="M432.263 134.158H450.016C451.914 134.158 453.453 132.624 453.453 130.731V127.613C453.453 125.72 451.914 124.186 450.016 124.186H432.263C430.364 124.186 428.825 125.72 428.825 127.613V130.731C428.825 132.624 430.364 134.158 432.263 134.158Z" fill="#3C63B0"/>
<path opacity="0.8" d="M460.071 134.158H477.824C479.723 134.158 481.262 132.624 481.262 130.731V127.613C481.262 125.72 479.723 124.186 477.824 124.186H460.071C458.173 124.186 456.634 125.72 456.634 127.613V130.731C456.634 132.624 458.173 134.158 460.071 134.158Z" fill="white"/>
<path opacity="0.8" d="M450.138 146.496H467.891C469.789 146.496 471.328 144.962 471.328 143.069V139.951C471.328 138.058 469.789 136.524 467.891 136.524H450.138C448.239 136.524 446.7 138.058 446.7 139.951V143.069C446.7 144.962 448.239 146.496 450.138 146.496Z" fill="white"/>
<path opacity="0.7" d="M432.263 134.158H450.016C451.914 134.158 453.453 132.624 453.453 130.731V127.613C453.453 125.72 451.914 124.186 450.016 124.186H432.263C430.364 124.186 428.825 125.72 428.825 127.613V130.731C428.825 132.624 430.364 134.158 432.263 134.158Z" fill="white"/>
<path d="M303.383 158.793H222.691V249.661H303.383V158.793Z" fill="#263238"/>
<path d="M309.839 249.661H216.221V256.986H309.839V249.661Z" fill="#263238"/>
<g opacity="0.4">
<path opacity="0.4" d="M309.839 249.661H216.221V256.986H309.839V249.661Z" fill="white"/>
</g>
<path opacity="0.6" d="M303.383 158.793H222.691V249.661H303.383V158.793Z" fill="white"/>
<path opacity="0.5" d="M297.691 164.479H228.391V243.99H297.691V164.479Z" fill="white"/>
<g opacity="0.2">
<path opacity="0.2" d="M228.391 164.479V243.976H228.876L247.937 164.479H228.391Z" fill="white"/>
<path opacity="0.2" d="M287.825 164.479H284.252L265.205 243.976H268.777L287.825 164.479Z" fill="white"/>
<path opacity="0.2" d="M279.452 164.479H264.502L245.455 243.976H260.404L279.452 164.479Z" fill="white"/>
</g>
<path d="M176.064 232.068C173.368 232.256 169.876 230.065 168.191 227.216L166.843 224.998C162.947 218.654 154.401 214.112 148.51 214.542L147.041 214.649L142.889 214.945L141.42 215.053C135.529 215.483 134.195 220.738 137.686 227.149C138.185 228.036 138.427 228.493 138.899 229.38C140.395 232.242 139.277 234.756 136.54 234.957C131.822 235.293 129.8 239.648 131.66 244.782C137.646 265.95 139.29 283.758 137.052 303.138C141.335 307.106 146.965 309.31 152.811 309.307H200.665C202.511 285.115 199.02 264.955 189.368 240.615C186.928 235.481 180.795 231.718 176.064 232.068Z" fill="#3C63B0"/>
<path opacity="0.1" d="M176.064 232.068C173.368 232.256 169.876 230.065 168.191 227.216L166.843 224.998C162.947 218.654 154.401 214.112 148.51 214.542L147.041 214.649L142.889 214.945L141.42 215.053C135.529 215.483 134.195 220.738 137.686 227.149C138.185 228.036 138.427 228.493 138.899 229.38C140.395 232.242 139.277 234.756 136.54 234.957C131.822 235.293 129.8 239.648 131.66 244.782C137.646 265.95 139.29 283.758 137.052 303.138C141.335 307.106 146.965 309.31 152.811 309.307H200.665C202.511 285.115 199.02 264.955 189.368 240.615C186.928 235.481 180.795 231.718 176.064 232.068Z" fill="black"/>
<path opacity="0.2" d="M176.064 232.068C173.368 232.256 169.876 230.065 168.191 227.216L166.843 224.998C162.948 218.654 154.401 214.112 148.51 214.542L147.041 214.649C141.137 215.066 139.87 220.321 143.455 226.745C143.954 227.632 144.197 228.089 144.682 228.976C146.219 231.826 145.127 234.352 142.391 234.554C137.673 234.89 135.731 239.231 137.619 244.365C144.359 267.106 145.963 286.029 143.011 307.197C146.051 308.592 149.356 309.316 152.703 309.321H200.557C202.404 285.129 198.912 264.969 189.261 240.629C186.928 235.481 180.795 231.718 176.064 232.068Z" fill="black"/>
<path d="M208.44 256.045C208.44 256.045 206.351 283.583 213.28 283.301C220.208 283.019 233.85 283.113 233.85 283.113L245.119 278.1C245.411 277.966 245.738 277.926 246.053 277.983C246.369 278.041 246.66 278.194 246.885 278.423L251.994 283.463C252.212 283.687 252.359 283.971 252.415 284.279C252.472 284.587 252.436 284.904 252.312 285.191C252.188 285.478 251.982 285.723 251.719 285.893C251.456 286.064 251.149 286.154 250.835 286.151L247.708 286.07C243.502 288.313 238.711 289.227 233.972 288.691C235.589 288.207 205.461 293.784 202.374 289.524C198.155 283.718 196.295 259.391 196.295 259.391L208.44 256.045Z" fill="#B55B52"/>
<path opacity="0.1" d="M208.44 256.045C208.44 256.045 206.351 283.583 213.28 283.301C220.208 283.019 233.85 283.113 233.85 283.113L245.119 278.1C245.411 277.966 245.738 277.926 246.053 277.983C246.369 278.041 246.66 278.194 246.885 278.423L251.994 283.463C252.212 283.687 252.359 283.971 252.415 284.279C252.472 284.587 252.436 284.904 252.312 285.191C252.188 285.478 251.982 285.723 251.719 285.893C251.456 286.064 251.149 286.154 250.835 286.151L247.708 286.07C243.502 288.313 238.711 289.227 233.972 288.691C235.589 288.207 205.461 293.784 202.374 289.524C198.155 283.718 196.295 259.391 196.295 259.391L208.44 256.045Z" fill="black"/>
<path d="M201.918 238.896C206.609 238.761 211.907 244.836 209.575 260.978L196.661 263.424C196.661 263.424 192.469 239.232 201.918 238.896Z" fill="#263238"/>
<path opacity="0.2" d="M201.918 238.896C206.609 238.761 211.907 244.836 209.575 260.978L196.661 263.424C196.661 263.424 192.469 239.232 201.918 238.896Z" fill="black"/>
<path d="M154.239 239.231C147.176 248.303 148.335 296.029 148.847 308.972C150.183 309.206 151.535 309.327 152.891 309.334H193.924C197.429 263.464 212.325 249.889 206.865 241.234C201.554 232.928 162.435 228.641 154.239 239.231Z" fill="#263238"/>
<path d="M188.315 244.836C188.315 244.836 198.546 238.493 194.394 235.052C189.035 233.796 183.56 233.098 178.056 232.969C176.385 234.071 177.598 237.135 188.315 244.836Z" fill="#B55B52"/>
<path d="M194.113 229.003L185.081 219.219C184.219 226.718 180.215 232.874 179.406 233.116L180.39 236.556C191.336 248.827 193.87 237.04 193.87 237.04C191.134 234.823 194.113 229.003 194.113 229.003Z" fill="#B55B52"/>
<path opacity="0.2" d="M188.628 223.103L184.422 222.673C184.422 222.673 184.597 235.253 193.238 236.341C191.634 233.801 194.047 228.963 194.047 228.963L188.628 223.103Z" fill="#263238"/>
<path d="M186.24 208.468C184.285 217.352 182.681 222.445 185.768 228.319C186.75 230.242 188.242 231.861 190.081 233C191.92 234.139 194.037 234.754 196.202 234.779C198.367 234.804 200.497 234.238 202.363 233.141C204.228 232.045 205.756 230.461 206.783 228.561C210.827 221.33 213.388 208.011 205.92 201.815C204.333 200.429 202.407 199.485 200.337 199.078C198.267 198.672 196.126 198.816 194.13 199.498C192.134 200.179 190.353 201.374 188.968 202.96C187.583 204.547 186.642 206.47 186.24 208.535V208.468Z" fill="#B55B52"/>
<path d="M198.654 215.134C198.452 215.833 198.654 216.478 199.139 216.639C199.625 216.801 200.137 216.33 200.339 215.631C200.541 214.932 200.339 214.22 199.854 214.112C199.368 214.005 198.856 214.422 198.654 215.134Z" fill="#263238"/>
<path d="M206.623 217.727C206.407 218.426 206.623 219.071 207.095 219.233C207.567 219.394 208.092 218.923 208.308 218.211C208.524 217.499 208.308 216.867 207.809 216.692C207.31 216.518 206.825 216.975 206.623 217.727Z" fill="#263238"/>
<path d="M196.943 211.747C196.872 211.735 196.807 211.702 196.754 211.653C196.715 211.614 196.684 211.568 196.663 211.517C196.642 211.467 196.631 211.412 196.631 211.357C196.631 211.302 196.642 211.248 196.663 211.197C196.684 211.146 196.715 211.1 196.754 211.062C197.295 210.633 197.934 210.345 198.614 210.223C199.294 210.101 199.993 210.149 200.65 210.363C200.704 210.381 200.754 210.409 200.797 210.447C200.839 210.485 200.874 210.531 200.898 210.583C200.922 210.635 200.935 210.691 200.936 210.747C200.938 210.804 200.927 210.861 200.906 210.914C200.864 211.018 200.783 211.102 200.679 211.147C200.576 211.192 200.459 211.195 200.354 211.156C199.843 210.994 199.301 210.958 198.773 211.049C198.245 211.14 197.747 211.357 197.32 211.68C197.269 211.722 197.207 211.751 197.141 211.763C197.074 211.775 197.006 211.769 196.943 211.747Z" fill="#263238"/>
<path d="M210.827 216.034C210.763 216.003 210.706 215.958 210.662 215.902C210.618 215.846 210.587 215.781 210.571 215.712C210.502 215.154 210.303 214.62 209.989 214.153C209.675 213.686 209.256 213.299 208.765 213.024C208.672 212.956 208.609 212.856 208.589 212.743C208.569 212.63 208.593 212.514 208.657 212.419C208.708 212.341 208.783 212.283 208.871 212.251C208.958 212.22 209.053 212.217 209.142 212.244C209.752 212.575 210.276 213.045 210.672 213.614C211.068 214.183 211.324 214.837 211.42 215.523C211.44 215.636 211.414 215.751 211.348 215.844C211.283 215.938 211.182 216.001 211.07 216.021C210.991 216.046 210.908 216.05 210.827 216.034Z" fill="#263238"/>
<path d="M198.033 226.329C198.429 226.451 198.835 226.532 199.247 226.571C199.277 226.577 199.308 226.576 199.338 226.57C199.368 226.563 199.396 226.551 199.421 226.534C199.447 226.516 199.468 226.494 199.484 226.468C199.501 226.442 199.511 226.413 199.516 226.383C199.52 226.351 199.517 226.319 199.509 226.288C199.5 226.257 199.485 226.228 199.465 226.203C199.445 226.178 199.42 226.158 199.392 226.142C199.364 226.127 199.333 226.117 199.301 226.114C198.267 225.999 197.273 225.646 196.399 225.084C195.524 224.522 194.792 223.766 194.259 222.875C194.246 222.846 194.227 222.819 194.204 222.797C194.18 222.775 194.153 222.758 194.123 222.747C194.093 222.736 194.061 222.73 194.028 222.732C193.996 222.733 193.965 222.74 193.936 222.754C193.878 222.785 193.833 222.837 193.811 222.899C193.788 222.961 193.79 223.029 193.814 223.09C194.265 223.883 194.871 224.579 195.595 225.135C196.32 225.691 197.149 226.097 198.033 226.329Z" fill="#263238"/>
<path d="M203.844 217.23C204.071 219.678 204.615 222.086 205.461 224.394C204.875 224.583 204.255 224.644 203.643 224.572C203.031 224.501 202.442 224.298 201.916 223.977L203.844 217.23Z" fill="#A02724"/>
<path d="M186.415 213.426C186.415 213.426 195.069 213.507 192.589 208.548C192.589 208.548 204.599 210.846 202.55 206.33C202.55 206.33 210.638 212.7 208.576 206.679C208.576 206.679 214.116 211.383 214.291 208.359C214.467 205.335 211.434 203.413 211.434 203.413C211.434 203.413 218.174 197.943 208.387 197.957C208.387 197.957 210.706 189.732 199.517 196.304C199.517 196.304 201.014 187.783 192.67 196.304C192.67 196.304 181.373 196.384 184.042 200.107C184.042 200.107 176.925 202.419 181.346 204.905C181.346 204.905 175.954 209.784 179.877 211.787C179.877 211.787 174.755 218.802 182.236 217.929C182.236 217.929 179.54 224.42 182.856 223.09C186.172 221.759 186.415 213.426 186.415 213.426Z" fill="#263238"/>
<path d="M180.848 214.771C180.904 216.782 181.712 218.699 183.113 220.147C184.973 222.055 187.157 220.617 187.601 218.117C188.033 215.846 187.601 212.136 185.215 211.196C182.829 210.255 180.821 212.257 180.848 214.771Z" fill="#B55B52"/>
<path opacity="0.3" d="M195.461 294.819C195.865 292.131 196.31 289.443 196.809 287.038L192.509 286.177L168.501 272.159L159.954 252.456L156.396 244.836L153.053 246.61C153.053 246.61 153.053 286.043 169.754 293.207C176.845 296.231 185.769 295.276 195.461 294.819Z" fill="black"/>
<path d="M168.041 254.594C168.041 254.594 172.934 278.934 188.261 281.675C203.588 284.417 205.785 284.363 205.785 284.363L218.146 280.331C218.508 280.214 218.897 280.211 219.261 280.322C219.625 280.432 219.947 280.651 220.182 280.95L223.309 284.982C223.516 285.246 223.647 285.562 223.687 285.896C223.726 286.229 223.674 286.567 223.535 286.873C223.396 287.179 223.176 287.441 222.899 287.631C222.622 287.821 222.297 287.932 221.961 287.952L216.677 288.301C215.229 289.452 213.559 290.293 211.771 290.771C209.983 291.25 208.115 291.356 206.284 291.083C206.284 291.083 181.548 293.771 172.934 288.839C164.321 283.906 157.486 263.679 157.486 263.679L168.041 254.594Z" fill="#B55B52"/>
<path d="M157.11 270.385C157.11 270.385 148.456 242.753 156.611 238.358C164.766 233.963 170.091 253.343 172.18 260.682L157.11 270.385Z" fill="#263238"/>
<path d="M238.435 288.354L208.59 289.779V293.999H238.435H257.657V288.354H238.435Z" fill="#3C63B0"/>
<path opacity="0.3" d="M238.435 293.999H208.59V289.779L238.435 288.354V293.999Z" fill="white"/>
<path opacity="0.6" d="M257.658 288.354H238.436V293.999H257.658V288.354Z" fill="white"/>
<path d="M304.056 279.444H240.996L247.359 227.754H310.418L304.056 279.444Z" fill="#3C63B0"/>
<path opacity="0.3" d="M304.056 279.444H240.996L247.359 227.754H310.418L304.056 279.444Z" fill="white"/>
<path d="M250.999 227.754L244.623 279.444H304.056L310.419 227.754H250.999Z" fill="#3C63B0"/>
<path opacity="0.6" d="M250.999 227.754L244.623 279.444H304.056L310.419 227.754H250.999Z" fill="white"/>
<path d="M283.526 293.852H270.114L268.766 272.522H279.631L283.526 293.852Z" fill="#3C63B0"/>
<path opacity="0.3" d="M283.526 293.852H270.114L268.766 272.522H279.631L283.526 293.852Z" fill="white"/>
<path d="M285.925 293.852H272.512L271.164 272.522H282.015L285.925 293.852Z" fill="#3C63B0"/>
<path opacity="0.5" d="M285.925 293.852H272.512L271.164 272.522H282.015L285.925 293.852Z" fill="white"/>
<path d="M276.623 290.129H274.453H255.918V294H274.453H276.623H295.158V290.129H276.623Z" fill="#3C63B0"/>
<path opacity="0.3" d="M276.623 290.129H274.453H255.918V294H274.453H276.623H295.158V290.129H276.623Z" fill="white"/>
<path d="M295.16 290.129H274.455V294H295.16V290.129Z" fill="#3C63B0"/>
<path opacity="0.6" d="M295.16 290.129H274.455V294H295.16V290.129Z" fill="white"/>
<path d="M196.404 300.034V309.267H294.431C298.027 309.265 301.572 308.429 304.789 306.827C308.005 305.225 310.805 302.899 312.966 300.034H196.404Z" fill="#263238"/>
<path opacity="0.3" d="M196.404 300.034V309.267H294.431C298.027 309.265 301.572 308.429 304.789 306.827C308.005 305.225 310.805 302.899 312.966 300.034H196.404Z" fill="white"/>
<path d="M316.254 294H190.566V300.035H312.965C314.36 298.2 315.469 296.165 316.254 294Z" fill="#263238"/>
<path opacity="0.5" d="M316.254 294H190.566V300.035H312.965C314.36 298.2 315.469 296.165 316.254 294Z" fill="white"/>
<path d="M294.431 131.402H152.77C145.092 131.409 137.732 134.453 132.303 139.866C126.874 145.278 123.822 152.617 123.814 160.271V286.083C123.822 293.736 126.875 301.074 132.304 306.484C137.733 311.895 145.094 314.935 152.77 314.939H294.431C302.104 314.932 309.462 311.889 314.888 306.479C320.314 301.07 323.365 293.734 323.372 286.083V160.271C323.369 152.618 320.319 145.279 314.892 139.867C309.466 134.454 302.107 131.409 294.431 131.402ZM317.684 286.083C317.68 292.231 315.229 298.126 310.869 302.473C306.509 306.82 300.597 309.264 294.431 309.267H152.77C146.601 309.267 140.685 306.825 136.322 302.478C131.959 298.13 129.507 292.233 129.503 286.083V160.271C129.507 154.121 131.959 148.225 136.322 143.877C140.685 139.53 146.601 137.087 152.77 137.087H294.431C300.599 137.091 306.514 139.537 310.874 143.887C315.234 148.237 317.684 154.135 317.684 160.285V286.083Z" fill="#3C63B0"/>
<path opacity="0.4" d="M294.431 131.402H152.77C145.092 131.409 137.732 134.453 132.303 139.866C126.874 145.278 123.822 152.617 123.814 160.271V286.083C123.822 293.736 126.875 301.074 132.304 306.484C137.733 311.895 145.094 314.935 152.77 314.939H294.431C302.104 314.932 309.462 311.889 314.888 306.479C320.314 301.07 323.365 293.734 323.372 286.083V160.271C323.369 152.618 320.319 145.279 314.892 139.867C309.466 134.454 302.107 131.409 294.431 131.402ZM317.684 286.083C317.68 292.231 315.229 298.126 310.869 302.473C306.509 306.82 300.597 309.264 294.431 309.267H152.77C146.601 309.267 140.685 306.825 136.322 302.478C131.959 298.13 129.507 292.233 129.503 286.083V160.271C129.507 154.121 131.959 148.225 136.322 143.877C140.685 139.53 146.601 137.087 152.77 137.087H294.431C300.599 137.091 306.514 139.537 310.874 143.887C315.234 148.237 317.684 154.135 317.684 160.285V286.083Z" fill="white"/>
<path d="M363.697 199.466C378.168 185.037 378.168 161.644 363.697 147.216C349.225 132.787 325.762 132.787 311.291 147.216C296.819 161.644 296.819 185.037 311.291 199.466C325.762 213.895 349.225 213.895 363.697 199.466Z" fill="#3C63B0"/>
<path opacity="0.3" d="M363.697 199.466C378.168 185.037 378.168 161.644 363.697 147.216C349.225 132.787 325.762 132.787 311.291 147.216C296.819 161.644 296.819 185.037 311.291 199.466C325.762 213.895 349.225 213.895 363.697 199.466Z" fill="black"/>
<path d="M373.554 179.261C378.255 159.401 365.919 139.502 346 134.815C326.082 130.128 306.124 142.427 301.422 162.287C296.721 182.146 309.057 202.045 328.976 206.732C348.894 211.419 368.852 199.12 373.554 179.261Z" fill="#3C63B0"/>
<path opacity="0.9" d="M368.043 177.965C372.026 161.14 361.575 144.281 344.7 140.31C327.824 136.339 310.915 146.759 306.932 163.584C302.949 180.409 313.401 197.268 330.276 201.239C347.151 205.21 364.06 194.79 368.043 177.965Z" fill="white"/>
<path d="M336.203 148.753C336.203 155.675 335.974 162.65 336.203 169.572C336.284 171.79 337.309 172.408 338.899 174.021L346.246 181.345C346.501 181.478 346.791 181.527 347.075 181.484C347.359 181.441 347.622 181.308 347.825 181.105C348.028 180.903 348.161 180.641 348.205 180.358C348.248 180.074 348.199 179.785 348.066 179.531L341.231 172.73C340.21 171.88 339.267 170.94 338.414 169.921C339.277 171.265 338.738 169.747 338.738 168.577V148.753C338.649 148.485 338.477 148.25 338.248 148.084C338.018 147.918 337.741 147.829 337.457 147.829C337.173 147.829 336.897 147.918 336.667 148.084C336.437 148.25 336.265 148.485 336.176 148.753H336.203Z" fill="#263238"/>
<path d="M396.219 549.333C395.391 549.336 394.591 549.031 393.977 548.476C393.364 547.921 392.98 547.158 392.903 546.336L391.838 535.261V443.305H400.586V535.261L399.521 546.336C399.444 547.156 399.063 547.917 398.452 548.472C397.841 549.026 397.045 549.333 396.219 549.333Z" fill="#263238"/>
<path opacity="0.3" d="M396.219 549.333C395.391 549.336 394.591 549.031 393.977 548.476C393.364 547.921 392.98 547.158 392.903 546.336L391.838 535.261V443.305H400.586V535.261L399.521 546.336C399.444 547.156 399.063 547.917 398.452 548.472C397.841 549.026 397.045 549.333 396.219 549.333Z" fill="white"/>
<path opacity="0.1" d="M400.586 453.694H391.838V464.406H400.586V453.694Z" fill="black"/>
<path d="M403.686 536.794V533.34C403.682 532.692 403.423 532.072 402.964 531.614C402.504 531.156 401.882 530.897 401.233 530.894H391.19C390.54 530.897 389.918 531.156 389.459 531.614C389 532.072 388.74 532.692 388.737 533.34V536.794L364.055 543.514C362.599 543.913 361.316 544.778 360.4 545.975C359.485 547.171 358.988 548.634 358.986 550.14H433.436C433.435 548.634 432.938 547.171 432.022 545.975C431.107 544.778 429.823 543.913 428.368 543.514L403.686 536.794Z" fill="#263238"/>
<path opacity="0.2" d="M403.686 536.794V533.34C403.682 532.692 403.423 532.072 402.964 531.614C402.504 531.156 401.882 530.897 401.233 530.894H391.19C390.54 530.897 389.918 531.156 389.459 531.614C389 532.072 388.74 532.692 388.737 533.34V536.794L364.055 543.514C362.599 543.913 361.316 544.778 360.4 545.975C359.485 547.171 358.988 548.634 358.986 550.14H433.436C433.435 548.634 432.938 547.171 432.022 545.975C431.107 544.778 429.823 543.913 428.368 543.514L403.686 536.794Z" fill="white"/>
<path opacity="0.1" d="M403.686 536.712V533.339C403.693 533.227 403.693 533.115 403.686 533.003H388.858C388.852 533.115 388.852 533.227 388.858 533.339V536.712H403.686Z" fill="black"/>
<path d="M435.835 353.472C419.389 354.05 405.168 367.973 403.483 384.384L397.349 442.619C397.188 443.834 397.292 445.069 397.654 446.239C398.016 447.41 398.627 448.489 399.447 449.402C400.266 450.315 401.274 451.04 402.401 451.528C403.529 452.016 404.748 452.255 405.977 452.229H455.583C458.222 452.171 460.751 451.168 462.709 449.404C464.667 447.639 465.923 445.231 466.246 442.619L472.46 383.671C474.253 366.656 461.568 352.934 444.3 353.539L435.835 353.472Z" fill="#263238"/>
<path opacity="0.2" d="M435.835 353.472C419.389 354.05 405.168 367.973 403.483 384.384L397.349 442.619C397.188 443.834 397.292 445.069 397.654 446.239C398.016 447.41 398.627 448.489 399.447 449.402C400.266 450.315 401.274 451.04 402.401 451.528C403.529 452.016 404.748 452.255 405.977 452.229H455.583C458.222 452.171 460.751 451.168 462.709 449.404C464.667 447.639 465.923 445.231 466.246 442.619L472.46 383.671C474.253 366.656 461.568 352.934 444.3 353.539L435.835 353.472Z" fill="white"/>
<path d="M463.995 383.644C465.787 366.629 453.089 352.907 435.835 353.511C419.389 354.089 405.168 368.013 403.483 384.423L397.349 442.659C397.188 443.873 397.292 445.108 397.654 446.279C398.016 447.45 398.627 448.529 399.447 449.442C400.266 450.354 401.274 451.08 402.401 451.568C403.529 452.056 404.748 452.295 405.977 452.269H447.158C449.797 452.211 452.326 451.208 454.284 449.443C456.242 447.679 457.498 445.271 457.821 442.659L463.995 383.644Z" fill="#263238"/>
<path d="M327.147 442.834C337.006 440.12 347.159 438.608 357.383 438.331C367.897 438.049 407.259 438.331 416.547 438.331C427.934 438.323 439.27 439.851 450.247 442.874C457.175 444.783 455.032 455.602 448.777 455.723C448.225 455.723 329.385 455.723 328.94 455.723C322.443 456.005 320.057 444.783 327.147 442.834Z" fill="#263238"/>
<path d="M447.078 455.455C427.092 449.958 405.986 449.958 386 455.455C378.452 457.538 375.216 444.918 382.792 442.835C404.882 436.76 428.21 436.76 450.3 442.835C457.835 444.918 454.641 457.538 447.078 455.455Z" fill="#263238"/>
<g opacity="0.2">
<path opacity="0.2" d="M447.078 455.455C427.092 449.958 405.986 449.958 386 455.455C378.452 457.538 375.216 444.918 382.792 442.835C404.882 436.76 428.21 436.76 450.3 442.835C457.835 444.918 454.641 457.538 447.078 455.455Z" fill="white"/>
</g>
<path d="M312.17 485.775L303.759 510.249L296.695 508.233L302.411 482.429L312.17 485.775Z" fill="#B97964"/>
<path d="M296.83 506.352L305.511 508.973C305.695 509.019 305.857 509.128 305.97 509.279C306.083 509.431 306.14 509.618 306.131 509.806L305.808 518.408C305.808 518.59 305.771 518.771 305.699 518.938C305.627 519.106 305.522 519.257 305.389 519.383C305.257 519.509 305.1 519.606 304.929 519.67C304.757 519.733 304.575 519.761 304.392 519.752C304.294 519.766 304.194 519.766 304.096 519.752C300.496 518.744 297.356 517.709 292.826 516.553C287.515 515.209 288.701 516.15 282.433 514.618C278.659 513.677 279.09 509.242 280.735 509.443C288.284 510.425 290.953 508.435 294.457 506.554C295.199 506.206 296.04 506.134 296.83 506.352Z" fill="#263238"/>
<path opacity="0.1" d="M307.586 499.121L299.201 496.971L302.409 482.429L312.169 485.775L307.586 499.121Z" fill="black"/>
<path d="M313.679 492.319L311.334 496.835L297.881 492.319V487.118L313.679 492.319Z" fill="#3C63B0"/>
<path opacity="0.3" d="M313.679 492.319L311.334 496.835L297.881 492.319V487.118L313.679 492.319Z" fill="white"/>
<path d="M366.307 515.773L369.111 537.439L361.212 537.64L355.496 516.755L366.307 515.773Z" fill="#B97964"/>
<path d="M361.103 536.444H370.121C370.309 536.443 370.493 536.506 370.64 536.623C370.787 536.741 370.89 536.905 370.93 537.089L372.79 545.502C372.838 545.681 372.848 545.867 372.82 546.05C372.792 546.233 372.727 546.408 372.628 546.564C372.53 546.72 372.4 546.855 372.247 546.959C372.094 547.063 371.921 547.134 371.738 547.169H371.455C367.708 547.102 364.392 546.887 359.741 546.873C354.255 546.873 355.697 547.518 349.186 547.599C345.304 547.599 344.603 543.231 346.248 543.016C353.797 542.089 355.926 539.817 358.852 537.129C359.493 536.634 360.294 536.39 361.103 536.444Z" fill="#263238"/>
<path opacity="0.1" d="M358.812 528.864L355.496 516.755L366.307 515.773L367.925 528.3L358.812 528.864Z" fill="black"/>
<path d="M393.522 385.728H380.756C378.651 391.435 377.292 397.388 376.712 403.441C376.038 412.5 393.508 405.793 393.508 405.793L395.045 393.388L393.522 385.728Z" fill="#3C63B0"/>
<path opacity="0.1" d="M393.522 385.728H380.756C378.651 391.435 377.292 397.388 376.712 403.441C376.038 412.5 393.508 405.793 393.508 405.793L395.045 393.388L393.522 385.728Z" fill="black"/>
<path opacity="0.1" d="M386.107 385.728C389.653 404.288 382.818 403.334 382.818 403.334L386.687 406.022L393.71 404.302L395.058 393.388L393.521 385.728H386.107Z" fill="black"/>
<path d="M418.987 384.585C418.987 384.585 431.982 406.264 429.771 424.367C427.56 442.471 410.737 452.054 346.195 421.209C346.195 421.209 332.957 434.877 310.985 493.436L299.783 490.076C299.783 490.076 312.441 422.392 323.764 403.132C335.087 383.873 385.408 406.492 389.223 402.689C392.62 399.315 389.668 385.929 389.668 385.929L418.987 384.585Z" fill="#3C63B0"/>
<path opacity="0.2" d="M338.78 427.285L335.248 424.597C335.248 424.597 322.806 431.317 328.993 450.442C332.3 443.431 335.967 436.594 339.979 429.959L338.78 427.285Z" fill="black"/>
<path d="M392.699 439.004C380.971 436.208 365.739 430.59 346.139 421.209C346.139 421.209 331.001 421.411 329.963 432.633C328.925 443.855 355.575 521.539 355.575 521.539L367.842 520.477C367.842 520.477 360.617 443.036 358.932 439.004H392.699Z" fill="#3C63B0"/>
<path opacity="0.1" d="M392.699 439.004C380.971 436.208 365.739 430.59 346.139 421.209C346.139 421.209 331.001 421.411 329.963 432.633C328.925 443.855 355.575 521.539 355.575 521.539L367.842 520.477C367.842 520.477 360.617 443.036 358.932 439.004H392.699Z" fill="black"/>
<path opacity="0.1" d="M346.139 421.209C344.388 421.275 342.649 421.523 340.949 421.948C349.177 428.954 358.404 434.702 368.327 439.004H392.699C380.971 436.208 365.779 430.59 346.139 421.209Z" fill="black"/>
<path d="M369.284 518.461L369.621 523.487L355.332 524.603L353.297 519.818L369.284 518.461Z" fill="#3C63B0"/>
<path opacity="0.3" d="M369.284 518.461L369.621 523.487L355.332 524.603L353.297 519.818L369.284 518.461Z" fill="white"/>
<path d="M362.894 362.879L348.47 370.943L338.819 370.473C338.393 370.454 337.969 370.548 337.591 370.744C337.213 370.939 336.892 371.23 336.662 371.588L333.898 375.889C333.709 376.185 333.587 376.519 333.541 376.867C333.494 377.215 333.524 377.569 333.629 377.905L333.696 378.106C333.872 378.698 334.271 379.199 334.808 379.504C335.346 379.81 335.981 379.896 336.581 379.746L340.787 378.738L349.158 377.139L369.634 368.255L362.894 362.879Z" fill="#B97964"/>
<path d="M360.064 363.391C361.699 363.988 363.143 365.009 364.25 366.349C365.357 367.688 366.085 369.298 366.36 371.011C366.36 371.011 376.874 367.369 378.707 361.509C380.541 355.65 385.447 326.727 377.521 326.673C369.595 326.619 373.895 361.294 360.064 363.391Z" fill="#263238"/>
<path opacity="0.6" d="M360.064 363.391C361.699 363.988 363.143 365.009 364.25 366.349C365.357 367.688 366.085 369.298 366.36 371.011C366.36 371.011 376.874 367.369 378.707 361.509C380.541 355.65 385.447 326.727 377.521 326.673C369.595 326.619 373.895 361.294 360.064 363.391Z" fill="white"/>
<path d="M357.381 363.833C360.037 366.442 362.129 369.566 363.528 373.013L369.082 370.325C369.082 370.325 366.844 364.021 362.342 361.468L357.381 363.833Z" fill="#263238"/>
<path opacity="0.7" d="M357.381 363.833C360.037 366.442 362.129 369.566 363.528 373.013L369.082 370.325C369.082 370.325 366.844 364.021 362.342 361.468L357.381 363.833Z" fill="white"/>
<path d="M379.705 387.072C393.401 388.073 407.164 387.673 420.778 385.876C417.907 374.679 417.448 363.004 419.43 351.617C422.787 332.801 440.499 321.7 396.514 322.466C390.138 322.573 371.266 321.727 373.436 335.126C375.782 349.44 379.705 387.072 379.705 387.072Z" fill="#263238"/>
<path opacity="0.5" d="M379.705 387.072C393.401 388.073 407.164 387.673 420.778 385.876C417.907 374.679 417.448 363.004 419.43 351.617C422.787 332.801 440.499 321.7 396.514 322.466C390.138 322.573 371.266 321.727 373.436 335.126C375.782 349.44 379.705 387.072 379.705 387.072Z" fill="white"/>
<path d="M405.924 365.164L385.394 371.212L376.605 369.68C376.151 369.603 375.684 369.653 375.256 369.824C374.828 369.994 374.455 370.279 374.179 370.648L371.227 374.68C371.011 374.969 370.862 375.302 370.79 375.655C370.718 376.008 370.724 376.372 370.809 376.722V376.843C370.951 377.46 371.326 378 371.855 378.35C372.384 378.7 373.028 378.834 373.653 378.725L377.859 378.013L386.311 376.991L412.273 370.943L405.924 365.164Z" fill="#B97964"/>
<path d="M402.891 364.828C404.489 365.543 405.872 366.664 406.899 368.079C407.925 369.495 408.561 371.155 408.741 372.892C408.741 372.892 419.525 370.513 421.803 364.828C424.081 359.143 431.091 327.196 423.151 326.551C415.211 325.906 416.842 363.686 402.891 364.828Z" fill="#263238"/>
<path opacity="0.6" d="M402.891 364.828C404.489 365.543 405.872 366.664 406.899 368.079C407.925 369.495 408.561 371.155 408.741 372.892C408.741 372.892 419.525 370.513 421.803 364.828C424.081 359.143 431.091 327.196 423.151 326.551C415.211 325.906 416.842 363.686 402.891 364.828Z" fill="white"/>
<path d="M399.832 365.353C402.517 367.928 404.597 371.063 405.925 374.533L411.587 372.92C411.587 372.92 409.268 366.2 404.928 363.297L399.832 365.353Z" fill="#263238"/>
<path opacity="0.7" d="M399.832 365.353C402.517 367.928 404.597 371.063 405.925 374.533L411.587 372.92C411.587 372.92 409.268 366.2 404.928 363.297L399.832 365.353Z" fill="white"/>
<path d="M405.007 283.369C405.007 283.369 398.86 271.125 408.283 272.724C417.705 274.324 412.124 298.69 420.792 302.023C420.792 302.023 410.777 304.51 405.007 283.369Z" fill="#263238"/>
<path opacity="0.6" d="M403.242 278.207C403.625 279.986 404.218 281.714 405.008 283.355C406.086 287.811 407.909 292.054 410.4 295.907C411.816 291.459 412.382 284.188 408.189 280.021C406.585 278.422 404.9 278.852 403.242 278.207Z" fill="black"/>
<path d="M401.705 280.762C401.705 280.762 404.778 277.294 407.434 281.743C410.09 286.191 405.709 287.253 405.709 287.253L401.705 280.762Z" fill="#3C63B0"/>
<path d="M403.914 303.999C403.914 303.999 405.262 309.012 408.902 305.571C412.541 302.131 405.99 305.733 403.914 303.999Z" fill="#263238"/>
<path d="M396.542 322.076C396.542 322.076 387.726 319.052 383.979 326.511L387.456 327.855L385.529 330.221L392.714 335.422L404.98 331.229L404.306 329.495L410.211 327.896C410.211 327.896 411.788 319.294 396.542 322.076Z" fill="#263238"/>
<path opacity="0.7" d="M396.542 322.076C396.542 322.076 387.726 319.052 383.979 326.511L387.456 327.855L385.529 330.221L392.714 335.422L404.98 331.229L404.306 329.495L410.211 327.896C410.211 327.896 411.788 319.294 396.542 322.076Z" fill="white"/>
<path d="M396.796 322.761C396.796 322.761 382.116 319.549 392.428 334.132C392.428 334.132 421.788 322.466 396.796 322.761Z" fill="#B97964"/>
<path d="M402.634 305.975L392.645 315.745C393.535 320.006 392.295 322.21 390.92 323.352V326.511C392.613 326.974 394.374 327.133 396.123 326.981C399.355 326.944 402.573 326.556 405.721 325.825C401.367 322.358 401.987 311.808 402.634 305.975Z" fill="#B97964"/>
<path opacity="0.1" d="M392.739 320.274C393.035 318.775 393.003 317.23 392.645 315.745L401.555 307.022L402.431 308.03C402.431 308.03 400.638 319.145 392.739 320.274Z" fill="black"/>
<path d="M403.457 292.991C404.198 302.574 404.711 306.606 400.572 312.143C394.358 320.49 382.388 319.28 378.802 310.114C375.567 301.862 374.906 287.575 383.709 282.508C386.72 280.757 390.304 280.269 393.676 281.151C397.047 282.033 399.93 284.213 401.691 287.212C402.73 288.972 403.335 290.953 403.457 292.991Z" fill="#B97964"/>
<path d="M383.842 302.723C383.398 304.6 382.699 306.409 381.766 308.099C382.199 308.324 382.676 308.454 383.165 308.48C383.653 308.505 384.142 308.426 384.596 308.246L383.842 302.723Z" fill="#A24E3F"/>
<path d="M391.122 296.177C391.181 296.149 391.235 296.112 391.284 296.069C391.353 295.997 391.392 295.9 391.392 295.8C391.392 295.7 391.353 295.604 391.284 295.531C390.742 295.05 390.09 294.708 389.385 294.535C388.681 294.361 387.944 294.362 387.24 294.537C387.146 294.573 387.07 294.643 387.025 294.732C386.98 294.822 386.97 294.924 386.997 295.021C387.028 295.115 387.095 295.193 387.183 295.238C387.272 295.283 387.374 295.292 387.469 295.263C388.045 295.134 388.644 295.144 389.216 295.291C389.788 295.439 390.316 295.719 390.758 296.109C390.808 296.151 390.868 296.179 390.931 296.19C390.995 296.202 391.061 296.197 391.122 296.177Z" fill="#2E353A"/>
<path d="M376.914 297.495C376.979 297.48 377.037 297.442 377.076 297.387C377.451 296.93 377.931 296.57 378.475 296.336C379.02 296.102 379.612 296.002 380.203 296.043C380.305 296.059 380.409 296.033 380.492 295.973C380.575 295.913 380.631 295.822 380.648 295.72C380.656 295.67 380.653 295.618 380.64 295.569C380.627 295.52 380.604 295.473 380.572 295.433C380.541 295.393 380.501 295.36 380.456 295.335C380.411 295.31 380.362 295.295 380.311 295.29C379.597 295.225 378.878 295.331 378.215 295.6C377.551 295.869 376.961 296.293 376.496 296.836C376.46 296.871 376.432 296.913 376.412 296.959C376.393 297.005 376.383 297.055 376.383 297.105C376.383 297.155 376.393 297.204 376.412 297.251C376.432 297.297 376.46 297.339 376.496 297.374C376.548 297.425 376.614 297.46 376.686 297.474C376.758 297.488 376.833 297.481 376.9 297.454L376.914 297.495Z" fill="#2E353A"/>
<path d="M389.155 300.679C389.263 301.459 388.926 302.131 388.413 302.212C387.901 302.292 387.416 301.714 387.322 300.868C387.227 300.021 387.537 299.416 388.036 299.349C388.535 299.282 389.034 299.9 389.155 300.679Z" fill="#2E353A"/>
<path d="M380.379 301.889C380.487 302.668 380.164 303.34 379.651 303.421C379.139 303.501 378.654 302.923 378.546 302.144C378.438 301.364 378.762 300.692 379.261 300.625C379.759 300.558 380.272 301.055 380.379 301.889Z" fill="#2E353A"/>
<path d="M379.49 300.626L377.562 300.357C377.562 300.357 378.789 301.675 379.49 300.626Z" fill="#2E353A"/>
<path d="M388.224 299.416L386.283 299.147C386.283 299.147 387.483 300.464 388.224 299.416Z" fill="#2E353A"/>
<path d="M389.76 308.529C389.912 308.257 390.042 307.974 390.151 307.682C390.169 307.637 390.17 307.587 390.152 307.542C390.134 307.497 390.1 307.461 390.056 307.44C390.008 307.427 389.956 307.432 389.912 307.454C389.867 307.476 389.832 307.514 389.814 307.561C389.55 308.309 389.112 308.985 388.535 309.531C387.959 310.078 387.261 310.481 386.498 310.706C386.451 310.721 386.412 310.753 386.387 310.795C386.363 310.837 386.354 310.887 386.363 310.934C386.373 310.982 386.401 311.024 386.441 311.052C386.481 311.079 386.53 311.09 386.579 311.082C387.253 310.889 387.881 310.564 388.427 310.125C388.974 309.687 389.427 309.144 389.76 308.529Z" fill="#263238"/>
<path d="M403.916 304C403.916 304 398.658 301.137 398.321 293.248C397.984 285.358 385.947 283.732 378.519 288.369C378.519 288.369 376.403 281.394 384.167 280.775C384.167 280.775 395.518 272.496 404.805 281.756C413.015 289.928 403.916 304 403.916 304Z" fill="#263238"/>
<path d="M406.76 300.236C406.471 302.07 405.468 303.717 403.969 304.819C401.961 306.257 400.114 304.671 399.925 302.346C399.791 300.249 400.667 296.97 403.026 296.459C403.437 296.381 403.859 296.385 404.268 296.47C404.677 296.555 405.066 296.719 405.411 296.954C405.757 297.188 406.053 297.489 406.282 297.837C406.511 298.186 406.669 298.576 406.746 298.986C406.831 299.398 406.836 299.822 406.76 300.236Z" fill="#B97964"/>
<path d="M379.166 287.132C379.166 287.132 376.807 292.401 374.825 287.132C372.844 281.864 377.198 288.315 379.166 287.132Z" fill="#263238"/>
<path d="M385.231 377.663H316.362C315.826 377.663 315.311 377.875 314.932 378.254C314.553 378.632 314.34 379.144 314.34 379.679C314.34 380.214 314.553 380.727 314.932 381.105C315.311 381.483 315.826 381.695 316.362 381.695H385.231C385.767 381.695 386.282 381.483 386.661 381.105C387.04 380.727 387.253 380.214 387.253 379.679C387.253 379.144 387.04 378.632 386.661 378.254C386.282 377.875 385.767 377.663 385.231 377.663Z" fill="#3C63B0"/>
<path opacity="0.3" d="M385.231 377.663H316.362C315.826 377.663 315.311 377.875 314.932 378.254C314.553 378.632 314.34 379.144 314.34 379.679C314.34 380.214 314.553 380.727 314.932 381.105C315.311 381.483 315.826 381.695 316.362 381.695H385.231C385.767 381.695 386.282 381.483 386.661 381.105C387.04 380.727 387.253 380.214 387.253 379.679C387.253 379.144 387.04 378.632 386.661 378.254C386.282 377.875 385.767 377.663 385.231 377.663Z" fill="white"/>
<path opacity="0.2" d="M346.045 381.695C345.509 381.695 344.995 381.483 344.616 381.105C344.236 380.727 344.023 380.214 344.023 379.679C344.023 379.144 344.236 378.632 344.616 378.254C344.995 377.875 345.509 377.663 346.045 377.663H385.232C385.768 377.663 386.282 377.875 386.662 378.254C387.041 378.632 387.254 379.144 387.254 379.679C387.254 380.214 387.041 380.727 386.662 381.105C386.282 381.483 385.768 381.695 385.232 381.695H346.045Z" fill="white"/>
<path d="M317.468 380.486H342.784C342.946 380.491 343.106 380.455 343.251 380.381C343.395 380.307 343.518 380.198 343.608 380.063C343.699 379.929 343.753 379.774 343.767 379.613C343.781 379.452 343.753 379.29 343.687 379.142L329.802 339.588C329.618 339.054 329.271 338.592 328.809 338.266C328.347 337.941 327.793 337.768 327.228 337.774H301.953C301.799 337.771 301.648 337.805 301.511 337.874C301.374 337.943 301.256 338.044 301.167 338.168C301.078 338.293 301.021 338.437 301.001 338.588C300.98 338.739 300.997 338.893 301.049 339.037L314.934 378.591C315.102 379.133 315.437 379.608 315.892 379.949C316.348 380.289 316.899 380.477 317.468 380.486Z" fill="#3C63B0"/>
<path d="M316.241 380.486H341.57C341.731 380.487 341.89 380.449 342.032 380.374C342.174 380.299 342.296 380.19 342.385 380.057C342.475 379.923 342.53 379.77 342.545 379.61C342.561 379.451 342.536 379.29 342.473 379.142L328.589 339.588C328.405 339.054 328.057 338.592 327.595 338.266C327.133 337.941 326.58 337.768 326.014 337.774H300.685C300.533 337.774 300.383 337.81 300.248 337.88C300.113 337.95 299.996 338.05 299.908 338.174C299.82 338.297 299.762 338.44 299.74 338.59C299.719 338.74 299.733 338.893 299.782 339.037L313.666 378.591C313.836 379.139 314.178 379.619 314.641 379.96C315.105 380.301 315.665 380.486 316.241 380.486Z" fill="#3C63B0"/>
<path opacity="0.5" d="M316.241 380.486H341.57C341.731 380.487 341.89 380.449 342.032 380.374C342.174 380.299 342.296 380.19 342.385 380.057C342.475 379.923 342.53 379.77 342.545 379.61C342.561 379.451 342.536 379.29 342.473 379.142L328.589 339.588C328.405 339.054 328.057 338.592 327.595 338.266C327.133 337.941 326.58 337.768 326.014 337.774H300.685C300.533 337.774 300.383 337.81 300.248 337.88C300.113 337.95 299.996 338.05 299.908 338.174C299.82 338.297 299.762 338.44 299.74 338.59C299.719 338.74 299.733 338.893 299.782 339.037L313.666 378.591C313.836 379.139 314.178 379.619 314.641 379.96C315.105 380.301 315.665 380.486 316.241 380.486Z" fill="white"/>
<path d="M319.072 359.156C319.396 360.675 320.42 361.844 321.418 361.844C322.415 361.844 322.927 360.621 322.604 359.156C322.28 357.691 321.256 356.468 320.245 356.468C319.234 356.468 318.749 357.637 319.072 359.156Z" fill="white"/>
<path d="M267.173 358.068C267.173 358.068 258.519 350.072 263.129 346.604C267.739 343.137 257.737 337.801 261.309 335.207C264.881 332.613 259.557 325.893 262.657 324.778C265.758 323.662 261.902 319.738 264.154 317.843C267.119 315.37 266.513 328.03 269.465 328.245C272.417 328.46 266.553 335.435 270.22 336.309C273.886 337.183 268.872 345.099 272.322 345.247C275.773 345.395 272.592 353.996 267.173 358.068Z" fill="#3C63B0"/>
<path opacity="0.5" d="M267.173 358.068C267.173 358.068 258.519 350.072 263.129 346.604C267.739 343.137 257.737 337.801 261.309 335.207C264.881 332.613 259.557 325.893 262.657 324.778C265.758 323.662 261.902 319.738 264.154 317.843C267.119 315.37 266.513 328.03 269.465 328.245C272.417 328.46 266.553 335.435 270.22 336.309C273.886 337.183 268.872 345.099 272.322 345.247C275.773 345.395 272.592 353.996 267.173 358.068Z" fill="white"/>
<g opacity="0.2">
<path opacity="0.2" d="M264.287 321.095C265.186 326.337 265.909 331.601 266.457 336.887C267.172 343.366 268.668 351.55 266.632 357.921C266.417 358.593 267.482 358.889 267.711 358.217C269.814 351.658 268.304 343.54 267.576 336.887C266.983 331.511 266.228 326.135 265.365 320.759C265.257 320.047 264.179 320.356 264.287 321.055V321.095Z" fill="black"/>
</g>
<path d="M264.288 356.67C264.288 356.67 255.364 352.383 258.155 348.485C260.945 344.587 251.644 342.746 253.882 339.776C256.119 336.806 250.161 332.733 252.385 331.067C254.61 329.4 249.851 325.395 251.887 325.14C255.135 324.737 256.295 332.733 258.707 332.182C261.12 331.631 258.155 338.66 261.309 338.486C264.463 338.311 262.428 345.864 265.218 345.206C268.009 344.547 267.631 352.127 264.288 356.67Z" fill="#3C63B0"/>
<g opacity="0.2">
<path opacity="0.2" d="M253.747 328.917C258.02 337.653 262.347 347.128 263.749 356.818C263.857 357.531 264.922 357.221 264.827 356.523C263.398 346.765 259.017 337.169 254.704 328.299C254.394 327.653 253.423 328.218 253.747 328.863V328.917Z" fill="black"/>
</g>
<path d="M271.783 356.67C271.783 356.67 280.707 352.383 277.917 348.486C275.126 344.588 284.428 342.747 282.19 339.776C279.952 336.806 285.91 332.734 283.686 331.067C281.462 329.401 285.546 327.895 284.198 325.14C282.85 322.385 279.777 332.734 277.364 332.183C274.951 331.632 277.917 338.661 274.762 338.486C271.608 338.311 273.644 345.865 270.853 345.206C268.063 344.548 268.44 352.128 271.783 356.67Z" fill="#3C63B0"/>
<path opacity="0.2" d="M271.783 356.67C271.783 356.67 280.707 352.383 277.917 348.486C275.126 344.588 284.428 342.747 282.19 339.776C279.952 336.806 285.91 332.734 283.686 331.067C281.462 329.401 285.546 327.895 284.198 325.14C282.85 322.385 279.777 332.734 277.364 332.183C274.951 331.632 277.917 338.661 274.762 338.486C271.608 338.311 273.644 345.865 270.853 345.206C268.063 344.548 268.44 352.128 271.783 356.67Z" fill="white"/>
<g opacity="0.2">
<path opacity="0.2" d="M282.243 328.917C277.97 337.653 273.642 347.128 272.241 356.818C272.133 357.531 271.068 357.221 271.162 356.523C272.578 346.765 276.972 337.169 281.286 328.299C281.596 327.653 282.634 328.218 282.243 328.863V328.917Z" fill="black"/>
</g>
<path d="M276.501 381.952H260.635L257.656 355.313H279.467L276.501 381.952Z" fill="#3C63B0"/>
<path opacity="0.3" d="M276.501 381.952H260.635L257.656 355.313H279.467L276.501 381.952Z" fill="white"/>
<path d="M316.889 549.334C316.062 549.334 315.264 549.028 314.651 548.474C314.037 547.919 313.653 547.158 313.573 546.337L312.521 535.262V383.471H321.256V535.262L320.205 546.337C320.125 547.158 319.74 547.919 319.127 548.474C318.514 549.028 317.716 549.334 316.889 549.334Z" fill="#263238"/>
<path opacity="0.3" d="M316.889 549.334C316.062 549.334 315.264 549.028 314.651 548.474C314.037 547.919 313.653 547.158 313.573 546.337L312.521 535.262V383.471H321.256V535.262L320.205 546.337C320.125 547.158 319.74 547.919 319.127 548.474C318.514 549.028 317.716 549.334 316.889 549.334Z" fill="white"/>
<path opacity="0.1" d="M321.27 384.949H312.521V395.661H321.27V384.949Z" fill="black"/>
<path d="M324.356 536.793V533.339C324.358 533.017 324.296 532.698 324.173 532.399C324.051 532.101 323.87 531.83 323.642 531.601C323.414 531.372 323.143 531.191 322.845 531.067C322.546 530.944 322.226 530.88 321.903 530.88H311.874C311.223 530.88 310.599 531.138 310.139 531.596C309.679 532.055 309.42 532.677 309.42 533.326V536.78L284.738 543.5C283.283 543.9 281.999 544.764 281.084 545.961C280.168 547.158 279.672 548.621 279.67 550.126H354.107C354.105 548.621 353.608 547.158 352.693 545.961C351.777 544.764 350.493 543.9 349.038 543.5L324.356 536.793Z" fill="#3C63B0"/>
<path opacity="0.1" d="M324.356 536.713V533.34C324.363 533.228 324.363 533.116 324.356 533.004H309.528C309.522 533.116 309.522 533.228 309.528 533.34V536.713H324.356Z" fill="black"/>
<path opacity="0.2" d="M324.356 536.793V533.339C324.358 533.017 324.296 532.698 324.173 532.399C324.051 532.101 323.87 531.83 323.642 531.601C323.414 531.372 323.143 531.191 322.845 531.067C322.546 530.944 322.226 530.88 321.903 530.88H311.874C311.223 530.88 310.599 531.138 310.139 531.596C309.679 532.055 309.42 532.677 309.42 533.326V536.78L284.738 543.5C283.283 543.9 281.999 544.764 281.084 545.961C280.168 547.158 279.672 548.621 279.67 550.126H354.107C354.105 548.621 353.608 547.158 352.693 545.961C351.777 544.764 350.493 543.9 349.038 543.5L324.356 536.793Z" fill="black"/>
<path d="M411.64 386.817H222.125V391.911H411.64V386.817Z" fill="#263238"/>
<path opacity="0.3" d="M411.64 386.817H222.125V391.911H411.64V386.817Z" fill="white"/>
<path opacity="0.2" d="M411.639 386.817H317.145V391.911H411.639V386.817Z" fill="black"/>
<path d="M423.071 381.71H210.693V386.804H423.071V381.71Z" fill="#3C63B0"/>
<path opacity="0.3" d="M423.072 381.71H305.715V386.804H423.072V381.71Z" fill="black"/>
</svg>
