<svg width="100" height="100" viewBox="0 0 100 100" fill="none" xmlns="http://www.w3.org/2000/svg">
<g opacity="0.5">
<path d="M67.5437 35.0885C62.2147 35.0885 57.8946 39.4085 57.8946 44.7376C57.8946 50.0667 62.2147 54.3867 67.5437 54.3867C72.8728 54.3867 77.1929 50.0667 77.1929 44.7376C77.1929 39.4085 72.8728 35.0885 67.5437 35.0885Z" fill="#3C63B0"/>
<path d="M67.5438 33.3336C73.8315 33.3336 78.9473 38.4494 78.9473 44.7371C78.9473 51.0248 73.8315 56.1406 67.5438 56.1406C61.2561 56.1406 56.1403 51.0248 56.1403 44.7371C56.1403 38.4494 61.2561 33.3336 67.5438 33.3336ZM67.5438 52.6319C71.8965 52.6319 75.4386 49.0897 75.4386 44.7371C75.4386 40.3845 71.8965 36.8424 67.5438 36.8424C63.1912 36.8424 59.6491 40.3845 59.6491 44.7371C59.6491 49.0897 63.1912 52.6319 67.5438 52.6319Z" fill="#3C63B0"/>
<path d="M37.7193 35.0885C32.3902 35.0885 28.0702 39.4085 28.0702 44.7376C28.0702 50.0667 32.3902 54.3867 37.7193 54.3867C43.0484 54.3867 47.3684 50.0667 47.3684 44.7376C47.3684 39.4085 43.0484 35.0885 37.7193 35.0885Z" fill="#3C63B0"/>
<path d="M37.7193 33.3336C44.0071 33.3336 49.1229 38.4494 49.1229 44.7371C49.1229 51.0248 44.0071 56.1406 37.7193 56.1406C31.4316 56.1406 26.3158 51.0248 26.3158 44.7371C26.3158 38.4494 31.4316 33.3336 37.7193 33.3336ZM37.7193 52.6319C42.072 52.6319 45.6141 49.0897 45.6141 44.7371C45.6141 40.3845 42.072 36.8424 37.7193 36.8424C33.3667 36.8424 29.8246 40.3845 29.8246 44.7371C29.8246 49.0897 33.3667 52.6319 37.7193 52.6319Z" fill="#3C63B0"/>
<path d="M77.1929 43.86C78.1631 43.86 78.9473 44.6442 78.9473 45.6144C78.9473 59.1582 67.9298 70.1758 54.3859 70.1758C53.4157 70.1758 52.6315 69.3916 52.6315 68.4214C52.6315 67.4512 53.4157 66.667 54.3859 66.667C65.9947 66.667 75.4386 57.2232 75.4386 45.6144C75.4386 44.6442 76.2228 43.86 77.1929 43.86Z" fill="#3C63B0"/>
<path d="M47.3685 43.86C48.3387 43.86 49.1229 44.6442 49.1229 45.6144C49.1229 59.1582 38.1053 70.1758 24.5615 70.1758C23.5913 70.1758 22.8071 69.3916 22.8071 68.4214C22.8071 67.4512 23.5913 66.667 24.5615 66.667C36.1702 66.667 45.6141 57.2232 45.6141 45.6144C45.6141 44.6442 46.3983 43.86 47.3685 43.86Z" fill="#3C63B0"/>
</g>
</svg>
