<svg width="38" height="35" viewBox="0 0 38 35" fill="none" xmlns="http://www.w3.org/2000/svg">
<path d="M37.6042 31.4205H3.5625V0.397727C3.5625 0.178977 3.38438 0 3.16667 0H0.395833C0.178125 0 0 0.178977 0 0.397727V34.6023C0 34.821 0.178125 35 0.395833 35H37.6042C37.8219 35 38 34.821 38 34.6023V31.8182C38 31.5994 37.8219 31.4205 37.6042 31.4205ZM7.91667 27.4432H10.6875C10.9052 27.4432 11.0833 27.2642 11.0833 27.0455V19.8864C11.0833 19.6676 10.9052 19.4886 10.6875 19.4886H7.91667C7.69896 19.4886 7.52083 19.6676 7.52083 19.8864V27.0455C7.52083 27.2642 7.69896 27.4432 7.91667 27.4432ZM15.4375 27.4432H18.2083C18.426 27.4432 18.6042 27.2642 18.6042 27.0455V11.1364C18.6042 10.9176 18.426 10.7386 18.2083 10.7386H15.4375C15.2198 10.7386 15.0417 10.9176 15.0417 11.1364V27.0455C15.0417 27.2642 15.2198 27.4432 15.4375 27.4432ZM22.9583 27.4432H25.7292C25.9469 27.4432 26.125 27.2642 26.125 27.0455V15.0142C26.125 14.7955 25.9469 14.6165 25.7292 14.6165H22.9583C22.7406 14.6165 22.5625 14.7955 22.5625 15.0142V27.0455C22.5625 27.2642 22.7406 27.4432 22.9583 27.4432ZM30.4792 27.4432H33.25C33.4677 27.4432 33.6458 27.2642 33.6458 27.0455V7.15909C33.6458 6.94034 33.4677 6.76136 33.25 6.76136H30.4792C30.2615 6.76136 30.0833 6.94034 30.0833 7.15909V27.0455C30.0833 27.2642 30.2615 27.4432 30.4792 27.4432Z" fill="#3C63B0"/>
</svg>
