<svg width="25" height="42" viewBox="0 0 25 42" fill="none" xmlns="http://www.w3.org/2000/svg">
<path d="M3.125 1.5625C3.125 1.1481 2.96038 0.750671 2.66735 0.457645C2.37433 0.16462 1.9769 0 1.5625 0C1.1481 0 0.750671 0.16462 0.457646 0.457645C0.16462 0.750671 4.86356e-08 1.1481 4.86356e-08 1.5625V7.8125C-0.000145632 8.70486 0.326987 9.56628 0.919432 10.2336C1.51188 10.9009 2.32849 11.3278 3.21458 11.4333L1.09792 16.6521C0.678323 17.7 0.483571 18.8244 0.526279 19.9524C0.568987 21.0804 0.848202 22.1868 1.34583 23.2L9.65833 39.7625C10.2479 40.9417 11.3312 41.6667 12.5 41.6667C13.6687 41.6667 14.75 40.9417 15.3437 39.7646L23.6562 23.2C24.6583 21.2 24.7521 18.7479 23.9021 16.6521L21.7854 11.4333C22.6715 11.3278 23.4881 10.9009 24.0806 10.2336C24.673 9.56628 25.0001 8.70486 25 7.8125V1.5625C25 1.1481 24.8354 0.750671 24.5424 0.457645C24.2493 0.16462 23.8519 0 23.4375 0C23.0231 0 22.6257 0.16462 22.3326 0.457645C22.0396 0.750671 21.875 1.1481 21.875 1.5625V7.8125C21.875 7.95063 21.8201 8.08311 21.7225 8.18079C21.6248 8.27846 21.4923 8.33333 21.3542 8.33333H3.64583C3.5077 8.33333 3.37522 8.27846 3.27755 8.18079C3.17987 8.08311 3.125 7.95063 3.125 7.8125V1.5625ZM18.4229 11.4583L21.0063 17.8271C21.5208 19.0979 21.4583 20.6104 20.8604 21.7979L14.0625 35.3479V21.4562C14.6583 21.1123 15.1239 20.5814 15.3871 19.9458C15.6504 19.3103 15.6966 18.6056 15.5185 17.9411C15.3405 17.2766 14.9481 16.6895 14.4024 16.2707C13.8566 15.8519 13.1879 15.6249 12.5 15.6249C11.8121 15.6249 11.1434 15.8519 10.5976 16.2707C10.0519 16.6895 9.65953 17.2766 9.48148 17.9411C9.30343 18.6056 9.34962 19.3103 9.61288 19.9458C9.87613 20.5814 10.3417 21.1123 10.9375 21.4562V35.3479L4.1375 21.7979C3.83956 21.1822 3.67292 20.5112 3.64817 19.8276C3.62343 19.144 3.74111 18.4628 3.99375 17.8271L6.57708 11.4583H18.4229Z" fill="#3C63B0"/>
</svg>
