<svg width="815" height="755" viewBox="0 0 815 755" fill="none" xmlns="http://www.w3.org/2000/svg">
<path d="M815 577.424H0V577.801H815V577.424Z" fill="#EBEBEB"/>
<path d="M583.018 587.707H529.033V588.084H583.018V587.707Z" fill="#EBEBEB"/>
<path d="M712.734 591.014H698.569V591.39H712.734V591.014Z" fill="#EBEBEB"/>
<path d="M615.928 601.72H584.648V602.097H615.928V601.72Z" fill="#EBEBEB"/>
<path d="M407.5 596.616H337.1V596.993H407.5V596.616Z" fill="#EBEBEB"/>
<path d="M322.577 596.616H312.259V596.993H322.577V596.616Z" fill="#EBEBEB"/>
<path d="M278.714 590.244H126.015V590.622H278.714V590.244Z" fill="#EBEBEB"/>
<path d="M386.31 510.078H71.5733C69.1077 510.074 66.7446 509.164 65.0026 507.547C63.2607 505.931 62.2823 503.74 62.2823 501.456V91.5964C62.3038 89.3254 63.2916 87.154 65.0313 85.5537C66.7709 83.9535 69.1218 83.0537 71.5733 83.0498H386.31C388.779 83.0498 391.146 83.9582 392.891 85.5752C394.637 87.1921 395.617 89.3852 395.617 91.6719V501.456C395.617 503.742 394.637 505.936 392.891 507.552C391.146 509.169 388.779 510.078 386.31 510.078ZM71.5733 83.3518C69.2158 83.3558 66.9563 84.2262 65.2908 85.7719C63.6253 87.3177 62.6898 89.4124 62.6898 91.5964V501.456C62.6898 503.64 63.6253 505.734 65.2908 507.28C66.9563 508.826 69.2158 509.696 71.5733 509.7H386.31C388.669 509.696 390.93 508.826 392.598 507.281C394.267 505.736 395.206 503.641 395.21 501.456V91.5964C395.206 89.411 394.267 87.3163 392.598 85.771C390.93 84.2257 388.669 83.3558 386.31 83.3518H71.5733Z" fill="#EBEBEB"/>
<path d="M738.895 510.078H424.142C421.675 510.074 419.31 509.164 417.566 507.548C415.821 505.932 414.839 503.741 414.835 501.456V91.5964C414.861 89.324 415.852 87.1526 417.594 85.5528C419.337 83.9529 421.689 83.0537 424.142 83.0498H738.895C741.344 83.0577 743.691 83.9592 745.427 85.559C747.163 87.1588 748.149 89.328 748.17 91.5964V501.456C748.17 503.737 747.194 505.926 745.455 507.542C743.717 509.158 741.358 510.07 738.895 510.078ZM424.142 83.3518C421.783 83.3558 419.522 84.2257 417.854 85.771C416.186 87.3163 415.247 89.411 415.242 91.5964V501.456C415.247 503.641 416.186 505.736 417.854 507.281C419.522 508.826 421.783 509.696 424.142 509.7H738.895C741.254 509.696 743.516 508.826 745.184 507.281C746.852 505.736 747.791 503.641 747.795 501.456V91.5964C747.791 89.411 746.852 87.3163 745.184 85.771C743.516 84.2257 741.254 83.3558 738.895 83.3518H424.142Z" fill="#EBEBEB"/>
<path d="M191.199 464.672C182.69 462 176.529 454.389 181.908 446.552C190.873 433.657 168.461 430.909 174.752 409.331C183.62 378.859 211.15 405.269 217.996 376.02C222.886 354.744 261.55 340.807 263.049 368.818C264.679 399.501 281.305 379.463 284.989 413.559C287.532 437.145 251.313 440.573 262.169 447.942C270.075 453.332 274.737 462.709 263.718 469.082C248.705 477.825 262.87 484.65 252.666 490.75C242.463 496.851 240.8 487.126 224.956 491.868C210.792 496.096 198.779 483.125 201.598 475.016C204.19 467.541 199.757 467.36 191.199 464.672Z" fill="#E6E6E6"/>
<path d="M273.09 478.67C273.09 478.67 271.933 577.394 227.255 577.394C182.576 577.394 181.435 478.67 181.435 478.67H273.09Z" fill="#F0F0F0"/>
<path d="M457.59 344.34L711.446 344.34V126.704L457.59 126.704V344.34Z" fill="#E6E6E6"/>
<path d="M451.51 344.34L708.61 344.34V126.704L451.51 126.704L451.51 344.34Z" fill="#F0F0F0"/>
<path d="M700.069 335.447V135.583H460.051V335.447H700.069Z" fill="#FAFAFA"/>
<path d="M559.775 335.447L602.171 135.583H657.738L615.341 335.447H559.775Z" fill="white"/>
<path d="M623.997 335.447L666.377 135.583H691.479L649.082 335.447H623.997Z" fill="white"/>
<path d="M490.288 335.447L532.684 135.583H541.893L499.497 335.447H490.288Z" fill="white"/>
<path d="M461.111 335.431V135.567H460.019V335.431H461.111Z" fill="#E6E6E6"/>
<path opacity="0.7" d="M717.852 126.342V279.109H693.223C693.223 279.109 648.968 185.836 638.96 130.827C638.717 129.51 638.789 128.161 639.169 126.873C639.549 125.584 640.229 124.389 641.161 123.37C642.093 122.352 643.254 121.534 644.564 120.975C645.873 120.417 647.298 120.13 648.74 120.136H711.267C713.024 120.164 714.699 120.83 715.93 121.991C717.162 123.151 717.852 124.714 717.852 126.342Z" fill="#E6E6E6"/>
<path opacity="0.7" d="M717.852 365.601V286.069H693.223C693.223 286.069 677.884 332.879 672.033 365.601H717.852Z" fill="#E6E6E6"/>
<path d="M693.94 286.069H716.955C718.315 286.069 719.417 285.048 719.417 283.789V281.388C719.417 280.129 718.315 279.108 716.955 279.108H693.94C692.581 279.108 691.479 280.129 691.479 281.388V283.789C691.479 285.048 692.581 286.069 693.94 286.069Z" fill="#E0E0E0"/>
<path opacity="0.7" d="M444.534 126.342V279.109H469.163C469.163 279.109 513.417 185.836 523.474 130.827C523.717 129.51 523.646 128.161 523.266 126.873C522.885 125.584 522.205 124.389 521.273 123.37C520.341 122.352 519.18 121.534 517.871 120.975C516.561 120.417 515.136 120.13 513.694 120.136H451.233C449.456 120.136 447.752 120.79 446.496 121.954C445.239 123.117 444.534 124.696 444.534 126.342Z" fill="#E6E6E6"/>
<path opacity="0.7" d="M444.534 365.601V286.069H469.163C469.163 286.069 484.485 332.879 490.353 365.601H444.534Z" fill="#E6E6E6"/>
<path d="M468.446 279.108H445.43C444.071 279.108 442.969 280.129 442.969 281.389V283.789C442.969 285.049 444.071 286.069 445.43 286.069H468.446C469.805 286.069 470.907 285.049 470.907 283.789V281.389C470.907 280.129 469.805 279.108 468.446 279.108Z" fill="#E0E0E0"/>
<path d="M363.718 577.424H425.332V429.338H363.718V577.424Z" fill="#E6E6E6"/>
<path d="M380.165 577.424H363.702V551.875H397.41L380.165 577.424Z" fill="#F5F5F5"/>
<path d="M658.455 577.424H720.069V429.338H658.455V577.424Z" fill="#E6E6E6"/>
<path d="M363.702 568.636H672.815V429.353H363.702V568.636Z" fill="#F5F5F5"/>
<path d="M376.465 471.452L660.052 471.452V442.264L376.465 442.264V471.452Z" fill="#F0F0F0"/>
<path d="M656.368 577.424H672.815V551.875H639.107L656.368 577.424Z" fill="#F5F5F5"/>
<path d="M376.465 513.581H660.052V484.393L376.465 484.393V513.581Z" fill="#F0F0F0"/>
<path d="M376.465 555.71H660.052V526.522H376.465V555.71Z" fill="#F0F0F0"/>
<path d="M219.251 302.075H351.558V168.969L219.251 168.969L219.251 302.075Z" fill="#E6E6E6"/>
<path d="M208.053 302.075H348.38V168.969L208.053 168.969L208.053 302.075Z" fill="#F5F5F5"/>
<path d="M339.431 293.77V177.243H217.002V293.77H339.431Z" fill="white"/>
<path d="M317.85 250.902C317.852 246.86 316.994 242.857 315.326 239.123C313.657 235.388 311.21 231.995 308.125 229.137C305.04 226.279 301.377 224.012 297.346 222.466C293.314 220.921 288.994 220.126 284.631 220.128H238.551C238.551 228.29 242.05 236.117 248.28 241.888C254.51 247.66 262.96 250.902 271.77 250.902H317.85Z" fill="#F5F5F5"/>
<path d="M108.134 210.705H186.863V129.739H108.134L108.134 210.705Z" fill="#E6E6E6"/>
<path d="M96.9523 210.705H183.701V129.739H96.9523L96.9523 210.705Z" fill="#F5F5F5"/>
<path d="M174.736 202.415V138.014H105.885V202.415H174.736Z" fill="white"/>
<path d="M160.674 170.222L140.331 151.377L119.988 170.222L140.331 189.068L160.674 170.222Z" fill="#F5F5F5"/>
<path d="M407.5 645.616C582.044 645.616 723.541 637.963 723.541 628.523C723.541 619.083 582.044 611.43 407.5 611.43C232.956 611.43 91.4594 619.083 91.4594 628.523C91.4594 637.963 232.956 645.616 407.5 645.616Z" fill="#F5F5F5"/>
<path d="M154.85 624.716H660.15L609.62 543.645H205.38L154.85 624.716Z" fill="#3C63B0"/>
<path opacity="0.4" d="M154.85 624.716H660.15L609.62 543.645H205.38L154.85 624.716Z" fill="white"/>
<path d="M205.38 543.645H609.62L559.09 462.558H255.91L205.38 543.645Z" fill="#3C63B0"/>
<path opacity="0.3" d="M205.38 543.645H609.62L559.09 462.558H255.91L205.38 543.645Z" fill="white"/>
<path d="M306.44 381.486L255.91 462.558H559.09L508.56 381.486H306.44Z" fill="#3C63B0"/>
<path opacity="0.2" d="M306.44 381.486L255.91 462.558H559.09L508.56 381.486H306.44Z" fill="white"/>
<path d="M458.03 300.414H356.97L306.44 381.486H508.56L458.03 300.414Z" fill="#3C63B0"/>
<path opacity="0.1" d="M458.03 300.414H356.97L306.44 381.486H508.56L458.03 300.414Z" fill="black"/>
<path d="M294.199 184.084C293.367 184.658 292.243 185.473 291.248 186.228C290.254 186.983 289.244 187.738 288.249 188.629C286.293 190.29 284.354 191.981 282.528 193.763C278.919 197.305 275.698 201.17 272.911 205.3C272.308 206.221 271.281 207.776 271.46 207.565C271.253 208.096 271.191 208.667 271.281 209.226C271.627 211.327 272.325 213.365 273.351 215.266C275.745 219.766 278.53 224.079 281.68 228.161L277.1 232.238C272.366 228.653 268.211 224.458 264.761 219.78C262.784 217.144 261.328 214.205 260.458 211.098C259.906 209.059 259.873 206.93 260.36 204.877C260.498 204.278 260.694 203.691 260.947 203.125C261.122 202.712 261.323 202.308 261.55 201.917L262.577 199.969C265.435 194.856 268.979 190.097 273.123 185.805C275.154 183.689 277.303 181.673 279.561 179.765C280.702 178.814 281.876 177.878 283.066 176.972C284.256 176.066 285.429 175.251 286.945 174.284L294.199 184.084Z" fill="#B55B52"/>
<path d="M295.291 166.583C287.271 166.915 275.193 181.864 275.193 181.864L288.086 196.028C288.086 196.028 304.386 187.889 306.179 177.123C307.043 171.747 303.18 166.251 295.291 166.583Z" fill="#3C63B0"/>
<path d="M279.659 226.394L289.211 233.944L280.246 236.042C280.246 236.042 274.671 233.022 276.301 228.81L279.659 226.394Z" fill="#B55B52"/>
<path d="M289.276 238.368L284.614 242.551L280.246 236.118L289.211 234.02L289.276 238.368Z" fill="#B55B52"/>
<path d="M355.438 147.496C355.047 148.266 355.177 149.112 355.731 149.368C356.286 149.625 357.035 149.187 357.361 148.417C357.687 147.647 357.622 146.801 357.084 146.545C356.546 146.288 355.829 146.711 355.438 147.496Z" fill="#263238"/>
<path d="M356.872 146.47L359.171 146.862C359.171 146.862 357.394 147.844 356.872 146.47Z" fill="#263238"/>
<path d="M355.764 148.584C355.619 150.714 355.783 152.852 356.253 154.941C355.675 155.024 355.084 154.99 354.521 154.841C353.958 154.693 353.437 154.433 352.993 154.08L355.764 148.584Z" fill="#A02724"/>
<path d="M359.187 142.816C359.1 142.796 359.021 142.754 358.959 142.695C358.467 142.234 357.867 141.884 357.205 141.672C356.544 141.459 355.839 141.391 355.144 141.472C355.074 141.487 355 141.489 354.929 141.478C354.857 141.466 354.789 141.441 354.728 141.405C354.667 141.368 354.615 141.32 354.574 141.264C354.534 141.208 354.506 141.145 354.492 141.079C354.463 140.947 354.491 140.81 354.571 140.697C354.65 140.584 354.774 140.504 354.916 140.475C355.787 140.365 356.673 140.444 357.505 140.706C358.337 140.968 359.091 141.406 359.708 141.985C359.759 142.032 359.799 142.087 359.827 142.148C359.854 142.209 359.869 142.274 359.869 142.34C359.869 142.406 359.854 142.471 359.827 142.532C359.799 142.593 359.759 142.649 359.708 142.695C359.64 142.754 359.556 142.797 359.464 142.818C359.373 142.839 359.278 142.838 359.187 142.816Z" fill="#263238"/>
<path d="M323.767 148.206C323.995 154.684 320.996 165.133 315.519 168.44C315.519 168.44 319.056 175.446 331.64 177.696C345.479 180.188 339.382 172.562 339.382 172.562C332.129 169.542 333.237 164.408 335.421 159.803L323.767 148.206Z" fill="#B55B52"/>
<path d="M359.578 184.311C360.214 187.602 360.882 191.106 361.664 194.488C362.447 197.87 363.164 201.328 364.028 204.711C364.892 208.093 365.788 211.46 366.75 214.797C367.223 216.474 367.761 218.119 368.282 219.765L369.668 223.767C370.238 224.605 371.001 225.316 371.901 225.851C373.211 226.68 374.596 227.403 376.041 228.01C379.298 229.405 382.659 230.581 386.098 231.528C389.603 232.57 393.238 233.461 396.905 234.261C400.573 235.062 404.289 235.771 407.94 236.511L407.353 242.385C399.432 242.277 391.535 241.534 383.751 240.165C379.706 239.467 375.732 238.456 371.868 237.145C369.759 236.425 367.729 235.52 365.805 234.443C363.377 233.165 361.315 231.369 359.79 229.203C359.559 228.866 359.347 228.518 359.154 228.161L358.877 227.587L358.665 227.104L358.127 225.805L357.068 223.223C356.4 221.487 355.715 219.765 355.096 218.014C353.84 214.541 352.699 211.038 351.721 207.444C349.649 200.389 348.017 193.23 346.831 186.002L359.578 184.311Z" fill="#B55B52"/>
<path d="M450.255 198.232L385.886 270.41L485.544 285.963L450.255 198.232Z" fill="#3C63B0"/>
<path d="M405.87 237.07L415.014 234.186L416.074 242.098C416.074 242.098 407.728 246.235 404.664 240.588L405.87 237.07Z" fill="#B55B52"/>
<path d="M419.741 236.753L422.773 244.197L416.009 242.114L414.949 234.201L419.741 236.753Z" fill="#B55B52"/>
<path d="M291.167 479.107L302.724 479.892L306.163 455.31L294.606 454.524L291.167 479.107Z" fill="#B55B52"/>
<path d="M218.013 449.451L228.64 454.026L242.87 433.158L232.242 428.583L218.013 449.451Z" fill="#B55B52"/>
<path d="M231.46 451.671L221.012 444.226C220.844 444.086 220.626 444.009 220.401 444.009C220.175 444.009 219.957 444.086 219.789 444.226L212.438 450.825C212.26 451.002 212.124 451.211 212.039 451.44C211.955 451.668 211.923 451.911 211.946 452.152C211.969 452.392 212.046 452.626 212.173 452.837C212.3 453.048 212.474 453.232 212.682 453.377C216.383 455.914 218.306 456.971 222.903 460.232C225.722 462.241 229.651 465.457 233.546 468.235C237.442 471.014 240.539 467.677 239.186 466.212C233.057 459.613 233.514 456.85 232.666 453.241C232.46 452.61 232.036 452.058 231.46 451.671Z" fill="#263238"/>
<path d="M303.457 478.367H290.417C290.19 478.365 289.969 478.438 289.796 478.574C289.622 478.71 289.507 478.899 289.472 479.107L287.728 488.635C287.69 488.873 287.708 489.115 287.781 489.345C287.854 489.576 287.98 489.788 288.151 489.969C288.321 490.15 288.532 490.295 288.768 490.393C289.005 490.491 289.261 490.54 289.521 490.538C294.052 490.462 296.236 490.221 301.957 490.221C305.478 490.221 312.732 490.553 317.589 490.553C322.447 490.553 322.821 486.114 320.849 485.706C311.835 483.894 308.331 481.402 305.348 479.032C304.82 478.613 304.152 478.378 303.457 478.367Z" fill="#263238"/>
<path opacity="0.2" d="M306.163 455.325L304.256 468.975L292.83 467.208L294.59 454.524L306.163 455.325Z" fill="black"/>
<path opacity="0.2" d="M232.242 428.598L242.87 433.173L236.562 442.414L226.163 437.492L232.242 428.598Z" fill="black"/>
<path d="M292.031 231.8L338.404 240.09C360.312 180.339 355.063 178.407 355.063 178.407C351.66 176.701 348.149 175.189 344.549 173.877L343.93 173.65C340.963 172.654 340.344 172.503 336.367 171.43C329.537 169.92 323.18 168.712 315.324 167.671C314.818 167.671 314.313 167.52 313.824 167.474C312.39 167.308 310.971 167.172 309.619 167.051C308.689 166.946 307.777 166.9 306.896 166.84L303.897 166.689C298.828 166.463 295.209 166.523 295.209 166.523C297.85 203.85 295.91 214.571 292.031 231.8Z" fill="#3C63B0"/>
<path opacity="0.2" d="M345.69 196.632C344.361 202.88 344.828 209.342 347.043 215.371C350.89 203.683 353.091 195.741 354.264 190.229C350.711 189.807 346.929 190.864 345.69 196.632Z" fill="black"/>
<path d="M354.672 178.255C362.398 182.921 367.337 193.355 368.641 199.289L350.711 212.879C350.711 212.879 340.931 192.66 344.191 187.496C347.467 182.06 351.754 176.473 354.672 178.255Z" fill="#3C63B0"/>
<path d="M328.445 132.351C324.272 142.211 322.267 146.303 325.006 153.627C329.113 164.635 343.05 167.624 350.303 159.199C356.823 151.649 362.594 136.775 354.411 128.304C352.698 126.421 350.485 124.983 347.989 124.134C345.494 123.285 342.803 123.053 340.181 123.462C337.56 123.87 335.098 124.905 333.04 126.464C330.982 128.023 329.398 130.052 328.445 132.351Z" fill="#B55B52"/>
<path d="M348.152 143.148C347.633 145.062 347.77 147.078 348.543 148.916C349.602 151.513 351.803 151.453 352.862 149.611C353.922 147.769 354.492 144.598 352.748 142.544C351.004 140.49 348.82 141.034 348.152 143.148Z" fill="#B55B52"/>
<path d="M329.765 115.515C326.688 115.12 323.556 115.664 320.842 117.065C318.128 118.465 315.979 120.645 314.72 123.276C310.792 130.6 307.027 140.264 301.403 138.255C302.463 139.765 305.804 141.441 306.945 140.747C303.147 144.265 302.398 147.119 301.583 154.337C300.572 163.261 295.242 161.298 295.242 161.298C295.242 161.298 301.469 170.645 321.86 173.952C339.985 176.972 348.38 173.136 350.825 169.996C348.315 169.241 344.403 160.936 347.842 156.224C351.281 151.513 357.231 138.482 356.253 133.257C358.453 136.489 358.567 141.623 360.409 136.458C362.251 131.294 363.082 125.888 356.253 119.471C350.173 113.688 332.422 110.864 329.765 115.515Z" fill="#263238"/>
<path d="M326.163 237.931C326.163 237.931 303.571 308.04 292.536 348.357C280.898 390.924 241.24 440.92 241.24 440.92L226.57 433.37C226.57 433.37 250.629 385.609 261.908 345.881C284.728 265.232 273.791 248.138 292.047 231.755L326.163 237.931Z" fill="#263238"/>
<path d="M242.609 442.248L224.386 432.826L227.043 427.843L248.542 437.008L242.609 442.248Z" fill="#3C63B0"/>
<path opacity="0.2" d="M315.552 252.849C300.735 263.419 299.741 303.781 300.083 322.007C307.614 296.533 316.53 268.191 321.746 251.777C320.328 250.66 318.274 250.901 315.552 252.849Z" fill="black"/>
<path d="M235.926 456.125C235.795 456.172 235.658 456.202 235.519 456.216C234.052 456.337 232.145 454.48 231.15 453.347C231.123 453.306 231.108 453.259 231.108 453.211C231.108 453.163 231.123 453.116 231.15 453.075C231.183 453.03 231.233 452.998 231.29 452.984C231.347 452.97 231.407 452.976 231.46 453C231.949 453 236.154 453.407 236.839 454.615C236.922 454.746 236.966 454.894 236.966 455.046C236.966 455.197 236.922 455.346 236.839 455.476C236.63 455.788 236.306 456.019 235.926 456.125ZM232.014 453.513C233.4 455.023 234.671 455.778 235.47 455.718C235.64 455.697 235.801 455.636 235.938 455.541C236.075 455.446 236.183 455.32 236.252 455.174C236.288 455.117 236.307 455.052 236.307 454.985C236.307 454.919 236.288 454.854 236.252 454.797C235.91 454.162 233.693 453.709 232.014 453.513Z" fill="#3C63B0"/>
<path d="M337.703 240.09C337.703 240.09 340.589 324.876 334.117 356.798C327.402 390.018 306.913 465.518 306.913 465.518L290.254 463.57C290.254 463.57 300.784 387.239 305.266 354.246C310.156 318.262 303.751 233.989 303.751 233.989L337.703 240.09Z" fill="#263238"/>
<path d="M310.466 466.484L286.701 463.645L286.994 458.421L312.846 459.463L310.466 466.484Z" fill="#3C63B0"/>
<path d="M234.916 452.894C233.775 453.325 232.543 453.511 231.313 453.437C231.267 453.431 231.224 453.413 231.186 453.387C231.149 453.36 231.12 453.326 231.101 453.286C231.081 453.246 231.071 453.202 231.071 453.158C231.071 453.113 231.081 453.07 231.101 453.029C231.199 452.939 233.188 450.553 234.85 450.447C235.068 450.425 235.288 450.449 235.494 450.517C235.7 450.585 235.887 450.696 236.04 450.84C236.213 450.965 236.334 451.142 236.381 451.34C236.429 451.539 236.401 451.746 236.301 451.927C235.971 452.385 235.482 452.726 234.916 452.894ZM231.9 452.969C233.318 452.969 235.502 452.365 235.845 451.701C235.845 451.595 235.943 451.429 235.682 451.202C235.585 451.111 235.468 451.04 235.338 450.995C235.208 450.951 235.07 450.934 234.932 450.946C233.938 451.006 232.617 452.214 231.9 452.999V452.969Z" fill="#3C63B0"/>
<path d="M307.744 480.179C306.522 480.159 305.305 480.033 304.109 479.802C304.054 479.792 304.004 479.767 303.965 479.729C303.927 479.691 303.903 479.642 303.897 479.59C303.891 479.539 303.901 479.487 303.928 479.441C303.954 479.395 303.994 479.358 304.044 479.334C304.582 479.077 309.26 476.888 310.645 477.628C310.778 477.689 310.89 477.784 310.968 477.902C311.045 478.019 311.086 478.154 311.086 478.292C311.117 478.522 311.086 478.756 310.995 478.973C310.904 479.189 310.756 479.381 310.564 479.53C309.731 480.038 308.736 480.267 307.744 480.179ZM305.038 479.44C307.581 479.832 309.488 479.726 310.205 479.153C310.326 479.05 310.419 478.923 310.478 478.782C310.538 478.64 310.561 478.488 310.548 478.337C310.546 478.283 310.531 478.23 310.503 478.183C310.474 478.135 310.434 478.095 310.385 478.065C309.7 477.733 306.962 478.669 305.038 479.5V479.44Z" fill="#3C63B0"/>
<path d="M304.174 479.863C304.121 479.878 304.064 479.878 304.011 479.863C303.97 479.84 303.938 479.806 303.917 479.766C303.897 479.725 303.89 479.68 303.897 479.636C303.897 479.44 304.451 475.106 307.043 475.106H307.271C308.021 475.182 308.233 475.529 308.282 475.816C308.494 477.024 305.69 479.334 304.288 479.923L304.174 479.863ZM307.059 475.529C305.429 475.529 304.729 478.066 304.517 479.153C305.967 478.368 307.858 476.541 307.777 475.816C307.777 475.816 307.777 475.575 307.239 475.529H307.059Z" fill="#3C63B0"/>
<path d="M291.77 229.172L288.999 232.63C288.787 232.887 289.113 233.264 289.651 233.355L338.274 242.083C338.698 242.158 339.073 242.083 339.138 241.796L340.246 238.051C340.328 237.779 340.002 237.492 339.545 237.417L292.585 228.991C292.444 228.955 292.295 228.952 292.152 228.984C292.01 229.016 291.878 229.081 291.77 229.172Z" fill="#3C63B0"/>
<path opacity="0.3" d="M291.77 229.172L288.999 232.63C288.787 232.887 289.113 233.264 289.651 233.355L338.274 242.083C338.698 242.158 339.073 242.083 339.138 241.796L340.246 238.051C340.328 237.779 340.002 237.492 339.545 237.417L292.585 228.991C292.444 228.955 292.295 228.952 292.152 228.984C292.01 229.016 291.878 229.081 291.77 229.172Z" fill="black"/>
<path d="M297.23 235.137L295.975 234.926C295.731 234.926 295.552 234.715 295.6 234.579L297.084 229.716C297.084 229.581 297.361 229.49 297.605 229.535L298.877 229.762C299.121 229.762 299.284 229.958 299.252 230.109L297.768 234.971C297.719 235.107 297.491 235.183 297.23 235.137Z" fill="#263238"/>
<path d="M328.983 240.905L327.728 240.678C327.483 240.678 327.32 240.482 327.353 240.346L328.836 235.484C328.836 235.348 329.113 235.258 329.358 235.303L330.629 235.529C330.874 235.529 331.037 235.726 331.004 235.877L329.521 240.739C329.488 240.875 329.26 240.95 328.983 240.905Z" fill="#263238"/>
<path d="M259.529 627.404H263.571L275.111 574.735L277.133 565.509L289.716 508.129H337.964L364.044 627.419H368.087L341.436 505.94C341.359 505.516 341.121 505.131 340.766 504.854C340.41 504.578 339.961 504.427 339.496 504.43H288.102C287.638 504.427 287.188 504.578 286.833 504.854C286.478 505.131 286.24 505.516 286.163 505.94L275.111 556.344L273.09 565.555L259.529 627.404Z" fill="#263238"/>
<path d="M182.071 627.405H186.113L212.193 508.115H260.425L273.009 565.495L275.03 574.69L286.57 627.359H290.613L277.051 565.449L275.03 556.268L264.06 505.925C263.983 505.501 263.745 505.116 263.39 504.84C263.034 504.563 262.584 504.413 262.12 504.415H210.661C210.197 504.413 209.747 504.563 209.392 504.84C209.036 505.116 208.799 505.501 208.722 505.925L182.071 627.405Z" fill="#263238"/>
<path d="M345.267 490.554H204.956C203.361 490.552 201.781 490.841 200.307 491.406C198.832 491.971 197.493 492.799 196.365 493.844C195.237 494.889 194.342 496.13 193.733 497.496C193.123 498.862 192.811 500.325 192.813 501.803V502.181C192.811 502.719 192.923 503.253 193.144 503.751C193.365 504.25 193.69 504.702 194.101 505.084C194.511 505.466 194.999 505.768 195.536 505.975C196.073 506.182 196.649 506.288 197.23 506.288H352.993C353.574 506.288 354.15 506.182 354.687 505.975C355.224 505.768 355.712 505.466 356.122 505.084C356.533 504.702 356.858 504.25 357.079 503.751C357.3 503.253 357.412 502.719 357.41 502.181V501.803C357.412 500.325 357.1 498.862 356.49 497.496C355.881 496.13 354.986 494.889 353.858 493.844C352.73 492.799 351.391 491.971 349.916 491.406C348.442 490.841 346.862 490.552 345.267 490.554Z" fill="#3C63B0"/>
<path d="M592.62 320.648C596.059 326.522 599.238 332.396 602.286 338.406C605.334 344.416 608.186 350.486 610.843 356.753L611.821 359.108L612.31 360.301L612.587 360.996L612.995 362.189C613.747 364.786 613.848 367.508 613.288 370.146C612.48 374.031 611.011 377.772 608.936 381.23C607.15 384.347 605.112 387.336 602.84 390.169C600.636 392.965 598.235 395.624 595.652 398.127L588.349 393.279C591.278 387.694 593.841 381.951 596.027 376.081C596.96 373.605 597.536 371.025 597.738 368.41C597.738 367.413 597.559 366.613 597.429 366.643L597.217 366.22L596.646 365.148L595.521 363.004C592.457 357.266 589.278 351.513 586.084 345.76L576.581 328.47L592.62 320.648Z" fill="#FF8B7B"/>
<path d="M589.686 391.815L582.84 395.319L593.125 403.473C593.125 403.473 597.396 399.562 596.662 394.851L589.686 391.815Z" fill="#FF8B7B"/>
<path d="M576.239 401.494L585.089 407.851L593.093 403.457L582.807 395.318L576.239 401.494Z" fill="#FF8B7B"/>
<path d="M539.661 278.504C539.515 279.289 538.96 279.863 538.422 279.773C537.885 279.682 537.526 279.002 537.656 278.263C537.787 277.523 538.341 276.904 538.895 276.994C539.449 277.085 539.792 277.719 539.661 278.504Z" fill="#263238"/>
<path d="M539.042 279.863C537.628 282.088 535.89 284.12 533.875 285.903C534.387 286.372 535.005 286.73 535.684 286.952C536.363 287.174 537.087 287.254 537.803 287.187L539.042 279.863Z" fill="#FF5652"/>
<path d="M543.459 274.609C543.393 274.609 543.327 274.598 543.265 274.574C543.204 274.551 543.148 274.517 543.101 274.473C542.665 274.051 542.128 273.732 541.533 273.54C540.937 273.348 540.302 273.29 539.678 273.371C539.548 273.393 539.414 273.368 539.305 273.3C539.195 273.233 539.118 273.128 539.091 273.008C539.076 272.95 539.075 272.889 539.086 272.83C539.097 272.771 539.121 272.715 539.156 272.664C539.19 272.613 539.236 272.57 539.289 272.536C539.342 272.501 539.402 272.477 539.466 272.465C540.256 272.344 541.066 272.405 541.825 272.642C542.584 272.879 543.268 273.285 543.818 273.824C543.865 273.866 543.902 273.917 543.927 273.972C543.953 274.028 543.966 274.088 543.966 274.149C543.966 274.209 543.953 274.269 543.927 274.325C543.902 274.381 543.865 274.431 543.818 274.473C543.771 274.517 543.715 274.551 543.653 274.574C543.592 274.598 543.526 274.609 543.459 274.609Z" fill="#263238"/>
<path d="M567.828 287.127C566.312 294.315 564.796 307.467 570.224 312.253C570.224 312.253 568.105 319.547 553.696 319.547C537.852 319.547 546.132 312.253 546.132 312.253C554.771 310.351 554.543 304.401 553.044 298.829L567.828 287.127Z" fill="#FF8B7B"/>
<path d="M578.781 319.547C578.561 319.143 578.407 318.71 578.325 318.263C576.923 311.272 571.022 305.776 563.378 305.504C555.228 305.232 546.214 306.5 540.819 312.374C538.455 314.941 541.079 318.701 541.079 318.701L578.781 319.547Z" fill="#3C63B0"/>
<path d="M603.883 612.592H603.786C603.598 612.494 603.45 612.343 603.362 612.161C603.274 611.979 603.251 611.775 603.297 611.581C603.306 611.423 603.353 611.269 603.435 611.131C603.517 610.992 603.631 610.872 603.769 610.78C605.024 609.889 608.512 610.433 608.659 610.463C608.707 610.473 608.751 610.493 608.788 610.522C608.825 610.551 608.853 610.588 608.871 610.629C608.881 610.674 608.877 610.72 608.86 610.763C608.843 610.806 608.813 610.843 608.773 610.871C607.926 611.445 605.122 613.06 603.883 612.592ZM607.975 610.795C606.671 610.542 605.315 610.652 604.079 611.112C603.994 611.164 603.923 611.233 603.872 611.314C603.822 611.396 603.792 611.487 603.786 611.581C603.786 612.003 603.949 612.109 604.014 612.139C604.682 612.471 606.654 611.626 607.975 610.795Z" fill="#3C63B0"/>
<path d="M606.85 610.448C605.644 610.01 604.356 609.286 604.177 608.591C604.133 608.421 604.155 608.242 604.239 608.085C604.322 607.928 604.461 607.803 604.633 607.73C604.793 607.635 604.974 607.573 605.162 607.547C605.35 607.521 605.542 607.532 605.725 607.579C607.257 607.942 608.773 610.433 608.839 610.599C608.862 610.633 608.874 610.672 608.874 610.713C608.874 610.753 608.862 610.792 608.839 610.826C608.814 610.862 608.781 610.892 608.741 610.913C608.701 610.934 608.656 610.946 608.61 610.947C608.002 610.855 607.41 610.687 606.85 610.448ZM605.774 608.078H605.611C605.491 608.046 605.366 608.037 605.242 608.053C605.119 608.069 605 608.108 604.894 608.168C604.617 608.319 604.649 608.455 604.666 608.516C604.829 609.165 606.785 610.116 608.121 610.388C607.567 609.443 606.758 608.647 605.774 608.078Z" fill="#3C63B0"/>
<path d="M523.704 618.994C522.351 618.994 521.03 618.828 520.59 618.254C520.479 618.105 520.42 617.929 520.42 617.748C520.42 617.568 520.479 617.391 520.59 617.242C520.677 617.106 520.792 616.988 520.929 616.894C521.067 616.801 521.223 616.734 521.389 616.699C523.149 616.261 526.866 618.209 527.012 618.299C527.058 618.319 527.095 618.351 527.119 618.392C527.143 618.433 527.151 618.48 527.143 618.526C527.136 618.576 527.112 618.622 527.073 618.658C527.035 618.693 526.985 618.716 526.931 618.722C525.866 618.898 524.786 618.989 523.704 618.994ZM522.074 617.091C521.911 617.069 521.747 617.069 521.585 617.091C521.383 617.135 521.208 617.248 521.096 617.409C520.916 617.695 520.981 617.846 521.096 617.922C521.585 618.556 524.274 618.571 526.246 618.315C524.939 617.656 523.505 617.24 522.025 617.091H522.074Z" fill="#3C63B0"/>
<path d="M526.898 618.723H526.801C525.529 618.194 522.986 616.065 523.182 614.963C523.182 614.691 523.427 614.374 524.111 614.314C524.361 614.286 524.615 614.307 524.856 614.374C525.098 614.442 525.321 614.555 525.513 614.706C526.472 615.78 527.042 617.106 527.143 618.496C527.144 618.535 527.134 618.574 527.114 618.608C527.094 618.643 527.065 618.672 527.029 618.693C526.991 618.717 526.944 618.727 526.898 618.723ZM524.323 614.752H524.16C523.704 614.752 523.671 614.963 523.671 615.023C523.541 615.688 525.301 617.349 526.572 618.043C526.461 616.925 525.971 615.868 525.171 615.023C524.933 614.84 524.632 614.744 524.323 614.752Z" fill="#3C63B0"/>
<path d="M538.553 618.497H527.958L526.915 595.756H537.51L538.553 618.497Z" fill="#FF8B7B"/>
<path d="M620.183 608.259L610.257 610.357L598.667 588.568L608.594 586.454L620.183 608.259Z" fill="#FF8B7B"/>
<path d="M608.822 609.316L619.645 604.786C619.836 604.704 620.052 604.685 620.256 604.732C620.46 604.779 620.642 604.888 620.77 605.043L626.605 612.17C626.734 612.348 626.819 612.55 626.856 612.762C626.894 612.974 626.882 613.19 626.822 613.398C626.762 613.605 626.655 613.798 626.508 613.964C626.361 614.129 626.177 614.264 625.97 614.359C622.172 615.869 620.232 616.473 615.473 618.497C612.555 619.735 602.204 626.5 597.852 627.36C593.5 628.221 592.017 624.34 593.712 623.646C599.757 620.841 604.62 616.25 607.534 610.599C607.772 610.036 608.233 609.577 608.822 609.316Z" fill="#263238"/>
<path d="M528.039 617.363H539.612C539.821 617.365 540.022 617.431 540.185 617.552C540.347 617.672 540.461 617.84 540.509 618.028L542.595 626.755C542.65 626.966 542.652 627.186 542.601 627.397C542.55 627.609 542.447 627.807 542.301 627.976C542.155 628.145 541.969 628.281 541.757 628.373C541.545 628.465 541.313 628.511 541.079 628.507C536.907 628.432 530.876 628.205 525.627 628.205C519.482 628.205 514.217 628.522 506.996 628.522C502.644 628.522 501.438 624.445 503.263 624.083C511.544 622.392 518.308 622.21 525.48 618.118C526.241 617.65 527.127 617.389 528.039 617.363Z" fill="#263238"/>
<path d="M573.565 331.144C574.674 333.786 575.88 336.353 577.119 338.694C579.221 342.861 581.324 346.5 582.856 349.022C584.225 351.287 585.122 352.631 585.122 352.631L608.268 342.061C608.268 342.061 598.944 317.221 589.197 314.458C579.45 311.695 568.561 319.305 573.565 331.144Z" fill="#263238"/>
<path opacity="0.2" d="M583.818 333.604C581.813 334.979 580.362 338.678 579.335 343.012C580.656 345.398 581.878 347.542 582.856 349.052C584.225 351.317 585.106 352.661 585.106 352.661L587.763 351.438C587.705 345.313 586.365 339.257 583.818 333.604Z" fill="black"/>
<path d="M524.616 346.983C524.616 350.32 524.698 354.004 524.91 358.051C525.431 369.059 526.719 382.785 529.213 399.833H585.888C586.279 391.785 580.803 352.449 589.148 314.473C582.881 313.36 576.544 312.618 570.175 312.253C562.151 311.83 554.107 311.83 546.084 312.253C540.583 312.776 535.133 313.69 529.783 314.986C529.783 314.986 524.6 320.452 524.616 346.983Z" fill="#263238"/>
<path opacity="0.2" d="M526.279 339.901C525.757 340.958 525.203 342.03 524.649 343.178C524.649 344.401 524.649 345.669 524.649 346.983C524.649 347.511 524.649 348.055 524.649 348.598C531.691 344.627 536.303 336.292 536.303 336.292L526.279 339.901Z" fill="black"/>
<path d="M541.666 332.759L540.036 333.695L538.602 334.465C537.64 334.993 536.744 335.371 535.831 335.839C534.005 336.669 532.212 337.455 530.403 338.21C526.8 339.72 523.117 340.988 519.417 342.196C511.779 344.706 503.844 346.359 495.782 347.119C494.69 347.119 493.679 347.315 492.522 347.3H489.604H489.001C486.342 347.115 483.733 346.534 481.275 345.578C477.383 344.066 473.682 342.162 470.24 339.901C463.847 335.776 457.945 331.033 452.635 325.752L458.308 319.289C464.6 322.521 471.022 325.903 477.297 328.591C480.209 329.895 483.235 330.966 486.344 331.792C487.36 332.067 488.416 332.194 489.474 332.17L491.527 331.988C492.245 331.988 493.06 331.777 493.826 331.686C500.476 330.528 506.988 328.773 513.272 326.447C516.532 325.314 519.792 324.046 522.954 322.762C524.584 322.098 526.1 321.434 527.599 320.739L529.751 319.697L530.745 319.214L531.528 318.791L541.666 332.759Z" fill="#FF8B7B"/>
<path d="M460.28 321.328L453.662 313.416L446.947 323.88C446.947 323.88 453.125 328.139 458.064 327.368L460.28 321.328Z" fill="#FF8B7B"/>
<path d="M443.768 310.199L440.248 318.836L446.947 323.88L453.662 313.416L443.768 310.199Z" fill="#FF8B7B"/>
<path d="M551.234 330.569C545.741 338.451 515.863 347.073 515.863 347.073L504.355 325.148C512.347 320.818 520.86 317.372 529.718 314.88C548.789 310.048 557.836 321.101 551.234 330.569Z" fill="#263238"/>
<path opacity="0.2" d="M526.915 595.771L527.453 607.488H538.048L537.51 595.771H526.915Z" fill="black"/>
<path opacity="0.2" d="M608.594 586.469L598.667 588.583L604.649 599.817L614.576 597.703L608.594 586.469Z" fill="black"/>
<path d="M568.17 280.936C565.904 290.449 565.106 296.127 559.026 300.294C549.898 306.576 537.836 300.294 536.988 290.374C536.222 281.404 540.053 267.361 550.843 265.006C553.222 264.475 555.707 264.517 558.063 265.128C560.419 265.738 562.567 266.897 564.304 268.493C566.04 270.09 567.307 272.071 567.983 274.249C568.66 276.427 568.724 278.729 568.17 280.936Z" fill="#FF8B7B"/>
<path d="M577.608 257.621C586.622 257.848 589.898 271.725 587.208 275.862C587.208 275.862 584.323 277.372 580.819 282.461C575.505 290.222 568.724 298.618 560.77 298.119C550.892 297.485 549.36 286.915 549.702 277.085C544.486 272.555 541.634 272.193 539.074 265.624C531.169 245.375 546.361 235.228 577.608 257.621Z" fill="#263238"/>
<path d="M553.956 280.014C553.677 282.471 552.531 284.775 550.696 286.568C548.235 288.908 545.806 287.338 545.513 284.378C545.236 281.72 546.181 277.311 549.115 276.073C552.049 274.835 554.25 277.04 553.956 280.014Z" fill="#FF8B7B"/>
<path d="M549.311 399.833C549.311 399.833 548.088 469.701 557.559 497.092C572.571 540.474 598.309 598.836 598.309 598.836L617.673 594.306C617.673 594.306 596.336 535.144 589.409 498.602C583.182 465.775 585.823 426.696 585.823 399.878L549.311 399.833Z" fill="#3C63B0"/>
<path opacity="0.2" d="M559.89 411.837C561.894 424.431 554.804 459.478 552.359 470.954C549.783 449.497 549.311 424.038 549.278 410.146C554.462 406.885 558.96 406.039 559.89 411.837Z" fill="black"/>
<path d="M593.191 593.551C593.109 593.551 597.934 599.229 597.934 599.229L619.124 594.23L616.777 587.571L593.191 593.551Z" fill="#3C63B0"/>
<path opacity="0.2" d="M593.191 593.551C593.109 593.551 597.934 599.229 597.934 599.229L619.124 594.23L616.777 587.571L593.191 593.551Z" fill="white"/>
<path d="M529.197 399.833C529.197 399.833 513.239 462.513 512.114 492.456C510.859 526.024 523.524 605.223 523.524 605.223H541.454C541.454 605.223 543.72 525.48 544.47 494.827C545.35 461.486 566.54 399.833 566.54 399.833H529.197Z" fill="#3C63B0"/>
<path d="M520.052 598.595C519.971 598.595 521.063 605.495 521.063 605.495H542.905L543.492 599.335L520.052 598.595Z" fill="#3C63B0"/>
<path opacity="0.2" d="M520.052 598.595C519.971 598.595 521.063 605.495 521.063 605.495H542.905L543.492 599.335L520.052 598.595Z" fill="white"/>
</svg>
