<svg width="734" height="577" viewBox="0 0 734 577" fill="none" xmlns="http://www.w3.org/2000/svg">
<path d="M0 481.754H734V482.122H0V481.754Z" fill="#EBEBEB"/>
<path d="M479.712 491.142H513.74V491.509H479.712V491.142Z" fill="#EBEBEB"/>
<path d="M60.5272 499.026H143.719V499.394H60.5272V499.026Z" fill="#EBEBEB"/>
<path d="M588.096 499.026H671.287V499.394H588.096V499.026Z" fill="#EBEBEB"/>
<path d="M386.084 416.127H669.541C671.761 416.123 673.889 415.236 675.458 413.661C677.027 412.086 677.908 409.951 677.908 407.725V8.32843C677.889 6.1154 676.999 3.99938 675.433 2.43999C673.866 0.880603 671.749 0.00379103 669.541 0H386.084C383.861 0 381.729 0.885208 380.157 2.46089C378.585 4.03657 377.702 6.17365 377.702 8.402V407.725C377.702 409.953 378.585 412.09 380.157 413.666C381.729 415.242 383.861 416.127 386.084 416.127ZM669.541 0.294292C671.664 0.29819 673.699 1.14636 675.199 2.65263C676.699 4.1589 677.541 6.20019 677.541 8.32843V407.725C677.541 409.853 676.699 411.895 675.199 413.401C673.699 414.907 671.664 415.755 669.541 415.759H386.084C383.961 415.751 381.927 414.902 380.425 413.397C378.924 411.892 378.077 409.853 378.069 407.725V8.32843C378.077 6.20003 378.924 4.16102 380.425 2.656C381.927 1.15099 383.961 0.302046 386.084 0.294292H669.541Z" fill="#EBEBEB"/>
<path d="M68.5413 416.127H352.012C354.233 416.119 356.36 415.232 357.931 413.658C359.501 412.084 360.387 409.951 360.394 407.725V8.32843C360.371 6.11406 359.478 3.99805 357.909 2.43907C356.34 0.880089 354.221 0.00374969 352.012 0H68.5413C66.3359 0.00765817 64.2224 0.886181 62.6589 2.44516C61.0953 4.00413 60.2077 6.11794 60.1884 8.32843V407.725C60.1865 408.826 60.401 409.917 60.8197 410.936C61.2384 411.954 61.8532 412.88 62.6288 413.66C63.4044 414.44 64.3258 415.06 65.3403 415.483C66.3548 415.906 67.4425 416.125 68.5413 416.127ZM352.012 0.294292C354.136 0.302046 356.17 1.15099 357.671 2.656C359.173 4.16102 360.02 6.20003 360.027 8.32843V407.725C360.02 409.853 359.173 411.892 357.671 413.397C356.17 414.902 354.136 415.751 352.012 415.759H68.5413C66.4179 415.751 64.3837 414.902 62.8822 413.397C61.3807 411.892 60.5338 409.853 60.5261 407.725V8.32843C60.5338 6.20003 61.3807 4.16102 62.8822 2.656C64.3837 1.15099 66.4179 0.302046 68.5413 0.294292H352.012Z" fill="#EBEBEB"/>
<path d="M72.4611 527.233H104.17V527.601H72.4611V527.233Z" fill="#EBEBEB"/>
<path d="M34.5179 433.388C37.586 424.559 61.7934 436.566 71.5556 451.178C78.0882 460.904 82.0811 471.307 83.9308 485.256C83.7106 469.306 83.4611 452.222 83.2115 436.08C81.2297 432.063 76.7082 422.764 73.4346 415.48C62.5714 390.936 36.7346 381.813 27.8092 366.304C16.0652 345.998 16.1826 315.554 26.1357 304.577C34.7234 294.968 63.4522 359.535 66.6818 366.746C75.4713 386.054 81.0121 406.688 83.0794 427.811C82.8592 412.64 82.6243 398.72 82.4335 387.92C81.8316 352.885 81.0682 341.613 80.7306 338.155C79.5268 336.448 78.1176 334.477 77.3102 333.417C70.3812 324.471 54.9966 313.817 47.3042 300.81C36.074 281.813 37.8943 259.079 45.7628 250.677C53.9983 241.849 68.5609 262.743 76.2825 283.461C84.0042 304.179 80.6865 324.029 82.8738 341.245C83.3289 344.674 83.7987 357.431 84.2391 375.236C86.5879 356.107 91.2561 343.276 99.9027 331.328C110.56 316.613 119.75 298.735 128.514 301.045C137.278 303.355 132.566 327.046 125.578 343.717C119.398 358.52 88.878 373.279 84.474 385.183C84.9878 409.285 85.4722 439.877 85.8098 468.276C88.2027 453.561 86.5585 452.325 96.4088 429.871C102.281 416.495 126.268 400 129.116 409.197C131.964 418.394 127.648 435.683 118.576 447.94C111.236 457.755 95.0876 457.74 91.2855 463.832C90.4194 465.304 87.5274 470.66 85.8686 473.823C86.2649 508.535 86.4411 539.185 86.2356 549.647L84.6648 549.75C84.7382 547.057 84.5474 529.385 84.2391 506.004C80.3049 493.585 53.7781 486.316 45.5867 473.382C36.9989 459.771 30.8479 443.982 34.5179 433.388Z" fill="#E6E6E6"/>
<path d="M59.4585 565.304H110.339C111.678 565.289 112.972 564.815 114.005 563.961C115.038 563.107 115.749 561.925 116.021 560.611L119.646 542.747H50.0633L53.6746 560.611C53.9493 561.942 54.6755 563.137 55.7299 563.993C56.7843 564.849 58.1018 565.312 59.4585 565.304Z" fill="#E6E6E6"/>
<path d="M48.6538 549.661H121.144C121.985 549.666 122.798 549.359 123.426 548.8C124.055 548.24 124.455 547.467 124.549 546.629L126.017 533.386C126.118 532.496 125.867 531.603 125.318 530.896C124.769 530.189 123.967 529.726 123.081 529.605H47.2152C46.7667 529.601 46.3219 529.686 45.9063 529.855C45.4906 530.024 45.1123 530.273 44.7932 530.589C44.474 530.905 44.2202 531.281 44.0463 531.695C43.8725 532.109 43.782 532.554 43.7801 533.004C43.7728 533.136 43.7728 533.269 43.7801 533.401L45.2481 546.644C45.3394 547.482 45.739 548.255 46.3688 548.813C46.9987 549.371 47.8134 549.673 48.6538 549.661Z" fill="#F0F0F0"/>
<path d="M553.858 50.0459H656.324V162.818H553.858V50.0459Z" fill="#E6E6E6"/>
<path d="M545.096 50.0459H654.961V162.818H545.096V50.0459Z" fill="#F5F5F5"/>
<path d="M552.104 57.0645H647.965V155.784H552.104V57.0645Z" fill="white"/>
<path d="M614.389 141.538C619.868 136.042 622.945 128.59 622.945 120.82C622.945 113.05 619.868 105.598 614.389 100.102L585.733 71.3203C580.254 76.8166 577.176 84.2685 577.176 92.0384C577.176 99.8082 580.254 107.26 585.733 112.756L614.389 141.538Z" fill="#F5F5F5"/>
<path d="M585.068 222.278H654.812V301.178H585.068V222.278Z" fill="#E6E6E6"/>
<path d="M574.99 222.278H653.117V301.178H574.99V222.278Z" fill="#F5F5F5"/>
<path d="M583.031 230.353H645.039V293.11H583.031V230.353Z" fill="white"/>
<path d="M619.667 248.984L626.777 256.111C629.873 259.214 629.873 264.245 626.777 267.348L619.667 274.475C616.571 277.578 611.552 277.578 608.456 274.475L601.346 267.348C598.25 264.245 598.25 259.214 601.346 256.111L608.456 248.984C611.552 245.881 616.571 245.881 619.667 248.984Z" fill="#F5F5F5"/>
<path d="M431.798 320.834H463.58V481.531H431.798V320.834Z" fill="#E6E6E6"/>
<path d="M463.579 320.847H600.705V481.544H463.579V320.847Z" fill="#F0F0F0"/>
<path d="M476.074 382.666H588.215V419.703H476.074V382.666Z" fill="#E6E6E6"/>
<path d="M476.074 427.97H588.215V465.006H476.074V427.97Z" fill="#E6E6E6"/>
<path d="M544.747 387.64H519.556C518.737 387.633 517.954 387.303 517.375 386.722C516.795 386.142 516.467 385.356 516.459 384.535C516.463 383.713 516.79 382.926 517.37 382.344C517.95 381.763 518.736 381.435 519.556 381.431H544.747C545.566 381.435 546.35 381.763 546.928 382.345C547.506 382.927 547.83 383.715 547.83 384.535C547.83 385.356 547.506 386.144 546.928 386.726C546.35 387.307 545.566 387.636 544.747 387.64Z" fill="#F0F0F0"/>
<path d="M476.074 337.373H588.215V374.41H476.074V337.373Z" fill="#E6E6E6"/>
<path d="M544.747 342.335H519.556C518.736 342.331 517.95 342.002 517.37 341.421C516.79 340.839 516.463 340.052 516.459 339.23C516.467 338.409 516.795 337.623 517.375 337.043C517.954 336.462 518.737 336.133 519.556 336.125H544.747C545.566 336.129 546.35 336.458 546.928 337.04C547.506 337.621 547.83 338.409 547.83 339.23C547.83 340.051 547.506 340.838 546.928 341.42C546.35 342.002 545.566 342.331 544.747 342.335Z" fill="#F0F0F0"/>
<path d="M544.747 432.944H519.556C518.734 432.94 517.946 432.61 517.365 432.025C516.785 431.44 516.459 430.649 516.459 429.824C516.463 429.004 516.791 428.218 517.371 427.638C517.952 427.059 518.737 426.734 519.556 426.734H544.747C545.152 426.734 545.553 426.814 545.927 426.97C546.301 427.125 546.641 427.352 546.927 427.639C547.213 427.926 547.44 428.267 547.595 428.642C547.75 429.017 547.83 429.419 547.83 429.824C547.832 430.232 547.754 430.636 547.6 431.014C547.446 431.391 547.219 431.734 546.933 432.024C546.647 432.314 546.307 432.544 545.931 432.702C545.556 432.86 545.154 432.942 544.747 432.944Z" fill="#F0F0F0"/>
<path d="M463.583 312.387H604.951V320.833H463.583V312.387Z" fill="#E6E6E6"/>
<path d="M427.365 312.403H463.58V320.849H427.365V312.403Z" fill="#E0E0E0"/>
<path d="M358.19 576.279C216.171 576.279 101.041 567.175 101.041 555.944C101.041 544.713 216.171 535.608 358.19 535.608C500.21 535.608 615.34 544.713 615.34 555.944C615.34 567.175 500.21 576.279 358.19 576.279Z" fill="#F5F5F5"/>
<path d="M150.257 108.64C152.373 101.617 155.176 94.8203 158.624 88.349L153.413 71.2507L187.089 37.4073L204.176 42.6751C210.611 39.1767 217.391 36.356 224.405 34.2584L232.773 18.4697H280.38L288.763 34.2584C295.8 36.3577 302.604 39.1782 309.065 42.6751L326.138 37.422L359.902 71.2655L354.676 88.3785C358.142 94.8415 360.945 101.64 363.043 108.67L378.736 117.072V164.806L362.985 173.208C360.888 180.236 358.079 187.03 354.602 193.484L359.828 210.568L326.064 244.411L308.992 239.188C302.546 242.663 295.763 245.469 288.748 247.56L280.38 263.393H232.7L224.332 247.604C217.323 245.496 210.545 242.681 204.103 239.202L187.016 244.426L153.252 210.583L158.536 193.514C155.091 187.05 152.298 180.257 150.198 173.237L134.505 164.806V117.028L150.257 108.64ZM256.628 227.578C273.726 227.575 290.439 222.49 304.653 212.967C318.868 203.444 329.946 189.909 336.487 174.075C343.028 158.241 344.738 140.818 341.401 124.01C338.064 107.201 329.829 91.7626 317.738 79.6453C305.647 67.528 290.243 59.2765 273.474 55.9341C256.704 52.5918 239.323 54.3087 223.527 60.8677C207.731 67.4268 194.23 78.5334 184.731 92.7833C175.233 107.033 170.163 123.786 170.163 140.924C170.167 163.907 179.278 185.948 195.493 202.199C211.708 218.449 233.699 227.578 256.628 227.578Z" fill="#3C63B0"/>
<path d="M256.627 66.4248C271.329 66.4306 285.699 70.8058 297.92 78.9971C310.141 87.1883 319.665 98.8279 325.287 112.444C330.909 126.06 332.377 141.042 329.505 155.494C326.634 169.947 319.551 183.221 309.154 193.639C298.756 204.057 285.51 211.151 271.09 214.024C256.67 216.897 241.725 215.419 228.143 209.779C214.561 204.138 202.952 194.587 194.785 182.334C186.618 170.081 182.258 155.675 182.258 140.939C182.258 131.151 184.182 121.459 187.92 112.417C191.658 103.375 197.136 95.1589 204.042 88.2392C210.948 81.3195 219.147 75.8314 228.17 72.0884C237.192 68.3455 246.862 66.4209 256.627 66.4248ZM256.627 205.536C269.373 205.539 281.834 201.753 292.434 194.658C303.033 187.562 311.296 177.475 316.176 165.673C321.056 153.871 322.336 140.883 319.852 128.351C317.368 115.82 311.233 104.309 302.222 95.2728C293.211 86.2367 281.73 80.0818 269.229 77.5865C256.728 75.0912 243.77 76.3674 231.993 81.2539C220.216 86.1404 210.15 94.4176 203.066 105.039C195.982 115.66 192.2 128.148 192.197 140.924C192.232 158.045 199.03 174.454 211.105 186.563C223.179 198.671 239.547 205.493 256.627 205.536Z" fill="#3C63B0"/>
<path opacity="0.4" d="M150.257 108.64C152.373 101.617 155.176 94.8203 158.624 88.349L153.413 71.2507L187.089 37.4073L204.176 42.6751C210.611 39.1767 217.391 36.356 224.405 34.2584L232.773 18.4697H280.38L288.763 34.2584C295.8 36.3577 302.604 39.1782 309.065 42.6751L326.138 37.422L359.902 71.2655L354.676 88.3785C358.142 94.8415 360.945 101.64 363.043 108.67L378.736 117.072V164.806L362.985 173.208C360.888 180.236 358.079 187.03 354.602 193.484L359.828 210.568L326.064 244.411L308.992 239.188C302.546 242.663 295.763 245.469 288.748 247.56L280.38 263.393H232.7L224.332 247.604C217.323 245.496 210.545 242.681 204.103 239.202L187.016 244.426L153.252 210.583L158.536 193.514C155.091 187.05 152.298 180.257 150.198 173.237L134.505 164.806V117.028L150.257 108.64ZM256.628 227.578C273.726 227.575 290.439 222.49 304.653 212.967C318.868 203.444 329.946 189.909 336.487 174.075C343.028 158.241 344.738 140.818 341.401 124.01C338.064 107.201 329.829 91.7626 317.738 79.6453C305.647 67.528 290.243 59.2765 273.474 55.9341C256.704 52.5918 239.323 54.3087 223.527 60.8677C207.731 67.4268 194.23 78.5334 184.731 92.7833C175.233 107.033 170.163 123.786 170.163 140.924C170.167 163.907 179.278 185.948 195.493 202.199C211.708 218.449 233.699 227.578 256.628 227.578Z" fill="white"/>
<path opacity="0.4" d="M256.627 66.4248C271.329 66.4306 285.699 70.8058 297.92 78.9971C310.141 87.1883 319.665 98.8279 325.287 112.444C330.909 126.06 332.377 141.042 329.505 155.494C326.634 169.947 319.551 183.221 309.154 193.639C298.756 204.057 285.51 211.151 271.09 214.024C256.67 216.897 241.725 215.419 228.143 209.779C214.561 204.138 202.952 194.587 194.785 182.334C186.618 170.081 182.258 155.675 182.258 140.939C182.258 131.151 184.182 121.459 187.92 112.417C191.658 103.375 197.136 95.1589 204.042 88.2392C210.948 81.3195 219.147 75.8314 228.17 72.0884C237.192 68.3455 246.862 66.4209 256.627 66.4248ZM256.627 205.536C269.373 205.539 281.834 201.753 292.434 194.658C303.033 187.562 311.296 177.475 316.176 165.673C321.056 153.871 322.336 140.883 319.852 128.351C317.368 115.82 311.233 104.309 302.222 95.2728C293.211 86.2367 281.73 80.0818 269.229 77.5865C256.728 75.0912 243.77 76.3674 231.993 81.2539C220.216 86.1404 210.15 94.4176 203.066 105.039C195.982 115.66 192.2 128.148 192.197 140.924C192.232 158.045 199.03 174.454 211.105 186.563C223.179 198.671 239.547 205.493 256.627 205.536Z" fill="white"/>
<path d="M450.2 203.24C451.307 199.516 452.782 195.913 454.604 192.483L451.83 183.405L469.754 165.468L478.812 168.249C482.233 166.422 485.828 164.943 489.543 163.834L493.947 155.506H519.314L523.718 163.834C527.433 164.943 531.028 166.422 534.449 168.249L543.506 165.468L561.387 183.405L558.627 192.483C560.444 195.915 561.919 199.518 563.031 203.24L571.398 207.654V233.022L563.031 237.436C561.925 241.16 560.45 244.764 558.627 248.193L561.387 257.272L543.506 275.209L534.449 272.428C531.025 274.248 527.431 275.727 523.718 276.842L519.314 285.156H494.005L489.601 276.842C485.889 275.727 482.294 274.248 478.87 272.428L469.813 275.209L451.918 257.272L454.692 248.193C452.87 244.763 451.395 241.16 450.288 237.436L441.936 233.022V207.698L450.2 203.24ZM506.66 256.403C513.77 256.403 520.721 254.29 526.633 250.33C532.545 246.371 537.153 240.743 539.874 234.158C542.595 227.573 543.307 220.328 541.92 213.337C540.533 206.347 537.109 199.926 532.081 194.886C527.053 189.847 520.647 186.415 513.673 185.024C506.7 183.634 499.471 184.347 492.902 187.075C486.332 189.802 480.718 194.421 476.767 200.347C472.817 206.273 470.708 213.24 470.708 220.368C470.712 229.924 474.501 239.087 481.243 245.844C487.984 252.602 497.126 256.4 506.66 256.403Z" fill="#263238"/>
<path d="M450.2 203.24C451.307 199.516 452.782 195.913 454.604 192.483L451.83 183.405L469.754 165.468L478.812 168.249C482.233 166.422 485.828 164.943 489.543 163.834L493.947 155.506H519.314L523.718 163.834C527.433 164.943 531.028 166.422 534.449 168.249L543.506 165.468L561.387 183.405L558.627 192.483C560.444 195.915 561.919 199.518 563.031 203.24L571.398 207.654V233.022L563.031 237.436C561.925 241.16 560.45 244.764 558.627 248.193L561.387 257.272L543.506 275.209L534.449 272.428C531.025 274.248 527.431 275.727 523.718 276.842L519.314 285.156H494.005L489.601 276.842C485.889 275.727 482.294 274.248 478.87 272.428L469.813 275.209L451.918 257.272L454.692 248.193C452.87 244.763 451.395 241.16 450.288 237.436L441.936 233.022V207.698L450.2 203.24ZM506.66 256.403C513.77 256.403 520.721 254.29 526.633 250.33C532.545 246.371 537.153 240.743 539.874 234.158C542.595 227.573 543.307 220.328 541.92 213.337C540.533 206.347 537.109 199.926 532.081 194.886C527.053 189.847 520.647 186.415 513.673 185.024C506.7 183.634 499.471 184.347 492.902 187.075C486.332 189.802 480.718 194.421 476.767 200.347C472.817 206.273 470.708 213.24 470.708 220.368C470.712 229.924 474.501 239.087 481.243 245.844C487.984 252.602 497.126 256.4 506.66 256.403Z" fill="#3C63B0"/>
<path d="M506.658 208.434C509.016 208.434 511.32 209.134 513.28 210.447C515.241 211.76 516.769 213.626 517.671 215.809C518.573 217.993 518.809 220.395 518.349 222.713C517.889 225.03 516.754 227.159 515.087 228.83C513.42 230.501 511.296 231.639 508.983 232.1C506.671 232.561 504.274 232.325 502.096 231.42C499.918 230.516 498.057 228.985 496.747 227.02C495.437 225.055 494.738 222.745 494.738 220.382C494.738 217.213 495.994 214.174 498.229 211.933C500.465 209.692 503.497 208.434 506.658 208.434Z" fill="#263238"/>
<path opacity="0.4" d="M450.2 203.24C451.307 199.516 452.782 195.913 454.604 192.483L451.83 183.405L469.754 165.468L478.812 168.249C482.233 166.422 485.828 164.943 489.543 163.834L493.947 155.506H519.314L523.718 163.834C527.433 164.943 531.028 166.422 534.449 168.249L543.506 165.468L561.387 183.405L558.627 192.483C560.444 195.915 561.919 199.518 563.031 203.24L571.398 207.654V233.022L563.031 237.436C561.925 241.16 560.45 244.764 558.627 248.193L561.387 257.272L543.506 275.209L534.449 272.428C531.025 274.248 527.431 275.727 523.718 276.842L519.314 285.156H494.005L489.601 276.842C485.889 275.727 482.294 274.248 478.87 272.428L469.813 275.209L451.918 257.272L454.692 248.193C452.87 244.763 451.395 241.16 450.288 237.436L441.936 233.022V207.698L450.2 203.24ZM506.66 256.403C513.77 256.403 520.721 254.29 526.633 250.33C532.545 246.371 537.153 240.743 539.874 234.158C542.595 227.573 543.307 220.328 541.92 213.337C540.533 206.347 537.109 199.926 532.081 194.886C527.053 189.847 520.647 186.415 513.673 185.024C506.7 183.634 499.471 184.347 492.902 187.075C486.332 189.802 480.718 194.421 476.767 200.347C472.817 206.273 470.708 213.24 470.708 220.368C470.712 229.924 474.501 239.087 481.243 245.844C487.984 252.602 497.126 256.4 506.66 256.403Z" fill="white"/>
<path opacity="0.2" d="M506.658 208.434C509.016 208.434 511.32 209.134 513.28 210.447C515.241 211.76 516.769 213.626 517.671 215.809C518.573 217.993 518.809 220.395 518.349 222.713C517.889 225.03 516.754 227.159 515.087 228.83C513.42 230.501 511.296 231.639 508.983 232.1C506.671 232.561 504.274 232.325 502.096 231.42C499.918 230.516 498.057 228.985 496.747 227.02C495.437 225.055 494.738 222.745 494.738 220.382C494.738 217.213 495.994 214.174 498.229 211.933C500.465 209.692 503.497 208.434 506.658 208.434Z" fill="white"/>
<path d="M427.182 180.241L436.871 176.239L437.223 172.59C438.129 171.824 438.974 170.987 439.748 170.088L443.36 169.72L447.367 160.023L445.033 157.242C445.136 156.053 445.136 154.856 445.033 153.667L447.367 150.9L443.33 141.262L439.719 140.909C438.934 139.982 438.08 139.117 437.165 138.319L436.812 134.685L427.123 130.683L424.364 133.008C423.176 132.919 421.984 132.919 420.796 133.008L418.037 130.683L408.348 134.685L408.01 138.319C407.111 139.098 406.267 139.939 405.485 140.836L401.874 141.189L397.881 150.886L400.2 153.652C400.098 154.842 400.098 156.038 400.2 157.228L397.881 160.009L401.874 169.706L405.485 170.073C406.26 170.977 407.104 171.819 408.01 172.59L408.348 176.224L418.037 180.226L420.796 177.902C421.979 177.99 423.166 177.99 424.349 177.902L427.182 180.241ZM420.165 175.827L417.655 177.902L410.315 174.856L410.021 171.604L409.669 171.339C408.64 170.503 407.691 169.572 406.836 168.558L406.571 168.219L403.327 167.91L400.288 160.553L402.226 157.963V157.537C402.094 156.201 402.094 154.855 402.226 153.52V153.034L400.156 150.503L403.195 143.146L406.425 142.852L406.704 142.498C407.567 141.504 408.526 140.598 409.566 139.791L409.919 139.511L410.212 136.274L417.552 133.214L420.106 135.377H420.532C421.864 135.229 423.208 135.229 424.54 135.377H424.98L427.49 133.287L434.83 136.348L435.139 139.585L435.462 139.864C436.502 140.687 437.457 141.614 438.31 142.631L438.589 142.984L441.833 143.278L444.901 150.636L442.816 153.152V153.578C442.963 154.913 442.963 156.261 442.816 157.596V158.037L444.901 160.391L441.848 167.749L438.618 168.058L438.339 168.381C437.497 169.429 436.547 170.386 435.506 171.236L435.168 171.501L434.86 174.767L427.52 177.813L424.995 175.739H424.569C423.237 175.871 421.894 175.871 420.562 175.739L420.165 175.827Z" fill="#263238"/>
<path d="M418.239 165.867C420.294 166.722 422.556 166.948 424.738 166.514C426.921 166.081 428.926 165.009 430.5 163.433C432.074 161.857 433.147 159.848 433.582 157.661C434.017 155.474 433.795 153.207 432.944 151.146C432.093 149.086 430.651 147.325 428.801 146.086C426.951 144.847 424.776 144.186 422.551 144.187C420.326 144.187 418.151 144.849 416.302 146.089C414.453 147.329 413.012 149.091 412.162 151.152C411.596 152.517 411.304 153.981 411.302 155.459C411.301 156.937 411.59 158.402 412.153 159.768C412.716 161.134 413.542 162.376 414.584 163.423C415.625 164.469 416.863 165.299 418.225 165.867H418.239Z" fill="#263238"/>
<path d="M499.117 157.246C499.3 157.246 499.475 157.173 499.605 157.043C499.734 156.913 499.807 156.737 499.807 156.554V153.037C499.807 152.854 499.734 152.678 499.605 152.548C499.475 152.419 499.3 152.346 499.117 152.346C498.934 152.346 498.758 152.419 498.629 152.548C498.499 152.678 498.427 152.854 498.427 153.037V156.495C498.419 156.591 498.43 156.687 498.461 156.778C498.492 156.869 498.542 156.952 498.607 157.023C498.672 157.093 498.751 157.15 498.838 157.188C498.926 157.226 499.021 157.246 499.117 157.246Z" fill="#3C63B0"/>
<path d="M499.117 146.838C499.3 146.838 499.475 146.765 499.605 146.635C499.734 146.505 499.807 146.329 499.807 146.146V139.201C499.807 139.017 499.734 138.841 499.605 138.712C499.475 138.582 499.3 138.509 499.117 138.509C498.934 138.509 498.758 138.582 498.629 138.712C498.499 138.841 498.427 139.017 498.427 139.201V146.146C498.427 146.329 498.499 146.505 498.629 146.635C498.758 146.765 498.934 146.838 499.117 146.838ZM499.117 132.947C499.3 132.947 499.475 132.874 499.605 132.744C499.734 132.615 499.807 132.439 499.807 132.255V125.31C499.807 125.127 499.734 124.951 499.605 124.821C499.475 124.691 499.3 124.619 499.117 124.619C498.934 124.619 498.758 124.691 498.629 124.821C498.499 124.951 498.427 125.127 498.427 125.31V132.255C498.427 132.439 498.499 132.615 498.629 132.744C498.758 132.874 498.934 132.947 499.117 132.947ZM499.117 119.071C499.301 119.067 499.476 118.991 499.605 118.859C499.734 118.727 499.807 118.55 499.807 118.365V111.434C499.807 111.251 499.734 111.075 499.605 110.945C499.475 110.816 499.3 110.743 499.117 110.743C498.934 110.743 498.758 110.816 498.629 110.945C498.499 111.075 498.427 111.251 498.427 111.434V118.365C498.427 118.55 498.499 118.727 498.628 118.859C498.757 118.991 498.932 119.067 499.117 119.071ZM499.117 105.137C499.205 105.143 499.294 105.13 499.377 105.101C499.461 105.071 499.537 105.024 499.602 104.963C499.667 104.903 499.718 104.829 499.754 104.748C499.789 104.666 499.807 104.578 499.807 104.489V104.386C499.807 102.023 499.415 99.6754 498.647 97.4409C498.584 97.2693 498.457 97.1289 498.292 97.0493C498.128 96.9697 497.939 96.9571 497.766 97.0141C497.679 97.0422 497.598 97.0876 497.529 97.1478C497.46 97.2079 497.404 97.2815 497.364 97.3641C497.325 97.4467 497.302 97.5365 497.298 97.6281C497.294 97.7197 497.308 97.8112 497.34 97.897C498.062 99.984 498.429 102.177 498.427 104.386C498.426 104.575 498.497 104.758 498.625 104.897C498.753 105.036 498.928 105.122 499.117 105.137ZM494.713 92.3055C494.867 92.3079 495.018 92.2558 495.138 92.1583C495.21 92.1023 495.269 92.0327 495.314 91.9536C495.358 91.8745 495.387 91.7873 495.398 91.6971C495.409 91.607 495.402 91.5155 495.377 91.428C495.353 91.3405 495.312 91.2587 495.256 91.1872C493.764 89.3146 491.967 87.7078 489.942 86.4344C489.865 86.3861 489.779 86.3535 489.689 86.3384C489.599 86.3234 489.508 86.3262 489.419 86.3467C489.33 86.3672 489.247 86.4049 489.173 86.4579C489.099 86.5108 489.036 86.5778 488.987 86.6551C488.939 86.7324 488.907 86.8184 488.892 86.9083C488.877 86.9982 488.879 87.0902 488.9 87.179C488.92 87.2678 488.958 87.3518 489.011 87.426C489.064 87.5002 489.131 87.5632 489.208 87.6115C491.1 88.7892 492.778 90.2821 494.17 92.0259C494.274 92.167 494.425 92.2662 494.595 92.3055H494.713ZM483.189 85.0954C483.36 85.0967 483.526 85.0342 483.653 84.9201C483.781 84.8059 483.862 84.6483 483.88 84.4777C483.899 84.3072 483.853 84.1359 483.752 83.9972C483.652 83.8584 483.503 83.7621 483.336 83.7269C481.832 83.391 480.296 83.2232 478.756 83.2266H476.304C476.213 83.2266 476.124 83.2445 476.04 83.2793C475.956 83.314 475.88 83.365 475.816 83.4292C475.752 83.4934 475.701 83.5696 475.667 83.6535C475.632 83.7374 475.614 83.8274 475.614 83.9182C475.614 84.009 475.632 84.099 475.667 84.1829C475.701 84.2668 475.752 84.343 475.816 84.4072C475.88 84.4714 475.956 84.5224 476.04 84.5571C476.124 84.5919 476.213 84.6098 476.304 84.6098H478.565C480.006 84.6113 481.444 84.7691 482.851 85.0806L483.189 85.0954ZM365.47 84.6098H372.281C372.464 84.6098 372.64 84.5369 372.769 84.4072C372.899 84.2775 372.971 84.1016 372.971 83.9182C372.971 83.7348 372.899 83.5589 372.769 83.4292C372.64 83.2995 372.464 83.2266 372.281 83.2266H365.353C365.262 83.2266 365.172 83.2445 365.088 83.2793C365.005 83.314 364.929 83.365 364.865 83.4292C364.801 83.4934 364.75 83.5696 364.715 83.6535C364.68 83.7374 364.663 83.8274 364.663 83.9182C364.663 84.009 364.68 84.099 364.715 84.1829C364.75 84.2668 364.801 84.343 364.865 84.4072C364.929 84.4714 365.005 84.5224 365.088 84.5571C365.172 84.5919 365.262 84.6098 365.353 84.6098H365.47ZM379.328 84.6098H386.081C386.171 84.6098 386.261 84.5919 386.345 84.5571C386.428 84.5224 386.504 84.4714 386.569 84.4072C386.633 84.343 386.683 84.2668 386.718 84.1829C386.753 84.099 386.771 84.009 386.771 83.9182C386.771 83.8274 386.753 83.7374 386.718 83.6535C386.683 83.5696 386.633 83.4934 386.569 83.4292C386.504 83.365 386.428 83.314 386.345 83.2793C386.261 83.2445 386.171 83.2266 386.081 83.2266H379.166C379.076 83.2266 378.986 83.2445 378.902 83.2793C378.819 83.314 378.743 83.365 378.679 83.4292C378.614 83.4934 378.564 83.5696 378.529 83.6535C378.494 83.7374 378.476 83.8274 378.476 83.9182C378.476 84.009 378.494 84.099 378.529 84.1829C378.564 84.2668 378.614 84.343 378.679 84.4072C378.743 84.4714 378.819 84.5224 378.902 84.5571C378.986 84.5919 379.076 84.6098 379.166 84.6098H379.328ZM393.171 84.6098H400.1C400.283 84.6098 400.459 84.5369 400.588 84.4072C400.717 84.2775 400.79 84.1016 400.79 83.9182C400.79 83.7348 400.717 83.5589 400.588 83.4292C400.459 83.2995 400.283 83.2266 400.1 83.2266H393.171C393.081 83.2266 392.991 83.2445 392.907 83.2793C392.823 83.314 392.747 83.365 392.683 83.4292C392.619 83.4934 392.568 83.5696 392.534 83.6535C392.499 83.7374 392.481 83.8274 392.481 83.9182C392.481 84.009 392.499 84.099 392.534 84.1829C392.568 84.2668 392.619 84.343 392.683 84.4072C392.747 84.4714 392.823 84.5224 392.907 84.5571C392.991 84.5919 393.081 84.6098 393.171 84.6098ZM407.029 84.6098H413.958C414.141 84.6098 414.316 84.5369 414.446 84.4072C414.575 84.2775 414.648 84.1016 414.648 83.9182C414.648 83.7348 414.575 83.5589 414.446 83.4292C414.316 83.2995 414.141 83.2266 413.958 83.2266H407.029C406.938 83.2266 406.849 83.2445 406.765 83.2793C406.681 83.314 406.605 83.365 406.541 83.4292C406.477 83.4934 406.426 83.5696 406.392 83.6535C406.357 83.7374 406.339 83.8274 406.339 83.9182C406.339 84.009 406.357 84.099 406.392 84.1829C406.426 84.2668 406.477 84.343 406.541 84.4072C406.605 84.4714 406.681 84.5224 406.765 84.5571C406.849 84.5919 406.938 84.6098 407.029 84.6098ZM420.887 84.6098H427.816C427.999 84.6098 428.174 84.5369 428.304 84.4072C428.433 84.2775 428.506 84.1016 428.506 83.9182C428.506 83.7348 428.433 83.5589 428.304 83.4292C428.174 83.2995 427.999 83.2266 427.816 83.2266H420.887C420.796 83.2266 420.707 83.2445 420.623 83.2793C420.539 83.314 420.463 83.365 420.399 83.4292C420.335 83.4934 420.284 83.5696 420.25 83.6535C420.215 83.7374 420.197 83.8274 420.197 83.9182C420.197 84.009 420.215 84.099 420.25 84.1829C420.284 84.2668 420.335 84.343 420.399 84.4072C420.463 84.4714 420.539 84.5224 420.623 84.5571C420.707 84.5919 420.796 84.6098 420.887 84.6098ZM434.745 84.6098H441.659C441.75 84.6098 441.839 84.5919 441.923 84.5571C442.007 84.5224 442.083 84.4714 442.147 84.4072C442.211 84.343 442.262 84.2668 442.297 84.1829C442.331 84.099 442.349 84.009 442.349 83.9182C442.349 83.8274 442.331 83.7374 442.297 83.6535C442.262 83.5696 442.211 83.4934 442.147 83.4292C442.083 83.365 442.007 83.314 441.923 83.2793C441.839 83.2445 441.75 83.2266 441.659 83.2266H434.745C434.654 83.2266 434.565 83.2445 434.481 83.2793C434.397 83.314 434.321 83.365 434.257 83.4292C434.193 83.4934 434.142 83.5696 434.107 83.6535C434.073 83.7374 434.055 83.8274 434.055 83.9182C434.055 84.009 434.073 84.099 434.107 84.1829C434.142 84.2668 434.193 84.343 434.257 84.4072C434.321 84.4714 434.397 84.5224 434.481 84.5571C434.565 84.5919 434.654 84.6098 434.745 84.6098ZM448.588 84.6098H455.517C455.7 84.6098 455.876 84.5369 456.005 84.4072C456.134 84.2775 456.207 84.1016 456.207 83.9182C456.207 83.7348 456.134 83.5589 456.005 83.4292C455.876 83.2995 455.7 83.2266 455.517 83.2266H448.588C448.498 83.2266 448.408 83.2445 448.324 83.2793C448.24 83.314 448.164 83.365 448.1 83.4292C448.036 83.4934 447.985 83.5696 447.951 83.6535C447.916 83.7374 447.898 83.8274 447.898 83.9182C447.898 84.009 447.916 84.099 447.951 84.1829C447.985 84.2668 448.036 84.343 448.1 84.4072C448.164 84.4714 448.24 84.5224 448.324 84.5571C448.408 84.5919 448.498 84.6098 448.588 84.6098ZM462.446 84.6098H469.375C469.558 84.6098 469.733 84.5369 469.863 84.4072C469.992 84.2775 470.065 84.1016 470.065 83.9182C470.065 83.7348 469.992 83.5589 469.863 83.4292C469.733 83.2995 469.558 83.2266 469.375 83.2266H462.446C462.355 83.2266 462.266 83.2445 462.182 83.2793C462.098 83.314 462.022 83.365 461.958 83.4292C461.894 83.4934 461.843 83.5696 461.809 83.6535C461.774 83.7374 461.756 83.8274 461.756 83.9182C461.756 84.009 461.774 84.099 461.809 84.1829C461.843 84.2668 461.894 84.343 461.958 84.4072C462.022 84.4714 462.098 84.5224 462.182 84.5571C462.266 84.5919 462.355 84.6098 462.446 84.6098Z" fill="#3C63B0"/>
<path d="M354.945 84.6097H358.41C358.593 84.6097 358.768 84.5369 358.898 84.4072C359.027 84.2775 359.1 84.1016 359.1 83.9181C359.1 83.7347 359.027 83.5588 358.898 83.4291C358.768 83.2994 358.593 83.2266 358.41 83.2266H354.945C354.762 83.2266 354.587 83.2994 354.457 83.4291C354.328 83.5588 354.255 83.7347 354.255 83.9181C354.255 84.1016 354.328 84.2775 354.457 84.4072C354.587 84.5369 354.762 84.6097 354.945 84.6097Z" fill="#3C63B0"/>
<path d="M499.472 554.396H492.234V327.689H499.472V554.396Z" fill="#263238"/>
<path d="M201.306 429.367H320.83V412.754H201.306C199.861 412.754 198.476 413.33 197.455 414.353C196.433 415.377 195.859 416.766 195.859 418.214V423.908C195.859 424.625 196 425.335 196.274 425.997C196.548 426.66 196.949 427.261 197.455 427.768C197.96 428.275 198.561 428.677 199.221 428.952C199.882 429.226 200.59 429.367 201.306 429.367Z" fill="#3C63B0"/>
<path d="M205.897 555.645L214.559 418.432" stroke="#3C63B0" stroke-width="2.8255" stroke-linecap="round" stroke-linejoin="round"/>
<path d="M239.06 562.445L247.721 425.232" stroke="#3C63B0" stroke-width="2.8255" stroke-linecap="round" stroke-linejoin="round"/>
<path d="M325.982 555.645L317.321 418.432" stroke="#3C63B0" stroke-width="2.8255" stroke-linecap="round" stroke-linejoin="round"/>
<path d="M292.818 562.445L284.157 425.232" stroke="#3C63B0" stroke-width="2.8255" stroke-linecap="round" stroke-linejoin="round"/>
<path d="M190.692 418.432H310.217V401.819H190.692C189.248 401.819 187.863 402.394 186.841 403.418C185.82 404.442 185.246 405.83 185.246 407.278V412.973C185.246 414.42 185.82 415.809 186.841 416.833C187.863 417.856 189.248 418.432 190.692 418.432Z" fill="#3C63B0"/>
<path opacity="0.2" d="M190.692 418.432H310.217V401.819H190.692C189.248 401.819 187.863 402.394 186.841 403.418C185.82 404.442 185.246 405.83 185.246 407.278V412.973C185.246 414.42 185.82 415.809 186.841 416.833C187.863 417.856 189.248 418.432 190.692 418.432Z" fill="black"/>
<path d="M311.065 559.809H303.828V333.102H311.065V559.809Z" fill="#263238"/>
<path d="M286.401 350.351C286.401 350.351 369.123 353.47 382.863 386.754C382.863 386.754 380.955 485.886 369.886 518.42L346.207 515.727L349.995 419.362L264.425 350.38L286.401 350.351Z" fill="#263238"/>
<path opacity="0.2" d="M286.401 350.351C286.401 350.351 369.123 353.47 382.863 386.754C382.863 386.754 380.955 485.886 369.886 518.42L346.207 515.727L349.995 419.362L264.425 350.38L286.401 350.351Z" fill="black"/>
<path d="M350.131 540.536H364.913L365.119 530.663L365.266 522.923L350.821 523.806L350.542 530.663L350.131 540.536Z" fill="#B55B52"/>
<path opacity="0.2" d="M350.542 530.663H365.119L365.266 522.923L350.821 523.806L350.542 530.663Z" fill="black"/>
<path d="M343.524 526.072L375.174 527.028L380.943 515.256L344.405 514.918L343.524 526.072Z" fill="#3C63B0"/>
<path d="M368.697 542.773C368.697 542.773 367.934 534.076 370.958 535.283C373.982 536.489 370.606 540.933 368.697 542.773Z" stroke="#3C63B0" stroke-width="0.941833" stroke-miterlimit="10"/>
<path d="M368.7 542.772C368.7 542.772 375.203 538.21 376.862 540.535C378.521 542.86 368.7 542.772 368.7 542.772Z" stroke="#3C63B0" stroke-width="0.941833" stroke-miterlimit="10"/>
<path d="M363.552 538.549L351.808 538.667C350.98 538.686 350.188 539.012 349.586 539.583C348.984 540.154 348.614 540.929 348.549 541.757L347.727 552.16C347.688 552.611 347.744 553.065 347.891 553.493C348.039 553.921 348.275 554.313 348.584 554.643C348.893 554.974 349.268 555.235 349.684 555.411C350.101 555.586 350.549 555.672 351.001 555.662C357.357 555.471 370.437 555.132 375.076 555.265C381.286 555.441 390.108 555.544 391.371 553.175C391.73 552.54 391.852 551.797 391.715 551.08C391.577 550.363 391.19 549.718 390.622 549.261C390.622 549.261 373.696 547.687 365.916 539.623C365.613 539.295 365.249 539.03 364.843 538.846C364.437 538.661 363.998 538.56 363.552 538.549Z" fill="#263238"/>
<path d="M212.181 350.351C212.181 350.351 210.61 369.671 211.197 384.606C211.873 401.822 248.852 416.978 302.683 408.149C302.683 408.149 306.882 437.24 321.767 464.064C336.653 490.889 359.935 530.662 359.935 530.662L382.836 515.727C382.836 515.727 352.683 431.854 346.943 408.576C341.203 385.298 338.928 374.129 322.516 366.86C306.104 359.591 270.211 350.351 270.211 350.351H212.181Z" fill="#263238"/>
<path d="M368.7 526.276L371.416 530.455L377.39 539.681L388.855 532.986L382.851 523.628L380.517 520.008L368.7 526.276Z" fill="#B55B52"/>
<path opacity="0.2" d="M368.698 526.276L371.414 530.455L382.85 523.628L380.515 520.008L368.698 526.276Z" fill="black"/>
<path d="M353.976 522.921L383.996 504.91L388.855 516.932L360.362 533.427L353.976 522.921Z" fill="#3C63B0"/>
<path d="M396.713 533.428C396.713 533.428 394.525 525.894 396.977 525.747C399.428 525.6 396.713 533.428 396.713 533.428Z" stroke="#3C63B0" stroke-width="0.941833" stroke-miterlimit="10"/>
<path d="M397.281 533.15C397.281 533.15 400.672 524.969 403.403 526.794C406.133 528.618 397.281 533.15 397.281 533.15Z" stroke="#3C63B0" stroke-width="0.941833" stroke-miterlimit="10"/>
<path d="M387.37 532.161L377.358 538.047C376.654 538.46 376.134 539.127 375.902 539.911C375.67 540.695 375.745 541.538 376.11 542.27L380.646 551.496C380.847 551.899 381.129 552.256 381.474 552.544C381.82 552.833 382.221 553.046 382.653 553.17C383.085 553.295 383.539 553.328 383.984 553.268C384.43 553.207 384.858 553.055 385.241 552.82C390.629 549.495 401.742 542.682 405.793 540.489C411.254 537.546 418.903 533.25 418.8 530.616C418.779 529.893 418.504 529.201 418.023 528.663C417.542 528.124 416.886 527.773 416.172 527.673C416.172 527.673 400.787 534.765 389.998 531.822C389.559 531.701 389.101 531.668 388.65 531.726C388.199 531.784 387.763 531.932 387.37 532.161Z" fill="#263238"/>
<path d="M305.103 265.919C305.103 265.919 308.186 299.674 306.953 308.356C306.953 308.356 339.131 313.079 355.397 310.843L366.289 308.106L379.912 311.446L376.198 322.261H365.306C365.306 322.261 357.378 324.498 353.914 322.261C353.914 322.261 326.682 327.72 310.593 325.984C294.504 324.248 289.513 318.112 288.793 305.884C288.118 294.112 280.382 267.891 286.562 261.932L305.103 265.919Z" fill="#B55B52"/>
<path d="M194.599 269.713C194.599 269.713 206.944 238.282 218.953 231.19C230.961 224.098 286.569 237.664 286.569 237.664C286.569 237.664 310.424 245.36 311.789 282.72L289.872 292.035L286.407 350.348H212.185L212.582 274.819L194.599 269.713Z" fill="#3C63B0"/>
<path d="M285.553 176.071C285.553 176.071 292.893 175.144 294.89 169.626C296.886 164.108 289.223 166.889 289.869 156.913C290.515 146.936 279.079 144.552 270.785 148.937C262.491 153.322 249.323 148.54 244.361 154.529C239.399 160.518 241.572 166.094 241.572 166.094C241.572 166.094 227.303 182.28 245.389 193.331C263.475 204.382 285.553 176.071 285.553 176.071Z" fill="#263238"/>
<path d="M242.394 229.852C250.321 241.962 257.456 243.213 267.012 243.198C277.743 243.198 274.147 235.561 274.147 235.561C269.655 233.31 266.381 230.896 265.867 225.349C265.763 224.273 265.739 223.191 265.794 222.112C265.899 219.614 266.328 217.141 267.071 214.755C282.265 216.138 287.623 208.707 289.517 194.684C290.574 186.059 289.008 177.314 285.025 169.596C276.217 179.984 259.643 171.847 259.643 171.847C264.297 185.34 252.905 190.181 252.905 190.181C248.501 187.415 244.978 189.828 245.315 195.199C245.381 196.697 245.893 198.141 246.785 199.345C247.677 200.549 248.909 201.457 250.321 201.953C251.187 225.864 242.394 229.852 242.394 229.852Z" fill="#B55B52"/>
<path d="M280.842 200.202C280.961 200.202 281.077 200.156 281.164 200.074C281.251 199.992 281.304 199.88 281.312 199.76C281.316 199.698 281.307 199.636 281.287 199.578C281.267 199.519 281.236 199.465 281.195 199.418C281.154 199.372 281.104 199.334 281.049 199.307C280.993 199.28 280.933 199.264 280.871 199.26C275.557 198.98 273.531 196.42 273.458 196.391C273.421 196.343 273.374 196.303 273.321 196.273C273.268 196.243 273.21 196.225 273.15 196.218C273.09 196.211 273.029 196.216 272.971 196.233C272.913 196.25 272.859 196.279 272.812 196.317C272.762 196.355 272.721 196.402 272.69 196.455C272.659 196.509 272.638 196.568 272.63 196.63C272.622 196.691 272.626 196.754 272.642 196.814C272.658 196.874 272.686 196.93 272.724 196.979C272.812 197.097 275.043 199.922 280.812 200.202H280.842Z" fill="#263238"/>
<path d="M280.84 194.409L281.707 185.478L285.553 193.6C284.906 194.134 284.13 194.49 283.304 194.632C282.477 194.774 281.628 194.697 280.84 194.409Z" fill="#A02724"/>
<path d="M274.91 185.472C274.91 186.59 274.396 187.503 273.75 187.503C273.105 187.503 272.591 186.59 272.591 185.472C272.591 184.354 273.105 183.441 273.75 183.441C274.396 183.441 274.91 184.354 274.91 185.472Z" fill="#263238"/>
<path d="M286.709 187.503C286.069 187.503 285.55 186.593 285.55 185.472C285.55 184.351 286.069 183.441 286.709 183.441C287.35 183.441 287.869 184.351 287.869 185.472C287.869 186.593 287.35 187.503 286.709 187.503Z" fill="#263238"/>
<path d="M267.177 180.984C267.278 180.987 267.378 180.964 267.468 180.918C267.558 180.872 267.634 180.803 267.691 180.72C267.765 180.602 269.688 178.012 274.15 178.836C274.231 178.853 274.315 178.854 274.396 178.837C274.478 178.821 274.555 178.789 274.623 178.742C274.692 178.696 274.75 178.636 274.795 178.566C274.84 178.496 274.87 178.418 274.884 178.336C274.911 178.172 274.874 178.005 274.781 177.868C274.688 177.732 274.546 177.636 274.385 177.6C269.1 176.629 266.766 179.851 266.663 179.999C266.6 180.093 266.563 180.203 266.557 180.317C266.551 180.43 266.575 180.544 266.628 180.645C266.68 180.746 266.759 180.831 266.856 180.89C266.953 180.95 267.064 180.983 267.177 180.984Z" fill="#263238"/>
<path d="M288.675 180.163C288.778 180.161 288.878 180.136 288.969 180.09C289.042 180.052 289.106 180.001 289.159 179.939C289.212 179.876 289.251 179.804 289.276 179.726C289.301 179.648 289.31 179.566 289.302 179.484C289.295 179.403 289.271 179.323 289.233 179.251C288.738 178.424 288.009 177.763 287.139 177.352C286.269 176.941 285.296 176.797 284.345 176.941C284.264 176.952 284.185 176.979 284.114 177.02C284.044 177.062 283.982 177.117 283.933 177.183C283.883 177.248 283.848 177.323 283.828 177.403C283.808 177.483 283.804 177.566 283.816 177.647C283.825 177.728 283.851 177.806 283.89 177.877C283.93 177.948 283.984 178.01 284.049 178.06C284.113 178.109 284.187 178.145 284.266 178.165C284.344 178.185 284.426 178.189 284.506 178.177C285.203 178.072 285.915 178.172 286.556 178.464C287.197 178.757 287.739 179.229 288.118 179.825C288.173 179.925 288.254 180.009 288.352 180.068C288.45 180.127 288.561 180.16 288.675 180.163Z" fill="#263238"/>
<path d="M289.676 192.433C291.049 192.43 292.39 192.019 293.53 191.253C294.67 190.486 295.558 189.398 296.081 188.126C296.604 186.854 296.74 185.455 296.47 184.106C296.201 182.757 295.538 181.518 294.567 180.546C293.595 179.574 292.358 178.913 291.011 178.645C289.665 178.378 288.269 178.517 287.001 179.044C285.733 179.571 284.65 180.463 283.887 181.607C283.125 182.752 282.718 184.097 282.718 185.473C282.718 186.388 282.898 187.294 283.248 188.14C283.598 188.985 284.111 189.753 284.757 190.399C285.403 191.046 286.171 191.558 287.015 191.907C287.859 192.256 288.763 192.435 289.676 192.433ZM289.676 179.44C290.867 179.44 292.031 179.794 293.02 180.456C294.01 181.119 294.782 182.062 295.237 183.164C295.693 184.266 295.812 185.479 295.58 186.65C295.347 187.82 294.774 188.895 293.932 189.739C293.091 190.582 292.018 191.157 290.851 191.39C289.683 191.622 288.473 191.503 287.373 191.046C286.273 190.59 285.333 189.816 284.672 188.824C284.011 187.832 283.658 186.666 283.658 185.473C283.677 183.885 284.32 182.37 285.446 181.254C286.573 180.139 288.093 179.513 289.676 179.513V179.44Z" fill="white"/>
<path d="M273.045 192.433C274.418 192.433 275.76 192.024 276.902 191.26C278.044 190.495 278.934 189.408 279.46 188.136C279.985 186.864 280.123 185.465 279.855 184.115C279.587 182.765 278.926 181.525 277.955 180.551C276.983 179.578 275.746 178.915 274.399 178.646C273.052 178.378 271.656 178.516 270.387 179.042C269.119 179.569 268.034 180.461 267.271 181.606C266.508 182.75 266.101 184.096 266.101 185.473C266.105 187.317 266.838 189.085 268.139 190.39C269.44 191.694 271.204 192.429 273.045 192.433ZM273.045 179.44C274.236 179.437 275.401 179.788 276.392 180.449C277.384 181.11 278.158 182.052 278.616 183.154C279.074 184.256 279.195 185.469 278.964 186.641C278.734 187.812 278.162 188.888 277.32 189.733C276.479 190.579 275.407 191.155 274.239 191.389C273.071 191.623 271.86 191.504 270.759 191.048C269.659 190.592 268.718 189.818 268.056 188.826C267.394 187.833 267.041 186.667 267.041 185.473C267.064 183.889 267.705 182.378 268.828 181.264C269.951 180.149 271.465 179.521 273.045 179.513V179.44Z" fill="white"/>
<path d="M282.717 185.478H280.045" stroke="white" stroke-width="0.941833" stroke-miterlimit="10"/>
<path d="M266.602 186.755L253.58 189.889" stroke="white" stroke-width="0.941833" stroke-linecap="round" stroke-linejoin="round"/>
<path opacity="0.2" d="M262.039 213.356C262.871 216.42 264.137 219.349 265.797 222.053C265.902 219.555 266.331 217.082 267.074 214.695L262.039 213.356Z" fill="black"/>
<path opacity="0.2" d="M289.873 292.036V282.722L293.631 290.447L289.873 292.036Z" fill="black"/>
<path opacity="0.2" d="M228.611 279.604L231.474 262.844L232.281 281.09L228.611 279.604Z" fill="black"/>
<path d="M208.131 314.771C208.307 327.029 213.812 333.135 229.916 334.871C246.02 336.608 273.237 331.149 273.237 331.149C276.702 333.385 284.629 331.149 284.629 331.149H295.521L299.221 320.334L285.612 317.008L274.72 319.73C258.381 321.967 226.202 317.258 226.202 317.258C227.127 310.754 228.17 289.521 228.61 279.604L209.408 273.909C207.515 286.932 207.97 304.206 208.131 314.771Z" fill="#B55B52"/>
<path d="M492.116 250.762L479.125 317.139C478.837 318.578 478.061 319.872 476.929 320.803C475.797 321.733 474.379 322.243 472.915 322.245H362.918C361.995 322.244 361.083 322.041 360.247 321.649C359.41 321.257 358.67 320.686 358.078 319.976C357.486 319.266 357.056 318.434 356.82 317.54C356.583 316.645 356.545 315.71 356.708 314.799L368.452 248.422C368.711 246.96 369.475 245.637 370.611 244.685C371.747 243.732 373.181 243.211 374.662 243.213H485.907C486.841 243.208 487.765 243.411 488.611 243.809C489.458 244.206 490.205 244.787 490.8 245.51C491.394 246.232 491.821 247.078 492.048 247.987C492.276 248.895 492.299 249.843 492.116 250.762Z" fill="#3C63B0"/>
<path opacity="0.2" d="M373.062 243.213L359.322 322.245C358.84 322.246 358.363 322.141 357.926 321.937C357.488 321.733 357.101 321.435 356.792 321.064C356.482 320.694 356.258 320.259 356.134 319.792C356.011 319.325 355.992 318.836 356.078 318.36L368.952 245.92C369.087 245.158 369.487 244.468 370.081 243.973C370.674 243.477 371.424 243.208 372.196 243.213H373.062Z" fill="black"/>
<path d="M477.83 328.586H308.658C308.656 327.753 308.818 326.927 309.135 326.157C309.453 325.387 309.919 324.687 310.507 324.097C311.095 323.508 311.793 323.041 312.561 322.723C313.33 322.405 314.153 322.242 314.985 322.244H471.474C472.306 322.242 473.131 322.405 473.902 322.722C474.672 323.04 475.372 323.507 475.962 324.096C476.552 324.684 477.021 325.384 477.342 326.155C477.662 326.925 477.828 327.751 477.83 328.586Z" fill="#3C63B0"/>
<path opacity="0.2" d="M364.545 328.586H308.658C308.656 327.753 308.819 326.927 309.136 326.157C309.453 325.387 309.919 324.687 310.507 324.097C311.095 323.508 311.793 323.041 312.562 322.723C313.33 322.405 314.154 322.242 314.985 322.244H358.188C359.021 322.242 359.846 322.405 360.616 322.722C361.387 323.04 362.087 323.507 362.677 324.096C363.267 324.684 363.736 325.384 364.057 326.155C364.377 326.925 364.543 327.751 364.545 328.586Z" fill="black"/>
<path opacity="0.4" d="M437.858 285.195C436.669 293.45 430.973 299.468 425.13 298.629C419.288 297.791 415.515 290.404 416.689 282.149C417.864 273.894 423.574 267.876 429.417 268.715C435.259 269.553 439.047 276.925 437.858 285.195Z" fill="white"/>
<path opacity="0.2" d="M477.83 328.586H308.658C308.656 327.753 308.818 326.927 309.135 326.157C309.453 325.387 309.919 324.687 310.507 324.097C311.095 323.508 311.793 323.041 312.561 322.723C313.33 322.405 314.153 322.242 314.985 322.244H471.474C472.306 322.242 473.131 322.405 473.902 322.722C474.672 323.04 475.372 323.507 475.962 324.096C476.552 324.684 477.021 325.384 477.342 326.155C477.662 326.925 477.828 327.751 477.83 328.586Z" fill="black"/>
<path d="M547.121 336.8H254.989C254.989 334.021 256.09 331.357 258.05 329.392C260.011 327.427 262.669 326.323 265.441 326.323H536.654C539.428 326.323 542.088 327.427 544.05 329.391C546.013 331.355 547.117 334.02 547.121 336.8Z" fill="#263238"/>
</svg>
