<svg width="61" height="61" viewBox="0 0 61 61" fill="none" xmlns="http://www.w3.org/2000/svg">
<path d="M44.0534 25.3783C43.9097 25.0322 43.6346 24.7571 43.2884 24.6133C43.1181 24.5407 42.9352 24.5022 42.7501 24.5H35.6667C35.291 24.5 34.9307 24.6493 34.665 24.9149C34.3993 25.1806 34.2501 25.5409 34.2501 25.9167C34.2501 26.2924 34.3993 26.6527 34.665 26.9184C34.9307 27.1841 35.291 27.3333 35.6667 27.3333H39.3359L31.4167 35.2525L26.7559 30.5775C26.6242 30.4447 26.4675 30.3393 26.2949 30.2674C26.1223 30.1955 25.9371 30.1585 25.7501 30.1585C25.5631 30.1585 25.3779 30.1955 25.2053 30.2674C25.0326 30.3393 24.8759 30.4447 24.7442 30.5775L16.2442 39.0775C16.1115 39.2092 16.0061 39.3659 15.9341 39.5385C15.8622 39.7111 15.8252 39.8963 15.8252 40.0833C15.8252 40.2703 15.8622 40.4555 15.9341 40.6281C16.0061 40.8008 16.1115 40.9575 16.2442 41.0892C16.3759 41.2219 16.5326 41.3273 16.7053 41.3993C16.8779 41.4712 17.0631 41.5082 17.2501 41.5082C17.4371 41.5082 17.6223 41.4712 17.7949 41.3993C17.9675 41.3273 18.1242 41.2219 18.2559 41.0892L25.7501 33.5808L30.4109 38.2558C30.5426 38.3886 30.6993 38.494 30.8719 38.5659C31.0446 38.6378 31.2297 38.6749 31.4167 38.6749C31.6038 38.6749 31.7889 38.6378 31.9616 38.5659C32.1342 38.494 32.2909 38.3886 32.4226 38.2558L41.3334 29.3308V33C41.3334 33.3757 41.4827 33.7361 41.7483 34.0017C42.014 34.2674 42.3744 34.4167 42.7501 34.4167C43.1258 34.4167 43.4861 34.2674 43.7518 34.0017C44.0175 33.7361 44.1667 33.3757 44.1667 33V25.9167C44.1645 25.7315 44.126 25.5486 44.0534 25.3783Z" fill="#FFD60D"/>
<g opacity="0.4">
<rect opacity="0.5" width="61" height="61" rx="10" fill="#FFD60D"/>
</g>
</svg>
