<svg width="61" height="61" viewBox="0 0 61 61" fill="none" xmlns="http://www.w3.org/2000/svg">
<rect opacity="0.2" width="61" height="61" rx="10" fill="#EB996E"/>
<path d="M33.6883 15.6824C33.2476 16.1194 33 16.7121 33 17.3301C33 17.948 33.2476 18.5407 33.6883 18.9778L45.3254 30.5141L33.6883 42.0504C33.2601 42.4899 33.0231 43.0786 33.0285 43.6897C33.0338 44.3008 33.2811 44.8853 33.717 45.3174C34.1528 45.7495 34.7425 45.9946 35.3589 45.9999C35.9753 46.0052 36.5691 45.7703 37.0125 45.3458L50.3117 32.1618C50.7524 31.7247 51 31.1321 51 30.5141C51 29.8961 50.7524 29.3034 50.3117 28.8664L37.0125 15.6824C36.5717 15.2454 35.9738 15 35.3504 15C34.727 15 34.1292 15.2454 33.6883 15.6824Z" fill="#FFBE9D"/>
<path d="M29.2352 15.6824C29.7249 16.1194 30 16.7121 30 17.3301C30 17.948 29.7249 18.5407 29.2352 18.9778L16.3051 30.5141L29.2352 42.0504C29.711 42.4899 29.9743 43.0786 29.9684 43.6897C29.9624 44.3008 29.6877 44.8853 29.2034 45.3174C28.7191 45.7495 28.0639 45.9946 27.379 45.9999C26.6941 46.0052 26.0343 45.7703 25.5416 45.3458L10.7648 32.1618C10.2751 31.7247 10 31.1321 10 30.5141C10 29.8961 10.2751 29.3034 10.7648 28.8664L25.5416 15.6824C26.0315 15.2454 26.6958 15 27.3884 15C28.0811 15 28.7454 15.2454 29.2352 15.6824Z" fill="#FFBE9D"/>
</svg>
