<svg width="61" height="61" viewBox="0 0 61 61" fill="none" xmlns="http://www.w3.org/2000/svg">
<g opacity="0.4">
<rect opacity="0.5" width="61" height="61" rx="10" fill="#F24E1E"/>
</g>
<path d="M31 17C28.2311 17 25.5243 17.8211 23.222 19.3594C20.9197 20.8978 19.1253 23.0843 18.0657 25.6424C17.0061 28.2006 16.7288 31.0155 17.269 33.7313C17.8092 36.447 19.1426 38.9416 21.1005 40.8995C23.0584 42.8574 25.553 44.1908 28.2687 44.731C30.9845 45.2712 33.7994 44.9939 36.3576 43.9343C38.9157 42.8747 41.1022 41.0803 42.6406 38.778C44.1789 36.4757 45 33.7689 45 31C44.9958 27.2883 43.5194 23.7298 40.8948 21.1052C38.2702 18.4806 34.7117 17.0042 31 17ZM31 43C27.8174 43 24.7652 41.7357 22.5147 39.4853C20.2643 37.2348 19 34.1826 19 31C19 27.8174 20.2643 24.7652 22.5147 22.5147C24.7652 20.2643 27.8174 19 31 19V31L39.481 39.481C38.3688 40.5972 37.047 41.4827 35.5916 42.0866C34.1361 42.6905 32.5757 43.0009 31 43Z" fill="#E05A27"/>
</svg>
