<svg width="61" height="61" viewBox="0 0 61 61" fill="none" xmlns="http://www.w3.org/2000/svg">
<g opacity="0.4">
<rect opacity="0.5" width="61" height="61" rx="10" fill="#3C63B0"/>
</g>
<path d="M38.6984 19.2627H24.8266C24.4625 19.2627 24.1396 19.5288 24.1396 19.8933V26.6225C24.1396 26.7556 24.1939 26.8857 24.2691 26.9955L28.0632 32.5244C28.186 32.7039 28.3965 32.8079 28.6137 32.8079H29.0323L31.8314 32.271L34.4925 32.8079H34.9111C35.1283 32.8079 35.3318 32.7039 35.4547 32.5244L39.2433 26.9939C39.3187 26.8841 39.3602 26.7556 39.3602 26.6225V19.8933C39.3602 19.5288 39.0621 19.2627 38.6984 19.2627Z" fill="#3C63B0"/>
<path opacity="0.2" d="M29.0244 19.2627H34.4738V32.8079H29.0244V19.2627Z" fill="#96894A"/>
<path d="M31.7614 50.5989C36.3111 50.5989 39.9994 46.9063 39.9994 42.3512C39.9994 37.7961 36.3111 34.1035 31.7614 34.1035C27.2117 34.1035 23.5234 37.7961 23.5234 42.3512C23.5234 46.9063 27.2117 50.5989 31.7614 50.5989Z" fill="#3C63B0"/>
<path d="M22.1118 37.772C23.6619 38.1651 24.882 39.3867 25.2747 40.9386C25.3125 41.0879 25.5043 41.0879 25.5421 40.9386C25.9348 39.3867 27.1549 38.1651 28.705 37.772C28.854 37.7342 28.854 37.5421 28.705 37.5043C27.1549 37.1112 25.9348 35.8894 25.5421 34.3375C25.5043 34.1883 25.3125 34.1883 25.2747 34.3375C24.882 35.8894 23.6619 37.1112 22.1118 37.5043C21.9627 37.5421 21.9628 37.7342 22.1118 37.772Z" fill="#3C63B0"/>
</svg>
