<svg width="71" height="71" viewBox="0 0 71 71" fill="none" xmlns="http://www.w3.org/2000/svg">
<rect x="70" width="70" height="70" rx="35" transform="rotate(89.8234 70 0)" fill="#3C63B0"/>
<path d="M26.52 49V46.32C28.8933 44.0267 30.9333 41.9867 32.64 40.2C34.3733 38.3867 35.7067 36.7467 36.64 35.28C37.5733 33.7867 38.04 32.4 38.04 31.12C38.04 29.7867 37.68 28.72 36.96 27.92C36.24 27.12 35.2 26.72 33.84 26.72C32.8533 26.72 31.9467 27 31.12 27.56C30.32 28.12 29.5733 28.7867 28.88 29.56L26.32 27C27.4933 25.7467 28.7067 24.7867 29.96 24.12C31.2133 23.4267 32.7067 23.08 34.44 23.08C36.8933 23.08 38.84 23.7867 40.28 25.2C41.7467 26.6133 42.48 28.5067 42.48 30.88C42.48 32.3733 42.0533 33.9067 41.2 35.48C40.3733 37.0267 39.2533 38.6133 37.84 40.24C36.4533 41.8667 34.92 43.5733 33.24 45.36C33.9067 45.3067 34.6267 45.2533 35.4 45.2C36.1733 45.12 36.8667 45.08 37.48 45.08H43.72V49H26.52Z" fill="white"/>
</svg>
