<svg width="71" height="71" viewBox="0 0 71 71" fill="none" xmlns="http://www.w3.org/2000/svg">
<rect x="70" width="70" height="70" rx="35" transform="rotate(89.8234 70 0)" fill="#3C63B0"/>
<path d="M34.6 49.48C32.5467 49.48 30.8133 49.1333 29.4 48.44C28.0133 47.72 26.8667 46.8667 25.96 45.88L28.16 42.92C28.9333 43.6933 29.8133 44.36 30.8 44.92C31.7867 45.4533 32.92 45.72 34.2 45.72C35.5867 45.72 36.7067 45.3867 37.56 44.72C38.44 44.0267 38.88 43.08 38.88 41.88C38.88 41 38.6533 40.24 38.2 39.6C37.7733 38.9333 37.0133 38.4267 35.92 38.08C34.8533 37.7333 33.3467 37.56 31.4 37.56V34.2C33.9067 34.2 35.64 33.8133 36.6 33.04C37.56 32.2667 38.04 31.2933 38.04 30.12C38.04 29.0533 37.7067 28.2267 37.04 27.64C36.3733 27.0267 35.4533 26.72 34.28 26.72C33.2933 26.72 32.3867 26.9467 31.56 27.4C30.7333 27.8267 29.9333 28.4 29.16 29.12L26.8 26.28C27.8933 25.32 29.0533 24.5467 30.28 23.96C31.5333 23.3733 32.92 23.08 34.44 23.08C36.8933 23.08 38.88 23.6667 40.4 24.84C41.92 25.9867 42.68 27.64 42.68 29.8C42.68 31.2133 42.28 32.4133 41.48 33.4C40.7067 34.36 39.6267 35.1067 38.24 35.64V35.8C39.7333 36.2 40.9867 36.9333 42 38C43.0133 39.0667 43.52 40.44 43.52 42.12C43.52 43.6667 43.1067 44.9867 42.28 46.08C41.48 47.1733 40.4 48.0133 39.04 48.6C37.7067 49.1867 36.2267 49.48 34.6 49.48Z" fill="white"/>
</svg>
