<svg width="71" height="71" viewBox="0 0 71 71" fill="none" xmlns="http://www.w3.org/2000/svg">
<rect x="70" width="70" height="70" rx="35" transform="rotate(89.8234 70 0)" fill="#3C63B0"/>
<path d="M35.72 36.6C35 36.6 34.24 36.8267 33.44 37.28C32.64 37.7067 31.88 38.4533 31.16 39.52C31.4 41.7867 31.9467 43.4267 32.8 44.44C33.6533 45.4533 34.6933 45.96 35.92 45.96C36.9867 45.96 37.88 45.5467 38.6 44.72C39.3467 43.8667 39.72 42.6667 39.72 41.12C39.72 39.6267 39.36 38.5067 38.64 37.76C37.9467 36.9867 36.9733 36.6 35.72 36.6ZM36 49.48C34.3467 49.48 32.8133 49.04 31.4 48.16C29.9867 47.28 28.8533 45.92 28 44.08C27.1733 42.24 26.76 39.8933 26.76 37.04C26.76 33.7333 27.2267 31.0667 28.16 29.04C29.12 26.9867 30.36 25.48 31.88 24.52C33.4 23.56 35.0267 23.08 36.76 23.08C38.3067 23.08 39.64 23.36 40.76 23.92C41.88 24.48 42.8133 25.16 43.56 25.96L41.08 28.76C40.6267 28.2 40.0267 27.7467 39.28 27.4C38.56 27.0267 37.8133 26.84 37.04 26.84C35.9733 26.84 35 27.1333 34.12 27.72C33.24 28.3067 32.52 29.2933 31.96 30.68C31.4267 32.04 31.12 33.8933 31.04 36.24C31.7867 35.3067 32.6667 34.5733 33.68 34.04C34.6933 33.5067 35.6533 33.24 36.56 33.24C38.7733 33.24 40.56 33.8933 41.92 35.2C43.3067 36.48 44 38.4533 44 41.12C44 42.8 43.6267 44.2667 42.88 45.52C42.16 46.7733 41.2 47.7467 40 48.44C38.8 49.1333 37.4667 49.48 36 49.48Z" fill="white"/>
</svg>
