<svg width="61" height="61" viewBox="0 0 61 61" fill="none" xmlns="http://www.w3.org/2000/svg">
<g opacity="0.4">
<rect opacity="0.5" width="61" height="61" rx="10" fill="#3C63B0"/>
</g>
<path d="M38.6986 15H24.8268C24.4628 15 24.1399 15.2658 24.1399 15.6299V22.3512C24.1399 22.4842 24.1941 22.6142 24.2693 22.7239L28.0634 28.2462C28.1863 28.4256 28.3967 28.5294 28.6139 28.5294H29.0326L31.8316 27.9932L34.4928 28.5294H34.9114C35.1286 28.5294 35.3321 28.4256 35.4549 28.2462L39.2435 22.7222C39.319 22.6125 39.3605 22.4842 39.3605 22.3512V15.6299C39.3605 15.2658 39.0624 15 38.6986 15Z" fill="#3C63B0"/>
<path opacity="0.2" d="M29.0242 15H34.4735V28.5294H29.0242V15Z" fill="#96894A"/>
<path d="M31.7614 46.2992C36.3111 46.2992 39.9994 42.6109 39.9994 38.0612C39.9994 33.5115 36.3111 29.8232 31.7614 29.8232C27.2117 29.8232 23.5234 33.5115 23.5234 38.0612C23.5234 42.6109 27.2117 46.2992 31.7614 46.2992Z" fill="#3C63B0"/>
<path d="M22.1118 33.4875C23.6619 33.8801 24.882 35.1003 25.2747 36.6503C25.3125 36.7993 25.5043 36.7993 25.5421 36.6503C25.9348 35.1003 27.1549 33.8801 28.705 33.4875C28.854 33.4497 28.854 33.2579 28.705 33.2201C27.1549 32.8275 25.9348 31.6072 25.5421 30.0571C25.5043 29.908 25.3125 29.908 25.2747 30.0571C24.882 31.6072 23.6619 32.8275 22.1118 33.2201C21.9627 33.2579 21.9628 33.4497 22.1118 33.4875Z" fill="#3C63B0"/>
</svg>
