<svg width="70" height="70" viewBox="0 0 70 70" fill="none" xmlns="http://www.w3.org/2000/svg">
<circle r="35" transform="matrix(1 0 0 -1 35 35)" fill="#950606"/>
<path d="M36.1508 24.8911C39.0338 25.2349 41.6216 26.5452 43.5726 28.4904C45.8591 30.7703 47.2726 33.9205 47.2726 37.3991C47.2726 40.8776 45.8591 44.0279 43.5726 46.3077C41.2861 48.5875 38.1266 50 34.6347 50C31.1429 50 27.9865 48.5906 25.7 46.3077C23.4135 44.0279 22 40.8776 22 37.3991C22 33.9205 23.4135 30.7703 25.7 28.4904C27.7939 26.4027 30.6209 25.0429 33.7649 24.8291V23.2215C33.7649 23.1905 33.768 23.1564 33.768 23.1255H31.4007C31.0124 23.1255 30.6955 22.8095 30.6955 22.4223V20.7031C30.6955 20.316 31.0124 20 31.4007 20H38.5149C38.9033 20 39.2201 20.316 39.2201 20.7031V22.4254C39.2201 22.8126 38.9033 23.1285 38.5149 23.1285H36.1477C36.1508 23.1595 36.1508 23.1905 36.1508 23.2246V24.8911ZM35.6506 35.5188C36.3216 35.8782 36.7783 36.5875 36.7783 37.4022C36.7783 38.5823 35.8184 39.5395 34.6347 39.5395C33.4511 39.5395 32.4912 38.5823 32.4912 37.4022C32.4912 36.5875 32.9478 35.8813 33.6189 35.5188V30.6216C33.6189 30.064 34.0724 29.6087 34.6316 29.6087C35.1908 29.6087 35.6475 30.0609 35.6475 30.6216V35.5188H35.6506ZM45.9864 28.698C46.4773 27.5302 46.4183 26.3098 45.7162 25.4889C44.8743 24.507 43.352 24.3924 41.9385 25.0862C43.4359 26.1084 44.7935 27.301 45.9864 28.698ZM23.2862 28.698C22.7953 27.5302 22.8543 26.3098 23.5564 25.4889C24.3983 24.507 25.9206 24.3924 27.3341 25.0862C25.8367 26.1084 24.476 27.301 23.2862 28.698ZM42.1373 29.9246C40.2174 28.0103 37.5674 26.8271 34.6378 26.8271C31.7083 26.8271 29.0552 28.0103 27.1384 29.9246C25.2185 31.8389 24.0317 34.4843 24.0317 37.4022C24.0317 40.3232 25.2185 42.9685 27.1384 44.8828C29.0583 46.7971 31.7083 47.9804 34.6378 47.9804C37.5674 47.9804 40.2205 46.7971 42.1404 44.8828C44.0603 42.9685 45.247 40.3263 45.247 37.4022C45.2439 34.4812 44.0572 31.8358 42.1373 29.9246Z" fill="white"/>
<path d="M31.35 22.6968C30.755 22.6968 30.2725 22.2445 30.2725 21.6838C30.2725 21.1263 30.755 20.6709 31.35 20.6709H42L41.4612 22.6937H31.35V22.6968Z" fill="white"/>
<path d="M33.5905 28.4924C32.9955 28.4924 32.5096 28.0402 32.5096 27.4826C32.5096 26.9251 32.9922 26.4697 33.5905 26.4697H40.4724L40.6509 28.4924H33.5905Z" fill="white"/>
<path d="M36.004 34.4399C35.409 34.4399 34.9231 33.9876 34.9231 33.427C34.9231 32.8694 35.4057 32.4141 36.004 32.4141H41.3818L42.1024 34.4368H36.004V34.4399Z" fill="white"/>
</svg>
