<svg width="70" height="70" viewBox="0 0 70 70" fill="none" xmlns="http://www.w3.org/2000/svg">
<circle r="35" transform="matrix(1 0 0 -1 35 35)" fill="#3C63B0"/>
<g clip-path="url(#clip0_17_5287)">
<path d="M38.9648 30.7483H49.5703C50.0317 30.7483 50.4756 30.5533 50.788 30.2132C51.1008 29.8728 51.2578 29.4137 51.2187 28.9533C51.0713 27.2129 50.2835 25.5997 49.0004 24.4106C48.6134 24.0521 48.1917 23.7419 47.7433 23.4831C48.609 22.6002 49.1437 21.3899 49.1437 20.0568C49.1437 17.3606 46.9562 15.167 44.2675 15.167C41.5788 15.167 39.3913 17.3606 39.3913 20.0569C39.3913 21.39 39.9261 22.6003 40.7918 23.4832C40.3435 23.742 39.9217 24.0522 39.5348 24.4107C38.2516 25.5997 37.4638 27.213 37.3165 28.9533C37.2775 29.4137 37.4344 29.873 37.7471 30.2133C38.0596 30.5533 38.5034 30.7483 38.9648 30.7483ZM41.7839 20.0569C41.7839 18.6799 42.898 17.5596 44.2675 17.5596C45.637 17.5596 46.7511 18.6799 46.7511 20.0569C46.7511 21.434 45.637 22.5542 44.2675 22.5542C42.898 22.5542 41.7839 21.4339 41.7839 20.0569ZM41.1609 26.1657C42.0093 25.3796 43.1126 24.9467 44.2675 24.9467C45.4225 24.9467 46.5257 25.3796 47.3741 26.1657C48.0182 26.7625 48.4727 27.5214 48.6953 28.3557H39.8398C40.0624 27.5214 40.5169 26.7625 41.1609 26.1657Z" fill="white"/>
<path d="M19.2163 30.7483H29.8217C30.2831 30.7483 30.727 30.5533 31.0395 30.2132C31.3522 29.8728 31.5092 29.4137 31.4701 28.9533C31.3228 27.2129 30.535 25.5997 29.2518 24.4106C28.865 24.0521 28.4431 23.7419 27.9949 23.4831C28.8606 22.6001 29.3953 21.3899 29.3953 20.0568C29.3953 17.3606 27.2079 15.167 24.5191 15.167C21.8303 15.167 19.6428 17.3606 19.6428 20.0569C19.6428 21.39 20.1776 22.6003 21.0433 23.4832C20.595 23.742 20.1732 24.0522 19.7863 24.4107C18.5031 25.5997 17.7153 27.213 17.568 28.9533C17.529 29.4137 17.6859 29.8729 17.9987 30.2133C18.3111 30.5533 18.755 30.7483 19.2163 30.7483ZM22.0354 20.0569C22.0354 18.6799 23.1496 17.5596 24.5191 17.5596C25.8886 17.5596 27.0027 18.6799 27.0027 20.0569C27.0027 21.434 25.8886 22.5542 24.5191 22.5542C23.1496 22.5542 22.0354 21.4339 22.0354 20.0569ZM21.4125 26.1657C22.2609 25.3796 23.3641 24.9467 24.5191 24.9467C25.674 24.9467 26.7773 25.3796 27.6256 26.1657C28.2698 26.7625 28.7243 27.5214 28.9469 28.3557H20.0912C20.3138 27.5214 20.7683 26.7625 21.4125 26.1657Z" fill="white"/>
<path d="M49.0006 44.3208C48.6136 43.9623 48.1919 43.6521 47.7435 43.3933C48.6091 42.5103 49.1439 41.3001 49.1439 39.967C49.1439 37.2707 46.9564 35.0771 44.2677 35.0771C41.579 35.0771 39.3915 37.2707 39.3915 39.967C39.3915 41.3001 39.9262 42.5103 40.792 43.3933C40.3437 43.6521 39.9219 43.9623 39.535 44.3208C38.2518 45.5097 37.464 47.1231 37.3167 48.8634C37.2777 49.3238 37.4346 49.7831 37.7473 50.1234C38.0598 50.4635 38.5035 50.6585 38.965 50.6585H49.5705C50.0319 50.6585 50.4757 50.4635 50.7882 50.1234C51.1009 49.7831 51.258 49.3239 51.2189 48.8634C51.0716 47.123 50.2838 45.5098 49.0006 44.3208ZM41.7842 39.967C41.7842 38.5899 42.8983 37.4697 44.2678 37.4697C45.6372 37.4697 46.7514 38.59 46.7514 39.967C46.7514 41.344 45.6372 42.4643 44.2678 42.4643C42.8983 42.4642 41.7842 41.3439 41.7842 39.967ZM39.84 48.2658C40.0626 47.4315 40.5171 46.6725 41.1612 46.0757C42.0095 45.2897 43.1128 44.8568 44.2678 44.8568C45.4228 44.8568 46.526 45.2897 47.3743 46.0757C48.0185 46.6725 48.473 47.4315 48.6956 48.2658H39.84Z" fill="white"/>
<path d="M24.5186 33.1494C18.723 33.1494 14.0079 37.8649 14.0079 43.6611C14.0079 46.3233 15.0026 48.7575 16.6398 50.6116L13.2936 53.9582C12.8265 54.4254 12.8265 55.1829 13.2936 55.6501C13.5272 55.8835 13.8333 56.0003 14.1395 56.0003C14.4457 56.0003 14.7519 55.8835 14.9854 55.6499L18.4183 52.2166C20.1395 53.4476 22.246 54.1727 24.5186 54.1727C30.3142 54.1727 35.0293 49.4571 35.0293 43.661C35.0293 37.8648 30.3142 33.1494 24.5186 33.1494ZM24.5186 51.7802C20.0422 51.7802 16.4005 48.138 16.4005 43.661C16.4005 39.1841 20.0422 35.5419 24.5186 35.5419C28.9949 35.5419 32.6367 39.1841 32.6367 43.661C32.6367 48.138 28.9949 51.7802 24.5186 51.7802Z" fill="white"/>
<path d="M27.8553 40.4237L23.0916 45.1878L21.1812 43.2771C20.714 42.81 19.9566 42.81 19.4893 43.277C19.0222 43.7441 19.0221 44.5016 19.4892 44.9689L22.2457 47.7256C22.4794 47.9592 22.7855 48.076 23.0916 48.076C23.3977 48.076 23.704 47.9592 23.9375 47.7257L23.9376 47.7256L29.5471 42.1154C30.0142 41.6482 30.0142 40.8907 29.5471 40.4235C29.0798 39.9564 28.3224 39.9565 27.8553 40.4237Z" fill="white"/>
</g>
<defs>
<clipPath id="clip0_17_5287">
<rect width="40.8333" height="40.8333" fill="white" transform="translate(11.667 15.167)"/>
</clipPath>
</defs>
</svg>
