<svg width="70" height="70" viewBox="0 0 70 70" fill="none" xmlns="http://www.w3.org/2000/svg">
<circle r="35" transform="matrix(1 0 0 -1 35 35)" fill="#04004D"/>
<path d="M39.0755 33.6758L32.3241 31.8242C31.5427 31.6133 30.9988 30.9277 30.9988 30.166C30.9988 29.2109 31.824 28.4375 32.8429 28.4375H36.9876C37.7502 28.4375 38.5004 28.6543 39.1255 29.0527C39.5069 29.293 40.0195 29.2344 40.3446 28.9355L42.52 26.9434C42.9639 26.5391 42.9014 25.8652 42.4075 25.5078C40.8759 24.3828 38.963 23.7559 37.0001 23.75V20.9375C37.0001 20.4219 36.55 20 35.9999 20H33.9994C33.4493 20 32.9992 20.4219 32.9992 20.9375V23.75H32.8429C28.8608 23.75 25.6602 26.9551 26.029 30.7578C26.2915 33.459 28.492 35.6563 31.2676 36.418L37.6752 38.1758C38.4566 38.3926 39.0005 39.0723 39.0005 39.834C39.0005 40.7891 38.1753 41.5625 37.1564 41.5625H33.0117C32.2491 41.5625 31.4989 41.3457 30.8738 40.9473C30.4924 40.707 29.9798 40.7656 29.6548 41.0645L27.4793 43.0566C27.0354 43.4609 27.098 44.1348 27.5918 44.4922C29.1234 45.6172 31.0363 46.2441 32.9992 46.25V49.0625C32.9992 49.5781 33.4493 50 33.9994 50H35.9999C36.55 50 37.0001 49.5781 37.0001 49.0625V46.2383C39.9132 46.1855 42.645 44.5625 43.6078 41.9785C44.9518 38.3691 42.6951 34.666 39.0755 33.6758Z" fill="white"/>
</svg>
