<svg width="70" height="70" viewBox="0 0 70 70" fill="none" xmlns="http://www.w3.org/2000/svg">
<circle r="35" transform="matrix(1 0 0 -1 35 35)" fill="#4A99D3"/>
<g filter="url(#filter0_d_17_5298)">
<path d="M47.5808 29.4978C46.9046 27.7594 45.8743 26.1806 44.5554 24.8616C43.2364 23.5427 41.6576 22.5124 39.9192 21.8362C39.9192 20.5315 39.4009 19.2803 38.4784 18.3578C37.5559 17.4353 36.3046 16.917 35 16.917C33.6954 16.917 32.4441 17.4353 31.5216 18.3578C30.5991 19.2803 30.0808 20.5315 30.0808 21.8362C28.3424 22.5124 26.7636 23.5427 25.4446 24.8616C24.1257 26.1806 23.0954 27.7594 22.4192 29.4978C21.1145 29.4978 19.8633 30.0161 18.9408 30.9386C18.0183 31.8611 17.5 33.1123 17.5 34.417C17.5 35.7216 18.0183 36.9729 18.9408 37.8954C19.8633 38.8179 21.1145 39.3362 22.4192 39.3362C23.0954 41.0746 24.1257 42.6534 25.4446 43.9724C26.7636 45.2913 28.3424 46.3216 30.0808 46.9978C30.0808 48.3025 30.5991 49.5537 31.5216 50.4762C32.4441 51.3987 33.6954 51.917 35 51.917C36.3046 51.917 37.5559 51.3987 38.4784 50.4762C39.4009 49.5537 39.9192 48.3025 39.9192 46.9978C41.6576 46.3216 43.2364 45.2913 44.5554 43.9724C45.8743 42.6534 46.9046 41.0746 47.5808 39.3362C48.8855 39.3362 50.1367 38.8179 51.0592 37.8954C51.9817 36.9729 52.5 35.7216 52.5 34.417C52.5 33.1123 51.9817 31.8611 51.0592 30.9386C50.1367 30.0161 48.8855 29.4978 47.5808 29.4978ZM35 19.6594C35.4865 19.6594 35.962 19.8037 36.3665 20.074C36.771 20.3442 37.0862 20.7284 37.2724 21.1778C37.4585 21.6272 37.5072 22.1218 37.4123 22.5989C37.3174 23.076 37.0832 23.5142 36.7392 23.8582C36.3952 24.2022 35.957 24.4365 35.4798 24.5314C35.0027 24.6263 34.5082 24.5776 34.0588 24.3914C33.6093 24.2052 33.2252 23.89 32.9549 23.4855C32.6847 23.081 32.5404 22.6055 32.5404 22.119C32.5404 21.4667 32.7995 20.8411 33.2608 20.3798C33.7221 19.9186 34.3477 19.6594 35 19.6594ZM20.2424 34.417C20.2424 33.9305 20.3867 33.455 20.657 33.0505C20.9272 32.646 21.3114 32.3308 21.7608 32.1446C22.2102 31.9585 22.7048 31.9098 23.1819 32.0047C23.659 32.0996 24.0973 32.3338 24.4412 32.6778C24.7852 33.0218 25.0195 33.46 25.1144 33.9372C25.2093 34.4143 25.1606 34.9088 24.9744 35.3582C24.7882 35.8077 24.473 36.1918 24.0685 36.4621C23.664 36.7323 23.1885 36.8766 22.702 36.8766C22.0497 36.8766 21.4241 36.6175 20.9628 36.1562C20.5016 35.6949 20.2424 35.0693 20.2424 34.417ZM35 49.1745C34.5135 49.1745 34.038 49.0303 33.6335 48.76C33.229 48.4898 32.9138 48.1056 32.7276 47.6562C32.5415 47.2068 32.4928 46.7122 32.5877 46.2351C32.6826 45.758 32.9168 45.3197 33.2608 44.9758C33.6048 44.6318 34.043 44.3975 34.5202 44.3026C34.9973 44.2077 35.4918 44.2564 35.9412 44.4426C36.3907 44.6287 36.7748 44.944 37.0451 45.3485C37.3153 45.753 37.4596 46.2285 37.4596 46.715C37.4596 47.3673 37.2005 47.9929 36.7392 48.4541C36.2779 48.9154 35.6523 49.1745 35 49.1745ZM39.4027 44.5628C38.9947 43.7442 38.3666 43.0556 37.5889 42.5742C36.8111 42.0929 35.9146 41.8379 35 41.8379C34.0854 41.8379 33.1889 42.0929 32.4111 42.5742C31.6334 43.0556 31.0053 43.7442 30.5973 44.5628C28.0243 43.4454 25.9716 41.3927 24.8542 38.8197C25.6728 38.4117 26.3614 37.7836 26.8427 37.0058C27.3241 36.2281 27.5791 35.3316 27.5791 34.417C27.5791 33.5024 27.3241 32.6059 26.8427 31.8281C26.3614 31.0504 25.6728 30.4223 24.8542 30.0143C25.9716 27.4413 28.0243 25.3886 30.5973 24.2712C31.0053 25.0898 31.6334 25.7784 32.4111 26.2597C33.1889 26.7411 34.0854 26.9961 35 26.9961C35.9146 26.9961 36.8111 26.7411 37.5889 26.2597C38.3666 25.7784 38.9947 25.0898 39.4027 24.2712C41.9757 25.3886 44.0284 27.4413 45.1458 30.0143C44.3272 30.4223 43.6386 31.0504 43.1573 31.8281C42.6759 32.6059 42.4209 33.5024 42.4209 34.417C42.4209 35.3316 42.6759 36.2281 43.1573 37.0058C43.6386 37.7836 44.3272 38.4117 45.1458 38.8197C44.0284 41.3927 41.9757 43.4454 39.4027 44.5628ZM47.298 36.8766C46.8115 36.8766 46.336 36.7323 45.9315 36.4621C45.527 36.1918 45.2118 35.8077 45.0256 35.3582C44.8394 34.9088 44.7907 34.4143 44.8856 33.9372C44.9805 33.46 45.2148 33.0218 45.5588 32.6778C45.9028 32.3338 46.341 32.0996 46.8181 32.0047C47.2952 31.9098 47.7898 31.9585 48.2392 32.1446C48.6886 32.3308 49.0728 32.646 49.343 33.0505C49.6133 33.455 49.7576 33.9305 49.7576 34.417C49.7576 35.0693 49.4984 35.6949 49.0372 36.1562C48.5759 36.6175 47.9503 36.8766 47.298 36.8766Z" fill="white"/>
</g>
<defs>
<filter id="filter0_d_17_5298" x="5.5" y="10.917" width="59" height="59" filterUnits="userSpaceOnUse" color-interpolation-filters="sRGB">
<feFlood flood-opacity="0" result="BackgroundImageFix"/>
<feColorMatrix in="SourceAlpha" type="matrix" values="0 0 0 0 0 0 0 0 0 0 0 0 0 0 0 0 0 0 127 0" result="hardAlpha"/>
<feOffset dy="6"/>
<feGaussianBlur stdDeviation="6"/>
<feColorMatrix type="matrix" values="0 0 0 0 0 0 0 0 0 0 0 0 0 0 0 0 0 0 0.1 0"/>
<feBlend mode="normal" in2="BackgroundImageFix" result="effect1_dropShadow_17_5298"/>
<feBlend mode="normal" in="SourceGraphic" in2="effect1_dropShadow_17_5298" result="shape"/>
</filter>
</defs>
</svg>
