<svg width="70" height="70" viewBox="0 0 70 70" fill="none" xmlns="http://www.w3.org/2000/svg">
<circle cx="35" cy="35" r="35" fill="#19BF6F"/>
<path d="M19.7273 29.6734L33.376 35.8649C33.7744 36.0459 34.225 36.0459 34.6234 35.8649L48.2721 29.6734C49.2418 29.2333 49.2418 27.7679 48.2721 27.3279L34.624 21.1358C34.4283 21.0463 34.2155 21 34.0003 21C33.7851 21 33.5723 21.0463 33.3766 21.1358L19.7273 27.3273C18.7576 27.7673 18.7576 29.2333 19.7273 29.6734ZM48.2727 34.8459L44.869 33.3032L35.398 37.5963C34.9551 37.7973 34.4846 37.8992 34 37.8992C33.5154 37.8992 33.0455 37.7973 32.602 37.5963L23.1316 33.3032L19.7273 34.8459C18.7576 35.2854 18.7576 36.7502 19.7273 37.1897L33.376 43.3765C33.7744 43.5569 34.225 43.5569 34.6234 43.3765L48.2727 37.1897C49.2424 36.7502 49.2424 35.2854 48.2727 34.8459ZM48.2727 42.3341L44.8819 40.7972L35.398 45.0962C34.9551 45.2972 34.4846 45.3991 34 45.3991C33.5154 45.3991 33.0455 45.2972 32.602 45.0962L23.1187 40.7972L19.7273 42.3341C18.7576 42.7736 18.7576 44.2384 19.7273 44.6778L33.376 50.8647C33.7744 51.0451 34.225 51.0451 34.6234 50.8647L48.2727 44.6778C49.2424 44.2384 49.2424 42.7736 48.2727 42.3341Z" fill="white"/>
</svg>
