<svg width="388" height="233" viewBox="0 0 388 233" fill="none" xmlns="http://www.w3.org/2000/svg">
<path d="M109.342 84.2654C109.342 89.0409 109.859 92.9122 110.762 95.7513C111.908 98.9455 113.288 102.051 114.891 105.042C115.536 106.074 115.793 107.106 115.793 108.011C115.793 109.3 115.02 110.591 113.343 111.882L105.213 117.301C104.052 118.076 102.89 118.463 101.857 118.463C100.567 118.463 99.2762 117.817 97.9853 116.656C96.2468 114.787 94.6914 112.756 93.3407 110.591C92.0497 108.399 90.7588 105.945 89.34 102.978C79.2744 114.849 66.6269 120.786 51.4005 120.786C40.5616 120.786 31.9148 117.688 25.591 111.495C19.2688 105.299 16.043 97.0407 16.043 86.7178C16.043 75.7495 19.9142 66.8454 27.7862 60.135C35.6566 53.4246 46.1105 50.0693 59.4019 50.0693C63.7892 50.0693 68.306 50.456 73.08 51.1015C77.8555 51.7469 82.759 52.7791 87.9212 53.9406V44.5205C87.9212 34.7121 85.8554 27.8738 81.8547 23.8731C77.7261 19.8725 70.7569 17.9361 60.8207 17.9361C56.304 17.9361 51.6593 18.4537 46.8838 19.6152C42.1098 20.7752 37.4636 22.1955 32.9469 24.0025C30.8826 24.9053 29.3344 25.4213 28.4301 25.6801C27.5274 25.9389 26.8819 26.0668 26.3659 26.0668C24.5589 26.0668 23.6561 24.7759 23.6561 22.0661V15.7424C23.6561 13.6781 23.9149 12.1299 24.5589 11.2272C25.2043 10.3229 26.3659 9.42016 28.1729 8.51742C32.6896 6.19435 38.1091 4.25795 44.4313 2.70974C50.7566 1.03214 57.467 0.258796 64.5641 0.258796C79.9213 0.258796 91.1485 3.74188 98.375 10.7111C105.472 17.6788 109.086 28.2605 109.086 42.4562V84.2654H109.345H109.342ZM56.9494 103.881C61.2089 103.881 65.5962 103.107 70.2409 101.557C74.887 100.009 79.0171 97.1701 82.5002 93.2989C84.566 90.8479 86.1142 88.1382 86.8875 85.0402C87.6624 81.9438 88.1785 78.2004 88.1785 73.8131V68.3936C84.265 67.4411 80.3012 66.7087 76.3058 66.1999C72.2826 65.6889 68.2314 65.4301 64.1759 65.4251C55.5291 65.4251 49.2069 67.1027 44.9489 70.5873C40.6894 74.0719 38.6252 78.9753 38.6252 85.4269C38.6252 91.4919 40.1734 96.0086 43.3992 99.1065C46.4971 102.332 51.0139 103.881 56.9494 103.881ZM160.573 117.817C158.25 117.817 156.701 117.431 155.669 116.527C154.637 115.753 153.733 113.946 152.96 111.495L122.635 11.7432C121.858 9.16136 121.472 7.48376 121.472 6.58102C121.472 4.51674 122.504 3.35369 124.57 3.35369H137.216C139.667 3.35369 141.346 3.74188 142.248 4.64462C143.281 5.41948 144.055 7.22649 144.829 9.67743L166.508 95.1059L186.64 9.67743C187.285 7.09709 188.06 5.41948 189.09 4.64462C190.124 3.87128 191.931 3.35521 194.254 3.35521H204.577C207.028 3.35521 208.707 3.74188 209.738 4.64462C210.771 5.41948 211.674 7.22649 212.19 9.67743L232.58 96.138L254.904 9.67743C255.677 7.09709 256.581 5.41948 257.484 4.64462C258.516 3.87128 260.194 3.35521 262.517 3.35521H274.517C276.583 3.35521 277.745 4.38735 277.745 6.58102C277.745 7.22649 277.615 7.87195 277.486 8.6453C277.357 9.42016 277.099 10.4523 276.583 11.8726L245.482 111.623C244.709 114.205 243.806 115.883 242.772 116.656C241.74 117.431 240.063 117.947 237.87 117.947H226.773C224.32 117.947 222.643 117.56 221.609 116.656C220.577 115.753 219.674 114.076 219.158 111.495L199.155 28.2605L179.282 111.364C178.638 113.946 177.863 115.624 176.831 116.527C175.799 117.431 173.992 117.817 171.67 117.817H160.571H160.573ZM326.395 121.302C319.685 121.302 312.974 120.527 306.523 118.979C300.07 117.431 295.038 115.752 291.683 113.818C289.617 112.655 288.197 111.366 287.683 110.204C287.18 109.065 286.916 107.835 286.908 106.59V100.009C286.908 97.2995 287.94 96.0086 289.876 96.0086C290.666 96.0115 291.451 96.1426 292.199 96.3968C292.973 96.6556 294.134 97.1701 295.425 97.6862C299.983 99.691 304.741 101.205 309.619 102.203C314.674 103.229 319.819 103.747 324.976 103.751C333.106 103.751 339.429 102.332 343.817 99.4932C348.204 96.6541 350.527 92.5255 350.527 87.2339C350.527 83.6214 349.366 80.6529 347.043 78.2004C344.72 75.7495 340.332 73.5558 334.01 71.49L315.298 65.6839C305.877 62.7153 298.91 58.328 294.65 52.5203C290.392 46.842 288.199 40.5198 288.199 33.8094C288.199 28.3899 289.36 23.6143 291.683 19.4843C294.005 15.3557 297.103 11.7432 300.974 8.90409C304.845 5.93555 309.233 3.74188 314.395 2.19367C319.555 0.645467 324.975 0 330.653 0C333.492 0 336.461 0.129398 339.3 0.516069C342.269 0.90274 344.978 1.41881 347.688 1.93488C350.268 2.58034 352.721 3.22581 355.044 4.00068C357.367 4.77402 359.173 5.54888 360.463 6.32222C362.27 7.35588 363.56 8.38802 364.335 9.54956C365.11 10.5817 365.496 12.0005 365.496 13.8075V19.8725C365.496 22.5822 364.464 24.0025 362.528 24.0025C361.496 24.0025 359.818 23.4849 357.626 22.4528C350.268 19.0976 342.01 17.42 332.848 17.42C325.493 17.42 319.685 18.5815 315.684 21.034C311.685 23.4849 309.619 27.2283 309.619 32.5184C309.619 36.1324 310.91 39.2289 313.49 41.6813C316.072 44.1323 320.846 46.5847 327.686 48.7784L346.01 54.5861C355.301 57.5546 362.012 61.6832 366.012 66.9733C370.013 72.2649 371.949 78.3298 371.949 85.0402C371.949 90.5891 370.786 95.6219 368.593 100.009C366.271 104.397 363.173 108.268 359.173 111.366C355.172 114.592 350.398 116.915 344.849 118.592C339.041 120.399 332.976 121.302 326.395 121.302V121.302Z" fill="#252F3E"/>
<path d="M350.784 184.017C308.33 215.375 246.645 232.022 193.609 232.022C119.278 232.022 52.3047 204.535 1.71927 158.853C-2.2814 155.24 1.33108 150.337 6.1051 153.175C60.8206 184.921 128.311 204.148 198.125 204.148C245.226 204.148 296.973 194.341 344.592 174.21C351.689 170.983 357.754 178.856 350.784 184.017V184.017ZM368.465 163.886C363.045 156.918 332.589 160.53 318.782 162.208C314.652 162.726 314.006 159.112 317.75 156.402C342.01 139.367 381.885 144.272 386.53 149.949C391.176 155.756 385.239 195.631 362.528 214.73C359.044 217.698 355.689 216.15 357.237 212.279C362.398 199.502 373.884 170.725 368.465 163.886V163.886Z" fill="#FF9900"/>
</svg>
