<svg width="776" height="554" viewBox="0 0 776 554" fill="none" xmlns="http://www.w3.org/2000/svg">
<path d="M776 486.98H0V487.347H776V486.98Z" fill="#E6E6E6"/>
<path d="M121.397 503.33H80.1606V503.696H121.397V503.33Z" fill="#E6E6E6"/>
<path d="M136.312 496.005H100.771V496.371H136.312V496.005Z" fill="#E6E6E6"/>
<path d="M505.037 497.089H409.666V497.455H505.037V497.089Z" fill="#E6E6E6"/>
<path d="M536.851 497.089H513.975V497.455H536.851V497.089Z" fill="#E6E6E6"/>
<path d="M666.924 499.595H591.404V499.961H666.924V499.595Z" fill="#E6E6E6"/>
<path d="M299.799 505.439H165.349V505.806H299.799V505.439Z" fill="#E6E6E6"/>
<path d="M691.556 499.595H680.553V499.961H691.556V499.595Z" fill="#E6E6E6"/>
<path d="M703.537 421.642H403.846C401.497 421.638 399.245 420.755 397.584 419.187C395.923 417.62 394.988 415.494 394.984 413.277V15.6317C395.009 13.4271 395.953 11.3204 397.612 9.76822C399.27 8.21607 401.51 7.34358 403.846 7.33984H703.537C705.869 7.34747 708.103 8.22214 709.756 9.77428C711.409 11.3264 712.348 13.431 712.368 15.6317V413.277C712.368 415.49 711.439 417.613 709.784 419.181C708.128 420.749 705.882 421.634 703.537 421.642ZM403.846 7.63284C401.6 7.63672 399.447 8.4807 397.859 9.97994C396.27 11.4792 395.376 13.5115 395.372 15.6317V413.277C395.376 415.397 396.27 417.429 397.859 418.928C399.447 420.428 401.6 421.272 403.846 421.276H703.537C705.784 421.272 707.937 420.428 709.525 418.928C711.113 417.429 712.007 415.397 712.011 413.277V15.6317C712.007 13.5115 711.113 11.4792 709.525 9.97994C707.937 8.4807 705.784 7.63672 703.537 7.63284H403.846Z" fill="#E6E6E6"/>
<path d="M238.122 235.033C242.442 217.341 230.751 199.693 212.008 195.615C193.265 191.537 174.568 202.573 170.248 220.265C165.928 237.957 177.62 255.606 196.363 259.684C215.106 263.762 233.802 252.725 238.122 235.033Z" fill="#F0F0F0"/>
<path d="M441.667 220.849C437.337 212.059 440.783 205.687 451.398 205.687C458.041 205.687 466.298 208.177 474.337 212.206C475.253 209.906 477.798 208.529 481.911 208.529C489.158 208.529 499.138 212.792 506.96 218.784C509.374 217.259 512.219 216.457 515.123 216.484C522.061 216.22 530.442 218.666 537.736 222.651C538.164 222.268 538.668 221.97 539.22 221.774C539.772 221.577 540.36 221.487 540.949 221.509C543.261 221.582 545.531 222.111 547.613 223.062C549.695 224.014 551.543 225.366 553.039 227.032C553.209 227.222 553.349 227.427 553.504 227.618H436.282C432.573 224.497 436.67 221.01 441.667 220.849Z" fill="#F5F5F5"/>
<path d="M213.308 288.868L309.346 268.109V486.98H213.308V288.868Z" fill="#FAFAFA"/>
<path d="M359.179 268.109H309.344V486.98H359.179V268.109Z" fill="#EBEBEB"/>
<path d="M342.899 486.98H424.643L424.643 215.765H342.899V486.98Z" fill="#FAFAFA"/>
<path d="M467.059 215.766H424.643V486.981H467.059V215.766Z" fill="#EBEBEB"/>
<path d="M353.903 215.766H424.643V195.607H353.903V215.766Z" fill="#FAFAFA"/>
<path d="M353.903 215.766H424.643V211.239H353.903V215.766Z" fill="#EBEBEB"/>
<path d="M456.071 195.607H424.643V215.766H456.071V195.607Z" fill="#EBEBEB"/>
<path d="M364.89 195.607H424.627V175.449H364.89V195.607Z" fill="#FAFAFA"/>
<path d="M364.89 195.607H424.627V191.081H364.89V195.607Z" fill="#EBEBEB"/>
<path d="M445.067 175.463H424.643V195.621H445.067V175.463Z" fill="#EBEBEB"/>
<path d="M406.965 147.306H402.992V175.463H406.965V147.306Z" fill="#EBEBEB"/>
<path d="M453.51 486.98H513.199V251.013H453.51V486.98Z" fill="#FAFAFA"/>
<path d="M544.193 251.014H513.215V486.981H544.193V251.014Z" fill="#EBEBEB"/>
<path d="M528.705 298.875L573.961 335.5V486.981H528.705V298.875Z" fill="#FAFAFA"/>
<path d="M597.459 335.5H573.962V486.981H597.459V335.5Z" fill="#EBEBEB"/>
<path d="M597.458 335.5H573.961L528.705 298.875H552.186L597.458 335.5Z" fill="#EBEBEB"/>
<path d="M682.726 486.981C683.391 483.462 684.976 480.155 687.336 477.359C689.697 474.563 692.758 472.367 696.244 470.969C693.184 475.785 691.794 481.383 692.27 486.981H682.726Z" fill="#EBEBEB"/>
<path d="M289.138 486.981C288.472 483.462 286.887 480.155 284.527 477.359C282.167 474.563 279.105 472.367 275.62 470.969C278.68 475.785 280.069 481.383 279.593 486.981H289.138Z" fill="#EBEBEB"/>
<path d="M91.3674 486.981C91.3674 486.981 90.6069 468.229 82.3037 462.779C85.7026 470.441 84.9732 486.981 84.9732 486.981H91.3674Z" fill="#EBEBEB"/>
<path d="M88.2482 486.981C88.2482 486.981 89.0242 476.213 97.3274 473.093C93.913 477.488 94.6579 486.981 94.6579 486.981H88.2482Z" fill="#EBEBEB"/>
<path d="M296.244 486.981C296.244 486.981 295.406 469.225 280.352 462.779C287.087 471.892 286.699 486.981 286.699 486.981H296.244Z" fill="#EBEBEB"/>
<path d="M145.391 367.451L156.348 440.408L157.434 447.704H164.465L163.363 440.408L152.406 367.451H145.391Z" fill="#E0E0E0"/>
<path d="M446.464 367.451L457.421 440.408L458.508 447.704H465.538L464.436 440.408L453.479 367.451H446.464Z" fill="#E0E0E0"/>
<path d="M190.384 440.408L191.486 447.704L197.399 487.039H204.429L198.516 447.704L197.43 440.408H190.384Z" fill="#E6E6E6"/>
<path d="M491.471 440.408L492.573 447.704L498.471 487.039H505.486L499.588 447.704L498.502 440.408H491.471Z" fill="#E6E6E6"/>
<path d="M455.993 440.408L454.891 447.704L448.978 487.039H441.948L447.861 447.704L448.947 440.408H455.993Z" fill="#E6E6E6"/>
<path d="M154.906 440.408L153.804 447.704L147.907 487.039H140.891L146.789 447.704L147.891 440.408H154.906Z" fill="#E6E6E6"/>
<path d="M135.288 377.604H457.064L451.089 357.284H129.313L135.288 377.604Z" fill="#F5F5F5"/>
<path d="M142.628 377.604H464.42L458.445 357.284H136.653L142.628 377.604Z" fill="#E6E6E6"/>
<path d="M139.773 402.934H461.549L455.574 382.629H133.782L139.773 402.934Z" fill="#F5F5F5"/>
<path d="M147.115 402.934H468.891L462.916 382.629H141.14L147.115 402.934Z" fill="#E6E6E6"/>
<path d="M144.243 428.308H466.034L460.059 408.003H138.267L144.243 428.308Z" fill="#F5F5F5"/>
<path d="M151.6 428.308H473.376L467.401 408.003H145.625L151.6 428.308Z" fill="#E6E6E6"/>
<path d="M502.662 440.408H182.298V447.704H502.662V440.408Z" fill="#E6E6E6"/>
<path d="M182.298 440.408H138.267V447.704H182.298V440.408Z" fill="#F5F5F5"/>
<path d="M114.072 142.809C108.066 130.561 112.846 121.845 127.528 121.845C136.731 121.845 148.139 125.273 159.266 130.854C160.523 127.675 164.062 125.771 169.742 125.771C179.768 125.771 193.566 131.631 204.399 139.996C207.733 137.884 211.667 136.776 215.682 136.817C225.273 136.436 236.882 139.835 246.97 145.343C248.169 144.282 249.765 143.713 251.409 143.761C256.934 143.541 264.414 146.969 268.124 151.394C268.356 151.672 268.558 151.936 268.76 152.214H106.623C101.501 147.863 107.166 143.029 114.072 142.809Z" fill="#F5F5F5"/>
<path d="M539.955 168.065C540.364 168.043 540.773 168.043 541.182 168.065C540.809 164.066 542.997 161.502 547.7 161.502C551.879 161.769 555.924 163.001 559.48 165.091C558.269 157.327 562.165 152.272 570.949 152.272C578.042 152.272 587.028 155.554 595.905 160.916C596.681 157.869 599.288 156.038 603.665 156.038C611.425 156.038 622.289 161.692 631.135 169.662C633.46 167.667 636.499 166.578 639.64 166.615C646.981 166.249 656.107 169.545 664.193 174.79C664.582 174.308 665.089 173.924 665.67 173.669C666.251 173.413 666.889 173.295 667.53 173.325C671.549 173.134 677.075 176.049 680.303 179.946H533.499C530.038 173.911 532.785 168.739 539.955 168.065Z" fill="#F5F5F5"/>
<path d="M292.986 79.4616C293.389 79.4394 293.794 79.4394 294.197 79.4616C293.824 75.4475 296.028 72.8984 300.715 72.8984C304.899 73.1628 308.95 74.3955 312.51 76.4877C311.3 68.7085 315.18 63.6543 323.964 63.6543C331.072 63.6543 340.043 66.9505 348.92 72.3124C349.696 69.2652 352.304 67.434 356.68 67.434C364.44 67.434 375.304 73.0742 384.151 81.0585C386.48 79.0696 389.515 77.9772 392.656 77.9966C399.997 77.645 409.122 80.9266 417.208 86.1713C417.598 85.6912 418.105 85.3073 418.686 85.0522C419.267 84.7971 419.905 84.6784 420.545 84.7063C424.565 84.5012 430.106 87.4166 433.318 91.3281H286.514C283.069 85.307 285.816 80.1355 292.986 79.4616Z" fill="#F5F5F5"/>
<path d="M659.244 461.637L631.665 435.604H610.185L634.024 458.106H627.475V486.981H652.695V461.637H659.244Z" fill="#EBEBEB"/>
<path d="M637.763 461.637L610.184 435.604L582.604 461.637H592.894V486.981H627.473V461.637H637.763Z" fill="#FAFAFA"/>
<path d="M388 553.14C554.192 553.14 688.917 545.715 688.917 536.556C688.917 527.397 554.192 519.973 388 519.973C221.808 519.973 87.0825 527.397 87.0825 536.556C87.0825 545.715 221.808 553.14 388 553.14Z" fill="#F5F5F5"/>
<path d="M622.601 84.5745L581.24 45.5322H549.021L584.779 79.2858H574.939V122.577H612.761V84.5745H622.601Z" fill="#3C63B0"/>
<path opacity="0.4" d="M622.601 84.5745L581.24 45.5322H549.021L584.779 79.2858H574.939V122.577H612.761V84.5745H622.601Z" fill="white"/>
<path d="M590.382 84.5745L549.021 45.5322L507.66 84.5745H523.102V122.577H574.939V84.5745H590.382Z" fill="#3C63B0"/>
<path opacity="0.7" d="M590.382 84.5745L549.021 45.5322L507.66 84.5745H523.102V122.577H574.939V84.5745H590.382Z" fill="white"/>
<path d="M649.234 240.421L607.873 201.364H575.653L611.411 235.118H601.572V278.409H639.394V240.421H649.234Z" fill="#3C63B0"/>
<path opacity="0.4" d="M649.234 240.421L607.873 201.364H575.653L611.411 235.118H601.572V278.409H639.394V240.421H649.234Z" fill="white"/>
<path d="M617.014 240.421L575.654 201.364L534.293 240.421H549.72V278.409H601.572V240.421H617.014Z" fill="#3C63B0"/>
<path opacity="0.7" d="M617.014 240.421L575.654 201.364L534.293 240.421H549.72V278.409H601.572V240.421H617.014Z" fill="white"/>
<path d="M463.087 281.017L421.71 241.975H389.506L425.265 275.714H415.425V319.019H453.247V281.017H463.087Z" fill="#3C63B0"/>
<path opacity="0.4" d="M463.087 281.017L421.71 241.975H389.506L425.265 275.714H415.425V319.019H453.247V281.017H463.087Z" fill="white"/>
<path d="M430.867 281.017L389.507 241.975L348.146 281.017H363.573V319.004H415.425V281.017H430.867Z" fill="#3C63B0"/>
<path opacity="0.7" d="M430.867 281.017L389.507 241.975L348.146 281.017H363.573V319.004H415.425V281.017H430.867Z" fill="white"/>
<path d="M460.618 149.825H438.362L435.181 146.837L409.34 101.422L460.618 149.825Z" fill="#2F54C6"/>
<path d="M438.286 193.937H485.172V140.259H438.286V193.937Z" fill="#3C63B0"/>
<path opacity="0.3" d="M438.286 193.937H485.172V140.259H438.286V193.937Z" fill="black"/>
<path d="M457.437 146.837H497.385L446.092 98.4189H406.159L457.437 146.837Z" fill="#3C63B0"/>
<path opacity="0.3" d="M457.437 146.837H497.385L446.092 98.4189H406.159L457.437 146.837Z" fill="black"/>
<path d="M438.285 133.256V193.936H374.017V133.256L406.159 103.795L406.485 104.103L409.341 106.71L438.285 133.256Z" fill="#3C63B0"/>
<path opacity="0.3" d="M409.341 101.422V122.43L380.303 149.825H374.017V134.765L406.485 104.103L409.341 101.422Z" fill="black"/>
<path d="M457.437 146.837H435.181L406.159 119.427V98.4189L457.437 146.837Z" fill="#3C63B0"/>
<path d="M354.866 146.837H377.121L406.159 119.427V98.4189L354.866 146.837Z" fill="#3C63B0"/>
<path d="M347.648 208.601C334.41 218.739 320.752 228.276 307.017 237.652C293.282 247.028 279.36 256.14 265.392 265.179C251.424 274.218 237.223 282.92 222.961 291.549C215.868 295.944 208.667 300.105 201.512 304.382C197.983 306.678 194.084 308.42 189.965 309.539C187.732 310.108 185.444 310.461 183.136 310.594C180.543 310.796 177.932 310.663 175.376 310.199C173.375 309.814 171.475 309.061 169.783 307.982C168.091 306.904 166.641 305.52 165.517 303.912C164.392 302.303 163.615 300.501 163.229 298.608C162.844 296.716 162.858 294.77 163.271 292.882C163.271 292.662 163.379 292.384 163.441 292.15C164.138 289.778 165.183 287.509 166.545 285.411C167.692 283.542 169.039 281.789 170.565 280.181C173.44 277.179 176.81 274.637 180.544 272.651C187.761 268.461 194.916 264.197 202.164 260.095C216.613 251.76 231.202 243.658 245.868 235.659C260.534 227.66 275.356 219.911 290.302 212.351C305.248 204.792 320.318 197.423 335.775 190.625C338.269 189.604 341.069 189.463 343.664 190.226C346.259 190.989 348.478 192.607 349.916 194.785C351.354 196.962 351.917 199.554 351.5 202.09C351.084 204.626 349.717 206.936 347.648 208.601Z" fill="#3C63B0"/>
<path d="M347.648 208.601C334.41 218.739 320.752 228.276 307.017 237.652C293.282 247.028 279.36 256.14 265.392 265.179C251.424 274.218 237.223 282.92 222.961 291.549C215.868 295.944 208.667 300.105 201.512 304.382C197.983 306.678 194.084 308.42 189.965 309.539C187.732 310.108 185.444 310.461 183.136 310.594C180.543 310.796 177.932 310.663 175.376 310.199C173.375 309.814 171.475 309.061 169.783 307.982C168.091 306.904 166.641 305.52 165.517 303.912C164.392 302.303 163.615 300.501 163.229 298.608C162.844 296.716 162.858 294.77 163.271 292.882C163.271 292.662 163.379 292.384 163.441 292.15C164.138 289.778 165.183 287.509 166.545 285.411C167.692 283.542 169.039 281.789 170.565 280.181C173.44 277.179 176.81 274.637 180.544 272.651C187.761 268.461 194.916 264.197 202.164 260.095C216.613 251.76 231.202 243.658 245.868 235.659C260.534 227.66 275.356 219.911 290.302 212.351C305.248 204.792 320.318 197.423 335.775 190.625C338.269 189.604 341.069 189.463 343.664 190.226C346.259 190.989 348.478 192.607 349.916 194.785C351.354 196.962 351.917 199.554 351.5 202.09C351.084 204.626 349.717 206.936 347.648 208.601Z" fill="#3C63B0"/>
<path opacity="0.5" d="M347.648 208.601C334.41 218.739 320.752 228.276 307.017 237.652C293.282 247.028 279.36 256.14 265.392 265.179C251.424 274.218 237.223 282.92 222.961 291.549C215.868 295.944 208.667 300.105 201.512 304.382C197.983 306.678 194.084 308.42 189.965 309.539C187.732 310.108 185.444 310.461 183.136 310.594C180.543 310.796 177.932 310.663 175.376 310.199C173.375 309.814 171.475 309.061 169.783 307.982C168.091 306.904 166.641 305.52 165.517 303.912C164.392 302.303 163.615 300.501 163.229 298.608C162.844 296.716 162.858 294.77 163.271 292.882C163.271 292.662 163.379 292.384 163.441 292.15C164.138 289.778 165.183 287.509 166.545 285.411C167.692 283.542 169.039 281.789 170.565 280.181C173.44 277.179 176.81 274.637 180.544 272.651C187.761 268.461 194.916 264.197 202.164 260.095C216.613 251.76 231.202 243.658 245.868 235.659C260.534 227.66 275.356 219.911 290.302 212.351C305.248 204.792 320.318 197.423 335.775 190.625C338.269 189.604 341.069 189.463 343.664 190.226C346.259 190.989 348.478 192.607 349.916 194.785C351.354 196.962 351.917 199.554 351.5 202.09C351.084 204.626 349.717 206.936 347.648 208.601Z" fill="white"/>
<path d="M290.379 523.943L303.044 521.174L297.115 493.295L284.451 496.064L290.379 523.943Z" fill="#EBB376"/>
<path d="M204.988 190.801C203.234 196.661 201.543 202.829 199.929 208.865C198.315 214.9 196.825 221.024 195.583 227.119C194.9 230.151 194.31 233.257 193.798 236.114C193.286 238.97 192.991 241.974 192.805 244.977C192.642 247.964 192.642 250.956 192.805 253.943C192.805 255.408 193.007 256.873 193.162 258.426C193.317 259.978 193.596 261.458 193.814 262.733L187.606 264.945C186.791 263.37 186.091 261.745 185.51 260.081C184.903 258.482 184.385 256.853 183.958 255.203C183.109 251.909 182.528 248.559 182.22 245.182C181.933 241.77 181.881 238.345 182.065 234.927C182.313 231.47 182.748 228.291 183.229 225.068C184.207 218.636 185.464 212.263 186.954 206.023C188.444 199.782 190.058 193.497 192.153 187.183L204.988 190.801Z" fill="#EBB376"/>
<path d="M186.721 192.824L199.773 202.639L207.611 208.499C207.611 208.499 208.434 206.433 209.427 203.474C211.32 197.761 213.788 188.707 212.081 184.546C209.396 177.954 204.321 172.006 197.895 173.324C192.448 174.482 186.721 192.824 186.721 192.824Z" fill="#263238"/>
<path d="M204.756 524.03H217.746L216.737 495.609H203.731L204.756 524.03Z" fill="#EBB376"/>
<path d="M297.115 493.31L300.296 508.238L287.508 510.435L284.435 496.078L297.115 493.31Z" fill="#DA9D62"/>
<path d="M203.731 495.609H216.737L217.249 510.259H204.243L203.731 495.609Z" fill="#DA9D62"/>
<path d="M246.101 247.775C246.101 247.775 238.558 331.998 230.736 379.464C224.419 417.803 219.422 507.432 219.422 507.432H201.76C201.76 507.432 193.317 420.88 196.53 382.907C204.647 286.964 190.322 269.97 207.316 247.731L246.101 247.775Z" fill="#3C63B0"/>
<path opacity="0.6" d="M246.101 247.775C246.101 247.775 238.558 331.998 230.736 379.464C224.419 417.803 219.422 507.432 219.422 507.432H201.76C201.76 507.432 193.317 420.88 196.53 382.907C204.647 286.964 190.322 269.97 207.316 247.731L246.101 247.775Z" fill="black"/>
<path d="M188.459 263.992L180.792 268.915L181.879 273.119C181.879 273.119 197.849 265.296 193.581 262.161L188.459 263.992Z" fill="#EBB376"/>
<path d="M223.224 524.748C222.067 524.721 220.917 524.574 219.794 524.309C219.737 524.292 219.685 524.262 219.644 524.221C219.603 524.18 219.575 524.129 219.561 524.074C219.552 524.018 219.56 523.96 219.585 523.908C219.609 523.856 219.65 523.812 219.701 523.781C220.151 523.503 224.077 521.101 225.598 521.745C225.771 521.816 225.92 521.93 226.029 522.074C226.138 522.219 226.204 522.389 226.219 522.566C226.28 522.842 226.265 523.128 226.175 523.398C226.085 523.667 225.924 523.91 225.707 524.104C224.988 524.593 224.107 524.822 223.224 524.748ZM220.663 523.884C222.929 524.324 224.636 524.236 225.319 523.679C225.462 523.545 225.566 523.38 225.623 523.198C225.68 523.016 225.688 522.824 225.645 522.639C225.639 522.561 225.612 522.486 225.565 522.422C225.519 522.358 225.455 522.306 225.381 522.273C224.559 521.936 222.277 523.02 220.663 523.884Z" fill="#3C63B0"/>
<path d="M219.873 524.308C219.822 524.324 219.768 524.324 219.718 524.308C219.672 524.282 219.634 524.245 219.607 524.202C219.58 524.159 219.565 524.109 219.563 524.059C219.563 523.898 219.562 520.367 220.99 519.181C221.163 519.028 221.37 518.914 221.595 518.848C221.821 518.782 222.06 518.765 222.294 518.8C222.539 518.802 222.776 518.883 222.965 519.029C223.154 519.176 223.284 519.379 223.334 519.606C223.629 521.071 221.254 523.649 220.028 524.308C219.977 524.322 219.924 524.322 219.873 524.308ZM222.077 519.342C221.825 519.348 221.584 519.436 221.394 519.591C220.58 520.732 220.162 522.083 220.199 523.458C221.425 522.521 222.915 520.529 222.729 519.693C222.729 519.562 222.62 519.386 222.216 519.342H222.077Z" fill="#3C63B0"/>
<path d="M304.193 519.328C304.135 519.325 304.079 519.307 304.031 519.276C303.983 519.246 303.944 519.204 303.919 519.155C303.893 519.105 303.882 519.051 303.887 518.996C303.892 518.942 303.912 518.889 303.945 518.844C304.364 518.375 307.98 514.361 309.827 514.361H309.951C310.119 514.372 310.282 514.426 310.421 514.516C310.56 514.606 310.671 514.73 310.743 514.874C310.868 515.1 310.933 515.351 310.933 515.607C310.933 515.862 310.868 516.113 310.743 516.339C309.936 517.951 306.288 518.859 304.178 519.269L304.193 519.328ZM309.811 514.933C308.803 514.933 306.568 516.925 305.031 518.551C307.871 517.921 309.796 517.086 310.246 516.134C310.337 515.985 310.385 515.816 310.385 515.643C310.385 515.471 310.337 515.302 310.246 515.152C310.219 515.093 310.176 515.042 310.122 515.003C310.067 514.965 310.003 514.94 309.936 514.933H309.811Z" fill="#3C63B0"/>
<path d="M304.193 519.328C304.141 519.32 304.092 519.298 304.053 519.264C304.015 519.23 303.987 519.186 303.976 519.137C303.976 519.005 302.858 515.841 303.851 514.068C303.988 513.809 304.18 513.579 304.415 513.392C304.65 513.206 304.923 513.067 305.217 512.984C306.04 512.75 306.443 512.984 306.614 513.321C307.406 514.523 305.652 518.068 304.488 519.181C304.457 519.228 304.414 519.267 304.362 519.293C304.31 519.319 304.251 519.331 304.193 519.328ZM305.745 513.468C305.627 513.45 305.506 513.45 305.388 513.468C305.171 513.527 304.969 513.627 304.796 513.763C304.622 513.899 304.48 514.068 304.379 514.259C303.929 515.593 303.929 517.027 304.379 518.361C305.481 516.896 306.552 514.274 306.086 513.556C306.035 513.497 305.964 513.456 305.885 513.44C305.806 513.424 305.724 513.434 305.652 513.468H305.745Z" fill="#3C63B0"/>
<path d="M221.005 143.687C222.557 151.012 225.661 165.662 220.306 170.569C220.306 170.569 222.417 177.894 236.757 177.894C252.51 177.894 244.285 170.569 244.285 170.569C235.687 168.635 235.904 162.614 237.409 156.945L221.005 143.687Z" fill="#EBB376"/>
<path d="M252.323 128.07C252.196 128.072 252.071 128.036 251.966 127.967C251.9 127.922 251.844 127.865 251.801 127.799C251.758 127.734 251.729 127.661 251.716 127.584C251.703 127.508 251.706 127.43 251.725 127.355C251.744 127.28 251.778 127.209 251.827 127.147C252.387 126.394 253.127 125.776 253.987 125.343C254.847 124.911 255.803 124.675 256.777 124.656C256.923 124.678 257.056 124.749 257.152 124.855C257.248 124.961 257.3 125.096 257.3 125.235C257.3 125.374 257.248 125.509 257.152 125.615C257.056 125.721 256.923 125.792 256.777 125.814C256.002 125.834 255.244 126.028 254.564 126.379C253.884 126.731 253.302 127.23 252.866 127.835C252.805 127.915 252.723 127.979 252.628 128.02C252.532 128.061 252.428 128.078 252.323 128.07Z" fill="#263238"/>
<path d="M255.769 135.058C256.606 137.353 257.776 139.527 259.245 141.518C258.694 141.856 258.071 142.077 257.419 142.165C256.768 142.254 256.105 142.208 255.474 142.031L255.769 135.058Z" fill="#DE5753"/>
<path d="M254.901 133.329C254.901 134.325 255.382 135.146 256.065 135.16C256.748 135.175 257.338 134.413 257.385 133.417C257.431 132.421 256.903 131.615 256.221 131.586C255.538 131.556 254.948 132.348 254.901 133.329Z" fill="#263238"/>
<path d="M255.909 131.63L258.455 131.044C258.455 131.044 257.089 132.846 255.909 131.63Z" fill="#263238"/>
<path d="M218.832 522.609H204.228C203.975 522.6 203.728 522.681 203.536 522.835C203.343 522.99 203.219 523.207 203.188 523.444L201.528 534.344C201.492 534.62 201.52 534.9 201.608 535.165C201.697 535.43 201.845 535.674 202.042 535.881C202.239 536.088 202.481 536.253 202.751 536.364C203.021 536.475 203.313 536.531 203.607 536.527C208.698 536.453 211.15 536.16 217.575 536.16C221.533 536.16 227.291 536.556 232.754 536.556C238.217 536.556 238.496 531.458 236.23 531.004C226.049 528.923 224.435 526.081 221.005 523.356C220.394 522.877 219.626 522.613 218.832 522.609Z" fill="#263238"/>
<path d="M302.796 518.024L289.309 523.313C289.075 523.399 288.883 523.562 288.769 523.773C288.654 523.983 288.625 524.226 288.688 524.456L291.575 535.135C291.657 535.402 291.798 535.649 291.988 535.86C292.178 536.071 292.414 536.242 292.679 536.361C292.945 536.48 293.234 536.545 293.528 536.551C293.822 536.557 294.113 536.504 294.384 536.395C299.04 534.476 301.213 533.333 307.141 531.004C310.789 529.539 318.502 526.975 323.546 524.998C328.59 523.02 326.774 518.215 324.493 518.61C314.25 520.397 309.376 519.211 305.108 517.936C304.35 517.708 303.532 517.739 302.796 518.024Z" fill="#263238"/>
<path d="M273.431 185.762C275.961 191.387 278.692 197.145 281.455 202.741C282.851 205.554 284.305 208.318 285.816 211.033C287.368 213.758 288.92 216.424 290.472 218.973C291.294 220.233 292.117 221.493 292.97 222.65L294.243 224.321C294.504 224.669 294.8 224.993 295.128 225.287C296.82 226.675 298.932 227.526 301.165 227.719C306.457 228.437 313.1 227.426 319.044 225.917L321.807 231.558C320.236 232.448 318.609 233.246 316.933 233.946C315.285 234.67 313.59 235.296 311.858 235.821C308.208 236.994 304.384 237.612 300.529 237.652C298.379 237.67 296.237 237.404 294.166 236.861C291.866 236.264 289.704 235.27 287.787 233.931C286.805 233.227 285.896 232.437 285.071 231.572C284.372 230.825 283.86 230.195 283.239 229.492C282.075 228.115 281.036 226.723 279.996 225.331C276.128 219.838 272.645 214.112 269.566 208.191C266.462 202.331 263.669 196.471 261.092 190.406L273.431 185.762Z" fill="#EBB376"/>
<path d="M317.711 232.246L331.896 230.137L328.125 222.548C328.125 222.548 317.136 224.35 315.026 229.038L317.711 232.246Z" fill="#EBB376"/>
<path d="M331.881 224.218L330.329 220.98L328.125 222.548L331.881 230.137V224.218Z" fill="#EBB376"/>
<path d="M219.825 128.627C220.104 140.801 219.949 145.958 226.188 152.433C235.5 162.175 251.361 159.187 254.931 147.174C258.143 136.362 257.135 118.269 244.75 112.966C242.023 111.786 239.021 111.283 236.031 111.506C233.04 111.728 230.16 112.669 227.662 114.238C225.165 115.807 223.134 117.952 221.762 120.471C220.391 122.989 219.724 125.797 219.825 128.627Z" fill="#EBB376"/>
<path d="M209.427 106.637C222.681 97.5688 237.487 102.711 245.589 108.981C254.063 115.544 252.712 128.158 247.529 133.373C248.067 134.145 248.422 135.016 248.572 135.929C248.722 136.841 248.663 137.773 248.398 138.662C249.052 142.565 248.143 146.558 245.847 149.862C243.552 153.167 240.035 155.546 235.982 156.535L235.252 156.711C218.693 160.432 199.556 149.855 196.67 134.033C194.916 124.378 197.71 114.636 209.427 106.637Z" fill="#263238"/>
<path d="M244.564 134.267C244.776 136.562 245.817 138.719 247.512 140.376C249.809 142.618 252.168 141.328 252.588 138.677C252.944 136.289 252.184 132.245 249.39 130.971C246.597 129.696 244.362 131.557 244.564 134.267Z" fill="#EBB376"/>
<path opacity="0.3" d="M228.143 287.154C226.669 312.323 233.094 331.324 236.028 342.443C238.107 326.006 240.016 308.851 241.615 293.717C236.136 276.577 229.214 268.212 228.143 287.154Z" fill="black"/>
<path d="M221.86 507.754H199.278L198.083 500.282L221.984 499.521L221.86 507.754Z" fill="#3C63B0"/>
<path opacity="0.3" d="M199.775 202.639L207.613 208.499C207.613 208.499 208.435 206.433 209.428 203.474L204.772 181.719L199.775 202.639Z" fill="black"/>
<path d="M216.815 108.673C220.866 104.44 234.632 97.9789 246.443 103.048C249.812 104.496 252.667 106.831 254.665 109.773C256.664 112.714 257.721 116.137 257.71 119.632L247.064 126.371L216.815 108.673Z" fill="#263238"/>
<path d="M205.951 119.793C211.802 115.266 218.367 98.8582 205.951 104.572C193.535 110.285 189.764 132.319 205.951 119.793Z" fill="#3C63B0"/>
<path d="M207.269 109.274C209.798 102.301 193.114 88.4273 181.862 101.612C170.61 114.797 199.99 129.345 207.269 109.274Z" fill="#263238"/>
<path d="M233.376 119.002C223.676 115.105 218.849 100.338 235.502 100.763C252.155 101.188 251.674 126.371 233.376 119.002Z" fill="#3C63B0"/>
<path d="M230.24 111.354C224.358 104.425 230.861 86.6104 247.731 92.3092C264.601 98.0081 243.743 127.191 230.24 111.354Z" fill="#263238"/>
<path d="M260.053 247.775C260.053 247.775 274.704 342.268 279.857 379.45C285.211 418.052 300.855 504.605 300.855 504.605L283.473 507.11C283.473 507.11 256.002 424.557 248.351 386.98C240.001 346.033 223.519 247.805 223.519 247.805L260.053 247.775Z" fill="#3C63B0"/>
<path opacity="0.6" d="M260.053 247.775C260.053 247.775 274.704 342.268 279.857 379.45C285.211 418.052 300.855 504.605 300.855 504.605L283.473 507.11C283.473 507.11 256.002 424.557 248.351 386.98C240.001 346.033 223.519 247.805 223.519 247.805L260.053 247.775Z" fill="black"/>
<path d="M266.262 173.72C272.718 175.185 280.68 191.944 280.68 191.944L265.3 210.55C265.3 210.55 249.407 189.322 251.534 182.847C253.738 176.093 258.425 171.918 266.262 173.72Z" fill="#263238"/>
<path d="M245.216 172.958C247.343 173.251 245.372 168.665 244.487 168.182C242.454 167.039 216.551 164.739 216.846 167.317C217.002 168.856 217.702 170.301 218.832 171.419C219.996 172.152 226.592 170.13 245.216 172.958Z" fill="#3C63B0"/>
<path opacity="0.6" d="M245.216 172.958C247.343 173.251 245.372 168.665 244.487 168.182C242.454 167.039 216.551 164.739 216.846 167.317C217.002 168.856 217.702 170.301 218.832 171.419C219.996 172.152 226.592 170.13 245.216 172.958Z" fill="white"/>
<path d="M266.262 173.72C266.262 173.72 272.47 175.771 260.054 247.776H207.286C208.17 227.5 208.201 214.989 197.974 173.354C205.363 171.914 212.853 170.984 220.385 170.57C228.367 170.027 236.381 170.027 244.363 170.57C254.529 171.42 266.262 173.72 266.262 173.72Z" fill="#263238"/>
<path d="M206.416 244.86L204.041 249.255C203.855 249.606 204.289 249.958 204.895 249.958H260.27C260.736 249.958 261.139 249.738 261.17 249.445L261.636 245.05C261.636 244.743 261.263 244.479 260.736 244.479H207.316C207.143 244.456 206.967 244.48 206.808 244.548C206.649 244.615 206.513 244.723 206.416 244.86Z" fill="#3C63B0"/>
<path opacity="0.6" d="M206.416 244.86L204.041 249.255C203.855 249.606 204.289 249.958 204.895 249.958H260.27C260.736 249.958 261.139 249.738 261.17 249.445L261.636 245.05C261.636 244.743 261.263 244.479 260.736 244.479H207.316C207.143 244.456 206.967 244.48 206.808 244.548C206.649 244.615 206.513 244.723 206.416 244.86Z" fill="white"/>
<path d="M213.649 250.529H212.206C211.926 250.529 211.709 250.382 211.724 250.221L212.407 244.361C212.407 244.186 212.671 244.054 212.951 244.054H214.394C214.673 244.054 214.89 244.186 214.875 244.361L214.192 250.221C214.177 250.353 213.928 250.529 213.649 250.529Z" fill="#3C63B0"/>
<path d="M248.32 250.529H246.893C246.598 250.529 246.38 250.382 246.411 250.221L247.079 244.361C247.079 244.186 247.343 244.054 247.637 244.054H249.065C249.345 244.054 249.562 244.186 249.546 244.361L248.879 250.221C248.879 250.353 248.631 250.529 248.32 250.529Z" fill="#3C63B0"/>
<path opacity="0.6" d="M213.649 250.529H212.206C211.926 250.529 211.709 250.382 211.724 250.221L212.407 244.361C212.407 244.186 212.671 244.054 212.951 244.054H214.394C214.673 244.054 214.89 244.186 214.875 244.361L214.192 250.221C214.177 250.353 213.928 250.529 213.649 250.529Z" fill="black"/>
<path opacity="0.6" d="M248.32 250.529H246.893C246.598 250.529 246.38 250.382 246.411 250.221L247.079 244.361C247.079 244.186 247.343 244.054 247.637 244.054H249.065C249.345 244.054 249.562 244.186 249.546 244.361L248.879 250.221C248.879 250.353 248.631 250.529 248.32 250.529Z" fill="black"/>
<path d="M303.417 504.604L281.161 508.179L278.631 500.253L302.455 496.4L303.417 504.604Z" fill="#3C63B0"/>
<path d="M525.213 95.6203C513.375 77.7269 496.182 63.5489 475.808 54.8788C455.434 46.2088 432.794 43.4362 410.75 46.9116C388.707 50.387 368.25 59.9544 351.967 74.4039C335.684 88.8534 324.305 107.536 319.27 128.09C314.235 148.643 315.77 170.145 323.68 189.875C331.59 209.605 345.521 226.678 363.71 238.936C381.9 251.193 403.531 258.083 425.869 258.736C448.207 259.389 470.248 253.775 489.206 242.604C501.796 235.185 512.714 225.498 521.337 214.096C529.96 202.695 536.119 189.801 539.462 176.152C542.806 162.503 543.268 148.366 540.824 134.548C538.379 120.73 533.074 107.503 525.213 95.6203ZM353.732 196.705C344.394 182.585 339.702 166.168 340.248 149.53C340.795 132.892 346.555 116.781 356.802 103.233C367.048 89.6859 381.321 79.3108 397.814 73.4199C414.307 67.5291 432.28 66.3871 449.461 70.1383C466.642 73.8894 482.258 82.3654 494.336 94.4943C506.413 106.623 514.409 121.86 517.313 138.279C520.217 154.698 517.898 171.56 510.649 186.735C503.4 201.909 491.547 214.714 476.589 223.529C466.655 229.383 455.597 233.331 444.047 235.15C432.497 236.969 420.68 236.623 409.271 234.13C397.863 231.638 387.086 227.049 377.557 220.625C368.027 214.201 359.932 206.068 353.732 196.691V196.705Z" fill="#3C63B0"/>
<path d="M525.213 95.6203C513.375 77.7269 496.182 63.5489 475.808 54.8788C455.434 46.2088 432.794 43.4362 410.75 46.9116C388.707 50.387 368.25 59.9544 351.967 74.4039C335.684 88.8534 324.305 107.536 319.27 128.09C314.235 148.643 315.77 170.145 323.68 189.875C331.59 209.605 345.521 226.678 363.71 238.936C381.9 251.193 403.531 258.083 425.869 258.736C448.207 259.389 470.248 253.775 489.206 242.604C501.796 235.185 512.714 225.498 521.337 214.096C529.96 202.695 536.119 189.801 539.462 176.152C542.806 162.503 543.268 148.366 540.824 134.548C538.379 120.73 533.074 107.503 525.213 95.6203ZM353.732 196.705C344.394 182.585 339.702 166.168 340.248 149.53C340.795 132.892 346.555 116.781 356.802 103.233C367.048 89.6859 381.321 79.3108 397.814 73.4199C414.307 67.5291 432.28 66.3871 449.461 70.1383C466.642 73.8894 482.258 82.3654 494.336 94.4943C506.413 106.623 514.409 121.86 517.313 138.279C520.217 154.698 517.898 171.56 510.649 186.735C503.4 201.909 491.547 214.714 476.589 223.529C466.655 229.383 455.597 233.331 444.047 235.15C432.497 236.969 420.68 236.623 409.271 234.13C397.863 231.638 387.086 227.049 377.557 220.625C368.027 214.201 359.932 206.068 353.732 196.691V196.705Z" fill="#3C63B0"/>
<path opacity="0.5" d="M525.213 95.6203C513.375 77.7269 496.182 63.5489 475.808 54.8788C455.434 46.2088 432.794 43.4362 410.75 46.9116C388.707 50.387 368.25 59.9544 351.967 74.4039C335.684 88.8534 324.305 107.536 319.27 128.09C314.235 148.643 315.77 170.145 323.68 189.875C331.59 209.605 345.521 226.678 363.71 238.936C381.9 251.193 403.531 258.083 425.869 258.736C448.207 259.389 470.248 253.775 489.206 242.604C501.796 235.185 512.714 225.498 521.337 214.096C529.96 202.695 536.119 189.801 539.462 176.152C542.806 162.503 543.268 148.366 540.824 134.548C538.379 120.73 533.074 107.503 525.213 95.6203ZM353.732 196.705C344.394 182.585 339.702 166.168 340.248 149.53C340.795 132.892 346.555 116.781 356.802 103.233C367.048 89.6859 381.321 79.3108 397.814 73.4199C414.307 67.5291 432.28 66.3871 449.461 70.1383C466.642 73.8894 482.258 82.3654 494.336 94.4943C506.413 106.623 514.409 121.86 517.313 138.279C520.217 154.698 517.898 171.56 510.649 186.735C503.4 201.909 491.547 214.714 476.589 223.529C466.655 229.383 455.597 233.331 444.047 235.15C432.497 236.969 420.68 236.623 409.271 234.13C397.863 231.638 387.086 227.049 377.557 220.625C368.027 214.201 359.932 206.068 353.732 196.691V196.705Z" fill="white"/>
<path opacity="0.2" d="M512.472 103.135C522.731 118.652 527.885 136.691 527.283 154.973C526.682 173.255 520.351 190.957 509.091 205.843C497.832 220.728 482.149 232.128 464.027 238.601C445.904 245.074 426.155 246.329 407.277 242.208C388.399 238.087 371.239 228.774 357.967 215.448C344.695 202.122 335.907 185.38 332.714 167.34C329.522 149.299 332.067 130.77 340.03 114.095C347.992 97.4207 361.014 83.349 377.448 73.6594C388.364 67.2237 400.515 62.881 413.209 60.8793C425.903 58.8776 438.89 59.2562 451.429 61.9935C463.968 64.7307 475.813 69.7729 486.286 76.8321C496.76 83.8913 505.658 92.8292 512.472 103.135Z" fill="#FAFAFA"/>
<path opacity="0.1" d="M526.392 139.029L374.296 228.657C361.893 220.713 351.587 210.188 344.172 197.892L510.236 100.016C518.71 111.683 524.237 125.029 526.392 139.029Z" fill="#E6E6E6"/>
</svg>
