<svg width="764" height="905" viewBox="0 0 764 905" fill="none" xmlns="http://www.w3.org/2000/svg">
<path d="M764 694.524H0V694.942H764V694.524Z" fill="#EBEBEB"/>
<path d="M687.449 721.42H636.842V721.838H687.449V721.42Z" fill="#EBEBEB"/>
<path d="M506.104 725.965H492.826V726.383H506.104V725.965Z" fill="#EBEBEB"/>
<path d="M635.313 705.91H605.99V706.328H635.313V705.91Z" fill="#EBEBEB"/>
<path d="M146.151 708.719H80.1562V709.137H146.151V708.719Z" fill="#EBEBEB"/>
<path d="M169.44 708.719H159.768V709.137H169.44V708.719Z" fill="#EBEBEB"/>
<path d="M344.03 715.771H200.887V716.189H344.03V715.771Z" fill="#EBEBEB"/>
<path d="M362.134 619.992H67.0924C64.7811 619.988 62.5658 618.98 60.9329 617.191C59.2999 615.402 58.3828 612.977 58.3828 610.45V156.838C58.4029 154.324 59.3289 151.921 60.9597 150.15C62.5905 148.379 64.7943 147.383 67.0924 147.379H362.134C364.448 147.379 366.667 148.384 368.303 150.174C369.94 151.963 370.859 154.391 370.859 156.921V610.45C370.859 612.98 369.94 615.408 368.303 617.197C366.667 618.987 364.448 619.992 362.134 619.992ZM67.0924 147.713C64.8824 147.718 62.7643 148.681 61.203 150.392C59.6417 152.102 58.7648 154.421 58.7648 156.838V610.45C58.7648 612.867 59.6417 615.185 61.203 616.896C62.7643 618.607 64.8824 619.57 67.0924 619.574H362.134C364.345 619.57 366.465 618.607 368.029 616.897C369.593 615.187 370.473 612.868 370.477 610.45V156.838C370.473 154.419 369.593 152.101 368.029 150.391C366.465 148.68 364.345 147.718 362.134 147.713H67.0924Z" fill="#EBEBEB"/>
<path d="M692.657 619.992H397.6C395.287 619.988 393.07 618.981 391.435 617.192C389.8 615.404 388.879 612.979 388.875 610.45V156.838C388.899 154.323 389.829 151.92 391.462 150.149C393.095 148.378 395.3 147.383 397.6 147.379H692.657C694.952 147.388 697.152 148.385 698.78 150.156C700.407 151.927 701.331 154.327 701.351 156.838V610.45C701.351 612.975 700.436 615.397 698.806 617.185C697.177 618.974 694.965 619.983 692.657 619.992ZM397.6 147.713C395.388 147.718 393.269 148.68 391.705 150.391C390.141 152.101 389.261 154.419 389.257 156.838V610.45C389.261 612.868 390.141 615.187 391.705 616.897C393.269 618.607 395.388 619.57 397.6 619.574H692.657C694.868 619.57 696.988 618.607 698.552 616.897C700.115 615.187 700.996 612.868 701 610.45V156.838C700.996 154.419 700.115 152.101 698.552 150.391C696.988 148.68 694.868 147.718 692.657 147.713H397.6Z" fill="#EBEBEB"/>
<path d="M642.554 193.203H296.875V410.09H642.554V193.203Z" fill="#E6E6E6"/>
<path d="M651.801 193.203H301.201V410.09H651.801V193.203Z" fill="#F0F0F0"/>
<path d="M642.554 410.088H296.875V428.872H642.554V410.088Z" fill="#E6E6E6"/>
<path d="M667.188 410.088H316.588V428.872H667.188V410.088Z" fill="#F0F0F0"/>
<path d="M638.859 395.934V207.34L314.129 207.34V395.934H638.859Z" fill="#FAFAFA"/>
<path d="M337.994 395.934L413.905 207.34H449.752L373.826 395.934H337.994Z" fill="white"/>
<path d="M320.116 381.864C319.871 381.859 319.638 381.75 319.467 381.559C319.295 381.369 319.199 381.112 319.199 380.844V216.549C319.228 216.304 319.338 216.078 319.508 215.914C319.678 215.75 319.897 215.66 320.124 215.66C320.35 215.66 320.569 215.75 320.739 215.914C320.909 216.078 321.019 216.304 321.048 216.549V380.844C321.048 380.978 321.024 381.111 320.977 381.234C320.93 381.358 320.862 381.47 320.775 381.565C320.689 381.66 320.586 381.735 320.473 381.786C320.36 381.837 320.238 381.864 320.116 381.864Z" fill="#F0F0F0"/>
<path d="M381.527 395.934L457.454 207.34H471.42L395.493 395.934H381.527Z" fill="white"/>
<path d="M638.859 395.934V207.34H637.224V395.934H638.859Z" fill="#E6E6E6"/>
<path opacity="0.6" d="M654.856 228.687H309.176L307.984 212.844H653.664L654.856 228.687Z" fill="#EBEBEB"/>
<path opacity="0.6" d="M654.856 254.639H309.176L307.984 238.812H653.664L654.856 254.639Z" fill="#EBEBEB"/>
<path opacity="0.6" d="M654.856 280.605H309.176L307.984 264.779H653.664L654.856 280.605Z" fill="#EBEBEB"/>
<path opacity="0.6" d="M654.856 306.575H309.176L307.984 290.732H653.664L654.856 306.575Z" fill="#EBEBEB"/>
<path opacity="0.6" d="M654.856 332.546H309.176L307.984 316.703H653.664L654.856 332.546Z" fill="#EBEBEB"/>
<path opacity="0.6" d="M654.856 358.499H309.176L307.984 342.673H653.664L654.856 358.499Z" fill="#EBEBEB"/>
<path d="M217.175 254.855H98.6328V428.86H217.175V254.855Z" fill="#E6E6E6"/>
<path d="M225.441 254.855H100.42V428.86H225.441V254.855Z" fill="#F0F0F0"/>
<path d="M214.963 417.393V266.301H110.891L110.891 417.393H214.963Z" fill="white"/>
<path d="M162.21 381.812L143.11 360.922C138.495 355.863 135.904 349.008 135.904 341.862C135.904 334.716 138.495 327.862 143.11 322.802L162.21 301.896C162.4 301.694 162.655 301.582 162.92 301.582C163.185 301.582 163.44 301.694 163.631 301.896L182.746 322.852C187.36 327.912 189.951 334.766 189.951 341.912C189.951 349.058 187.36 355.913 182.746 360.972L163.631 381.862C163.535 381.963 163.422 382.041 163.298 382.093C163.175 382.145 163.043 382.169 162.91 382.165C162.778 382.16 162.648 382.126 162.527 382.066C162.407 382.005 162.299 381.919 162.21 381.812ZM162.928 304.235L144.592 324.29C140.356 328.938 137.978 335.233 137.978 341.795C137.978 348.358 140.356 354.653 144.592 359.301L162.928 379.355L181.264 359.301C185.506 354.657 187.89 348.36 187.89 341.795C187.89 335.23 185.506 328.934 181.264 324.29L162.928 304.235Z" fill="#F0F0F0"/>
<path d="M341.264 515.497C340.485 515.497 339.736 515.497 338.895 515.581C322.087 517.051 308.61 534.499 307.541 555.99C307.301 560.759 307.677 565.541 308.656 570.195C312.354 588.73 314.132 607.661 313.958 626.631V682.065C313.958 686.076 316.495 689.335 319.627 689.335H431.477V515.531L341.264 515.497Z" fill="#F0F0F0"/>
<path d="M465.248 558.829C465.248 533.895 448.822 513.874 429.08 515.595C412.272 517.066 398.78 534.513 397.726 556.005C397.47 560.767 397.835 565.544 398.811 570.193C402.508 588.728 404.286 607.659 404.113 626.629V682.063C404.113 686.074 406.649 689.333 409.782 689.333H453.116C456.172 689.333 458.785 686.074 458.785 682.063V623.304C458.659 605.511 460.418 587.761 464.026 570.411C464.84 566.615 465.25 562.728 465.248 558.829Z" fill="#FAFAFA"/>
<path d="M384.87 590.997H266.832V689.246H384.87V590.997Z" fill="#F5F5F5"/>
<path d="M192.728 473.26H322.409C329.757 473.26 336.803 476.452 341.998 482.134C347.193 487.816 350.112 495.523 350.112 503.558V607.607H165.025V503.558C165.025 495.523 167.944 487.816 173.139 482.134C178.335 476.452 185.381 473.26 192.728 473.26Z" fill="#E6E6E6"/>
<path d="M212.881 473.26H329.666C333.252 473.26 336.803 474.032 340.116 475.533C343.428 477.034 346.438 479.234 348.974 482.007C351.51 484.78 353.521 488.072 354.893 491.695C356.265 495.319 356.972 499.202 356.972 503.124V607.607H185.561V503.124C185.561 499.201 186.267 495.316 187.641 491.692C189.014 488.067 191.026 484.774 193.563 482.001C196.101 479.228 199.113 477.028 202.427 475.528C205.742 474.028 209.294 473.258 212.881 473.26Z" fill="#F5F5F5"/>
<path d="M274.446 587.454H384.768C386.344 587.454 387.856 588.139 388.971 589.358C390.086 590.577 390.712 592.231 390.712 593.955V604.417C390.712 606.141 390.086 607.794 388.971 609.014C387.856 610.233 386.344 610.918 384.768 610.918H274.446C273.976 610.918 273.525 610.713 273.193 610.35C272.861 609.986 272.674 609.493 272.674 608.979V589.393C272.674 588.879 272.861 588.385 273.193 588.022C273.525 587.658 273.976 587.454 274.446 587.454Z" fill="#EBEBEB"/>
<path d="M151.181 689.248H433.143V689.649C433.143 690.943 432.673 692.185 431.836 693.1C431 694.015 429.865 694.529 428.681 694.529H155.628C154.444 694.529 153.31 694.015 152.473 693.1C151.636 692.185 151.166 690.943 151.166 689.649V689.248H151.181Z" fill="#E6E6E6"/>
<path d="M152.875 515.495C152.096 515.495 151.347 515.495 150.507 515.578C133.699 517.049 120.206 534.496 119.152 555.988C118.911 560.721 119.276 565.469 120.237 570.092C123.934 588.627 125.713 607.559 125.539 626.529V681.962C125.539 685.973 128.076 689.232 131.208 689.232H268.438V515.428L152.875 515.495Z" fill="#F0F0F0"/>
<path d="M302.239 558.829C302.239 533.895 285.813 513.874 266.071 515.595C249.263 517.066 235.786 534.513 234.717 556.005C234.475 560.739 234.841 565.486 235.801 570.11C239.499 588.645 241.277 607.576 241.104 626.546V681.979C241.104 685.99 243.64 689.249 246.772 689.249H290.107C293.163 689.249 295.791 685.99 295.791 681.979V623.304C295.66 605.511 297.413 587.762 301.016 570.411C301.831 566.615 302.241 562.728 302.239 558.829Z" fill="#FAFAFA"/>
<path d="M613.369 530.217C614.694 530.221 615.992 529.798 617.099 529C618.206 528.202 619.073 527.065 619.591 525.73C620.11 524.396 620.257 522.924 620.015 521.498C619.772 520.073 619.15 518.757 618.228 517.716C615.172 514.273 610.16 511.466 602.184 511.466C594.207 511.466 589.257 514.273 586.155 517.716C585.233 518.756 584.611 520.07 584.368 521.494C584.125 522.918 584.271 524.389 584.788 525.722C585.305 527.056 586.17 528.194 587.274 528.993C588.379 529.792 589.674 530.218 590.999 530.217H613.369Z" fill="#F5F5F5"/>
<path d="M635.818 527.474C636.663 527.464 637.488 527.183 638.189 526.665C638.889 526.148 639.436 525.417 639.761 524.564C640.087 523.71 640.176 522.771 640.018 521.863C639.86 520.954 639.463 520.116 638.874 519.452C636.888 517.23 633.694 515.441 628.575 515.441C623.457 515.441 620.263 517.23 618.277 519.452C617.688 520.116 617.29 520.954 617.133 521.863C616.975 522.771 617.064 523.71 617.389 524.564C617.714 525.417 618.261 526.148 618.962 526.665C619.663 527.183 620.487 527.464 621.333 527.474H635.818Z" fill="#F5F5F5"/>
<path d="M579.111 525.354C579.111 525.354 579.982 535.097 613.461 535.097C646.939 535.097 647.825 525.354 647.825 525.354H579.111Z" fill="#F0F0F0"/>
<path d="M543.598 508.958C543.311 508.966 543.025 509 542.743 509.058V505.716C542.745 505.368 542.684 505.022 542.563 504.7C542.443 504.378 542.265 504.085 542.041 503.838C541.817 503.591 541.55 503.395 541.256 503.261C540.962 503.127 540.647 503.059 540.328 503.059H527.356C526.714 503.063 526.1 503.345 525.648 503.843C525.195 504.341 524.941 505.014 524.941 505.716V535.095H542.743V530.349C543.026 530.399 543.312 530.433 543.598 530.449C545.49 530.445 547.302 529.621 548.64 528.159C549.977 526.696 550.73 524.713 550.734 522.645V516.712C550.718 514.652 549.96 512.683 548.623 511.231C547.287 509.779 545.482 508.962 543.598 508.958ZM547.678 522.645C547.674 523.827 547.243 524.959 546.479 525.795C545.714 526.631 544.679 527.103 543.598 527.107C543.311 527.108 543.024 527.074 542.743 527.007V512.401C543.024 512.333 543.311 512.3 543.598 512.3C544.679 512.305 545.714 512.776 546.479 513.612C547.243 514.448 547.674 515.58 547.678 516.762V522.645Z" fill="#E6E6E6"/>
<path d="M558.238 535.098H491.893V694.529H558.238V535.098Z" fill="#E6E6E6"/>
<path d="M558.225 694.524H674.934V535.093H558.225V694.524Z" fill="#F5F5F5"/>
<path d="M668.82 694.525V541.778H564.336V694.525H668.82Z" fill="#E6E6E6"/>
<path d="M590.727 694.525V541.778H564.353V694.525H590.727Z" fill="#E0E0E0"/>
<path d="M672.137 621.495V614.811H564.352V621.495H672.137Z" fill="#F5F5F5"/>
<path d="M599.477 614.814H576.557L583.356 559.898H599.477V614.814Z" fill="#E6E6E6"/>
<path d="M633.097 614.812H589.687L581.604 550.538H625.014L633.097 614.812Z" fill="#F0F0F0"/>
<path d="M638.905 614.812H593.722L585.639 550.538H630.822L638.905 614.812Z" fill="#F5F5F5"/>
<path d="M597.708 609.747L590.908 555.601H626.816L633.631 609.747H597.708Z" fill="white"/>
<path d="M606.619 592.319L604.357 574.387C604.272 573.676 604.327 572.954 604.519 572.268C604.711 571.582 605.035 570.95 605.47 570.413C605.904 569.876 606.439 569.447 607.038 569.155C607.637 568.864 608.286 568.716 608.941 568.722H613.342C614.454 568.71 615.533 569.141 616.376 569.934C617.219 570.727 617.77 571.829 617.926 573.034L620.172 590.949C620.26 591.661 620.206 592.386 620.016 593.073C619.825 593.761 619.501 594.396 619.066 594.935C618.632 595.473 618.096 595.904 617.496 596.196C616.896 596.489 616.245 596.637 615.588 596.631H611.203C610.09 596.643 609.012 596.212 608.169 595.419C607.325 594.625 606.774 593.524 606.619 592.319Z" fill="#F5F5F5"/>
<path d="M382 766C545.622 766 678.264 757.53 678.264 747.082C678.264 736.634 545.622 728.164 382 728.164C218.378 728.164 85.7363 736.634 85.7363 747.082C85.7363 757.53 218.378 766 382 766Z" fill="#F5F5F5"/>
<path d="M460.39 275.888C502.584 282.113 542.183 254.997 548.835 215.323C555.488 175.648 526.676 138.439 484.482 132.214C442.287 125.989 402.689 153.105 396.036 192.779C389.384 232.454 418.196 269.663 460.39 275.888Z" fill="#3C63B0"/>
<path opacity="0.7" d="M460.39 275.888C502.584 282.113 542.183 254.997 548.835 215.323C555.488 175.648 526.676 138.439 484.482 132.214C442.287 125.989 402.689 153.105 396.036 192.779C389.384 232.454 418.196 269.663 460.39 275.888Z" fill="#FAFAFA"/>
<path d="M436.495 201.167C436.731 191.31 438.521 184.45 441.864 180.588C445.207 176.725 450.199 174.875 456.839 175.039C459.512 175.017 462.166 175.518 464.675 176.519C466.521 177.297 468.203 178.476 469.62 179.985C470.804 181.285 471.799 182.775 472.571 184.404C473.327 186.112 473.884 187.917 474.231 189.777C475.032 193.762 475.381 197.841 475.269 201.923C475.044 211.323 473.422 218.176 470.405 222.482C467.387 226.787 462.32 228.846 455.201 228.66C451.864 228.733 448.561 227.935 445.567 226.333C443.097 224.872 441.036 222.707 439.603 220.067C438.342 217.616 437.5 214.933 437.118 212.149C436.571 208.522 436.362 204.843 436.495 201.167ZM449.571 201.49C449.413 208.095 449.814 212.618 450.774 215.06C451.092 216.106 451.691 217.022 452.493 217.689C453.295 218.355 454.262 218.742 455.27 218.798C456.57 218.84 457.835 218.319 458.789 217.347C459.953 216.013 460.746 214.345 461.075 212.539C461.705 209.128 462.019 205.658 462.011 202.181C462.177 195.275 461.779 190.629 460.817 188.243C460.464 187.181 459.825 186.262 458.984 185.606C458.143 184.95 457.14 184.587 456.106 184.566C455.066 184.522 454.039 184.839 453.173 185.473C452.306 186.106 451.645 187.023 451.283 188.092C450.298 190.508 449.727 194.991 449.57 201.54L449.571 201.49Z" fill="#FAFAFA"/>
<path d="M511.219 176.38L509.951 229.241L496.616 228.913L497.445 194.329C495.444 195.941 493.313 197.349 491.078 198.535C488.587 199.766 486.006 200.764 483.364 201.521L483.647 189.709C487.446 188.614 491.033 186.77 494.232 184.27C496.773 182.109 498.835 179.347 500.264 176.194L511.219 176.38Z" fill="#FAFAFA"/>
<path d="M455.74 420.313C497.357 429.332 538.896 404.919 548.519 365.784C558.143 326.65 532.207 287.615 490.589 278.596C448.972 269.578 407.433 293.991 397.81 333.125C388.187 372.259 414.123 411.295 455.74 420.313Z" fill="#3C63B0"/>
<path opacity="0.7" d="M455.74 420.313C497.357 429.332 538.896 404.919 548.519 365.784C558.143 326.65 532.207 287.615 490.589 278.596C448.972 269.578 407.433 293.991 397.81 333.125C388.187 372.259 414.123 411.295 455.74 420.313Z" fill="#FAFAFA"/>
<path d="M432.793 347.607C433.122 337.753 434.977 330.911 438.357 327.081C441.736 323.251 446.745 321.45 453.383 321.678C456.056 321.682 458.705 322.21 461.204 323.235C463.041 324.027 464.707 325.222 466.102 326.748C467.277 328.056 468.258 329.556 469.011 331.195C469.75 332.911 470.29 334.721 470.619 336.585C471.383 340.577 471.693 344.659 471.543 348.74C471.228 358.138 469.542 364.974 466.484 369.25C463.426 373.526 458.339 375.536 451.223 375.28C447.884 375.322 444.589 374.492 441.611 372.859C439.155 371.375 437.115 369.19 435.707 366.536C434.468 364.073 433.652 361.382 433.297 358.594C432.789 354.962 432.62 351.281 432.793 347.607ZM445.865 348.057C445.644 354.66 446.002 359.187 446.939 361.638C447.248 362.687 447.838 363.609 448.633 364.284C449.429 364.958 450.393 365.354 451.4 365.42C452.041 365.449 452.682 365.338 453.286 365.095C453.89 364.852 454.444 364.481 454.918 364.003C456.105 362.689 456.916 361.025 457.249 359.217C457.926 355.815 458.277 352.347 458.298 348.869C458.529 341.966 458.15 337.315 457.16 334.918C456.815 333.85 456.183 332.922 455.346 332.258C454.508 331.593 453.505 331.223 452.468 331.195C451.432 331.144 450.405 331.453 449.536 332.078C448.666 332.703 447.998 333.611 447.628 334.673C446.706 337.1 446.082 341.56 445.863 348.107L445.865 348.057Z" fill="#FAFAFA"/>
<path d="M514.684 376.692L475.131 375.332C475.75 371.028 477.308 366.946 479.673 363.432C482.089 359.758 486.544 355.452 493.039 350.514C495.851 348.59 498.421 346.272 500.685 343.621C501.705 342.34 502.327 340.738 502.458 339.05C502.502 338.295 502.401 337.539 502.162 336.831C501.922 336.123 501.549 335.478 501.067 334.938C499.983 333.801 498.552 333.144 497.047 333.092C495.542 333.04 494.07 333.598 492.912 334.658C491.569 336.362 490.745 338.479 490.554 340.714L477.399 339.091C477.809 335.741 478.893 332.529 480.572 329.685C482.086 327.402 484.175 325.649 486.581 324.641C489.958 323.392 493.525 322.895 497.073 323.18C500.752 323.12 504.405 323.813 507.844 325.222C510.296 326.357 512.366 328.291 513.774 330.76C515.169 333.184 515.848 336.02 515.719 338.887C515.597 342.111 514.61 345.229 512.881 347.853C510.261 351.519 507.047 354.628 503.401 357.024C500.677 358.937 498.859 360.279 497.946 361.05C497.033 361.822 495.945 362.838 494.679 364.098L515.265 364.807L514.684 376.692Z" fill="#FAFAFA"/>
<path d="M441.58 493.659C443.919 533.757 480.392 564.455 523.043 562.226C565.695 559.996 598.374 525.683 596.034 485.585C593.694 445.487 557.221 414.789 514.57 417.018C471.919 419.248 439.24 453.561 441.58 493.659Z" fill="#3C63B0"/>
<path opacity="0.7" d="M441.58 493.66C443.92 533.758 480.393 564.456 523.044 562.227C565.695 559.997 598.374 525.684 596.034 485.586C593.695 445.488 557.222 414.79 514.571 417.019C471.919 419.249 439.241 453.562 441.58 493.66Z" fill="#FAFAFA"/>
<path d="M478.429 491.432C478.984 481.682 481.014 474.87 484.518 470.994C488.021 467.118 493.142 465.176 499.88 465.167C502.59 465.092 505.263 465.54 507.77 466.489C509.619 467.214 511.283 468.352 512.655 469.832C513.815 471.088 514.777 472.54 515.506 474.135C516.223 475.807 516.738 477.58 517.037 479.413C517.718 483.331 517.939 487.352 517.697 491.384C517.183 500.688 515.324 507.493 512.121 511.799C508.918 516.105 503.708 518.275 496.49 518.31C493.108 518.434 489.79 517.713 486.802 516.205C484.375 514.789 482.38 512.692 481.019 510.127C479.826 507.734 479.06 505.108 478.758 502.373C478.298 498.769 478.188 495.103 478.429 491.432ZM491.67 491.528C491.289 498.06 491.604 502.49 492.527 504.908C492.82 505.945 493.408 506.845 494.211 507.489C495.014 508.133 495.996 508.49 497.026 508.514C497.679 508.526 498.334 508.399 498.955 508.141C499.575 507.882 500.149 507.498 500.641 507.01C501.869 505.674 502.723 504.007 503.101 502.213C503.862 498.831 504.296 495.394 504.395 491.956C504.768 485.14 504.485 480.559 503.547 478.215C503.221 477.172 502.6 476.277 501.766 475.648C500.932 475.02 499.924 474.687 498.875 474.694C497.833 474.683 496.796 475.022 495.91 475.664C495.024 476.307 494.335 477.219 493.94 478.272C492.799 480.647 492.042 485.065 491.67 491.528Z" fill="#FAFAFA"/>
<path d="M536.712 481.066L524.24 478.591C525.312 474.649 527.651 471.166 530.835 468.77C533.942 466.522 538.217 465.416 543.662 465.453C549.935 465.471 554.421 466.69 557.057 469.246C558.325 470.37 559.314 471.807 559.949 473.443C560.584 475.08 560.847 476.873 560.717 478.681C560.627 480.828 559.912 482.93 558.673 484.694C557.217 486.677 555.356 488.286 553.245 489.385C554.715 489.734 556.117 490.317 557.404 491.114C558.908 492.129 560.109 493.567 560.884 495.282C561.708 497.176 562.046 499.293 561.864 501.427C561.685 504.447 560.76 507.407 559.185 510.008C557.57 512.744 555.242 514.941 552.507 516.31C548.996 517.923 545.227 518.665 541.497 518.476C537.978 518.607 534.506 518.032 531.259 516.781C528.897 515.757 526.849 514.1 525.304 511.961C523.697 509.594 522.576 506.877 522.008 503.974L535.448 502.145C535.556 504.349 536.286 506.43 537.542 508.119C538.622 509.247 540.102 509.849 541.659 509.792C542.502 509.815 543.35 509.64 544.143 509.28C544.936 508.92 545.656 508.383 546.251 507.707C547.583 506.163 548.337 504.165 548.355 502.125C548.584 500.113 548.076 498.128 546.938 496.588C546.384 495.915 545.694 495.383 544.916 495.028C544.137 494.674 543.287 494.504 542.422 494.531C540.948 494.603 539.478 494.882 538.051 495.361L539.311 485.181C539.881 485.28 540.458 485.341 541.039 485.364C542.657 485.408 544.263 484.771 545.51 483.59C546.098 483.061 546.58 482.411 546.923 481.682C547.266 480.953 547.462 480.163 547.499 479.366C547.574 478.681 547.516 477.995 547.329 477.351C547.141 476.708 546.827 476.12 546.408 475.626C545.956 475.139 545.411 474.762 544.805 474.518C544.199 474.273 543.545 474.166 542.884 474.204C542.184 474.171 541.476 474.288 540.803 474.547C540.13 474.807 539.505 475.204 538.964 475.716C537.711 477.23 536.922 479.104 536.712 481.066Z" fill="#FAFAFA"/>
<path d="M457.125 711.154C498.742 720.173 540.281 695.759 549.904 656.625C559.528 617.491 533.591 578.456 491.974 569.437C450.357 560.418 408.818 584.832 399.195 623.966C389.571 663.1 415.508 702.136 457.125 711.154Z" fill="#3C63B0"/>
<path opacity="0.7" d="M457.125 711.154C498.742 720.173 540.281 695.759 549.904 656.625C559.528 617.491 533.591 578.456 491.974 569.437C450.357 560.418 408.818 584.832 399.195 623.966C389.571 663.1 415.508 702.136 457.125 711.154Z" fill="#FAFAFA"/>
<path d="M433.511 637.319C433.921 627.467 435.832 620.641 439.243 616.84C442.653 613.038 447.677 611.28 454.312 611.564C456.986 611.591 459.631 612.14 462.121 613.186C463.951 613.994 465.608 615.203 466.989 616.74C468.154 618.058 469.122 619.567 469.862 621.212C470.587 622.934 471.112 624.749 471.426 626.615C472.157 630.614 472.434 634.698 472.25 638.777C471.859 648.172 470.116 654.995 467.023 659.244C463.93 663.494 458.827 665.473 451.712 665.179C448.373 665.193 445.085 664.336 442.12 662.677C439.676 661.172 437.654 658.97 436.268 656.305C435.05 653.831 434.256 651.133 433.923 648.343C433.444 644.695 433.305 641.001 433.511 637.319ZM446.579 637.878C446.304 644.479 446.65 649.01 447.618 651.472C447.918 652.523 448.501 653.45 449.291 654.131C450.08 654.812 451.041 655.216 452.047 655.291C452.689 655.325 453.331 655.22 453.937 654.982C454.542 654.743 455.1 654.377 455.577 653.903C456.775 652.6 457.599 650.943 457.947 649.137C458.652 645.741 459.032 642.276 459.081 638.799C459.369 631.897 459.027 627.244 458.057 624.838C457.722 623.767 457.097 622.834 456.265 622.163C455.433 621.491 454.433 621.112 453.396 621.076C452.36 621.016 451.331 621.317 450.457 621.934C449.582 622.552 448.907 623.455 448.527 624.513C447.51 626.912 446.86 631.384 446.577 637.928L446.579 637.878Z" fill="#FAFAFA"/>
<path d="M499.646 656.645L475.648 655.617L476.142 643.762L501.44 613.584L512.921 614.075L511.593 645.95L517.547 646.205L517.081 657.392L511.127 657.137L510.72 666.905L499.24 666.413L499.646 656.645ZM500.112 645.458L500.792 629.145L487.426 644.915L500.112 645.458Z" fill="#FAFAFA"/>
<path d="M390.057 640.733C390.047 638.678 390.905 636.703 392.444 635.243C393.982 633.782 396.074 632.956 398.259 632.945C400.445 632.934 402.545 633.74 404.097 635.185C405.649 636.63 406.527 638.596 406.537 640.651C406.596 653.501 410.706 666.043 418.349 676.692C425.992 687.34 436.823 695.616 449.473 700.473C462.124 705.33 476.025 706.549 489.418 703.978C502.811 701.406 515.096 695.159 524.718 686.025C534.34 676.892 540.867 665.283 543.474 652.667C546.08 640.051 544.65 626.994 539.363 615.148C534.076 603.302 525.17 593.198 513.771 586.115C502.373 579.032 488.993 575.288 475.326 575.356C452.628 575.468 430.818 567.099 414.696 552.089C398.573 537.08 389.458 516.659 389.354 495.319C389.251 473.979 398.169 453.468 414.146 438.299C430.123 423.13 451.851 414.545 474.549 414.432C492.876 414.341 510.419 407.409 523.319 395.161C536.22 382.912 543.42 366.352 543.337 349.121C543.254 331.89 535.894 315.402 522.876 303.282C509.858 291.163 492.248 284.405 473.921 284.496C456.993 284.58 440.423 279.943 426.305 271.17C412.188 262.397 401.158 249.883 394.61 235.211C388.063 220.539 386.292 204.368 389.521 188.742C392.751 173.117 400.836 158.74 412.754 147.429C424.671 136.118 439.887 128.381 456.475 125.197C473.064 122.014 490.281 123.526 505.948 129.543C521.615 135.56 535.028 145.812 544.492 159.001C553.956 172.191 559.045 187.725 559.115 203.64C559.125 205.695 558.267 207.67 556.728 209.131C555.19 210.591 553.098 211.418 550.913 211.429C548.727 211.439 546.627 210.634 545.075 209.188C543.523 207.743 542.645 205.777 542.635 203.722C542.573 190.873 538.459 178.332 530.815 167.686C523.17 157.04 512.338 148.766 499.687 143.912C487.037 139.057 473.136 137.84 459.744 140.413C446.352 142.986 434.069 149.235 424.448 158.369C414.828 167.503 408.303 179.112 405.697 191.727C403.092 204.343 404.523 217.399 409.811 229.244C415.098 241.09 424.004 251.192 435.402 258.275C446.801 265.357 460.179 269.101 473.846 269.033C496.544 268.92 518.354 277.29 534.476 292.299C550.599 307.309 559.714 327.73 559.818 349.07C559.921 370.41 551.003 390.921 535.026 406.09C519.049 421.259 497.321 429.844 474.623 429.957C465.549 430.002 456.571 431.727 448.203 435.034C439.835 438.34 432.24 443.164 425.853 449.228C419.465 455.293 414.41 462.48 410.975 470.38C407.54 478.279 405.794 486.736 405.835 495.268C405.876 503.8 407.704 512.239 411.215 520.104C414.726 527.969 419.851 535.105 426.296 541.106C432.742 547.107 440.383 551.855 448.783 555.078C457.182 558.302 466.176 559.937 475.251 559.892C492.178 559.808 508.748 564.446 522.865 573.218C536.982 581.99 548.012 594.503 554.56 609.174C561.108 623.845 562.88 640.016 559.652 655.641C556.424 671.266 548.341 685.643 536.424 696.955C524.508 708.266 509.294 716.004 492.707 719.189C476.119 722.375 458.903 720.865 443.236 714.85C427.569 708.835 414.154 698.586 404.688 685.399C395.222 672.212 390.13 656.678 390.057 640.764L390.057 640.733Z" fill="#3C63B0"/>
<path d="M417.822 561.914L418.854 560.716C423.512 564.222 428.529 567.285 433.83 569.861L433.062 571.244C427.671 568.608 422.566 565.483 417.822 561.914Z" fill="#3C63B0"/>
<path d="M390.202 527.032L391.731 526.451C395.909 536.175 401.983 545.079 409.641 552.703L408.443 553.762C400.644 545.999 394.458 536.933 390.202 527.032Z" fill="#3C63B0"/>
<path d="M290.59 738.548H301.805L302.921 710.104H291.705L290.59 738.548Z" fill="#FFC3BD"/>
<path opacity="0.2" d="M302.919 710.12L302.354 724.776H291.123L291.688 710.12H302.919Z" fill="black"/>
<path d="M208.309 728.904L219.28 731.495L230.297 705.023L219.325 702.416L208.309 728.904Z" fill="#FFC3BD"/>
<path opacity="0.2" d="M219.311 702.434L230.298 705.024L224.614 718.678L213.643 716.087L219.311 702.434Z" fill="black"/>
<path d="M266.588 338.311C262.737 345.715 258.856 353.352 255.143 360.956C251.43 368.56 247.794 376.214 244.707 383.835C243.897 385.756 243.179 387.645 242.507 389.533C242.507 389.717 242.507 389.533 242.507 389.533C242.507 389.533 242.507 389.65 242.507 389.784C242.451 390.267 242.451 390.755 242.507 391.238C242.785 392.82 243.242 394.358 243.867 395.817C244.576 397.573 245.371 399.286 246.25 400.948C250.224 408.152 254.64 415.053 259.467 421.603L253.692 428.288C246.85 422.776 240.687 416.323 235.356 409.086C232.256 404.995 229.859 400.324 228.281 395.299C227.811 393.672 227.523 391.988 227.425 390.285C227.343 389.274 227.343 388.256 227.425 387.244C227.477 386.682 227.559 386.124 227.67 385.573C227.67 385.305 227.792 385.021 227.853 384.737L228.052 384.018C228.724 381.779 229.381 379.506 230.13 377.334C233.061 368.821 236.407 360.487 240.154 352.366C243.851 344.311 247.717 336.523 252.026 328.735L266.588 338.311Z" fill="#FFC3BD"/>
<path d="M257.299 419.468L265.184 422.309L258.552 434.509C258.552 434.509 252.777 431.651 251.615 425.835L257.299 419.468Z" fill="#FFC3BD"/>
<path d="M275.922 427.02L268.252 436.412L258.549 434.507L265.18 422.308L275.922 427.02Z" fill="#FFC3BD"/>
<path d="M304.27 271.651C304.454 272.62 305.065 273.322 305.645 273.171C306.226 273.021 306.547 272.152 306.364 271.183C306.18 270.213 305.569 269.512 304.988 269.662C304.408 269.812 304.072 270.681 304.27 271.651Z" fill="#263238"/>
<path d="M304.982 273.319C306.591 276.048 308.534 278.522 310.758 280.673C310.24 281.282 309.607 281.759 308.902 282.071C308.197 282.383 307.438 282.522 306.679 282.477L304.982 273.319Z" fill="#ED847E"/>
<path d="M300.018 266.987C299.881 266.982 299.751 266.923 299.651 266.82C299.553 266.711 299.498 266.564 299.498 266.411C299.498 266.258 299.553 266.111 299.651 266.001C300.217 265.301 300.929 264.76 301.727 264.425C302.525 264.091 303.386 263.972 304.235 264.079C304.375 264.104 304.5 264.188 304.583 264.314C304.666 264.439 304.7 264.595 304.678 264.748C304.652 264.899 304.574 265.033 304.46 265.123C304.347 265.213 304.206 265.252 304.067 265.233C303.401 265.163 302.729 265.268 302.108 265.538C301.486 265.808 300.932 266.236 300.491 266.787C300.436 266.863 300.362 266.922 300.279 266.957C300.196 266.992 300.106 267.003 300.018 266.987Z" fill="#263238"/>
<path d="M278.992 285.286C280.52 294.277 282.2 310.738 276.455 316.721C276.455 316.721 278.701 325.829 293.966 325.829C310.774 325.829 301.988 316.721 301.988 316.721C292.82 314.331 293.064 306.911 294.654 299.926L278.992 285.286Z" fill="#FFC3BD"/>
<path d="M274.163 318.745C272.941 317.074 271.612 314.985 274.362 314.35C277.418 313.665 294.027 312.946 299.757 314.25C305.487 315.553 303.852 319.113 303.852 319.113L274.163 318.745Z" fill="white"/>
<path d="M223.558 733.168C224.011 733.344 224.492 733.419 224.972 733.39C225.452 733.362 225.922 733.229 226.355 733.001C226.522 732.833 226.637 732.612 226.684 732.37C226.73 732.127 226.706 731.874 226.614 731.647C226.565 731.458 226.478 731.283 226.359 731.136C226.24 730.988 226.092 730.872 225.927 730.795C224.399 729.993 220.93 731.547 220.777 731.614C220.73 731.638 220.689 731.675 220.66 731.722C220.63 731.769 220.613 731.824 220.609 731.881C220.611 731.936 220.626 731.99 220.653 732.037C220.68 732.084 220.718 732.122 220.762 732.148C221.659 732.595 222.596 732.937 223.558 733.168ZM225.377 731.196L225.698 731.313C225.794 731.359 225.879 731.428 225.948 731.514C226.017 731.601 226.067 731.703 226.095 731.814C226.248 732.332 226.095 732.499 226.003 732.55C225.407 733.118 223.161 732.55 221.587 731.898C222.789 731.365 224.082 731.125 225.377 731.196Z" fill="#3C63B0"/>
<path d="M220.825 732.162H220.947C222.231 731.761 224.936 729.638 224.966 728.251C224.971 728.034 224.906 727.822 224.784 727.652C224.661 727.481 224.488 727.362 224.294 727.316C224.102 727.24 223.899 727.21 223.696 727.227C223.493 727.245 223.296 727.309 223.117 727.416C221.589 728.251 220.672 731.644 220.627 731.794C220.604 731.838 220.592 731.887 220.592 731.936C220.592 731.986 220.604 732.035 220.627 732.078C220.682 732.131 220.752 732.161 220.825 732.162ZM224.003 727.817H224.11C224.447 727.934 224.447 728.118 224.447 728.185C224.447 729.003 222.628 730.658 221.391 731.343C221.743 729.993 222.456 728.788 223.438 727.884C223.616 727.8 223.813 727.776 224.003 727.817Z" fill="#3C63B0"/>
<path d="M306.316 739.165C307.768 739.165 309.158 738.948 309.617 738.246C309.736 738.06 309.801 737.839 309.801 737.611C309.801 737.384 309.736 737.162 309.617 736.976C309.523 736.805 309.399 736.656 309.252 736.539C309.105 736.421 308.938 736.337 308.761 736.291C306.897 735.74 302.97 738.179 302.817 738.296C302.766 738.322 302.725 738.365 302.7 738.42C302.675 738.475 302.668 738.537 302.68 738.597C302.69 738.655 302.716 738.708 302.754 738.749C302.792 738.791 302.841 738.819 302.893 738.831C304.024 739.048 305.169 739.16 306.316 739.165ZM308.104 736.792C308.271 736.766 308.441 736.766 308.608 736.792C308.716 736.813 308.819 736.86 308.909 736.93C308.999 736.999 309.073 737.089 309.128 737.193C309.326 737.561 309.25 737.745 309.128 737.845C308.608 738.631 305.766 738.647 303.673 738.33C305.044 737.507 306.549 736.985 308.104 736.792Z" fill="#3C63B0"/>
<path d="M302.921 738.833H303.028C304.388 738.164 307.077 735.49 306.863 734.12C306.863 733.786 306.603 733.385 305.885 733.301C305.613 733.268 305.337 733.295 305.074 733.381C304.812 733.467 304.568 733.61 304.357 733.802C302.936 735.089 302.631 738.398 302.615 738.532C302.609 738.583 302.616 738.635 302.635 738.682C302.654 738.729 302.684 738.769 302.722 738.799C302.783 738.836 302.853 738.848 302.921 738.833ZM305.671 733.819H305.824C306.298 733.819 306.328 734.07 306.344 734.137C306.466 734.972 304.648 737.061 303.288 737.964C303.435 736.564 303.967 735.247 304.816 734.187C305.063 733.983 305.362 733.866 305.671 733.852V733.819Z" fill="#3C63B0"/>
<path d="M220.333 730.294L208.003 727.386C207.786 727.331 207.558 727.361 207.36 727.471C207.162 727.581 207.005 727.764 206.918 727.988L202.639 738.132C202.535 738.378 202.484 738.648 202.489 738.919C202.494 739.191 202.555 739.457 202.669 739.699C202.782 739.941 202.944 740.151 203.143 740.314C203.342 740.476 203.572 740.588 203.816 740.639C208.14 741.591 210.279 741.809 215.704 743.095C219.035 743.881 226.568 745.886 231.167 746.973C235.766 748.059 237.355 743.229 235.568 742.327C227.515 738.299 224.153 734.756 221.968 731.464C221.572 730.869 220.99 730.453 220.333 730.294Z" fill="#263238"/>
<path d="M301.73 737.127H289.506C289.283 737.128 289.066 737.211 288.892 737.362C288.717 737.514 288.594 737.725 288.543 737.963L286.327 748.875C286.274 749.139 286.276 749.412 286.333 749.674C286.391 749.936 286.501 750.181 286.657 750.39C286.813 750.599 287.01 750.767 287.233 750.881C287.456 750.995 287.701 751.052 287.947 751.048C292.363 751.048 298.765 750.697 304.312 750.697C310.821 750.697 316.429 751.081 324.054 751.081C328.638 751.081 329.936 745.984 328.011 745.516C319.225 743.427 312.059 743.193 304.465 738.079C303.652 737.488 302.705 737.158 301.73 737.127Z" fill="#263238"/>
<path d="M305.764 319.746C314.473 318.76 323.488 317.506 332.213 316.002C340.794 314.674 349.265 312.606 357.548 309.819C358.51 309.468 359.427 309.083 360.344 308.682C361.101 308.349 361.837 307.958 362.544 307.513C364.225 306.476 366.074 305.223 367.877 303.903C371.514 301.246 375.211 298.438 378.863 295.547L401.034 278.116L406.658 284.985C400.423 292.522 393.929 299.675 387.099 306.577C383.676 310.019 380.193 313.429 376.403 316.704C374.524 318.375 372.644 320.046 370.429 321.567C369.213 322.475 367.942 323.29 366.624 324.007C365.432 324.626 364.24 325.21 363.064 325.678C358.507 327.694 353.831 329.369 349.067 330.692C344.483 332.062 339.792 333.149 335.162 334.118C325.892 336.061 316.532 337.456 307.124 338.296L305.764 319.746Z" fill="#FFC3BD"/>
<path d="M256.363 319.514C245.836 322.154 228.172 379.292 228.172 379.292L245.362 385.543C245.362 385.543 262.903 357.132 268.863 343.412C275.036 329.04 267.121 316.806 256.363 319.514Z" fill="#263238"/>
<path d="M248.358 382.719C248.358 382.719 231.55 379.21 227.684 376.603C226.339 378.725 224.628 386.463 225.82 388.735C227.012 391.008 242.628 394.317 244.721 392.963C246.814 391.61 248.358 382.719 248.358 382.719Z" fill="#263238"/>
<path opacity="0.2" d="M248.358 382.719C248.358 382.719 231.55 379.21 227.684 376.603C226.339 378.725 224.628 386.463 225.82 388.735C227.012 391.008 242.628 394.317 244.721 392.963C246.814 391.61 248.358 382.719 248.358 382.719Z" fill="#FAFAFA"/>
<path d="M319.256 320.13C319.256 320.13 331.189 334.887 319.913 426.251H259.878C259.465 416.224 265.256 366.99 256.363 319.495C262.999 318.097 269.711 317.171 276.456 316.721C284.96 316.186 293.485 316.186 301.989 316.721C307.817 317.365 313.59 318.505 319.256 320.13Z" fill="#263238"/>
<path d="M297.958 339.667C308.73 351.817 362.73 327.584 362.73 327.584L354.066 309.352C354.066 309.352 320.297 317.022 306.423 316.722C289.31 316.337 289.814 330.425 297.958 339.667Z" fill="#263238"/>
<path d="M351.434 309.002C351.434 309.002 360.036 325.229 360.724 330.092C363.092 329.825 369.51 326.131 370.35 323.691C371.191 321.251 363.214 306.177 360.892 305.308C358.569 304.439 351.434 309.002 351.434 309.002Z" fill="#263238"/>
<path opacity="0.2" d="M351.434 309.002C351.434 309.002 360.036 325.229 360.724 330.092C363.092 329.825 369.51 326.131 370.35 323.691C371.191 321.251 363.214 306.177 360.892 305.308C358.569 304.439 351.434 309.002 351.434 309.002Z" fill="#FAFAFA"/>
<path d="M400.682 278.285L408.322 268.441L416.542 278.469C416.542 278.469 411.469 287.777 403.417 286.306L400.682 278.285Z" fill="#FFC3BD"/>
<path d="M419.067 263.791L426.478 268.437L416.623 278.414L408.387 268.437L419.067 263.791Z" fill="#FFC3BD"/>
<path d="M274.288 276.164C277.176 287.946 278.322 294.981 284.984 299.878C294.977 307.248 307.415 298.792 307.797 286.324C308.148 275.094 303.381 257.73 291.829 255.357C289.283 254.811 286.651 254.988 284.185 255.87C281.719 256.753 279.5 258.311 277.741 260.398C275.982 262.484 274.741 265.029 274.137 267.789C273.532 270.549 273.584 273.432 274.288 276.164Z" fill="#FFC3BD"/>
<path d="M297.865 231.407C305.505 248.988 265.854 239.245 265.579 255.205C265.579 255.873 265.579 256.475 265.579 257.06C264.448 255.907 262.171 254.637 258.244 256.375C260.547 257.326 262.633 258.814 264.356 260.737C262.828 262.157 260.506 262.909 261.499 269.711C261.972 273.053 265.013 278.067 268.971 282.512C270.697 285.537 276.305 292.406 276.198 294.06C277.056 294.064 277.904 293.87 278.689 293.492C278.936 294.118 279.046 294.8 279.01 295.481C281.088 295.915 282.723 295.598 282.906 294.027C284.602 294.194 285.825 293.693 285.886 292.205C287.505 292.456 288.621 291.888 288.544 289.983C292.395 287.676 293.709 282.813 294.412 277.382C295.228 270.509 298.375 264.222 303.228 259.767C311.006 252.966 314.062 242.237 297.865 231.407Z" fill="#263238"/>
<path d="M289.749 275.539C290.493 278.467 292.106 281.042 294.333 282.859C297.266 285.232 299.436 282.859 299.238 279.283C299.054 275.94 297.297 270.927 294.073 269.907C290.849 268.888 288.908 271.996 289.749 275.539Z" fill="#FFC3BD"/>
<path d="M298.611 426.254C298.611 426.254 285.867 520.058 278.884 555.153C271.244 593.591 230.263 717.059 230.263 717.059L210.17 712.296C210.17 712.296 240.837 596.766 245.207 558.646C249.944 517.284 259.876 426.188 259.876 426.188L298.611 426.254Z" fill="#3C63B0"/>
<path opacity="0.5" d="M298.611 426.254C298.611 426.254 285.867 520.058 278.884 555.153C271.244 593.591 230.263 717.059 230.263 717.059L210.17 712.296C210.17 712.296 240.837 596.766 245.207 558.646C249.944 517.284 259.876 426.188 259.876 426.188L298.611 426.254Z" fill="black"/>
<path opacity="0.3" d="M290.561 459.674C275.831 462.832 277.389 522.912 279.162 553.812C283.41 531.97 289.629 489.939 293.877 460.108C292.849 459.554 291.679 459.401 290.561 459.674Z" fill="black"/>
<path d="M319.912 426.253C319.912 426.253 321.44 518.052 320.233 555.486C318.965 594.425 306.481 721.937 306.481 721.937H287.518C287.518 721.937 286.815 596.698 285.99 558.461C285.058 516.681 280.459 426.253 280.459 426.253H319.912Z" fill="#3C63B0"/>
<path opacity="0.5" d="M319.912 426.253C319.912 426.253 321.44 518.052 320.233 555.486C318.965 594.425 306.481 721.937 306.481 721.937H287.518C287.518 721.937 286.815 596.698 285.99 558.461C285.058 516.681 280.459 426.253 280.459 426.253H319.912Z" fill="black"/>
<path opacity="0.2" d="M302.54 706.993C302.514 706.991 302.489 706.984 302.467 706.97C302.444 706.957 302.424 706.939 302.408 706.917C302.392 706.895 302.381 706.87 302.375 706.842C302.368 706.815 302.367 706.787 302.372 706.759C305.718 671.497 313.618 586.133 314.596 555.466C315.62 524.148 314.703 454.058 314.382 433.319C314.382 433.261 314.403 433.206 314.44 433.165C314.477 433.124 314.528 433.102 314.581 433.102C314.629 433.102 314.676 433.123 314.71 433.16C314.745 433.198 314.764 433.249 314.764 433.302C315.085 454.042 316.002 524.148 314.978 555.483C313.985 586.166 306.085 671.531 302.754 706.809C302.752 706.837 302.745 706.865 302.733 706.889C302.721 706.914 302.704 706.936 302.684 706.953C302.664 706.971 302.641 706.983 302.616 706.99C302.591 706.997 302.565 706.998 302.54 706.993Z" fill="#FAFAFA"/>
<path d="M235.079 709.786C235.171 709.786 231.335 717.724 231.335 717.724L208.736 712.376L210.631 704.939L235.079 709.786Z" fill="#263238"/>
<path d="M310.182 713.646C310.274 713.646 309.112 722.286 309.112 722.286H285.994L285.367 714.581L310.182 713.646Z" fill="#263238"/>
<g filter="url(#filter0_di_1375_2106)">
<path d="M441.001 836.302L453.533 835.819C455.848 835.73 457.665 833.723 457.5 831.438L457.153 826.648C456.98 824.25 458.982 822.188 461.407 822.266L467.833 822.474C470.085 822.547 472.009 820.765 472.095 818.527L472.279 813.709C472.37 811.332 474.524 809.503 476.894 809.79L485.871 810.877" stroke="#3C63B0" stroke-width="5" stroke-linecap="round" stroke-linejoin="round"/>
</g>
<g filter="url(#filter1_d_1375_2106)">
<path d="M612.038 13.4854L641.021 30.8271L611.511 47.2562L612.038 13.4854Z" fill="#3C63B0"/>
</g>
<g filter="url(#filter2_d_1375_2106)">
<path d="M200.038 860.485L229.021 877.827L199.511 894.256L200.038 860.485Z" fill="#3C63B0"/>
</g>
<g filter="url(#filter3_di_1375_2106)">
<path d="M226.001 172.302L238.533 171.819C240.848 171.73 242.665 169.723 242.5 167.438L242.153 162.648C241.98 160.25 243.982 158.188 246.407 158.266L252.833 158.474C255.085 158.547 257.009 156.765 257.095 154.527L257.279 149.709C257.37 147.332 259.524 145.503 261.894 145.79L270.871 146.877" stroke="#3C63B0" stroke-width="5" stroke-linecap="round" stroke-linejoin="round"/>
</g>
<defs>
<filter id="filter0_di_1375_2106" x="438.491" y="807.27" width="64.891" height="46.5225" filterUnits="userSpaceOnUse" color-interpolation-filters="sRGB">
<feFlood flood-opacity="0" result="BackgroundImageFix"/>
<feColorMatrix in="SourceAlpha" type="matrix" values="0 0 0 0 0 0 0 0 0 0 0 0 0 0 0 0 0 0 127 0" result="hardAlpha"/>
<feOffset dx="8" dy="8"/>
<feGaussianBlur stdDeviation="3.5"/>
<feColorMatrix type="matrix" values="0 0 0 0 0 0 0 0 0 0 0 0 0 0 0 0 0 0 0.08 0"/>
<feBlend mode="normal" in2="BackgroundImageFix" result="effect1_dropShadow_1375_2106"/>
<feBlend mode="normal" in="SourceGraphic" in2="effect1_dropShadow_1375_2106" result="shape"/>
<feColorMatrix in="SourceAlpha" type="matrix" values="0 0 0 0 0 0 0 0 0 0 0 0 0 0 0 0 0 0 127 0" result="hardAlpha"/>
<feOffset dy="4"/>
<feGaussianBlur stdDeviation="2"/>
<feComposite in2="hardAlpha" operator="arithmetic" k2="-1" k3="1"/>
<feColorMatrix type="matrix" values="0 0 0 0 1 0 0 0 0 1 0 0 0 0 1 0 0 0 0.28 0"/>
<feBlend mode="normal" in2="shape" result="effect2_innerShadow_1375_2106"/>
</filter>
<filter id="filter1_d_1375_2106" x="590.641" y="0.963841" width="50.3791" height="46.292" filterUnits="userSpaceOnUse" color-interpolation-filters="sRGB">
<feFlood flood-opacity="0" result="BackgroundImageFix"/>
<feColorMatrix in="SourceAlpha" type="matrix" values="0 0 0 0 0 0 0 0 0 0 0 0 0 0 0 0 0 0 127 0" result="hardAlpha"/>
<feOffset dx="-18.7823" dy="-10.4346"/>
<feGaussianBlur stdDeviation="1.04346"/>
<feColorMatrix type="matrix" values="0 0 0 0 0 0 0 0 0 0 0 0 0 0 0 0 0 0 0.25 0"/>
<feBlend mode="normal" in2="BackgroundImageFix" result="effect1_dropShadow_1375_2106"/>
<feBlend mode="normal" in="SourceGraphic" in2="effect1_dropShadow_1375_2106" result="shape"/>
</filter>
<filter id="filter2_d_1375_2106" x="178.641" y="847.964" width="50.3791" height="46.292" filterUnits="userSpaceOnUse" color-interpolation-filters="sRGB">
<feFlood flood-opacity="0" result="BackgroundImageFix"/>
<feColorMatrix in="SourceAlpha" type="matrix" values="0 0 0 0 0 0 0 0 0 0 0 0 0 0 0 0 0 0 127 0" result="hardAlpha"/>
<feOffset dx="-18.7823" dy="-10.4346"/>
<feGaussianBlur stdDeviation="1.04346"/>
<feColorMatrix type="matrix" values="0 0 0 0 0 0 0 0 0 0 0 0 0 0 0 0 0 0 0.25 0"/>
<feBlend mode="normal" in2="BackgroundImageFix" result="effect1_dropShadow_1375_2106"/>
<feBlend mode="normal" in="SourceGraphic" in2="effect1_dropShadow_1375_2106" result="shape"/>
</filter>
<filter id="filter3_di_1375_2106" x="223.491" y="143.27" width="64.891" height="46.5225" filterUnits="userSpaceOnUse" color-interpolation-filters="sRGB">
<feFlood flood-opacity="0" result="BackgroundImageFix"/>
<feColorMatrix in="SourceAlpha" type="matrix" values="0 0 0 0 0 0 0 0 0 0 0 0 0 0 0 0 0 0 127 0" result="hardAlpha"/>
<feOffset dx="8" dy="8"/>
<feGaussianBlur stdDeviation="3.5"/>
<feColorMatrix type="matrix" values="0 0 0 0 0 0 0 0 0 0 0 0 0 0 0 0 0 0 0.08 0"/>
<feBlend mode="normal" in2="BackgroundImageFix" result="effect1_dropShadow_1375_2106"/>
<feBlend mode="normal" in="SourceGraphic" in2="effect1_dropShadow_1375_2106" result="shape"/>
<feColorMatrix in="SourceAlpha" type="matrix" values="0 0 0 0 0 0 0 0 0 0 0 0 0 0 0 0 0 0 127 0" result="hardAlpha"/>
<feOffset dy="4"/>
<feGaussianBlur stdDeviation="2"/>
<feComposite in2="hardAlpha" operator="arithmetic" k2="-1" k3="1"/>
<feColorMatrix type="matrix" values="0 0 0 0 1 0 0 0 0 1 0 0 0 0 1 0 0 0 0.28 0"/>
<feBlend mode="normal" in2="shape" result="effect2_innerShadow_1375_2106"/>
</filter>
</defs>
</svg>
