<svg width="50" height="50" viewBox="0 0 50 50" fill="none" xmlns="http://www.w3.org/2000/svg">
<circle cx="25" cy="25" r="25" fill="#808080" fill-opacity="0.5"/>
<path d="M24.6144 13C20.717 13 18.1927 14.5968 16.2108 17.4446C15.8513 17.9612 15.9621 18.6695 16.4636 19.0498L18.57 20.6469C19.0765 21.031 19.7971 20.9412 20.1936 20.4444C21.4167 18.9121 22.324 18.0299 24.2345 18.0299C25.7367 18.0299 27.5947 18.9966 27.5947 20.4533C27.5947 21.5544 26.6856 22.12 25.2024 22.9515C23.4728 23.9212 21.1839 25.1281 21.1839 28.1471V28.625C21.1839 29.2722 21.7086 29.7969 22.3558 29.7969H25.8944C26.5416 29.7969 27.0663 29.2722 27.0663 28.625V28.3431C27.0663 26.2503 33.1829 26.1632 33.1829 20.5C33.1829 16.2352 28.759 13 24.6144 13ZM24.1251 31.2353C22.2601 31.2353 20.7428 32.7526 20.7428 34.6177C20.7428 36.4827 22.2601 38 24.1251 38C25.9902 38 27.5075 36.4827 27.5075 34.6176C27.5075 32.7526 25.9902 31.2353 24.1251 31.2353Z" fill="white"/>
</svg>
