<svg width="61" height="61" viewBox="0 0 61 61" fill="none" xmlns="http://www.w3.org/2000/svg">
<g opacity="0.4">
<rect opacity="0.5" width="61" height="61" rx="10" fill="#F45151"/>
</g>
<path d="M25.4434 30.0289L20.5674 28.6711C20.003 28.5164 19.6102 28.0137 19.6102 27.4551C19.6102 26.7547 20.2062 26.1875 20.9421 26.1875H23.9355C24.4863 26.1875 25.0281 26.3465 25.4796 26.6387C25.755 26.8148 26.1252 26.7719 26.36 26.5527L27.9311 25.0918C28.2517 24.7953 28.2065 24.3012 27.8499 24.0391C26.7437 23.2141 25.3622 22.7543 23.9445 22.75V20.6875C23.9445 20.3094 23.6194 20 23.2221 20H21.7774C21.3801 20 21.055 20.3094 21.055 20.6875V22.75H20.9421C18.0662 22.75 15.7546 25.1004 16.0209 27.8891C16.2106 29.8699 17.7998 31.4813 19.8044 32.0398L24.4321 33.3289C24.9965 33.4879 25.3893 33.9863 25.3893 34.5449C25.3893 35.2453 24.7933 35.8125 24.0574 35.8125H21.064C20.5132 35.8125 19.9714 35.6535 19.5199 35.3613C19.2445 35.1852 18.8743 35.2281 18.6395 35.4473L17.0684 36.9082C16.7478 37.2047 16.793 37.6988 17.1496 37.9609C18.2558 38.7859 19.6373 39.2457 21.055 39.25V41.3125C21.055 41.6906 21.3801 42 21.7774 42H23.2221C23.6194 42 23.9445 41.6906 23.9445 41.3125V39.2414C26.0484 39.2027 28.0214 38.0125 28.7167 36.1176C29.6874 33.4707 28.0575 30.7551 25.4434 30.0289Z" fill="#F03131" fill-opacity="0.72"/>
<path opacity="0.3" d="M41.4434 30.0289L36.5674 28.6711C36.003 28.5164 35.6102 28.0137 35.6102 27.4551C35.6102 26.7547 36.2062 26.1875 36.9421 26.1875H39.9355C40.4863 26.1875 41.0281 26.3465 41.4796 26.6387C41.755 26.8148 42.1252 26.7719 42.36 26.5527L43.9311 25.0918C44.2517 24.7953 44.2065 24.3012 43.8499 24.0391C42.7437 23.2141 41.3622 22.7543 39.9445 22.75V20.6875C39.9445 20.3094 39.6194 20 39.2221 20H37.7774C37.3801 20 37.055 20.3094 37.055 20.6875V22.75H36.9421C34.0662 22.75 31.7546 25.1004 32.0209 27.8891C32.2106 29.8699 33.7998 31.4813 35.8044 32.0398L40.4321 33.3289C40.9965 33.4879 41.3893 33.9863 41.3893 34.5449C41.3893 35.2453 40.7933 35.8125 40.0574 35.8125H37.064C36.5132 35.8125 35.9714 35.6535 35.5199 35.3613C35.2445 35.1852 34.8743 35.2281 34.6395 35.4473L33.0684 36.9082C32.7478 37.2047 32.793 37.6988 33.1496 37.9609C34.2558 38.7859 35.6373 39.2457 37.055 39.25V41.3125C37.055 41.6906 37.3801 42 37.7774 42H39.2221C39.6194 42 39.9445 41.6906 39.9445 41.3125V39.2414C42.0484 39.2027 44.0214 38.0125 44.7167 36.1176C45.6874 33.4707 44.0575 30.7551 41.4434 30.0289Z" fill="#F03131" fill-opacity="0.72"/>
</svg>
