<svg width="61" height="61" viewBox="0 0 61 61" fill="none" xmlns="http://www.w3.org/2000/svg">
<rect opacity="0.5" width="61" height="61" rx="10" fill="#C4C4C4"/>
<path d="M48.0357 16.6879C45.1222 15.8998 42.2759 14.8758 39.5243 13.6258C36.8171 12.4356 34.2038 11.0373 31.7071 9.44303L31 9L30.3057 9.45606C27.8091 11.0503 25.1957 12.4486 22.4886 13.6388C19.7324 14.8851 16.8818 15.9047 13.9643 16.6879L13 16.9355V27.8027C13 45.2503 30.3957 51.7785 30.5629 51.8436L31 52L31.4371 51.8436C31.6171 51.8436 49 45.2633 49 27.8027V16.9355L48.0357 16.6879ZM42.16 25.353L27.7986 39.4909L19.6729 31.2427C19.3319 30.8971 19.1403 30.4284 19.1403 29.9397C19.1403 29.451 19.3319 28.9823 19.6729 28.6367C20.0138 28.2911 20.4763 28.0969 20.9586 28.0969C21.4408 28.0969 21.9033 28.2911 22.2443 28.6367L27.8371 34.4091L39.6529 22.6818C39.8217 22.5107 40.0221 22.375 40.2427 22.2824C40.4634 22.1897 40.6998 22.1421 40.9386 22.1421C41.1773 22.1421 41.4138 22.1897 41.6344 22.2824C41.855 22.375 42.0554 22.5107 42.2243 22.6818C42.3931 22.8529 42.5271 23.0561 42.6184 23.2797C42.7098 23.5032 42.7568 23.7429 42.7568 23.9848C42.7568 24.2268 42.7098 24.4665 42.6184 24.69C42.5271 24.9136 42.3931 25.1168 42.2243 25.2879L42.16 25.353Z" fill="#19BF6F"/>
</svg>
