<svg width="265" height="204" viewBox="0 0 265 204" fill="none" xmlns="http://www.w3.org/2000/svg">
<path d="M121.149 203.579C170.812 203.579 211.073 163.318 211.073 113.654C211.073 63.9908 170.812 23.7305 121.149 23.7305C71.485 23.7305 31.2246 63.9908 31.2246 113.654C31.2246 163.318 71.485 203.579 121.149 203.579Z" fill="url(#paint0_radial_4164_5927)"/>
<path opacity="0.5" d="M121.149 203.579C170.812 203.579 211.073 163.318 211.073 113.654C211.073 63.9908 170.812 23.7305 121.149 23.7305C71.485 23.7305 31.2246 63.9908 31.2246 113.654C31.2246 163.318 71.485 203.579 121.149 203.579Z" fill="url(#paint1_radial_4164_5927)"/>
<path d="M60.5039 89.5438C60.9535 93.1407 65.1125 94.883 71.7444 93.9838C77.4208 93.2532 89.392 88.5883 96.5297 76.4486C97.8224 74.2005 95.2932 73.4136 93.8882 74.9311C89.2234 80.0455 75.8472 87.5767 64.719 87.8015C60.279 87.9701 60.5039 89.5438 60.5039 89.5438Z" fill="url(#paint2_linear_4164_5927)"/>
<path d="M84.9538 124.782C84.9538 124.782 69.9478 123.939 65.283 112.811C65.002 112.137 64.8333 111.35 64.7771 110.619C64.7209 109.102 66.0136 107.472 68.7675 108.821C85.5721 117.083 94.8455 112.474 101.758 109.158C104.456 107.865 106.985 110.563 106.311 113.036C106.086 113.767 105.974 114.497 105.636 115.172C99.96 125.682 84.9538 124.782 84.9538 124.782Z" fill="url(#paint3_radial_4164_5927)"/>
<path d="M106.369 112.702C106.819 110.285 104.346 107.868 101.76 109.105C94.8475 112.364 85.574 117.029 68.7695 108.767C66.0155 107.419 64.7229 109.105 64.7791 110.566C64.7791 110.622 64.7791 110.734 64.7791 110.791C68.4885 111.858 76.3006 116.467 85.1244 116.467C95.4657 116.523 102.041 111.521 106.369 112.702Z" fill="url(#paint4_linear_4164_5927)"/>
<path d="M181.787 89.5975C181.337 93.1944 177.178 94.9367 170.547 94.0374C164.87 93.3068 152.899 88.642 145.761 76.5023C144.469 74.2542 146.998 73.4674 148.403 74.9848C153.068 80.0993 166.444 87.6304 177.572 87.8552C182.012 88.0238 181.787 89.5975 181.787 89.5975Z" fill="url(#paint5_linear_4164_5927)"/>
<path d="M157.403 124.782C157.403 124.782 172.409 123.939 177.074 112.811C177.355 112.137 177.523 111.35 177.58 110.619C177.636 109.102 176.343 107.472 173.589 108.821C156.785 117.083 147.511 112.474 140.598 109.158C137.901 107.865 135.371 110.563 136.046 113.036C136.271 113.767 136.383 114.497 136.72 115.172C142.397 125.682 157.403 124.782 157.403 124.782Z" fill="url(#paint6_radial_4164_5927)"/>
<path d="M135.987 112.755C135.537 110.339 138.01 107.922 140.595 109.158C147.508 112.418 156.782 117.083 173.586 108.821C176.34 107.472 177.633 109.158 177.577 110.62C177.577 110.676 177.577 110.788 177.577 110.844C173.867 111.912 166.055 116.521 157.231 116.521C146.89 116.577 140.314 111.575 135.987 112.755Z" fill="url(#paint7_linear_4164_5927)"/>
<path d="M121.148 174.072C135.023 174.072 146.27 171.38 146.27 168.059C146.27 164.737 135.023 162.045 121.148 162.045C107.273 162.045 96.0254 164.737 96.0254 168.059C96.0254 171.38 107.273 174.072 121.148 174.072Z" fill="url(#paint8_radial_4164_5927)"/>
<path d="M121.148 164.63C136.604 164.63 143.46 165.754 146.27 168.227C146.27 168.171 146.27 168.115 146.27 168.059C146.27 164.743 142.505 162.045 121.148 162.045C99.791 162.045 96.0254 164.743 96.0254 168.059C96.0254 168.115 96.0254 168.171 96.0254 168.227C98.8355 165.754 105.692 164.63 121.148 164.63Z" fill="url(#paint9_linear_4164_5927)"/>
<path d="M34.0574 182.346C28.1079 188.295 18.4605 188.295 12.4902 182.346C18.4398 188.295 18.4398 197.943 12.4902 203.913C18.4398 197.963 28.0872 197.963 34.0574 203.913C28.0872 197.963 28.0872 188.295 34.0574 182.346Z" fill="#FCCE38"/>
<path d="M248.829 141.438C242.879 147.388 233.232 147.388 227.282 141.438C221.333 135.489 221.333 125.841 227.282 119.892C233.232 113.942 242.879 113.942 248.829 119.892C254.779 125.821 254.779 135.468 248.829 141.438Z" fill="url(#paint10_radial_4164_5927)"/>
<path d="M250.605 132.225L264.921 130.738C265.024 130.717 265.024 130.572 264.921 130.572L250.605 129.085C245.399 128.548 241.288 124.416 240.772 119.231L238.127 92.5199C238.107 92.4166 237.962 92.4166 237.962 92.5199L235.38 119.19C234.884 124.416 230.773 128.548 225.547 129.085L211.148 130.572C211.044 130.593 211.044 130.738 211.148 130.738L225.547 132.225C230.752 132.762 234.863 136.894 235.38 142.12L237.962 168.79C237.962 168.893 238.127 168.893 238.127 168.79L240.772 142.079C241.309 136.873 245.42 132.762 250.605 132.225Z" fill="url(#paint11_linear_4164_5927)"/>
<path d="M237.466 131.44C234.409 127.577 211.148 130.572 211.148 130.572C211.044 130.593 211.044 130.737 211.148 130.737L225.547 132.225C230.752 132.762 234.863 136.893 235.38 142.12L237.797 167.116L237.962 167.199C237.962 167.199 240.73 135.551 237.466 131.44Z" fill="url(#paint12_linear_4164_5927)"/>
<path d="M250.603 129.085C245.397 128.548 241.286 124.416 240.77 119.231L239.055 101.981C239.055 101.981 238.518 125.243 243.641 128.61C247.67 131.254 246.472 128.713 264.919 130.572L250.603 129.085Z" fill="url(#paint13_linear_4164_5927)"/>
<path d="M236.267 121.813C237.382 108.138 237.878 101.486 238.663 97.8498L238.126 92.4993C238.105 92.3961 237.961 92.3961 237.961 92.4993L235.378 119.169C234.882 124.396 230.771 128.527 225.545 129.064L216.021 130.056C227.094 131.337 235.626 129.684 236.267 121.813Z" fill="url(#paint14_linear_4164_5927)"/>
<path d="M237.963 168.791L235.381 142.121C234.885 136.894 230.774 132.763 225.547 132.226L211.148 130.738C211.148 130.738 223.13 131.379 225.651 131.379C228.171 131.379 235.566 132.866 236.248 142.08C236.93 151.293 237.963 168.791 237.963 168.791Z" fill="url(#paint15_linear_4164_5927)"/>
<path d="M238.127 168.791L240.709 142.121C241.205 136.894 245.316 132.763 250.543 132.226L264.941 130.738C264.941 130.738 252.96 131.379 250.439 131.379C247.919 131.379 240.523 132.866 239.842 142.08C239.16 151.293 238.127 168.791 238.127 168.791Z" fill="url(#paint16_linear_4164_5927)"/>
<path d="M189.24 23.5825C192.96 23.5825 195.975 20.5673 195.975 16.8479C195.975 13.1285 192.96 10.1133 189.24 10.1133C185.521 10.1133 182.506 13.1285 182.506 16.8479C182.506 20.5673 185.521 23.5825 189.24 23.5825Z" fill="url(#paint17_radial_4164_5927)"/>
<path d="M183.704 16.1651L177.383 16.8261C177.341 16.8261 177.341 16.8881 177.383 16.9088L183.704 17.5698C185.997 17.7971 187.815 19.6357 188.042 21.9287L189.22 33.7039C189.22 33.7452 189.282 33.7452 189.302 33.7039L190.439 21.9287C190.666 19.6357 192.484 17.7971 194.777 17.5698L201.14 16.9088C201.181 16.9088 201.181 16.8468 201.14 16.8261L194.777 16.1651C192.484 15.9172 190.666 14.0992 190.439 11.8062L189.302 0.0309874C189.302 -0.0103291 189.24 -0.0103291 189.22 0.0309874L188.042 11.8268C187.794 14.0992 185.997 15.9172 183.704 16.1651Z" fill="url(#paint18_linear_4164_5927)"/>
<path d="M189.51 16.5174C190.853 18.2114 201.12 16.8893 201.12 16.8893C201.161 16.8893 201.161 16.8273 201.12 16.8066L194.757 16.1456C192.464 15.8977 190.646 14.0797 190.419 11.7867L189.345 0.755184L189.283 0.713867C189.283 0.713867 188.064 14.6788 189.51 16.5174Z" fill="url(#paint19_linear_4164_5927)"/>
<path d="M183.704 17.5497C185.997 17.777 187.815 19.6156 188.042 21.9086L188.807 29.5109C188.807 29.5109 189.055 19.2437 186.782 17.7563C185.006 16.5995 185.522 17.715 177.383 16.8887L183.704 17.5497Z" fill="url(#paint20_linear_4164_5927)"/>
<path d="M190.026 20.7515C189.53 26.7837 189.324 29.7172 188.973 31.3285L189.2 33.6836C189.2 33.7249 189.262 33.7249 189.283 33.6836L190.419 21.9084C190.646 19.6153 192.464 17.7767 194.757 17.5495L198.951 17.1157C194.075 16.5372 190.315 17.2809 190.026 20.7515Z" fill="url(#paint21_linear_4164_5927)"/>
<path d="M189.283 0.0117188L190.419 11.7869C190.647 14.08 192.465 15.9186 194.758 16.1458L201.12 16.8069C201.12 16.8069 195.832 16.5177 194.716 16.5177C193.601 16.5177 190.337 15.8566 190.027 11.8076C189.717 7.7379 189.283 0.0117188 189.283 0.0117188Z" fill="url(#paint22_linear_4164_5927)"/>
<path d="M189.2 0.0117188L188.064 11.7869C187.837 14.08 186.019 15.9186 183.726 16.1458L177.363 16.8069C177.363 16.8069 182.652 16.5177 183.767 16.5177C184.883 16.5177 188.147 15.8566 188.457 11.8076C188.767 7.7379 189.2 0.0117188 189.2 0.0117188Z" fill="url(#paint23_linear_4164_5927)"/>
<path opacity="0.5" d="M16.7945 44.3506C14.0522 47.0929 9.64072 47.0929 6.89844 44.3506C9.64072 47.0929 9.64072 51.5044 6.89844 54.2467C9.64072 51.5044 14.0522 51.5044 16.7945 54.2467C14.0522 51.5044 14.0522 47.0929 16.7945 44.3506Z" fill="#FCCE38"/>
<path d="M11.8502 56.006C15.5547 56.006 18.5578 53.0029 18.5578 49.2984C18.5578 45.5939 15.5547 42.5908 11.8502 42.5908C8.14567 42.5908 5.14258 45.5939 5.14258 49.2984C5.14258 53.0029 8.14567 56.006 11.8502 56.006Z" fill="url(#paint24_radial_4164_5927)"/>
<path d="M6.33494 48.6156L0.0447172 49.2714C-0.0149057 49.2714 -0.0149057 49.3311 0.0447172 49.3609L6.33494 50.0167C8.63043 50.2552 10.4191 52.0737 10.6576 54.3692L11.8203 66.115C11.8203 66.1746 11.8799 66.1746 11.9097 66.115L13.0425 54.3692C13.2512 52.0737 15.0697 50.2552 17.3652 50.0167L23.6852 49.3609C23.7449 49.3609 23.7449 49.3013 23.6852 49.2714L17.3652 48.6156C15.0697 48.3771 13.2512 46.5586 13.0425 44.2631L11.9097 32.5174C11.9097 32.4578 11.8501 32.4578 11.8203 32.5174L10.6576 44.2631C10.4191 46.5586 8.60062 48.3771 6.33494 48.6156Z" fill="url(#paint25_linear_4164_5927)"/>
<path d="M12.1188 48.9436C13.4603 50.6429 23.6856 49.3312 23.6856 49.3312C23.7452 49.3312 23.7452 49.2715 23.6856 49.2417L17.3656 48.5859C15.0701 48.3474 13.2516 46.5289 13.0429 44.2334L11.9697 33.2329L11.9101 33.2031C11.8803 33.2329 10.6878 47.1549 12.1188 48.9436Z" fill="url(#paint26_linear_4164_5927)"/>
<path d="M6.33371 49.9869C8.62919 50.2254 10.4179 52.0439 10.6564 54.3394L11.4017 61.9115C11.4017 61.9115 11.6402 51.6862 9.37448 50.1956C7.6156 49.0329 8.1224 50.136 0.0136719 49.3311L6.33371 49.9869Z" fill="url(#paint27_linear_4164_5927)"/>
<path d="M12.6254 53.1769C12.1484 59.1989 11.91 62.1204 11.582 63.7302L11.8205 66.0853C11.8205 66.145 11.8801 66.145 11.91 66.0853L13.0428 54.3396C13.2515 52.0441 15.07 50.2256 17.3655 49.9871L21.5689 49.5399C16.6798 49.0033 12.9235 49.7188 12.6254 53.1769Z" fill="url(#paint28_linear_4164_5927)"/>
<path d="M11.877 32.5186L13.0098 44.2643C13.2185 46.5598 15.037 48.3783 17.3325 48.6168L23.6525 49.2726C23.6525 49.2726 18.3759 49.0043 17.2728 49.0043C16.1698 49.0043 12.9204 48.3485 12.6222 44.2941C12.3241 40.2099 11.877 32.5186 11.877 32.5186Z" fill="url(#paint29_linear_4164_5927)"/>
<path d="M11.8224 32.5186L10.6896 44.2643C10.4809 46.5598 8.66239 48.3783 6.36691 48.6168L0.046875 49.2726C0.046875 49.2726 5.32351 49.0043 6.42653 49.0043C7.52956 49.0043 10.779 48.3485 11.0771 44.2941C11.3752 40.2099 11.8224 32.5186 11.8224 32.5186Z" fill="url(#paint30_linear_4164_5927)"/>
<defs>
<radialGradient id="paint0_radial_4164_5927" cx="0" cy="0" r="1" gradientUnits="userSpaceOnUse" gradientTransform="translate(103.456 77.2298) scale(108.482)">
<stop stop-color="#FFE030"/>
<stop offset="1" stop-color="#FFB92E"/>
</radialGradient>
<radialGradient id="paint1_radial_4164_5927" cx="0" cy="0" r="1" gradientUnits="userSpaceOnUse" gradientTransform="translate(103.473 77.2298) scale(85.3473)">
<stop stop-color="#FFEA5F"/>
<stop offset="1" stop-color="#FFBC47" stop-opacity="0"/>
</radialGradient>
<linearGradient id="paint2_linear_4164_5927" x1="80.1624" y1="97.9434" x2="79.0019" y2="85.7246" gradientUnits="userSpaceOnUse">
<stop offset="0.00132565" stop-color="#3C2200"/>
<stop offset="1" stop-color="#7A4400"/>
</linearGradient>
<radialGradient id="paint3_radial_4164_5927" cx="0" cy="0" r="1" gradientUnits="userSpaceOnUse" gradientTransform="translate(85.4104 116.292) rotate(-176.694) scale(16.1616 7.79747)">
<stop offset="0.00132565" stop-color="#7A4400"/>
<stop offset="1" stop-color="#643800"/>
</radialGradient>
<linearGradient id="paint4_linear_4164_5927" x1="64.7891" y1="112.42" x2="106.424" y2="112.42" gradientUnits="userSpaceOnUse">
<stop offset="0.00132565" stop-color="#3C2200"/>
<stop offset="1" stop-color="#512D00"/>
</linearGradient>
<linearGradient id="paint5_linear_4164_5927" x1="162.164" y1="97.971" x2="163.325" y2="85.7521" gradientUnits="userSpaceOnUse">
<stop offset="0.00132565" stop-color="#3C2200"/>
<stop offset="1" stop-color="#7A4400"/>
</linearGradient>
<radialGradient id="paint6_radial_4164_5927" cx="0" cy="0" r="1" gradientUnits="userSpaceOnUse" gradientTransform="translate(156.926 116.322) rotate(-3.30615) scale(16.1617 7.79747)">
<stop offset="0.00132565" stop-color="#7A4400"/>
<stop offset="1" stop-color="#643800"/>
</radialGradient>
<linearGradient id="paint7_linear_4164_5927" x1="177.545" y1="112.448" x2="135.91" y2="112.448" gradientUnits="userSpaceOnUse">
<stop offset="0.00132565" stop-color="#3C2200"/>
<stop offset="1" stop-color="#512D00"/>
</linearGradient>
<radialGradient id="paint8_radial_4164_5927" cx="0" cy="0" r="1" gradientUnits="userSpaceOnUse" gradientTransform="translate(121.136 168.038) rotate(-3.30619) scale(18.2537 9.72386)">
<stop offset="0.00132565" stop-color="#7A4400"/>
<stop offset="1" stop-color="#643800"/>
</radialGradient>
<linearGradient id="paint9_linear_4164_5927" x1="121.148" y1="162.389" x2="121.148" y2="185.252" gradientUnits="userSpaceOnUse">
<stop offset="0.00132565" stop-color="#3C2200"/>
<stop offset="1" stop-color="#512D00"/>
</linearGradient>
<radialGradient id="paint10_radial_4164_5927" cx="0" cy="0" r="1" gradientUnits="userSpaceOnUse" gradientTransform="translate(238.051 130.645) rotate(45.0009) scale(15.241 15.2414)">
<stop stop-color="#FFBC47"/>
<stop offset="0.2588" stop-color="#FEC14D" stop-opacity="0.7412"/>
<stop offset="0.6207" stop-color="#FDCD60" stop-opacity="0.3793"/>
<stop offset="1" stop-color="#FBE07A" stop-opacity="0"/>
</radialGradient>
<linearGradient id="paint11_linear_4164_5927" x1="240.271" y1="140.072" x2="227.752" y2="87.2143" gradientUnits="userSpaceOnUse">
<stop stop-color="#FCCE38"/>
<stop offset="0.2151" stop-color="#FCD44F"/>
<stop offset="0.5049" stop-color="#FBDB67"/>
<stop offset="0.774" stop-color="#FBDF75"/>
<stop offset="1" stop-color="#FBE07A"/>
</linearGradient>
<linearGradient id="paint12_linear_4164_5927" x1="232.09" y1="148.126" x2="253.477" y2="146.039" gradientUnits="userSpaceOnUse">
<stop stop-color="#FCCE38"/>
<stop offset="0.2151" stop-color="#FCD44F"/>
<stop offset="0.5049" stop-color="#FBDB67"/>
<stop offset="0.774" stop-color="#FBDF75"/>
<stop offset="1" stop-color="#FBE07A"/>
</linearGradient>
<linearGradient id="paint13_linear_4164_5927" x1="255.309" y1="103.951" x2="240.24" y2="160.054" gradientUnits="userSpaceOnUse">
<stop stop-color="#FCCE38"/>
<stop offset="0.3638" stop-color="#FCCE38"/>
<stop offset="1" stop-color="#C86F34"/>
</linearGradient>
<linearGradient id="paint14_linear_4164_5927" x1="222.911" y1="108.641" x2="248.905" y2="125.072" gradientUnits="userSpaceOnUse">
<stop stop-color="#FCCE38"/>
<stop offset="0.2151" stop-color="#FCD44F"/>
<stop offset="0.5049" stop-color="#FBDB67"/>
<stop offset="0.774" stop-color="#FBDF75"/>
<stop offset="1" stop-color="#FBE07A"/>
</linearGradient>
<linearGradient id="paint15_linear_4164_5927" x1="223.239" y1="156.832" x2="231.121" y2="114.523" gradientUnits="userSpaceOnUse">
<stop stop-color="#FCCE38"/>
<stop offset="0.00850916" stop-color="#FCCD38"/>
<stop offset="0.3748" stop-color="#FBB53A"/>
<stop offset="0.7145" stop-color="#FBA73B"/>
<stop offset="1" stop-color="#FBA23B"/>
</linearGradient>
<linearGradient id="paint16_linear_4164_5927" x1="247.703" y1="141.527" x2="235.995" y2="116.374" gradientUnits="userSpaceOnUse">
<stop stop-color="#FCCE38"/>
<stop offset="0.00850916" stop-color="#FCCD38"/>
<stop offset="0.3748" stop-color="#FBB53A"/>
<stop offset="0.7145" stop-color="#FBA73B"/>
<stop offset="1" stop-color="#FBA23B"/>
</linearGradient>
<radialGradient id="paint17_radial_4164_5927" cx="0" cy="0" r="1" gradientUnits="userSpaceOnUse" gradientTransform="translate(189.243 16.8516) rotate(-134.999) scale(6.72565 6.72588)">
<stop stop-color="#FFBC47"/>
<stop offset="0.2588" stop-color="#FEC14D" stop-opacity="0.7412"/>
<stop offset="0.6207" stop-color="#FDCD60" stop-opacity="0.3793"/>
<stop offset="1" stop-color="#FBE07A" stop-opacity="0"/>
</radialGradient>
<linearGradient id="paint18_linear_4164_5927" x1="188.259" y1="12.6941" x2="193.783" y2="36.0194" gradientUnits="userSpaceOnUse">
<stop stop-color="#FCCE38"/>
<stop offset="0.2151" stop-color="#FCD44F"/>
<stop offset="0.5049" stop-color="#FBDB67"/>
<stop offset="0.774" stop-color="#FBDF75"/>
<stop offset="1" stop-color="#FBE07A"/>
</linearGradient>
<linearGradient id="paint19_linear_4164_5927" x1="191.87" y1="9.14094" x2="182.433" y2="10.0617" gradientUnits="userSpaceOnUse">
<stop stop-color="#FCCE38"/>
<stop offset="0.2151" stop-color="#FCD44F"/>
<stop offset="0.5049" stop-color="#FBDB67"/>
<stop offset="0.774" stop-color="#FBDF75"/>
<stop offset="1" stop-color="#FBE07A"/>
</linearGradient>
<linearGradient id="paint20_linear_4164_5927" x1="181.623" y1="28.6344" x2="188.272" y2="3.87681" gradientUnits="userSpaceOnUse">
<stop stop-color="#FCCE38"/>
<stop offset="0.3638" stop-color="#FCCE38"/>
<stop offset="1" stop-color="#C86F34"/>
</linearGradient>
<linearGradient id="paint21_linear_4164_5927" x1="195.92" y1="26.5646" x2="184.449" y2="19.3138" gradientUnits="userSpaceOnUse">
<stop stop-color="#FCCE38"/>
<stop offset="0.2151" stop-color="#FCD44F"/>
<stop offset="0.5049" stop-color="#FBDB67"/>
<stop offset="0.774" stop-color="#FBDF75"/>
<stop offset="1" stop-color="#FBE07A"/>
</linearGradient>
<linearGradient id="paint22_linear_4164_5927" x1="195.777" y1="5.29967" x2="192.299" y2="23.9702" gradientUnits="userSpaceOnUse">
<stop stop-color="#FCCE38"/>
<stop offset="0.00850916" stop-color="#FCCD38"/>
<stop offset="0.3748" stop-color="#FBB53A"/>
<stop offset="0.7145" stop-color="#FBA73B"/>
<stop offset="1" stop-color="#FBA23B"/>
</linearGradient>
<linearGradient id="paint23_linear_4164_5927" x1="184.981" y1="12.0533" x2="190.147" y2="23.1534" gradientUnits="userSpaceOnUse">
<stop stop-color="#FCCE38"/>
<stop offset="0.00850916" stop-color="#FCCD38"/>
<stop offset="0.3748" stop-color="#FBB53A"/>
<stop offset="0.7145" stop-color="#FBA73B"/>
<stop offset="1" stop-color="#FBA23B"/>
</linearGradient>
<radialGradient id="paint24_radial_4164_5927" cx="0" cy="0" r="1" gradientUnits="userSpaceOnUse" gradientTransform="translate(11.8549 49.2981) rotate(-134.998) scale(6.70403 6.70422)">
<stop stop-color="#FFBC47"/>
<stop offset="0.2588" stop-color="#FEC14D" stop-opacity="0.7412"/>
<stop offset="0.6207" stop-color="#FDCD60" stop-opacity="0.3793"/>
<stop offset="1" stop-color="#FBE07A" stop-opacity="0"/>
</radialGradient>
<linearGradient id="paint25_linear_4164_5927" x1="10.8754" y1="45.1578" x2="16.382" y2="68.4078" gradientUnits="userSpaceOnUse">
<stop stop-color="#FCCE38"/>
<stop offset="0.2151" stop-color="#FCD44F"/>
<stop offset="0.5049" stop-color="#FBDB67"/>
<stop offset="0.774" stop-color="#FBDF75"/>
<stop offset="1" stop-color="#FBE07A"/>
</linearGradient>
<linearGradient id="paint26_linear_4164_5927" x1="14.4743" y1="41.6151" x2="5.06723" y2="42.5328" gradientUnits="userSpaceOnUse">
<stop stop-color="#FCCE38"/>
<stop offset="0.2151" stop-color="#FCD44F"/>
<stop offset="0.5049" stop-color="#FBDB67"/>
<stop offset="0.774" stop-color="#FBDF75"/>
<stop offset="1" stop-color="#FBE07A"/>
</linearGradient>
<linearGradient id="paint27_linear_4164_5927" x1="4.25886" y1="61.0461" x2="10.8872" y2="36.3684" gradientUnits="userSpaceOnUse">
<stop stop-color="#FCCE38"/>
<stop offset="0.3638" stop-color="#FCCE38"/>
<stop offset="1" stop-color="#C86F34"/>
</linearGradient>
<linearGradient id="paint28_linear_4164_5927" x1="18.5111" y1="58.9834" x2="7.07739" y2="51.756" gradientUnits="userSpaceOnUse">
<stop stop-color="#FCCE38"/>
<stop offset="0.2151" stop-color="#FCD44F"/>
<stop offset="0.5049" stop-color="#FBDB67"/>
<stop offset="0.774" stop-color="#FBDF75"/>
<stop offset="1" stop-color="#FBE07A"/>
</linearGradient>
<linearGradient id="paint29_linear_4164_5927" x1="18.3646" y1="37.7871" x2="14.8975" y2="56.3973" gradientUnits="userSpaceOnUse">
<stop stop-color="#FCCE38"/>
<stop offset="0.00850916" stop-color="#FCCD38"/>
<stop offset="0.3748" stop-color="#FBB53A"/>
<stop offset="0.7145" stop-color="#FBA73B"/>
<stop offset="1" stop-color="#FBA23B"/>
</linearGradient>
<linearGradient id="paint30_linear_4164_5927" x1="7.60853" y1="44.519" x2="12.7582" y2="55.5831" gradientUnits="userSpaceOnUse">
<stop stop-color="#FCCE38"/>
<stop offset="0.00850916" stop-color="#FCCD38"/>
<stop offset="0.3748" stop-color="#FBB53A"/>
<stop offset="0.7145" stop-color="#FBA73B"/>
<stop offset="1" stop-color="#FBA23B"/>
</linearGradient>
</defs>
</svg>
