<svg width="452" height="388" viewBox="0 0 452 388" fill="none" xmlns="http://www.w3.org/2000/svg">
<path d="M7.48199 82.2981L19.7554 250.189C19.9639 253.07 21.3386 255.767 23.5986 257.727C25.8586 259.688 28.8333 260.765 31.9151 260.739L354.643 258.28C356.232 258.269 357.804 257.964 359.268 257.384C360.733 256.803 362.061 255.958 363.177 254.896C364.294 253.835 365.176 252.577 365.774 251.197C366.372 249.816 366.673 248.339 366.662 246.85L365.724 116.033C365.712 114.537 365.385 113.059 364.761 111.683C364.137 110.307 363.228 109.06 362.088 108.015C360.947 106.97 359.597 106.147 358.115 105.593C356.633 105.039 355.049 104.765 353.452 104.787L154.988 107.494C153.4 107.516 151.823 107.244 150.348 106.695C148.872 106.145 147.528 105.328 146.391 104.29L111.67 72.7216C109.387 70.6489 106.327 69.4984 103.146 69.5171L19.4786 70.1561C17.8259 70.1708 16.1935 70.502 14.6816 71.1293C13.1697 71.7566 11.8102 72.6668 10.6867 73.804C9.56316 74.9411 8.69929 76.2812 8.14818 77.7419C7.59708 79.2026 7.37038 80.7531 7.48199 82.2981Z" fill="#3C63B0"/>
<path opacity="0.3" d="M7.48199 82.2981L19.7554 250.189C19.9639 253.07 21.3386 255.767 23.5986 257.727C25.8586 259.688 28.8333 260.765 31.9151 260.739L354.643 258.28C356.232 258.269 357.804 257.964 359.268 257.384C360.733 256.803 362.061 255.958 363.177 254.896C364.294 253.835 365.176 252.577 365.774 251.197C366.372 249.816 366.673 248.339 366.662 246.85L365.724 116.033C365.712 114.537 365.385 113.059 364.761 111.683C364.137 110.307 363.228 109.06 362.088 108.015C360.947 106.97 359.597 106.147 358.115 105.593C356.633 105.039 355.049 104.765 353.452 104.787L154.988 107.494C153.4 107.516 151.823 107.244 150.348 106.695C148.872 106.145 147.528 105.328 146.391 104.29L111.67 72.7216C109.387 70.6489 106.327 69.4984 103.146 69.5171L19.4786 70.1561C17.8259 70.1708 16.1935 70.502 14.6816 71.1293C13.1697 71.7566 11.8102 72.6668 10.6867 73.804C9.56316 74.9411 8.69929 76.2812 8.14818 77.7419C7.59708 79.2026 7.37038 80.7531 7.48199 82.2981Z" fill="black"/>
<path d="M116.492 5.99097L11.7383 137.635L123.94 215.967L228.693 84.3235L116.492 5.99097Z" fill="white"/>
<path d="M116.477 5.9717L115.993 6.61877L114.523 8.46244C113.229 10.1089 111.333 12.5013 108.878 15.6392L87.5201 42.6311L12.0062 137.808L11.9271 137.363L124.154 215.654L123.604 215.73L228.405 84.1271L228.484 84.545L147.177 27.5895L124.49 11.6517L118.489 7.44397L116.477 5.9717L118.517 7.34596L124.518 11.47L147.203 27.2403L228.881 84.0524L229.136 84.2311L228.945 84.4844L124.249 216.17L124.014 216.465L123.699 216.245L11.5303 137.869L11.2601 137.677L11.4659 137.409L87.397 42.2556L108.861 15.4161L114.537 8.37856L116.007 6.57675L116.477 5.9717Z" fill="#263238"/>
<path d="M119.796 15.6229L22.4004 138.02L120.483 206.495L217.878 84.0983L119.796 15.6229Z" fill="#263238"/>
<path d="M120.501 207.91L93.5427 122.598L152.763 122.746L146.662 90.5427L217.892 85.5122L120.501 207.91Z" fill="#455A64"/>
<path d="M110.279 99.7345C117.286 98.7639 122.135 92.6552 121.108 86.0904C120.082 79.5257 113.57 74.9907 106.563 75.9613C99.5555 76.9319 94.7069 83.0406 95.7332 89.6053C96.7595 96.1701 103.272 100.705 110.279 99.7345Z" fill="#455A64"/>
<path d="M140.049 4.31063L133.936 186.838L377.571 193.692L383.685 11.1652L140.049 4.31063Z" fill="white"/>
<path d="M383.631 11.1284L382.469 11.1406L379.073 11.0645L365.858 10.7284L316.009 9.42214L139.986 4.63627L140.34 4.32552C138.541 58.6483 136.468 120.929 134.284 186.84L133.907 186.467L377.601 193.349L377.276 193.646C379.187 138.638 380.765 93.04 381.847 61.1944C382.425 45.2502 382.874 32.7407 383.172 24.2242C383.336 19.9658 383.451 16.6989 383.532 14.4511C383.612 12.2032 383.675 11.1001 383.675 11.1001C383.675 11.1001 383.687 12.2025 383.606 14.3945C383.524 16.5865 383.439 19.8392 383.32 24.0692C383.051 32.5853 382.66 45.0105 382.217 60.9812C381.196 92.882 379.723 138.548 377.946 193.611L377.949 193.904L377.607 193.907L133.885 187.179L133.498 187.183L133.494 186.82C135.708 120.909 137.811 58.628 139.64 4.30494L139.637 3.98399L139.979 3.9804L316.214 9.11295L365.976 10.6015L379.117 11.0082L382.484 11.1125L383.631 11.1284Z" fill="#263238"/>
<path d="M148.053 16.0332L142.709 175.586L369.226 181.959L374.57 22.4062L148.053 16.0332Z" fill="#455A64"/>
<path d="M142.684 175.555L225.105 78.6029L272.045 142.031L306.395 109.795L369.199 181.92L142.684 175.555Z" fill="#263238"/>
<path d="M294.928 71.3972C296.99 62.3654 290.85 53.4875 281.214 51.5677C271.579 49.648 262.096 55.4135 260.034 64.4453C257.972 73.4771 264.112 82.3551 273.748 84.2748C283.383 86.1945 292.866 80.429 294.928 71.3972Z" fill="#263238"/>
<path d="M396.246 89.4319L66.7953 135.449L104.104 361.485L430.837 314.869L396.246 89.4319Z" fill="#EBEBEB"/>
<path d="M397.215 61.1711L71.794 127.913L125.307 351.058L447.967 283.884L397.215 61.1711Z" fill="#E0E0E0"/>
<path d="M368.152 36.3725L55.112 143.234L139.945 357.65L450.214 250.705L368.152 36.3725Z" fill="white"/>
<path d="M368.151 36.3708C369.039 38.6783 400.626 120.815 450.51 250.603L450.617 250.881L450.32 250.982L140.156 357.981L139.785 358.11L139.662 357.763L139.035 356.206C108.849 279.86 80.2247 207.49 54.8885 143.347L54.766 143.027L55.0927 142.926L368.241 36.3699L55.2331 143.539L55.4372 143.118L139.687 355.948L140.315 357.519L139.806 357.301L450.106 250.426L449.916 250.804C400.388 120.888 369.039 38.6783 368.151 36.3708Z" fill="#263238"/>
<path d="M379.172 242.765C378.564 242.981 363.093 206.424 344.612 161.12C326.131 115.816 311.61 78.9137 312.218 78.698C312.827 78.4822 328.282 115.025 346.778 160.343C365.275 205.661 379.765 242.521 379.172 242.765Z" fill="#263238"/>
<path d="M352.457 254.532C351.863 254.748 336.378 218.191 317.896 172.901C299.415 127.611 284.909 90.6811 285.503 90.4655C286.096 90.25 301.581 126.807 320.078 172.111C338.574 217.414 353.065 254.317 352.457 254.532Z" fill="#263238"/>
<path d="M269.505 288.095C268.912 288.31 253.427 251.754 234.945 206.45C216.464 161.146 201.958 124.244 202.551 124.028C203.145 123.812 218.63 160.355 237.112 205.673C255.593 250.991 270.099 287.879 269.505 288.095Z" fill="#263238"/>
<path d="M295.955 277.804C295.347 278.02 279.877 241.463 261.395 196.159C242.914 150.855 228.393 113.953 229.001 113.737C229.61 113.521 245.065 150.065 263.562 195.382C282.058 240.7 296.564 277.588 295.955 277.804Z" fill="#263238"/>
<path d="M322.386 267.509C321.793 267.725 306.322 231.168 287.826 185.878C269.33 140.588 254.839 103.658 255.432 103.442C256.026 103.227 271.511 139.783 290.007 185.087C308.504 230.391 322.995 267.293 322.386 267.509Z" fill="#263238"/>
<path d="M238.843 296.708C238.25 296.924 222.764 260.367 204.283 215.063C185.802 169.759 171.296 132.857 171.889 132.641C172.483 132.426 187.968 168.969 206.464 214.286C224.961 259.604 239.452 296.492 238.843 296.708Z" fill="#263238"/>
<path d="M209.532 307.106C208.938 307.322 193.468 270.765 174.972 225.475C156.476 180.185 141.985 143.269 142.579 143.123C143.173 142.977 158.658 179.465 177.154 224.768C195.65 270.072 210.14 306.905 209.532 307.106Z" fill="#263238"/>
<path d="M180.241 317.53C179.632 317.746 164.162 281.189 145.666 235.899C127.17 190.609 112.678 153.679 113.287 153.464C113.895 153.248 129.351 189.805 147.847 235.109C166.343 280.413 180.804 317.315 180.241 317.53Z" fill="#263238"/>
<path d="M1.84745 174.323L30.2596 380.007C30.5033 381.772 31.4273 383.392 32.8578 384.562C34.2882 385.732 36.1264 386.371 38.0263 386.359L381.663 383.737C383.624 383.726 385.509 383.022 386.94 381.764C388.371 380.507 389.244 378.79 389.382 376.957L405.202 170.936C405.277 169.932 405.131 168.924 404.771 167.975C404.411 167.027 403.847 166.158 403.112 165.424C402.377 164.691 401.488 164.107 400.501 163.71C399.514 163.314 398.449 163.112 397.375 163.119L9.52088 166.078C8.41797 166.087 7.32918 166.314 6.32656 166.746C5.32393 167.178 4.43034 167.804 3.70492 168.584C2.9795 169.363 2.43879 170.278 2.11858 171.267C1.79836 172.257 1.70596 173.298 1.84745 174.323Z" fill="#3C63B0"/>
<g opacity="0.7">
<path d="M137.271 213.193C144.678 203.412 154.7 196.144 166.07 192.308C177.44 188.472 189.648 188.239 201.151 191.64C212.653 195.041 222.935 201.922 230.695 211.414C238.456 220.906 243.347 232.582 244.751 244.968C245.884 255.037 244.673 265.241 241.219 274.713C237.766 284.186 232.172 292.647 224.912 299.379L278.492 363.603L270.975 370.433L216.969 305.668C209.364 310.68 200.776 313.845 191.838 314.929C189.668 315.195 187.485 315.339 185.3 315.361C173.904 315.441 162.716 312.162 153.023 305.901C143.331 299.64 135.527 290.652 130.512 279.971C125.496 269.291 123.473 257.353 124.674 245.531C125.875 233.709 130.252 222.485 137.301 213.15L137.271 213.193ZM134.606 258.415C135.975 270.51 141.321 281.74 149.733 290.19C158.144 298.641 169.102 303.789 180.738 304.759C192.374 305.729 203.969 302.46 213.547 295.509C223.125 288.558 230.094 278.355 233.266 266.638C236.438 254.922 235.617 242.416 230.943 231.253C226.269 220.09 218.031 210.96 207.633 205.418C197.235 199.876 185.319 198.265 173.917 200.86C162.515 203.454 152.331 210.094 145.102 219.648C140.982 225.063 137.933 231.277 136.131 237.932C134.33 244.586 133.812 251.548 134.606 258.415Z" fill="#F2F2F2"/>
<path d="M136.385 215.164C143.804 205.405 153.845 198.153 165.237 194.324C176.63 190.495 188.863 190.261 200.389 193.652C211.915 197.043 222.217 203.907 229.991 213.375C237.765 222.843 242.662 234.49 244.063 246.843C245.2 256.884 243.987 267.059 240.526 276.505C237.065 285.951 231.46 294.388 224.185 301.1L278.513 365.612L270.458 372.45L216.196 307.329C208.575 312.324 199.971 315.48 191.017 316.566C188.843 316.826 186.656 316.97 184.467 316.997C173.05 317.077 161.842 313.807 152.131 307.565C142.421 301.322 134.603 292.36 129.579 281.71C124.555 271.06 122.528 259.156 123.732 247.368C124.936 235.58 129.322 224.387 136.384 215.078L136.385 215.164ZM133.714 260.257C135.083 272.324 140.439 283.527 148.869 291.958C157.299 300.39 168.281 305.527 179.944 306.495C191.607 307.463 203.23 304.202 212.831 297.267C222.432 290.332 229.417 280.153 232.597 268.464C235.777 256.775 234.955 244.3 230.27 233.164C225.585 222.028 217.328 212.92 206.905 207.392C196.483 201.865 184.539 200.26 173.111 202.85C161.683 205.441 151.476 212.067 144.23 221.6C140.104 227.001 137.05 233.197 135.245 239.833C133.44 246.468 132.919 253.41 133.714 260.257Z" fill="#F2F2F2"/>
</g>
</svg>
