<svg width="71" height="71" viewBox="0 0 71 71" fill="none" xmlns="http://www.w3.org/2000/svg">
<rect x="70" width="70" height="70" rx="35" transform="rotate(89.8234 70 0)" fill="#3C63B0"/>
<path d="M34.64 50.48C32.5867 50.48 30.8533 50.1333 29.44 49.44C28.0533 48.72 26.8933 47.8933 25.96 46.96L28.08 44C28.8533 44.72 29.72 45.36 30.68 45.92C31.64 46.4533 32.76 46.72 34.04 46.72C35.4533 46.72 36.6267 46.2933 37.56 45.44C38.4933 44.5867 38.96 43.3867 38.96 41.84C38.96 40.32 38.5333 39.1467 37.68 38.32C36.8267 37.4933 35.6933 37.08 34.28 37.08C33.4533 37.08 32.76 37.2 32.2 37.44C31.64 37.6533 30.9733 38.0133 30.2 38.52L28 37.12L28.76 24.56H42.36V28.44H32.76L32.24 34.6C32.7733 34.3333 33.2933 34.1333 33.8 34C34.3333 33.84 34.9333 33.76 35.6 33.76C37.0667 33.76 38.4 34.04 39.6 34.6C40.8 35.16 41.76 36.0267 42.48 37.2C43.2267 38.3733 43.6 39.88 43.6 41.72C43.6 43.56 43.1733 45.1333 42.32 46.44C41.4933 47.7467 40.4 48.7467 39.04 49.44C37.68 50.1333 36.2133 50.48 34.64 50.48Z" fill="white"/>
</svg>
