<svg width="61" height="61" viewBox="0 0 61 61" fill="none" xmlns="http://www.w3.org/2000/svg">
<path d="M30 24.3333C27.6526 24.3333 25.75 25.6012 25.75 27.1667C25.75 28.7321 27.6526 30 30 30C32.3474 30 34.25 31.2679 34.25 32.8333C34.25 34.3987 32.3474 35.6667 30 35.6667V24.3333ZM30 24.3333C31.5725 24.3333 32.9467 24.9028 33.6819 25.75L30 24.3333ZM30 24.3333V22.9167V24.3333ZM30 24.3333V35.6667V24.3333ZM30 35.6667V37.0833V35.6667ZM30 35.6667C28.4275 35.6667 27.0533 35.0972 26.3181 34.25L30 35.6667ZM42.75 30C42.75 31.6744 42.4202 33.3323 41.7795 34.8792C41.1387 36.4261 40.1996 37.8317 39.0156 39.0156C37.8317 40.1996 36.4261 41.1387 34.8792 41.7795C33.3323 42.4202 31.6744 42.75 30 42.75C28.3256 42.75 26.6677 42.4202 25.1208 41.7795C23.5739 41.1387 22.1683 40.1996 20.9844 39.0156C19.8004 37.8317 18.8613 36.4261 18.2205 34.8792C17.5798 33.3323 17.25 31.6744 17.25 30C17.25 26.6185 18.5933 23.3755 20.9844 20.9844C23.3755 18.5933 26.6185 17.25 30 17.25C33.3815 17.25 36.6245 18.5933 39.0156 20.9844C41.4067 23.3755 42.75 26.6185 42.75 30Z" stroke="#19BF6F" stroke-width="2" stroke-linecap="round" stroke-linejoin="round"/>
<rect opacity="0.3" width="61" height="61" rx="10" fill="#19BF6F"/>
</svg>
