<svg width="24" height="24" viewBox="0 0 24 24" fill="none" xmlns="http://www.w3.org/2000/svg">
<path d="M10.5239 23.9428C8.38354 23.665 6.18022 22.7459 4.57535 21.4596C0.962147 18.5731 -0.677969 14.0128 0.259454 9.48402C0.661421 7.52864 1.70834 5.47115 3.04848 3.98884C4.03569 2.87637 5.22622 1.96314 6.55594 1.29833C8.32129 0.402489 10.0087 0 12.0005 0C13.4299 0 14.5788 0.187728 15.8949 0.637524C17.624 1.23138 19.1948 2.21265 20.4877 3.50656C21.7806 4.80046 22.7614 6.37284 23.3553 8.10384C24.0588 10.1689 24.187 12.3668 23.7378 14.5452C23.3786 16.2663 22.4524 18.2021 21.3125 19.6018C20.8438 20.1808 19.7654 21.2133 19.1992 21.6315C17.5053 22.8912 15.5131 23.6877 13.4186 23.9428C12.8014 24.0209 11.1208 24.0172 10.5239 23.9428ZM13.7936 22.9381C16.7171 22.4475 19.3262 20.8141 21.047 18.3973C23.0741 15.5461 23.617 11.721 22.4726 8.38543C22.2034 7.60298 21.5352 6.29715 21.047 5.60856C20.504 4.83813 19.1602 3.48874 18.387 2.94508C17.637 2.41343 16.3599 1.76765 15.4885 1.4823C13.9155 0.959019 12.2451 0.796322 10.6009 1.00623C8.95666 1.21613 7.38054 1.79328 5.98898 2.69502C4.67972 3.55618 3.56055 4.67681 2.7005 5.98777C1.80016 7.38038 1.22387 8.95778 1.01424 10.6034C0.804601 12.249 0.966973 13.9207 1.48935 15.4951C1.77808 16.3669 2.42303 17.6502 2.95023 18.4011C3.49694 19.1715 4.84083 20.5209 5.61027 21.0646C6.30171 21.5497 7.6021 22.218 8.38354 22.4921C10.1229 23.0838 11.981 23.237 13.7936 22.9381ZM9.63743 18.9095C9.07674 18.8248 8.53883 18.6279 8.05581 18.3305C7.62235 18.0527 4.34887 14.8418 4.18913 14.5407C4.0054 14.1967 4.32562 13.5705 4.78308 13.379L4.99757 13.2889L4.33762 12.6161C3.97465 12.2444 3.63043 11.8494 3.57568 11.7398C3.44669 11.4897 3.44294 10.9536 3.56368 10.7148C3.61468 10.6171 3.73542 10.4685 3.82916 10.3859C3.98965 10.253 4.00465 10.2056 3.98965 9.86924C3.97015 9.57187 3.99715 9.45473 4.12614 9.23171C4.31362 8.91107 4.70059 8.69556 5.07931 8.69181C5.29004 8.69181 5.34479 8.66477 5.43478 8.50783C5.66951 8.09708 6.34071 7.9484 6.85291 8.19921L7.13039 8.33212L7.26688 8.19921C7.45436 8.02725 7.82933 7.87481 8.07531 7.87481C8.56727 7.87481 9.26247 8.44175 9.26247 8.84049C9.26247 9.31732 8.829 9.39992 8.39929 9.00494C8.11431 8.73911 7.96957 8.71133 7.85258 8.89906C7.79409 8.98917 7.93432 9.15737 8.77426 10.0059C9.61419 10.8507 9.76642 11.0309 9.76642 11.1908C9.75978 11.3134 9.70766 11.4291 9.62026 11.5153C9.53286 11.6014 9.4165 11.6517 9.29396 11.6564C9.14173 11.6564 8.892 11.4371 7.73934 10.2875C6.56344 9.11382 6.34895 8.92609 6.25521 8.98541C6.00098 9.14611 6.08723 9.26325 7.46186 10.6434C8.20805 11.3943 8.8215 12.0589 8.8215 12.122C8.8215 12.2511 8.70451 12.4899 8.60702 12.5522C8.52705 12.5874 8.44004 12.6036 8.35279 12.5996C8.1923 12.6033 7.94632 12.3803 6.63843 11.0745C5.32604 9.76786 5.09131 9.55686 4.99757 9.61543C4.73959 9.77988 4.82583 9.89327 6.32196 11.3988C7.13864 12.2166 7.82183 12.948 7.84133 13.0261C7.88408 13.1672 7.79034 13.4135 7.66585 13.4991C7.58324 13.5343 7.4938 13.5505 7.40412 13.5465C7.24363 13.5465 7.04115 13.3707 5.95899 12.2872C4.91582 11.2427 4.67359 11.0279 4.54085 11.0399C4.16588 11.0827 4.29862 11.2509 6.23571 13.195C7.91558 14.8808 8.13006 15.1196 8.13006 15.2953C8.13175 15.3598 8.11726 15.4237 8.08792 15.4812C8.05857 15.5387 8.0153 15.5878 7.96207 15.6242C7.66135 15.863 7.54436 15.8082 6.78617 15.0731C6.3992 14.7014 6.00098 14.3417 5.89524 14.2748C5.70401 14.1577 5.21955 14.1066 5.12955 14.2005C5.09806 14.2275 5.81275 14.9829 6.71567 15.878C8.2193 17.3678 8.39104 17.521 8.83275 17.732C9.23967 17.9349 9.68782 18.0412 10.1424 18.0425C10.597 18.0438 11.0457 17.9401 11.4538 17.7395C12.7152 17.1373 13.4149 15.6745 13.0707 14.3484C12.8989 13.6876 12.6837 13.3707 11.8168 12.4749C10.8171 11.4499 10.5861 11.1683 10.3401 10.6757C10.0664 10.1245 9.94941 9.5884 9.94941 8.91933C9.94941 8.19545 10.0237 7.86731 10.3439 7.19073C10.6484 6.5457 11.2851 5.86913 11.9142 5.52071C13.1486 4.83212 14.7738 4.89069 15.9527 5.66188C16.1874 5.81431 17.0348 6.61253 18.0892 7.67207C19.6559 9.24448 19.8351 9.44798 19.8351 9.62744C19.8351 10.054 19.4871 10.527 19.1009 10.6247C18.9562 10.6637 18.9839 10.7027 19.6401 11.3718C20.0226 11.7593 20.3781 12.1775 20.4328 12.3067C20.6165 12.749 20.534 13.1785 20.1981 13.5307C20.0263 13.7109 20.0031 13.7732 19.9986 14.1329C19.9948 14.4498 19.9596 14.5827 19.8343 14.7629C19.7354 14.9095 19.603 15.0304 19.448 15.1154C19.2931 15.2004 19.1201 15.2472 18.9434 15.2518C18.7012 15.2518 18.6547 15.2751 18.5332 15.459C18.2595 15.8818 17.5485 16.0297 17.0881 15.7564L16.8578 15.6197L16.6936 15.7804C16.3306 16.1288 15.7442 16.1754 15.2995 15.89C14.9402 15.6633 14.6748 15.3464 14.6748 15.1466C14.6748 14.9709 14.929 14.6811 15.085 14.6811C15.2335 14.6811 15.433 14.7982 15.6594 15.01C15.8859 15.2247 16.0817 15.2247 16.1124 15.0062C16.1282 14.8891 15.9407 14.6661 15.1825 13.9031C14.3853 13.0974 14.2331 12.9134 14.2331 12.7572C14.2313 12.67 14.2474 12.5834 14.2803 12.5027C14.3665 12.3735 14.6088 12.2834 14.7565 12.3225C14.8345 12.342 15.4945 12.9525 16.2174 13.6756C16.9441 14.4032 17.5808 14.9972 17.6393 14.9972C17.7998 14.9972 17.9048 14.8365 17.8305 14.6999C17.7953 14.6375 17.1818 14.0075 16.4709 13.2956C15.358 12.185 15.178 11.9778 15.178 11.8133C15.1743 11.7248 15.1905 11.6365 15.2252 11.555C15.292 11.4574 15.526 11.3403 15.6587 11.3403C15.7172 11.3403 16.4514 12.0244 17.2913 12.8616C18.8302 14.395 18.9434 14.4806 19.1039 14.2268C19.1624 14.1329 18.9517 13.8941 17.6468 12.5838C16.2991 11.2306 16.1199 11.0271 16.1199 10.8514C16.1199 10.7305 16.1746 10.6051 16.2609 10.527C16.5459 10.2575 16.6321 10.3123 18.0187 11.6925C19.3311 13.0028 19.4481 13.0884 19.6086 12.8383C19.6671 12.7445 19.4016 12.4554 17.7728 10.8199C15.9992 9.03648 15.8709 8.89155 15.8709 8.6843C15.8709 8.37117 16.0509 8.22249 16.3981 8.24652C16.4604 8.25027 16.8353 8.56716 17.2223 8.94637C17.613 9.32558 18.0345 9.68151 18.1597 9.73633C18.4057 9.8377 18.6907 9.85347 18.8122 9.77537C18.9292 9.70103 15.6872 6.5059 15.2657 6.28288C14.9044 6.08758 14.5069 5.96841 14.0978 5.93268C13.6887 5.89696 13.2766 5.94544 12.8869 6.07515C12.4973 6.20486 12.1382 6.41305 11.8319 6.68691C11.5256 6.96077 11.2785 7.2945 11.1058 7.66756C10.9026 8.10159 10.8756 8.23075 10.8478 8.79018C10.8246 9.31807 10.8441 9.48252 10.9573 9.81893C11.1606 10.4174 11.336 10.6637 12.2465 11.5948C13.2311 12.6041 13.4186 12.8346 13.6684 13.3745C14.3718 14.8763 14.0748 16.6132 12.9147 17.7703C12.032 18.6579 10.8291 19.0732 9.63743 18.9095Z" fill="black"/>
</svg>
