<svg width="627" height="352" viewBox="0 0 627 352" fill="none" xmlns="http://www.w3.org/2000/svg">
<g filter="url(#filter0_d_64_4479)">
<rect x="4" width="461" height="254" rx="10" fill="#F6FAFD"/>
</g>
<path d="M33.78 187.216C33.168 187.216 32.562 187.102 31.962 186.874C31.374 186.634 30.864 186.34 30.432 185.992L31.404 184.66C31.8 184.972 32.19 185.218 32.574 185.398C32.97 185.566 33.396 185.65 33.852 185.65C34.332 185.65 34.686 185.554 34.914 185.362C35.142 185.158 35.256 184.9 35.256 184.588C35.256 184.408 35.202 184.252 35.094 184.12C34.986 183.976 34.842 183.85 34.662 183.742C34.482 183.634 34.278 183.538 34.05 183.454C33.822 183.358 33.594 183.262 33.366 183.166C33.078 183.058 32.784 182.932 32.484 182.788C32.184 182.644 31.914 182.47 31.674 182.266C31.446 182.062 31.254 181.828 31.098 181.564C30.954 181.288 30.882 180.964 30.882 180.592C30.882 179.812 31.17 179.176 31.746 178.684C32.322 178.192 33.108 177.946 34.104 177.946C34.716 177.946 35.268 178.054 35.76 178.27C36.252 178.486 36.678 178.732 37.038 179.008L36.084 180.268C35.772 180.04 35.454 179.86 35.13 179.728C34.818 179.584 34.488 179.512 34.14 179.512C33.696 179.512 33.366 179.608 33.15 179.8C32.946 179.98 32.844 180.208 32.844 180.484C32.844 180.664 32.892 180.82 32.988 180.952C33.096 181.072 33.234 181.18 33.402 181.276C33.57 181.372 33.762 181.462 33.978 181.546C34.206 181.63 34.44 181.714 34.68 181.798C34.98 181.906 35.28 182.032 35.58 182.176C35.88 182.308 36.15 182.476 36.39 182.68C36.642 182.884 36.84 183.136 36.984 183.436C37.14 183.724 37.218 184.072 37.218 184.48C37.218 184.864 37.14 185.224 36.984 185.56C36.84 185.884 36.624 186.172 36.336 186.424C36.048 186.664 35.688 186.856 35.256 187C34.824 187.144 34.332 187.216 33.78 187.216ZM39.066 187V174.292H41.1V182.23H41.154L44.43 178.162H46.698L43.674 181.762L47.004 187H44.754L42.486 183.166L41.1 184.75V187H39.066ZM48.4703 187V178.162H50.5403V187H48.4703ZM49.5143 176.614C49.1423 176.614 48.8363 176.506 48.5963 176.29C48.3563 176.074 48.2363 175.792 48.2363 175.444C48.2363 175.096 48.3563 174.814 48.5963 174.598C48.8363 174.37 49.1423 174.256 49.5143 174.256C49.8863 174.256 50.1923 174.37 50.4323 174.598C50.6723 174.814 50.7923 175.096 50.7923 175.444C50.7923 175.792 50.6723 176.074 50.4323 176.29C50.1923 176.506 49.8863 176.614 49.5143 176.614ZM55.1972 187.216C54.4532 187.216 53.9312 186.994 53.6312 186.55C53.3312 186.106 53.1812 185.5 53.1812 184.732V174.292H55.2512V184.84C55.2512 185.092 55.2992 185.272 55.3952 185.38C55.4912 185.476 55.5932 185.524 55.7012 185.524C55.7492 185.524 55.7912 185.524 55.8272 185.524C55.8752 185.524 55.9412 185.512 56.0252 185.488L56.2952 187.036C56.0192 187.156 55.6532 187.216 55.1972 187.216ZM60.0839 187.216C59.3399 187.216 58.8179 186.994 58.5179 186.55C58.2179 186.106 58.0679 185.5 58.0679 184.732V174.292H60.1379V184.84C60.1379 185.092 60.1859 185.272 60.2819 185.38C60.3779 185.476 60.4799 185.524 60.5879 185.524C60.6359 185.524 60.6779 185.524 60.7139 185.524C60.7619 185.524 60.8279 185.512 60.9119 185.488L61.1819 187.036C60.9059 187.156 60.5399 187.216 60.0839 187.216ZM65.4206 187.216C64.8086 187.216 64.2026 187.102 63.6026 186.874C63.0146 186.634 62.5046 186.34 62.0726 185.992L63.0446 184.66C63.4406 184.972 63.8306 185.218 64.2146 185.398C64.6106 185.566 65.0366 185.65 65.4926 185.65C65.9726 185.65 66.3266 185.554 66.5546 185.362C66.7826 185.158 66.8966 184.9 66.8966 184.588C66.8966 184.408 66.8426 184.252 66.7346 184.12C66.6266 183.976 66.4826 183.85 66.3026 183.742C66.1226 183.634 65.9186 183.538 65.6906 183.454C65.4626 183.358 65.2346 183.262 65.0066 183.166C64.7186 183.058 64.4246 182.932 64.1246 182.788C63.8246 182.644 63.5546 182.47 63.3146 182.266C63.0866 182.062 62.8946 181.828 62.7386 181.564C62.5946 181.288 62.5226 180.964 62.5226 180.592C62.5226 179.812 62.8106 179.176 63.3866 178.684C63.9626 178.192 64.7486 177.946 65.7446 177.946C66.3566 177.946 66.9086 178.054 67.4006 178.27C67.8926 178.486 68.3186 178.732 68.6786 179.008L67.7246 180.268C67.4126 180.04 67.0946 179.86 66.7706 179.728C66.4586 179.584 66.1286 179.512 65.7806 179.512C65.3366 179.512 65.0066 179.608 64.7906 179.8C64.5866 179.98 64.4846 180.208 64.4846 180.484C64.4846 180.664 64.5326 180.82 64.6286 180.952C64.7366 181.072 64.8746 181.18 65.0426 181.276C65.2106 181.372 65.4026 181.462 65.6186 181.546C65.8466 181.63 66.0806 181.714 66.3206 181.798C66.6206 181.906 66.9206 182.032 67.2206 182.176C67.5206 182.308 67.7906 182.476 68.0306 182.68C68.2826 182.884 68.4806 183.136 68.6246 183.436C68.7806 183.724 68.8586 184.072 68.8586 184.48C68.8586 184.864 68.7806 185.224 68.6246 185.56C68.4806 185.884 68.2646 186.172 67.9766 186.424C67.6886 186.664 67.3286 186.856 66.8966 187C66.4646 187.144 65.9726 187.216 65.4206 187.216Z" fill="black"/>
<path d="M114 46.5596C111.879 46.5623 109.846 47.4874 108.346 49.132C106.846 50.7765 106.003 53.0062 106 55.3319C105.997 57.2325 106.564 59.0815 107.612 60.5953C107.612 60.5953 107.83 60.9103 107.865 60.9558L114 68.8892L120.137 60.9518C120.169 60.9095 120.388 60.5953 120.388 60.5953L120.389 60.5929C121.437 59.0798 122.002 57.2316 122 55.3319C121.997 53.0062 121.154 50.7765 119.654 49.132C118.154 47.4874 116.121 46.5623 114 46.5596ZM114 58.5219C113.425 58.5219 112.862 58.3348 112.384 57.9842C111.905 57.6337 111.533 57.1355 111.312 56.5526C111.092 55.9698 111.035 55.3284 111.147 54.7096C111.259 54.0908 111.536 53.5224 111.943 53.0763C112.35 52.6302 112.868 52.3263 113.432 52.2033C113.997 52.0802 114.582 52.1433 115.113 52.3848C115.645 52.6262 116.099 53.0351 116.419 53.5597C116.738 54.0843 116.909 54.701 116.909 55.3319C116.908 56.1776 116.601 56.9884 116.056 57.5864C115.511 58.1844 114.771 58.5208 114 58.5219Z" fill="#3C63B0"/>
<path d="M114 46.5596C111.879 46.5623 109.846 47.4874 108.346 49.132C106.846 50.7765 106.003 53.0062 106 55.3319C105.997 57.2325 106.564 59.0815 107.612 60.5953C107.612 60.5953 107.83 60.9103 107.865 60.9558L114 68.8892L120.137 60.9518C120.169 60.9095 120.388 60.5953 120.388 60.5953L120.389 60.5929C121.437 59.0798 122.002 57.2316 122 55.3319C121.997 53.0062 121.154 50.7765 119.654 49.132C118.154 47.4874 116.121 46.5623 114 46.5596ZM114 58.5219C113.425 58.5219 112.862 58.3348 112.384 57.9842C111.905 57.6337 111.533 57.1355 111.312 56.5526C111.092 55.9698 111.035 55.3284 111.147 54.7096C111.259 54.0908 111.536 53.5224 111.943 53.0763C112.35 52.6302 112.868 52.3263 113.432 52.2033C113.997 52.0802 114.582 52.1433 115.113 52.3848C115.645 52.6262 116.099 53.0351 116.419 53.5597C116.738 54.0843 116.909 54.701 116.909 55.3319C116.908 56.1776 116.601 56.9884 116.056 57.5864C115.511 58.1844 114.771 58.5208 114 58.5219Z" fill="#5C7EC1"/>
<path d="M137.494 61V49.228H139.582V59.236H144.478V61H137.494ZM148.491 61.216C147.711 61.216 147.081 60.982 146.601 60.514C146.121 60.034 145.881 59.404 145.881 58.624C145.881 58.156 145.977 57.742 146.169 57.382C146.373 57.01 146.685 56.692 147.105 56.428C147.537 56.164 148.077 55.942 148.725 55.762C149.385 55.582 150.171 55.444 151.083 55.348C151.071 55.12 151.035 54.904 150.975 54.7C150.927 54.484 150.837 54.298 150.705 54.142C150.585 53.974 150.423 53.848 150.219 53.764C150.015 53.668 149.763 53.62 149.463 53.62C149.031 53.62 148.605 53.704 148.185 53.872C147.777 54.04 147.375 54.244 146.979 54.484L146.223 53.098C146.715 52.786 147.267 52.516 147.879 52.288C148.491 52.06 149.151 51.946 149.859 51.946C150.963 51.946 151.785 52.276 152.325 52.936C152.877 53.584 153.153 54.526 153.153 55.762V61H151.443L151.299 60.028H151.227C150.831 60.364 150.405 60.646 149.949 60.874C149.505 61.102 149.019 61.216 148.491 61.216ZM149.157 59.596C149.517 59.596 149.841 59.512 150.129 59.344C150.429 59.176 150.747 58.936 151.083 58.624V56.644C150.483 56.716 149.979 56.812 149.571 56.932C149.163 57.052 148.833 57.19 148.581 57.346C148.329 57.49 148.149 57.658 148.041 57.85C147.933 58.042 147.879 58.246 147.879 58.462C147.879 58.858 147.999 59.146 148.239 59.326C148.479 59.506 148.785 59.596 149.157 59.596ZM158.708 64.906C158.18 64.906 157.688 64.858 157.232 64.762C156.788 64.666 156.404 64.522 156.08 64.33C155.756 64.138 155.498 63.898 155.306 63.61C155.126 63.322 155.036 62.986 155.036 62.602C155.036 62.23 155.144 61.882 155.36 61.558C155.576 61.246 155.888 60.964 156.296 60.712V60.64C156.068 60.496 155.876 60.304 155.72 60.064C155.576 59.824 155.504 59.524 155.504 59.164C155.504 58.816 155.6 58.504 155.792 58.228C155.996 57.94 156.224 57.706 156.476 57.526V57.454C156.176 57.226 155.906 56.914 155.666 56.518C155.438 56.11 155.324 55.642 155.324 55.114C155.324 54.61 155.42 54.16 155.612 53.764C155.804 53.368 156.056 53.038 156.368 52.774C156.692 52.498 157.064 52.294 157.484 52.162C157.904 52.018 158.348 51.946 158.816 51.946C159.056 51.946 159.284 51.97 159.5 52.018C159.728 52.054 159.932 52.102 160.112 52.162H163.28V53.692H161.66C161.804 53.86 161.924 54.076 162.02 54.34C162.116 54.592 162.164 54.874 162.164 55.186C162.164 55.678 162.074 56.11 161.894 56.482C161.726 56.854 161.492 57.166 161.192 57.418C160.892 57.67 160.538 57.862 160.13 57.994C159.722 58.126 159.284 58.192 158.816 58.192C158.624 58.192 158.426 58.174 158.222 58.138C158.018 58.102 157.814 58.042 157.61 57.958C157.478 58.078 157.37 58.198 157.286 58.318C157.214 58.438 157.178 58.6 157.178 58.804C157.178 59.056 157.28 59.254 157.484 59.398C157.7 59.542 158.078 59.614 158.618 59.614H160.184C161.252 59.614 162.056 59.788 162.596 60.136C163.148 60.472 163.424 61.024 163.424 61.792C163.424 62.224 163.31 62.632 163.082 63.016C162.866 63.4 162.554 63.73 162.146 64.006C161.738 64.282 161.24 64.498 160.652 64.654C160.076 64.822 159.428 64.906 158.708 64.906ZM158.816 56.896C159.236 56.896 159.596 56.746 159.896 56.446C160.196 56.134 160.346 55.69 160.346 55.114C160.346 54.562 160.196 54.136 159.896 53.836C159.608 53.524 159.248 53.368 158.816 53.368C158.384 53.368 158.018 53.518 157.718 53.818C157.418 54.118 157.268 54.55 157.268 55.114C157.268 55.69 157.418 56.134 157.718 56.446C158.018 56.746 158.384 56.896 158.816 56.896ZM159.032 63.556C159.752 63.556 160.328 63.412 160.76 63.124C161.204 62.848 161.426 62.518 161.426 62.134C161.426 61.786 161.288 61.552 161.012 61.432C160.748 61.312 160.364 61.252 159.86 61.252H158.654C158.174 61.252 157.772 61.21 157.448 61.126C156.992 61.474 156.764 61.864 156.764 62.296C156.764 62.692 156.962 62.998 157.358 63.214C157.766 63.442 158.324 63.556 159.032 63.556ZM168.319 61.216C167.767 61.216 167.239 61.114 166.735 60.91C166.231 60.706 165.781 60.406 165.385 60.01C165.001 59.614 164.695 59.128 164.467 58.552C164.239 57.976 164.125 57.322 164.125 56.59C164.125 55.858 164.239 55.204 164.467 54.628C164.695 54.052 165.001 53.566 165.385 53.17C165.781 52.774 166.231 52.474 166.735 52.27C167.239 52.054 167.767 51.946 168.319 51.946C168.871 51.946 169.399 52.054 169.903 52.27C170.419 52.474 170.869 52.774 171.253 53.17C171.637 53.566 171.943 54.052 172.171 54.628C172.411 55.204 172.531 55.858 172.531 56.59C172.531 57.322 172.411 57.976 172.171 58.552C171.943 59.128 171.637 59.614 171.253 60.01C170.869 60.406 170.419 60.706 169.903 60.91C169.399 61.114 168.871 61.216 168.319 61.216ZM168.319 59.524C168.967 59.524 169.477 59.26 169.849 58.732C170.221 58.192 170.407 57.478 170.407 56.59C170.407 55.69 170.221 54.976 169.849 54.448C169.477 53.908 168.967 53.638 168.319 53.638C167.671 53.638 167.161 53.908 166.789 54.448C166.429 54.976 166.249 55.69 166.249 56.59C166.249 57.478 166.429 58.192 166.789 58.732C167.161 59.26 167.671 59.524 168.319 59.524ZM176.975 61.216C176.363 61.216 175.757 61.102 175.157 60.874C174.569 60.634 174.059 60.34 173.627 59.992L174.599 58.66C174.995 58.972 175.385 59.218 175.769 59.398C176.165 59.566 176.591 59.65 177.047 59.65C177.527 59.65 177.881 59.554 178.109 59.362C178.337 59.158 178.451 58.9 178.451 58.588C178.451 58.408 178.397 58.252 178.289 58.12C178.181 57.976 178.037 57.85 177.857 57.742C177.677 57.634 177.473 57.538 177.245 57.454C177.017 57.358 176.789 57.262 176.561 57.166C176.273 57.058 175.979 56.932 175.679 56.788C175.379 56.644 175.109 56.47 174.869 56.266C174.641 56.062 174.449 55.828 174.293 55.564C174.149 55.288 174.077 54.964 174.077 54.592C174.077 53.812 174.365 53.176 174.941 52.684C175.517 52.192 176.303 51.946 177.299 51.946C177.911 51.946 178.463 52.054 178.955 52.27C179.447 52.486 179.873 52.732 180.233 53.008L179.279 54.268C178.967 54.04 178.649 53.86 178.325 53.728C178.013 53.584 177.683 53.512 177.335 53.512C176.891 53.512 176.561 53.608 176.345 53.8C176.141 53.98 176.039 54.208 176.039 54.484C176.039 54.664 176.087 54.82 176.183 54.952C176.291 55.072 176.429 55.18 176.597 55.276C176.765 55.372 176.957 55.462 177.173 55.546C177.401 55.63 177.635 55.714 177.875 55.798C178.175 55.906 178.475 56.032 178.775 56.176C179.075 56.308 179.345 56.476 179.585 56.68C179.837 56.884 180.035 57.136 180.179 57.436C180.335 57.724 180.413 58.072 180.413 58.48C180.413 58.864 180.335 59.224 180.179 59.56C180.035 59.884 179.819 60.172 179.531 60.424C179.243 60.664 178.883 60.856 178.451 61C178.019 61.144 177.527 61.216 176.975 61.216ZM182.243 64.276L181.793 63.142C182.381 62.914 182.831 62.608 183.143 62.224C183.467 61.84 183.623 61.42 183.611 60.964H183.449C183.101 60.964 182.789 60.856 182.513 60.64C182.249 60.412 182.117 60.094 182.117 59.686C182.117 59.302 182.249 58.996 182.513 58.768C182.789 58.528 183.119 58.408 183.503 58.408C183.995 58.408 184.373 58.594 184.637 58.966C184.913 59.338 185.051 59.86 185.051 60.532C185.051 61.42 184.805 62.188 184.313 62.836C183.833 63.484 183.143 63.964 182.243 64.276ZM191.002 61V49.228H193.144L196.816 55.852L198.022 58.354H198.094C198.046 57.742 197.986 57.088 197.914 56.392C197.854 55.684 197.824 55 197.824 54.34V49.228H199.822V61H197.68L194.008 54.376L192.802 51.874H192.73C192.778 52.498 192.832 53.152 192.892 53.836C192.964 54.52 193 55.192 193 55.852V61H191.002ZM202.634 61V52.162H204.704V61H202.634ZM203.678 50.614C203.306 50.614 203 50.506 202.76 50.29C202.52 50.074 202.4 49.792 202.4 49.444C202.4 49.096 202.52 48.814 202.76 48.598C203 48.37 203.306 48.256 203.678 48.256C204.05 48.256 204.356 48.37 204.596 48.598C204.836 48.814 204.956 49.096 204.956 49.444C204.956 49.792 204.836 50.074 204.596 50.29C204.356 50.506 204.05 50.614 203.678 50.614ZM210.423 64.906C209.895 64.906 209.403 64.858 208.947 64.762C208.503 64.666 208.119 64.522 207.795 64.33C207.471 64.138 207.213 63.898 207.021 63.61C206.841 63.322 206.751 62.986 206.751 62.602C206.751 62.23 206.859 61.882 207.075 61.558C207.291 61.246 207.603 60.964 208.011 60.712V60.64C207.783 60.496 207.591 60.304 207.435 60.064C207.291 59.824 207.219 59.524 207.219 59.164C207.219 58.816 207.315 58.504 207.507 58.228C207.711 57.94 207.939 57.706 208.191 57.526V57.454C207.891 57.226 207.621 56.914 207.381 56.518C207.153 56.11 207.039 55.642 207.039 55.114C207.039 54.61 207.135 54.16 207.327 53.764C207.519 53.368 207.771 53.038 208.083 52.774C208.407 52.498 208.779 52.294 209.199 52.162C209.619 52.018 210.063 51.946 210.531 51.946C210.771 51.946 210.999 51.97 211.215 52.018C211.443 52.054 211.647 52.102 211.827 52.162H214.995V53.692H213.375C213.519 53.86 213.639 54.076 213.735 54.34C213.831 54.592 213.879 54.874 213.879 55.186C213.879 55.678 213.789 56.11 213.609 56.482C213.441 56.854 213.207 57.166 212.907 57.418C212.607 57.67 212.253 57.862 211.845 57.994C211.437 58.126 210.999 58.192 210.531 58.192C210.339 58.192 210.141 58.174 209.937 58.138C209.733 58.102 209.529 58.042 209.325 57.958C209.193 58.078 209.085 58.198 209.001 58.318C208.929 58.438 208.893 58.6 208.893 58.804C208.893 59.056 208.995 59.254 209.199 59.398C209.415 59.542 209.793 59.614 210.333 59.614H211.899C212.967 59.614 213.771 59.788 214.311 60.136C214.863 60.472 215.139 61.024 215.139 61.792C215.139 62.224 215.025 62.632 214.797 63.016C214.581 63.4 214.269 63.73 213.861 64.006C213.453 64.282 212.955 64.498 212.367 64.654C211.791 64.822 211.143 64.906 210.423 64.906ZM210.531 56.896C210.951 56.896 211.311 56.746 211.611 56.446C211.911 56.134 212.061 55.69 212.061 55.114C212.061 54.562 211.911 54.136 211.611 53.836C211.323 53.524 210.963 53.368 210.531 53.368C210.099 53.368 209.733 53.518 209.433 53.818C209.133 54.118 208.983 54.55 208.983 55.114C208.983 55.69 209.133 56.134 209.433 56.446C209.733 56.746 210.099 56.896 210.531 56.896ZM210.747 63.556C211.467 63.556 212.043 63.412 212.475 63.124C212.919 62.848 213.141 62.518 213.141 62.134C213.141 61.786 213.003 61.552 212.727 61.432C212.463 61.312 212.079 61.252 211.575 61.252H210.369C209.889 61.252 209.487 61.21 209.163 61.126C208.707 61.474 208.479 61.864 208.479 62.296C208.479 62.692 208.677 62.998 209.073 63.214C209.481 63.442 210.039 63.556 210.747 63.556ZM220.196 61.216C219.584 61.216 219.014 61.114 218.486 60.91C217.958 60.694 217.496 60.388 217.1 59.992C216.704 59.596 216.392 59.116 216.164 58.552C215.948 57.976 215.84 57.322 215.84 56.59C215.84 55.87 215.954 55.222 216.182 54.646C216.41 54.07 216.71 53.584 217.082 53.188C217.466 52.792 217.904 52.486 218.396 52.27C218.888 52.054 219.392 51.946 219.908 51.946C220.508 51.946 221.036 52.048 221.492 52.252C221.948 52.456 222.326 52.744 222.626 53.116C222.938 53.488 223.172 53.932 223.328 54.448C223.484 54.964 223.562 55.528 223.562 56.14C223.562 56.344 223.55 56.536 223.526 56.716C223.514 56.896 223.496 57.04 223.472 57.148H217.856C217.952 57.94 218.228 58.552 218.684 58.984C219.152 59.404 219.746 59.614 220.466 59.614C220.85 59.614 221.204 59.56 221.528 59.452C221.864 59.332 222.194 59.17 222.518 58.966L223.22 60.262C222.8 60.538 222.332 60.766 221.816 60.946C221.3 61.126 220.76 61.216 220.196 61.216ZM217.838 55.744H221.762C221.762 55.06 221.612 54.526 221.312 54.142C221.024 53.746 220.574 53.548 219.962 53.548C219.434 53.548 218.972 53.734 218.576 54.106C218.18 54.478 217.934 55.024 217.838 55.744ZM225.539 61V52.162H227.249L227.393 53.728H227.465C227.777 53.152 228.155 52.714 228.599 52.414C229.043 52.102 229.499 51.946 229.967 51.946C230.387 51.946 230.723 52.006 230.975 52.126L230.615 53.926C230.459 53.878 230.315 53.842 230.183 53.818C230.051 53.794 229.889 53.782 229.697 53.782C229.349 53.782 228.983 53.92 228.599 54.196C228.215 54.46 227.885 54.928 227.609 55.6V61H225.539ZM232.253 61V52.162H234.323V61H232.253ZM233.297 50.614C232.925 50.614 232.619 50.506 232.379 50.29C232.139 50.074 232.019 49.792 232.019 49.444C232.019 49.096 232.139 48.814 232.379 48.598C232.619 48.37 232.925 48.256 233.297 48.256C233.669 48.256 233.975 48.37 234.215 48.598C234.455 48.814 234.575 49.096 234.575 49.444C234.575 49.792 234.455 50.074 234.215 50.29C233.975 50.506 233.669 50.614 233.297 50.614ZM239.106 61.216C238.326 61.216 237.696 60.982 237.216 60.514C236.736 60.034 236.496 59.404 236.496 58.624C236.496 58.156 236.592 57.742 236.784 57.382C236.988 57.01 237.3 56.692 237.72 56.428C238.152 56.164 238.692 55.942 239.34 55.762C240 55.582 240.786 55.444 241.698 55.348C241.686 55.12 241.65 54.904 241.59 54.7C241.542 54.484 241.452 54.298 241.32 54.142C241.2 53.974 241.038 53.848 240.834 53.764C240.63 53.668 240.378 53.62 240.078 53.62C239.646 53.62 239.22 53.704 238.8 53.872C238.392 54.04 237.99 54.244 237.594 54.484L236.838 53.098C237.33 52.786 237.882 52.516 238.494 52.288C239.106 52.06 239.766 51.946 240.474 51.946C241.578 51.946 242.4 52.276 242.94 52.936C243.492 53.584 243.768 54.526 243.768 55.762V61H242.058L241.914 60.028H241.842C241.446 60.364 241.02 60.646 240.564 60.874C240.12 61.102 239.634 61.216 239.106 61.216ZM239.772 59.596C240.132 59.596 240.456 59.512 240.744 59.344C241.044 59.176 241.362 58.936 241.698 58.624V56.644C241.098 56.716 240.594 56.812 240.186 56.932C239.778 57.052 239.448 57.19 239.196 57.346C238.944 57.49 238.764 57.658 238.656 57.85C238.548 58.042 238.494 58.246 238.494 58.462C238.494 58.858 238.614 59.146 238.854 59.326C239.094 59.506 239.4 59.596 239.772 59.596Z" fill="black"/>
<rect x="30" y="221" width="422" height="6" rx="3" fill="#3C63B0"/>
<rect width="422" height="6" rx="3" transform="matrix(1 0 0 -1 30 202)" fill="#3C63B0"/>
<rect x="30" y="100" width="137" height="50" rx="5" fill="#D1DCEE"/>
<path d="M57.288 125.96C57.288 126.557 57.4267 127.011 57.704 127.32C57.992 127.629 58.392 127.784 58.904 127.784C59.2027 127.784 59.512 127.693 59.832 127.512C60.1627 127.32 60.4613 127.016 60.728 126.6C60.632 125.704 60.4133 125.053 60.072 124.648C59.7307 124.243 59.3093 124.04 58.808 124.04C58.392 124.04 58.0347 124.205 57.736 124.536C57.4373 124.867 57.288 125.341 57.288 125.96ZM58.472 133.192C57.864 133.192 57.336 133.08 56.888 132.856C56.44 132.632 56.0613 132.36 55.752 132.04L56.744 130.92C56.936 131.144 57.176 131.331 57.464 131.48C57.7627 131.619 58.0667 131.688 58.376 131.688C58.8027 131.688 59.192 131.571 59.544 131.336C59.896 131.101 60.184 130.712 60.408 130.168C60.632 129.613 60.7547 128.867 60.776 127.928C60.4773 128.291 60.1253 128.579 59.72 128.792C59.3147 129.005 58.9253 129.112 58.552 129.112C57.6773 129.112 56.9627 128.856 56.408 128.344C55.864 127.821 55.592 127.027 55.592 125.96C55.592 125.277 55.736 124.691 56.024 124.2C56.3227 123.699 56.712 123.315 57.192 123.048C57.6827 122.771 58.216 122.632 58.792 122.632C59.4533 122.632 60.0613 122.808 60.616 123.16C61.1813 123.512 61.6293 124.056 61.96 124.792C62.3013 125.517 62.472 126.451 62.472 127.592C62.472 128.904 62.2853 129.976 61.912 130.808C61.5387 131.629 61.048 132.232 60.44 132.616C59.832 133 59.176 133.192 58.472 133.192ZM67.2991 133.192C66.2431 133.192 65.4005 132.733 64.7711 131.816C64.1525 130.899 63.8431 129.581 63.8431 127.864C63.8431 126.147 64.1525 124.845 64.7711 123.96C65.4005 123.075 66.2431 122.632 67.2991 122.632C68.3551 122.632 69.1925 123.075 69.8111 123.96C70.4405 124.845 70.7551 126.147 70.7551 127.864C70.7551 129.581 70.4405 130.899 69.8111 131.816C69.1925 132.733 68.3551 133.192 67.2991 133.192ZM67.2991 131.752C67.6298 131.752 67.9231 131.629 68.1791 131.384C68.4351 131.128 68.6325 130.717 68.7711 130.152C68.9205 129.587 68.9951 128.824 68.9951 127.864C68.9951 126.904 68.9205 126.147 68.7711 125.592C68.6325 125.037 68.4351 124.648 68.1791 124.424C67.9231 124.189 67.6298 124.072 67.2991 124.072C66.9791 124.072 66.6911 124.189 66.4351 124.424C66.1791 124.648 65.9765 125.037 65.8271 125.592C65.6778 126.147 65.6031 126.904 65.6031 127.864C65.6031 128.824 65.6778 129.587 65.8271 130.152C65.9765 130.717 66.1791 131.128 66.4351 131.384C66.6911 131.629 66.9791 131.752 67.2991 131.752ZM74.3823 128.968C73.6463 128.968 73.0436 128.68 72.5743 128.104C72.1156 127.517 71.8863 126.696 71.8863 125.64C71.8863 124.595 72.1156 123.784 72.5743 123.208C73.0436 122.632 73.6463 122.344 74.3823 122.344C75.1183 122.344 75.7156 122.632 76.1743 123.208C76.6436 123.784 76.8783 124.595 76.8783 125.64C76.8783 126.696 76.6436 127.517 76.1743 128.104C75.7156 128.68 75.1183 128.968 74.3823 128.968ZM74.3823 127.896C74.7236 127.896 75.0009 127.715 75.2143 127.352C75.4383 126.989 75.5503 126.419 75.5503 125.64C75.5503 124.851 75.4383 124.285 75.2143 123.944C75.0009 123.592 74.7236 123.416 74.3823 123.416C74.0516 123.416 73.7743 123.592 73.5503 123.944C73.3263 124.285 73.2143 124.851 73.2143 125.64C73.2143 126.419 73.3263 126.989 73.5503 127.352C73.7743 127.715 74.0516 127.896 74.3823 127.896ZM74.7183 133.192L80.4303 122.344H81.5503L75.8543 133.192H74.7183ZM81.8863 133.192C81.1503 133.192 80.5476 132.904 80.0783 132.328C79.6196 131.741 79.3903 130.92 79.3903 129.864C79.3903 128.819 79.6196 128.008 80.0783 127.432C80.5476 126.856 81.1503 126.568 81.8863 126.568C82.6223 126.568 83.2196 126.856 83.6783 127.432C84.1476 128.008 84.3823 128.819 84.3823 129.864C84.3823 130.92 84.1476 131.741 83.6783 132.328C83.2196 132.904 82.6223 133.192 81.8863 133.192ZM81.8863 132.12C82.2276 132.12 82.5049 131.939 82.7183 131.576C82.9423 131.213 83.0543 130.643 83.0543 129.864C83.0543 129.075 82.9423 128.509 82.7183 128.168C82.5049 127.816 82.2276 127.64 81.8863 127.64C81.5556 127.64 81.2783 127.816 81.0543 128.168C80.8303 128.509 80.7183 129.075 80.7183 129.864C80.7183 130.643 80.8303 131.213 81.0543 131.576C81.2783 131.939 81.5556 132.12 81.8863 132.12ZM89.3905 133V122.536H91.4865L93.3425 127.656C93.4598 127.987 93.5718 128.328 93.6785 128.68C93.7958 129.021 93.9078 129.363 94.0145 129.704H94.0785C94.1958 129.363 94.3078 129.021 94.4145 128.68C94.5212 128.328 94.6278 127.987 94.7345 127.656L96.5425 122.536H98.6545V133H96.9425V128.216C96.9425 127.885 96.9532 127.528 96.9745 127.144C97.0065 126.749 97.0385 126.355 97.0705 125.96C97.1132 125.565 97.1505 125.208 97.1825 124.888H97.1185L96.2705 127.32L94.5585 132.024H93.4545L91.7265 127.32L90.8945 124.888H90.8305C90.8625 125.208 90.8945 125.565 90.9265 125.96C90.9692 126.355 91.0012 126.749 91.0225 127.144C91.0545 127.528 91.0705 127.885 91.0705 128.216V133H89.3905ZM103.056 133.192C102.374 133.192 101.814 132.979 101.376 132.552C100.95 132.125 100.736 131.571 100.736 130.888C100.736 130.045 101.104 129.395 101.84 128.936C102.576 128.467 103.75 128.147 105.36 127.976C105.35 127.56 105.238 127.203 105.024 126.904C104.822 126.595 104.454 126.44 103.92 126.44C103.536 126.44 103.158 126.515 102.784 126.664C102.422 126.813 102.064 126.995 101.712 127.208L101.04 125.976C101.478 125.699 101.968 125.459 102.512 125.256C103.067 125.053 103.654 124.952 104.272 124.952C105.254 124.952 105.984 125.245 106.464 125.832C106.955 126.408 107.2 127.245 107.2 128.344V133H105.68L105.552 132.136H105.488C105.136 132.435 104.758 132.685 104.352 132.888C103.958 133.091 103.526 133.192 103.056 133.192ZM103.648 131.752C103.968 131.752 104.256 131.677 104.512 131.528C104.779 131.368 105.062 131.155 105.36 130.888V129.128C104.294 129.267 103.552 129.475 103.136 129.752C102.72 130.019 102.512 130.349 102.512 130.744C102.512 131.096 102.619 131.352 102.832 131.512C103.046 131.672 103.318 131.752 103.648 131.752ZM111.92 133.192C111.014 133.192 110.368 132.931 109.984 132.408C109.611 131.875 109.424 131.187 109.424 130.344V126.6H108.304V125.224L109.52 125.144L109.744 123H111.28V125.144H113.28V126.6H111.28V130.344C111.28 131.261 111.648 131.72 112.384 131.72C112.523 131.72 112.667 131.704 112.816 131.672C112.966 131.629 113.094 131.587 113.2 131.544L113.52 132.904C113.307 132.979 113.062 133.043 112.784 133.096C112.518 133.16 112.23 133.192 111.92 133.192ZM117.964 133.192C117.249 133.192 116.604 133.032 116.028 132.712C115.462 132.381 115.009 131.912 114.668 131.304C114.337 130.685 114.172 129.944 114.172 129.08C114.172 128.205 114.353 127.464 114.716 126.856C115.078 126.237 115.558 125.768 116.156 125.448C116.764 125.117 117.414 124.952 118.108 124.952C118.609 124.952 119.046 125.037 119.42 125.208C119.793 125.379 120.124 125.587 120.412 125.832L119.516 127.032C119.313 126.851 119.105 126.712 118.892 126.616C118.678 126.509 118.449 126.456 118.204 126.456C117.574 126.456 117.057 126.696 116.652 127.176C116.257 127.656 116.06 128.291 116.06 129.08C116.06 129.859 116.252 130.488 116.636 130.968C117.03 131.448 117.537 131.688 118.156 131.688C118.465 131.688 118.753 131.624 119.02 131.496C119.297 131.357 119.548 131.197 119.772 131.016L120.524 132.232C120.161 132.552 119.756 132.792 119.308 132.952C118.86 133.112 118.412 133.192 117.964 133.192ZM122.074 133V121.704H123.914V124.616L123.85 126.136C124.181 125.827 124.549 125.555 124.954 125.32C125.36 125.075 125.829 124.952 126.362 124.952C127.205 124.952 127.818 125.224 128.202 125.768C128.586 126.312 128.778 127.08 128.778 128.072V133H126.938V128.312C126.938 127.661 126.842 127.203 126.65 126.936C126.458 126.669 126.144 126.536 125.706 126.536C125.365 126.536 125.061 126.621 124.794 126.792C124.538 126.952 124.245 127.192 123.914 127.512V133H122.074Z" fill="black"/>
<g filter="url(#filter1_d_64_4479)">
<rect x="114" y="90" width="509" height="254" rx="10" fill="#F6FAFD"/>
</g>
<path d="M161.12 277.216C160.508 277.216 159.902 277.102 159.302 276.874C158.714 276.634 158.204 276.34 157.772 275.992L158.744 274.66C159.14 274.972 159.53 275.218 159.914 275.398C160.31 275.566 160.736 275.65 161.192 275.65C161.672 275.65 162.026 275.554 162.254 275.362C162.482 275.158 162.596 274.9 162.596 274.588C162.596 274.408 162.542 274.252 162.434 274.12C162.326 273.976 162.182 273.85 162.002 273.742C161.822 273.634 161.618 273.538 161.39 273.454C161.162 273.358 160.934 273.262 160.706 273.166C160.418 273.058 160.124 272.932 159.824 272.788C159.524 272.644 159.254 272.47 159.014 272.266C158.786 272.062 158.594 271.828 158.438 271.564C158.294 271.288 158.222 270.964 158.222 270.592C158.222 269.812 158.51 269.176 159.086 268.684C159.662 268.192 160.448 267.946 161.444 267.946C162.056 267.946 162.608 268.054 163.1 268.27C163.592 268.486 164.018 268.732 164.378 269.008L163.424 270.268C163.112 270.04 162.794 269.86 162.47 269.728C162.158 269.584 161.828 269.512 161.48 269.512C161.036 269.512 160.706 269.608 160.49 269.8C160.286 269.98 160.184 270.208 160.184 270.484C160.184 270.664 160.232 270.82 160.328 270.952C160.436 271.072 160.574 271.18 160.742 271.276C160.91 271.372 161.102 271.462 161.318 271.546C161.546 271.63 161.78 271.714 162.02 271.798C162.32 271.906 162.62 272.032 162.92 272.176C163.22 272.308 163.49 272.476 163.73 272.68C163.982 272.884 164.18 273.136 164.324 273.436C164.48 273.724 164.558 274.072 164.558 274.48C164.558 274.864 164.48 275.224 164.324 275.56C164.18 275.884 163.964 276.172 163.676 276.424C163.388 276.664 163.028 276.856 162.596 277C162.164 277.144 161.672 277.216 161.12 277.216ZM166.406 277V264.292H168.44V272.23H168.494L171.77 268.162H174.038L171.014 271.762L174.344 277H172.094L169.826 273.166L168.44 274.75V277H166.406ZM175.81 277V268.162H177.88V277H175.81ZM176.854 266.614C176.482 266.614 176.176 266.506 175.936 266.29C175.696 266.074 175.576 265.792 175.576 265.444C175.576 265.096 175.696 264.814 175.936 264.598C176.176 264.37 176.482 264.256 176.854 264.256C177.226 264.256 177.532 264.37 177.772 264.598C178.012 264.814 178.132 265.096 178.132 265.444C178.132 265.792 178.012 266.074 177.772 266.29C177.532 266.506 177.226 266.614 176.854 266.614ZM182.537 277.216C181.793 277.216 181.271 276.994 180.971 276.55C180.671 276.106 180.521 275.5 180.521 274.732V264.292H182.591V274.84C182.591 275.092 182.639 275.272 182.735 275.38C182.831 275.476 182.933 275.524 183.041 275.524C183.089 275.524 183.131 275.524 183.167 275.524C183.215 275.524 183.281 275.512 183.365 275.488L183.635 277.036C183.359 277.156 182.993 277.216 182.537 277.216ZM187.424 277.216C186.68 277.216 186.158 276.994 185.858 276.55C185.558 276.106 185.408 275.5 185.408 274.732V264.292H187.478V274.84C187.478 275.092 187.526 275.272 187.622 275.38C187.718 275.476 187.82 275.524 187.928 275.524C187.976 275.524 188.018 275.524 188.054 275.524C188.102 275.524 188.168 275.512 188.252 275.488L188.522 277.036C188.246 277.156 187.88 277.216 187.424 277.216ZM192.76 277.216C192.148 277.216 191.542 277.102 190.942 276.874C190.354 276.634 189.844 276.34 189.412 275.992L190.384 274.66C190.78 274.972 191.17 275.218 191.554 275.398C191.95 275.566 192.376 275.65 192.832 275.65C193.312 275.65 193.666 275.554 193.894 275.362C194.122 275.158 194.236 274.9 194.236 274.588C194.236 274.408 194.182 274.252 194.074 274.12C193.966 273.976 193.822 273.85 193.642 273.742C193.462 273.634 193.258 273.538 193.03 273.454C192.802 273.358 192.574 273.262 192.346 273.166C192.058 273.058 191.764 272.932 191.464 272.788C191.164 272.644 190.894 272.47 190.654 272.266C190.426 272.062 190.234 271.828 190.078 271.564C189.934 271.288 189.862 270.964 189.862 270.592C189.862 269.812 190.15 269.176 190.726 268.684C191.302 268.192 192.088 267.946 193.084 267.946C193.696 267.946 194.248 268.054 194.74 268.27C195.232 268.486 195.658 268.732 196.018 269.008L195.064 270.268C194.752 270.04 194.434 269.86 194.11 269.728C193.798 269.584 193.468 269.512 193.12 269.512C192.676 269.512 192.346 269.608 192.13 269.8C191.926 269.98 191.824 270.208 191.824 270.484C191.824 270.664 191.872 270.82 191.968 270.952C192.076 271.072 192.214 271.18 192.382 271.276C192.55 271.372 192.742 271.462 192.958 271.546C193.186 271.63 193.42 271.714 193.66 271.798C193.96 271.906 194.26 272.032 194.56 272.176C194.86 272.308 195.13 272.476 195.37 272.68C195.622 272.884 195.82 273.136 195.964 273.436C196.12 273.724 196.198 274.072 196.198 274.48C196.198 274.864 196.12 275.224 195.964 275.56C195.82 275.884 195.604 276.172 195.316 276.424C195.028 276.664 194.668 276.856 194.236 277C193.804 277.144 193.312 277.216 192.76 277.216Z" fill="black"/>
<path d="M235.936 140.671C233.815 140.674 231.781 141.599 230.281 143.243C228.782 144.888 227.938 147.118 227.936 149.443C227.933 151.344 228.499 153.193 229.547 154.707C229.547 154.707 229.765 155.022 229.801 155.067L235.936 163.001L242.073 155.063C242.105 155.021 242.324 154.707 242.324 154.707L242.325 154.704C243.372 153.191 243.938 151.343 243.936 149.443C243.933 147.118 243.089 144.888 241.59 143.243C240.09 141.599 238.057 140.674 235.936 140.671ZM235.936 152.633C235.36 152.633 234.798 152.446 234.319 152.096C233.841 151.745 233.468 151.247 233.248 150.664C233.028 150.081 232.97 149.44 233.082 148.821C233.195 148.202 233.472 147.634 233.879 147.188C234.285 146.742 234.804 146.438 235.368 146.315C235.932 146.192 236.517 146.255 237.049 146.496C237.58 146.738 238.035 147.146 238.354 147.671C238.674 148.196 238.845 148.812 238.845 149.443C238.844 150.289 238.537 151.1 237.992 151.698C237.446 152.296 236.707 152.632 235.936 152.633Z" fill="#3C63B0"/>
<path d="M235.936 140.671C233.815 140.674 231.781 141.599 230.281 143.243C228.782 144.888 227.938 147.118 227.936 149.443C227.933 151.344 228.499 153.193 229.547 154.707C229.547 154.707 229.765 155.022 229.801 155.067L235.936 163.001L242.073 155.063C242.105 155.021 242.324 154.707 242.324 154.707L242.325 154.704C243.372 153.191 243.938 151.343 243.936 149.443C243.933 147.118 243.089 144.888 241.59 143.243C240.09 141.599 238.057 140.674 235.936 140.671ZM235.936 152.633C235.36 152.633 234.798 152.446 234.319 152.096C233.841 151.745 233.468 151.247 233.248 150.664C233.028 150.081 232.97 149.44 233.082 148.821C233.195 148.202 233.472 147.634 233.879 147.188C234.285 146.742 234.804 146.438 235.368 146.315C235.932 146.192 236.517 146.255 237.049 146.496C237.58 146.738 238.035 147.146 238.354 147.671C238.674 148.196 238.845 148.812 238.845 149.443C238.844 150.289 238.537 151.1 237.992 151.698C237.446 152.296 236.707 152.632 235.936 152.633Z" fill="#5C7EC1"/>
<path d="M254.689 154V142.228H256.777V152.236H261.673V154H254.689ZM265.686 154.216C264.906 154.216 264.276 153.982 263.796 153.514C263.316 153.034 263.076 152.404 263.076 151.624C263.076 151.156 263.172 150.742 263.364 150.382C263.568 150.01 263.88 149.692 264.3 149.428C264.732 149.164 265.272 148.942 265.92 148.762C266.58 148.582 267.366 148.444 268.278 148.348C268.266 148.12 268.23 147.904 268.17 147.7C268.122 147.484 268.032 147.298 267.9 147.142C267.78 146.974 267.618 146.848 267.414 146.764C267.21 146.668 266.958 146.62 266.658 146.62C266.226 146.62 265.8 146.704 265.38 146.872C264.972 147.04 264.57 147.244 264.174 147.484L263.418 146.098C263.91 145.786 264.462 145.516 265.074 145.288C265.686 145.06 266.346 144.946 267.054 144.946C268.158 144.946 268.98 145.276 269.52 145.936C270.072 146.584 270.348 147.526 270.348 148.762V154H268.638L268.494 153.028H268.422C268.026 153.364 267.6 153.646 267.144 153.874C266.7 154.102 266.214 154.216 265.686 154.216ZM266.352 152.596C266.712 152.596 267.036 152.512 267.324 152.344C267.624 152.176 267.942 151.936 268.278 151.624V149.644C267.678 149.716 267.174 149.812 266.766 149.932C266.358 150.052 266.028 150.19 265.776 150.346C265.524 150.49 265.344 150.658 265.236 150.85C265.128 151.042 265.074 151.246 265.074 151.462C265.074 151.858 265.194 152.146 265.434 152.326C265.674 152.506 265.98 152.596 266.352 152.596ZM275.904 157.906C275.376 157.906 274.884 157.858 274.428 157.762C273.984 157.666 273.6 157.522 273.276 157.33C272.952 157.138 272.694 156.898 272.502 156.61C272.322 156.322 272.232 155.986 272.232 155.602C272.232 155.23 272.34 154.882 272.556 154.558C272.772 154.246 273.084 153.964 273.492 153.712V153.64C273.264 153.496 273.072 153.304 272.916 153.064C272.772 152.824 272.7 152.524 272.7 152.164C272.7 151.816 272.796 151.504 272.988 151.228C273.192 150.94 273.42 150.706 273.672 150.526V150.454C273.372 150.226 273.102 149.914 272.862 149.518C272.634 149.11 272.52 148.642 272.52 148.114C272.52 147.61 272.616 147.16 272.808 146.764C273 146.368 273.252 146.038 273.564 145.774C273.888 145.498 274.26 145.294 274.68 145.162C275.1 145.018 275.544 144.946 276.012 144.946C276.252 144.946 276.48 144.97 276.696 145.018C276.924 145.054 277.128 145.102 277.308 145.162H280.476V146.692H278.856C279 146.86 279.12 147.076 279.216 147.34C279.312 147.592 279.36 147.874 279.36 148.186C279.36 148.678 279.27 149.11 279.09 149.482C278.922 149.854 278.688 150.166 278.388 150.418C278.088 150.67 277.734 150.862 277.326 150.994C276.918 151.126 276.48 151.192 276.012 151.192C275.82 151.192 275.622 151.174 275.418 151.138C275.214 151.102 275.01 151.042 274.806 150.958C274.674 151.078 274.566 151.198 274.482 151.318C274.41 151.438 274.374 151.6 274.374 151.804C274.374 152.056 274.476 152.254 274.68 152.398C274.896 152.542 275.274 152.614 275.814 152.614H277.38C278.448 152.614 279.252 152.788 279.792 153.136C280.344 153.472 280.62 154.024 280.62 154.792C280.62 155.224 280.506 155.632 280.278 156.016C280.062 156.4 279.75 156.73 279.342 157.006C278.934 157.282 278.436 157.498 277.848 157.654C277.272 157.822 276.624 157.906 275.904 157.906ZM276.012 149.896C276.432 149.896 276.792 149.746 277.092 149.446C277.392 149.134 277.542 148.69 277.542 148.114C277.542 147.562 277.392 147.136 277.092 146.836C276.804 146.524 276.444 146.368 276.012 146.368C275.58 146.368 275.214 146.518 274.914 146.818C274.614 147.118 274.464 147.55 274.464 148.114C274.464 148.69 274.614 149.134 274.914 149.446C275.214 149.746 275.58 149.896 276.012 149.896ZM276.228 156.556C276.948 156.556 277.524 156.412 277.956 156.124C278.4 155.848 278.622 155.518 278.622 155.134C278.622 154.786 278.484 154.552 278.208 154.432C277.944 154.312 277.56 154.252 277.056 154.252H275.85C275.37 154.252 274.968 154.21 274.644 154.126C274.188 154.474 273.96 154.864 273.96 155.296C273.96 155.692 274.158 155.998 274.554 156.214C274.962 156.442 275.52 156.556 276.228 156.556ZM285.514 154.216C284.962 154.216 284.434 154.114 283.93 153.91C283.426 153.706 282.976 153.406 282.58 153.01C282.196 152.614 281.89 152.128 281.662 151.552C281.434 150.976 281.32 150.322 281.32 149.59C281.32 148.858 281.434 148.204 281.662 147.628C281.89 147.052 282.196 146.566 282.58 146.17C282.976 145.774 283.426 145.474 283.93 145.27C284.434 145.054 284.962 144.946 285.514 144.946C286.066 144.946 286.594 145.054 287.098 145.27C287.614 145.474 288.064 145.774 288.448 146.17C288.832 146.566 289.138 147.052 289.366 147.628C289.606 148.204 289.726 148.858 289.726 149.59C289.726 150.322 289.606 150.976 289.366 151.552C289.138 152.128 288.832 152.614 288.448 153.01C288.064 153.406 287.614 153.706 287.098 153.91C286.594 154.114 286.066 154.216 285.514 154.216ZM285.514 152.524C286.162 152.524 286.672 152.26 287.044 151.732C287.416 151.192 287.602 150.478 287.602 149.59C287.602 148.69 287.416 147.976 287.044 147.448C286.672 146.908 286.162 146.638 285.514 146.638C284.866 146.638 284.356 146.908 283.984 147.448C283.624 147.976 283.444 148.69 283.444 149.59C283.444 150.478 283.624 151.192 283.984 151.732C284.356 152.26 284.866 152.524 285.514 152.524ZM294.171 154.216C293.559 154.216 292.953 154.102 292.353 153.874C291.765 153.634 291.255 153.34 290.823 152.992L291.795 151.66C292.191 151.972 292.581 152.218 292.965 152.398C293.361 152.566 293.787 152.65 294.243 152.65C294.723 152.65 295.077 152.554 295.305 152.362C295.533 152.158 295.647 151.9 295.647 151.588C295.647 151.408 295.593 151.252 295.485 151.12C295.377 150.976 295.233 150.85 295.053 150.742C294.873 150.634 294.669 150.538 294.441 150.454C294.213 150.358 293.985 150.262 293.757 150.166C293.469 150.058 293.175 149.932 292.875 149.788C292.575 149.644 292.305 149.47 292.065 149.266C291.837 149.062 291.645 148.828 291.489 148.564C291.345 148.288 291.273 147.964 291.273 147.592C291.273 146.812 291.561 146.176 292.137 145.684C292.713 145.192 293.499 144.946 294.495 144.946C295.107 144.946 295.659 145.054 296.151 145.27C296.643 145.486 297.069 145.732 297.429 146.008L296.475 147.268C296.163 147.04 295.845 146.86 295.521 146.728C295.209 146.584 294.879 146.512 294.531 146.512C294.087 146.512 293.757 146.608 293.541 146.8C293.337 146.98 293.235 147.208 293.235 147.484C293.235 147.664 293.283 147.82 293.379 147.952C293.487 148.072 293.625 148.18 293.793 148.276C293.961 148.372 294.153 148.462 294.369 148.546C294.597 148.63 294.831 148.714 295.071 148.798C295.371 148.906 295.671 149.032 295.971 149.176C296.271 149.308 296.541 149.476 296.781 149.68C297.033 149.884 297.231 150.136 297.375 150.436C297.531 150.724 297.609 151.072 297.609 151.48C297.609 151.864 297.531 152.224 297.375 152.56C297.231 152.884 297.015 153.172 296.727 153.424C296.439 153.664 296.079 153.856 295.647 154C295.215 154.144 294.723 154.216 294.171 154.216ZM299.439 157.276L298.989 156.142C299.577 155.914 300.027 155.608 300.339 155.224C300.663 154.84 300.819 154.42 300.807 153.964H300.645C300.297 153.964 299.985 153.856 299.709 153.64C299.445 153.412 299.313 153.094 299.313 152.686C299.313 152.302 299.445 151.996 299.709 151.768C299.985 151.528 300.315 151.408 300.699 151.408C301.191 151.408 301.569 151.594 301.833 151.966C302.109 152.338 302.247 152.86 302.247 153.532C302.247 154.42 302.001 155.188 301.509 155.836C301.029 156.484 300.339 156.964 299.439 157.276ZM308.197 154V142.228H310.339L314.011 148.852L315.217 151.354H315.289C315.241 150.742 315.181 150.088 315.109 149.392C315.049 148.684 315.019 148 315.019 147.34V142.228H317.017V154H314.875L311.203 147.376L309.997 144.874H309.925C309.973 145.498 310.027 146.152 310.087 146.836C310.159 147.52 310.195 148.192 310.195 148.852V154H308.197ZM319.83 154V145.162H321.9V154H319.83ZM320.874 143.614C320.502 143.614 320.196 143.506 319.956 143.29C319.716 143.074 319.596 142.792 319.596 142.444C319.596 142.096 319.716 141.814 319.956 141.598C320.196 141.37 320.502 141.256 320.874 141.256C321.246 141.256 321.552 141.37 321.792 141.598C322.032 141.814 322.152 142.096 322.152 142.444C322.152 142.792 322.032 143.074 321.792 143.29C321.552 143.506 321.246 143.614 320.874 143.614ZM327.619 157.906C327.091 157.906 326.599 157.858 326.143 157.762C325.699 157.666 325.315 157.522 324.991 157.33C324.667 157.138 324.409 156.898 324.217 156.61C324.037 156.322 323.947 155.986 323.947 155.602C323.947 155.23 324.055 154.882 324.271 154.558C324.487 154.246 324.799 153.964 325.207 153.712V153.64C324.979 153.496 324.787 153.304 324.631 153.064C324.487 152.824 324.415 152.524 324.415 152.164C324.415 151.816 324.511 151.504 324.703 151.228C324.907 150.94 325.135 150.706 325.387 150.526V150.454C325.087 150.226 324.817 149.914 324.577 149.518C324.349 149.11 324.235 148.642 324.235 148.114C324.235 147.61 324.331 147.16 324.523 146.764C324.715 146.368 324.967 146.038 325.279 145.774C325.603 145.498 325.975 145.294 326.395 145.162C326.815 145.018 327.259 144.946 327.727 144.946C327.967 144.946 328.195 144.97 328.411 145.018C328.639 145.054 328.843 145.102 329.023 145.162H332.191V146.692H330.571C330.715 146.86 330.835 147.076 330.931 147.34C331.027 147.592 331.075 147.874 331.075 148.186C331.075 148.678 330.985 149.11 330.805 149.482C330.637 149.854 330.403 150.166 330.103 150.418C329.803 150.67 329.449 150.862 329.041 150.994C328.633 151.126 328.195 151.192 327.727 151.192C327.535 151.192 327.337 151.174 327.133 151.138C326.929 151.102 326.725 151.042 326.521 150.958C326.389 151.078 326.281 151.198 326.197 151.318C326.125 151.438 326.089 151.6 326.089 151.804C326.089 152.056 326.191 152.254 326.395 152.398C326.611 152.542 326.989 152.614 327.529 152.614H329.095C330.163 152.614 330.967 152.788 331.507 153.136C332.059 153.472 332.335 154.024 332.335 154.792C332.335 155.224 332.221 155.632 331.993 156.016C331.777 156.4 331.465 156.73 331.057 157.006C330.649 157.282 330.151 157.498 329.563 157.654C328.987 157.822 328.339 157.906 327.619 157.906ZM327.727 149.896C328.147 149.896 328.507 149.746 328.807 149.446C329.107 149.134 329.257 148.69 329.257 148.114C329.257 147.562 329.107 147.136 328.807 146.836C328.519 146.524 328.159 146.368 327.727 146.368C327.295 146.368 326.929 146.518 326.629 146.818C326.329 147.118 326.179 147.55 326.179 148.114C326.179 148.69 326.329 149.134 326.629 149.446C326.929 149.746 327.295 149.896 327.727 149.896ZM327.943 156.556C328.663 156.556 329.239 156.412 329.671 156.124C330.115 155.848 330.337 155.518 330.337 155.134C330.337 154.786 330.199 154.552 329.923 154.432C329.659 154.312 329.275 154.252 328.771 154.252H327.565C327.085 154.252 326.683 154.21 326.359 154.126C325.903 154.474 325.675 154.864 325.675 155.296C325.675 155.692 325.873 155.998 326.269 156.214C326.677 156.442 327.235 156.556 327.943 156.556ZM337.391 154.216C336.779 154.216 336.209 154.114 335.681 153.91C335.153 153.694 334.691 153.388 334.295 152.992C333.899 152.596 333.587 152.116 333.359 151.552C333.143 150.976 333.035 150.322 333.035 149.59C333.035 148.87 333.149 148.222 333.377 147.646C333.605 147.07 333.905 146.584 334.277 146.188C334.661 145.792 335.099 145.486 335.591 145.27C336.083 145.054 336.587 144.946 337.103 144.946C337.703 144.946 338.231 145.048 338.687 145.252C339.143 145.456 339.521 145.744 339.821 146.116C340.133 146.488 340.367 146.932 340.523 147.448C340.679 147.964 340.757 148.528 340.757 149.14C340.757 149.344 340.745 149.536 340.721 149.716C340.709 149.896 340.691 150.04 340.667 150.148H335.051C335.147 150.94 335.423 151.552 335.879 151.984C336.347 152.404 336.941 152.614 337.661 152.614C338.045 152.614 338.399 152.56 338.723 152.452C339.059 152.332 339.389 152.17 339.713 151.966L340.415 153.262C339.995 153.538 339.527 153.766 339.011 153.946C338.495 154.126 337.955 154.216 337.391 154.216ZM335.033 148.744H338.957C338.957 148.06 338.807 147.526 338.507 147.142C338.219 146.746 337.769 146.548 337.157 146.548C336.629 146.548 336.167 146.734 335.771 147.106C335.375 147.478 335.129 148.024 335.033 148.744ZM342.734 154V145.162H344.444L344.588 146.728H344.66C344.972 146.152 345.35 145.714 345.794 145.414C346.238 145.102 346.694 144.946 347.162 144.946C347.582 144.946 347.918 145.006 348.17 145.126L347.81 146.926C347.654 146.878 347.51 146.842 347.378 146.818C347.246 146.794 347.084 146.782 346.892 146.782C346.544 146.782 346.178 146.92 345.794 147.196C345.41 147.46 345.08 147.928 344.804 148.6V154H342.734ZM349.449 154V145.162H351.519V154H349.449ZM350.493 143.614C350.121 143.614 349.815 143.506 349.575 143.29C349.335 143.074 349.215 142.792 349.215 142.444C349.215 142.096 349.335 141.814 349.575 141.598C349.815 141.37 350.121 141.256 350.493 141.256C350.865 141.256 351.171 141.37 351.411 141.598C351.651 141.814 351.771 142.096 351.771 142.444C351.771 142.792 351.651 143.074 351.411 143.29C351.171 143.506 350.865 143.614 350.493 143.614ZM356.302 154.216C355.522 154.216 354.892 153.982 354.412 153.514C353.932 153.034 353.692 152.404 353.692 151.624C353.692 151.156 353.788 150.742 353.98 150.382C354.184 150.01 354.496 149.692 354.916 149.428C355.348 149.164 355.888 148.942 356.536 148.762C357.196 148.582 357.982 148.444 358.894 148.348C358.882 148.12 358.846 147.904 358.786 147.7C358.738 147.484 358.648 147.298 358.516 147.142C358.396 146.974 358.234 146.848 358.03 146.764C357.826 146.668 357.574 146.62 357.274 146.62C356.842 146.62 356.416 146.704 355.996 146.872C355.588 147.04 355.186 147.244 354.79 147.484L354.034 146.098C354.526 145.786 355.078 145.516 355.69 145.288C356.302 145.06 356.962 144.946 357.67 144.946C358.774 144.946 359.596 145.276 360.136 145.936C360.688 146.584 360.964 147.526 360.964 148.762V154H359.254L359.11 153.028H359.038C358.642 153.364 358.216 153.646 357.76 153.874C357.316 154.102 356.83 154.216 356.302 154.216ZM356.968 152.596C357.328 152.596 357.652 152.512 357.94 152.344C358.24 152.176 358.558 151.936 358.894 151.624V149.644C358.294 149.716 357.79 149.812 357.382 149.932C356.974 150.052 356.644 150.19 356.392 150.346C356.14 150.49 355.96 150.658 355.852 150.85C355.744 151.042 355.69 151.246 355.69 151.462C355.69 151.858 355.81 152.146 356.05 152.326C356.29 152.506 356.596 152.596 356.968 152.596Z" fill="black"/>
<rect x="153.309" y="314" width="352.772" height="6" rx="3" fill="#3C63B0"/>
<rect width="352.772" height="6" rx="3" transform="matrix(1 0 0 -1 153.309 295)" fill="#3C63B0"/>
<rect opacity="0.2" x="157.34" y="190" width="134.053" height="50" rx="5" fill="#3C63B0"/>
<path d="M190.827 213.96C190.827 214.557 190.966 215.011 191.243 215.32C191.531 215.629 191.931 215.784 192.443 215.784C192.742 215.784 193.051 215.693 193.371 215.512C193.702 215.32 194 215.016 194.267 214.6C194.171 213.704 193.952 213.053 193.611 212.648C193.27 212.243 192.848 212.04 192.347 212.04C191.931 212.04 191.574 212.205 191.275 212.536C190.976 212.867 190.827 213.341 190.827 213.96ZM192.011 221.192C191.403 221.192 190.875 221.08 190.427 220.856C189.979 220.632 189.6 220.36 189.291 220.04L190.283 218.92C190.475 219.144 190.715 219.331 191.003 219.48C191.302 219.619 191.606 219.688 191.915 219.688C192.342 219.688 192.731 219.571 193.083 219.336C193.435 219.101 193.723 218.712 193.947 218.168C194.171 217.613 194.294 216.867 194.315 215.928C194.016 216.291 193.664 216.579 193.259 216.792C192.854 217.005 192.464 217.112 192.091 217.112C191.216 217.112 190.502 216.856 189.947 216.344C189.403 215.821 189.131 215.027 189.131 213.96C189.131 213.277 189.275 212.691 189.563 212.2C189.862 211.699 190.251 211.315 190.731 211.048C191.222 210.771 191.755 210.632 192.331 210.632C192.992 210.632 193.6 210.808 194.155 211.16C194.72 211.512 195.168 212.056 195.499 212.792C195.84 213.517 196.011 214.451 196.011 215.592C196.011 216.904 195.824 217.976 195.451 218.808C195.078 219.629 194.587 220.232 193.979 220.616C193.371 221 192.715 221.192 192.011 221.192ZM200.838 221.192C199.782 221.192 198.94 220.733 198.31 219.816C197.692 218.899 197.382 217.581 197.382 215.864C197.382 214.147 197.692 212.845 198.31 211.96C198.94 211.075 199.782 210.632 200.838 210.632C201.894 210.632 202.732 211.075 203.35 211.96C203.98 212.845 204.294 214.147 204.294 215.864C204.294 217.581 203.98 218.899 203.35 219.816C202.732 220.733 201.894 221.192 200.838 221.192ZM200.838 219.752C201.169 219.752 201.462 219.629 201.718 219.384C201.974 219.128 202.172 218.717 202.31 218.152C202.46 217.587 202.534 216.824 202.534 215.864C202.534 214.904 202.46 214.147 202.31 213.592C202.172 213.037 201.974 212.648 201.718 212.424C201.462 212.189 201.169 212.072 200.838 212.072C200.518 212.072 200.23 212.189 199.974 212.424C199.718 212.648 199.516 213.037 199.366 213.592C199.217 214.147 199.142 214.904 199.142 215.864C199.142 216.824 199.217 217.587 199.366 218.152C199.516 218.717 199.718 219.128 199.974 219.384C200.23 219.629 200.518 219.752 200.838 219.752ZM207.921 216.968C207.185 216.968 206.583 216.68 206.113 216.104C205.655 215.517 205.425 214.696 205.425 213.64C205.425 212.595 205.655 211.784 206.113 211.208C206.583 210.632 207.185 210.344 207.921 210.344C208.657 210.344 209.255 210.632 209.713 211.208C210.183 211.784 210.417 212.595 210.417 213.64C210.417 214.696 210.183 215.517 209.713 216.104C209.255 216.68 208.657 216.968 207.921 216.968ZM207.921 215.896C208.263 215.896 208.54 215.715 208.753 215.352C208.977 214.989 209.089 214.419 209.089 213.64C209.089 212.851 208.977 212.285 208.753 211.944C208.54 211.592 208.263 211.416 207.921 211.416C207.591 211.416 207.313 211.592 207.089 211.944C206.865 212.285 206.753 212.851 206.753 213.64C206.753 214.419 206.865 214.989 207.089 215.352C207.313 215.715 207.591 215.896 207.921 215.896ZM208.257 221.192L213.969 210.344H215.089L209.393 221.192H208.257ZM215.425 221.192C214.689 221.192 214.087 220.904 213.617 220.328C213.159 219.741 212.929 218.92 212.929 217.864C212.929 216.819 213.159 216.008 213.617 215.432C214.087 214.856 214.689 214.568 215.425 214.568C216.161 214.568 216.759 214.856 217.217 215.432C217.687 216.008 217.921 216.819 217.921 217.864C217.921 218.92 217.687 219.741 217.217 220.328C216.759 220.904 216.161 221.192 215.425 221.192ZM215.425 220.12C215.767 220.12 216.044 219.939 216.257 219.576C216.481 219.213 216.593 218.643 216.593 217.864C216.593 217.075 216.481 216.509 216.257 216.168C216.044 215.816 215.767 215.64 215.425 215.64C215.095 215.64 214.817 215.816 214.593 216.168C214.369 216.509 214.257 217.075 214.257 217.864C214.257 218.643 214.369 219.213 214.593 219.576C214.817 219.939 215.095 220.12 215.425 220.12ZM222.93 221V210.536H225.026L226.882 215.656C226.999 215.987 227.111 216.328 227.218 216.68C227.335 217.021 227.447 217.363 227.554 217.704H227.618C227.735 217.363 227.847 217.021 227.954 216.68C228.06 216.328 228.167 215.987 228.274 215.656L230.082 210.536H232.194V221H230.482V216.216C230.482 215.885 230.492 215.528 230.514 215.144C230.546 214.749 230.578 214.355 230.61 213.96C230.652 213.565 230.69 213.208 230.722 212.888H230.658L229.81 215.32L228.098 220.024H226.994L225.266 215.32L224.434 212.888H224.37C224.402 213.208 224.434 213.565 224.466 213.96C224.508 214.355 224.54 214.749 224.562 215.144C224.594 215.528 224.61 215.885 224.61 216.216V221H222.93ZM236.595 221.192C235.913 221.192 235.353 220.979 234.915 220.552C234.489 220.125 234.275 219.571 234.275 218.888C234.275 218.045 234.643 217.395 235.379 216.936C236.115 216.467 237.289 216.147 238.899 215.976C238.889 215.56 238.777 215.203 238.563 214.904C238.361 214.595 237.993 214.44 237.459 214.44C237.075 214.44 236.697 214.515 236.323 214.664C235.961 214.813 235.603 214.995 235.251 215.208L234.579 213.976C235.017 213.699 235.507 213.459 236.051 213.256C236.606 213.053 237.193 212.952 237.811 212.952C238.793 212.952 239.523 213.245 240.003 213.832C240.494 214.408 240.739 215.245 240.739 216.344V221H239.219L239.091 220.136H239.027C238.675 220.435 238.297 220.685 237.891 220.888C237.497 221.091 237.065 221.192 236.595 221.192ZM237.187 219.752C237.507 219.752 237.795 219.677 238.051 219.528C238.318 219.368 238.601 219.155 238.899 218.888V217.128C237.833 217.267 237.091 217.475 236.675 217.752C236.259 218.019 236.051 218.349 236.051 218.744C236.051 219.096 236.158 219.352 236.371 219.512C236.585 219.672 236.857 219.752 237.187 219.752ZM245.459 221.192C244.553 221.192 243.907 220.931 243.523 220.408C243.15 219.875 242.963 219.187 242.963 218.344V214.6H241.843V213.224L243.059 213.144L243.283 211H244.819V213.144H246.819V214.6H244.819V218.344C244.819 219.261 245.187 219.72 245.923 219.72C246.062 219.72 246.206 219.704 246.355 219.672C246.505 219.629 246.633 219.587 246.739 219.544L247.059 220.904C246.846 220.979 246.601 221.043 246.323 221.096C246.057 221.16 245.769 221.192 245.459 221.192ZM251.503 221.192C250.788 221.192 250.143 221.032 249.567 220.712C249.001 220.381 248.548 219.912 248.207 219.304C247.876 218.685 247.711 217.944 247.711 217.08C247.711 216.205 247.892 215.464 248.255 214.856C248.617 214.237 249.097 213.768 249.695 213.448C250.303 213.117 250.953 212.952 251.647 212.952C252.148 212.952 252.585 213.037 252.959 213.208C253.332 213.379 253.663 213.587 253.951 213.832L253.055 215.032C252.852 214.851 252.644 214.712 252.431 214.616C252.217 214.509 251.988 214.456 251.743 214.456C251.113 214.456 250.596 214.696 250.191 215.176C249.796 215.656 249.599 216.291 249.599 217.08C249.599 217.859 249.791 218.488 250.175 218.968C250.569 219.448 251.076 219.688 251.695 219.688C252.004 219.688 252.292 219.624 252.559 219.496C252.836 219.357 253.087 219.197 253.311 219.016L254.063 220.232C253.7 220.552 253.295 220.792 252.847 220.952C252.399 221.112 251.951 221.192 251.503 221.192ZM255.613 221V209.704H257.453V212.616L257.389 214.136C257.72 213.827 258.088 213.555 258.493 213.32C258.899 213.075 259.368 212.952 259.901 212.952C260.744 212.952 261.357 213.224 261.741 213.768C262.125 214.312 262.317 215.08 262.317 216.072V221H260.477V216.312C260.477 215.661 260.381 215.203 260.189 214.936C259.997 214.669 259.683 214.536 259.245 214.536C258.904 214.536 258.6 214.621 258.333 214.792C258.077 214.952 257.784 215.192 257.453 215.512V221H255.613Z" fill="black"/>
<rect opacity="0.2" x="301.473" y="190" width="185.457" height="50" rx="5" fill="#3C63B0"/>
<path d="M319.424 221.192C318.592 221.192 317.899 221.053 317.344 220.776C316.789 220.499 316.331 220.157 315.968 219.752L316.848 218.568C317.157 218.877 317.509 219.144 317.904 219.368C318.299 219.581 318.752 219.688 319.264 219.688C319.819 219.688 320.267 219.555 320.608 219.288C320.96 219.011 321.136 218.632 321.136 218.152C321.136 217.885 321.088 217.645 320.992 217.432C320.896 217.219 320.731 217.037 320.496 216.888C320.272 216.739 319.968 216.627 319.584 216.552C319.2 216.467 318.72 216.424 318.144 216.424V215.08C318.645 215.08 319.061 215.043 319.392 214.968C319.733 214.883 320.005 214.771 320.208 214.632C320.421 214.483 320.571 214.307 320.656 214.104C320.752 213.901 320.8 213.683 320.8 213.448C320.8 213.021 320.667 212.691 320.4 212.456C320.133 212.211 319.765 212.088 319.296 212.088C318.891 212.088 318.523 212.179 318.192 212.36C317.872 212.531 317.557 212.76 317.248 213.048L316.304 211.912C316.741 211.528 317.205 211.219 317.696 210.984C318.197 210.749 318.752 210.632 319.36 210.632C319.851 210.632 320.299 210.691 320.704 210.808C321.109 210.925 321.456 211.101 321.744 211.336C322.032 211.56 322.256 211.843 322.416 212.184C322.576 212.515 322.656 212.893 322.656 213.32C322.656 213.896 322.496 214.376 322.176 214.76C321.867 215.144 321.435 215.443 320.88 215.656V215.72C321.488 215.88 321.989 216.173 322.384 216.6C322.789 217.027 322.992 217.576 322.992 218.248C322.992 218.717 322.896 219.133 322.704 219.496C322.523 219.859 322.267 220.168 321.936 220.424C321.616 220.669 321.237 220.861 320.8 221C320.373 221.128 319.915 221.192 319.424 221.192ZM327.195 219.416V216.392H324.331V215.048H327.195V212.024H328.587V215.048H331.451V216.392H328.587V219.416H327.195ZM336.889 224.232C336.676 224.232 336.489 224.216 336.329 224.184C336.169 224.163 336.015 224.125 335.865 224.072L336.201 222.632C336.276 222.653 336.361 222.675 336.457 222.696C336.564 222.728 336.665 222.744 336.761 222.744C337.177 222.744 337.508 222.616 337.753 222.36C338.009 222.115 338.201 221.795 338.329 221.4L338.473 220.904L335.385 213.144H337.257L338.617 217C338.735 217.341 338.847 217.704 338.953 218.088C339.071 218.461 339.188 218.835 339.305 219.208H339.369C339.465 218.845 339.561 218.477 339.657 218.104C339.764 217.72 339.865 217.352 339.961 217L341.145 213.144H342.921L340.073 221.352C339.913 221.8 339.737 222.2 339.545 222.552C339.353 222.904 339.129 223.203 338.873 223.448C338.628 223.704 338.34 223.896 338.009 224.024C337.689 224.163 337.316 224.232 336.889 224.232ZM347.549 221.192C347.005 221.192 346.499 221.101 346.029 220.92C345.56 220.728 345.149 220.456 344.797 220.104C344.445 219.752 344.168 219.325 343.965 218.824C343.773 218.312 343.677 217.731 343.677 217.08C343.677 216.44 343.779 215.864 343.981 215.352C344.184 214.84 344.451 214.408 344.781 214.056C345.123 213.704 345.512 213.432 345.949 213.24C346.387 213.048 346.835 212.952 347.293 212.952C347.827 212.952 348.296 213.043 348.701 213.224C349.107 213.405 349.443 213.661 349.709 213.992C349.987 214.323 350.195 214.717 350.333 215.176C350.472 215.635 350.541 216.136 350.541 216.68C350.541 216.861 350.531 217.032 350.509 217.192C350.499 217.352 350.483 217.48 350.461 217.576H345.469C345.555 218.28 345.8 218.824 346.205 219.208C346.621 219.581 347.149 219.768 347.789 219.768C348.131 219.768 348.445 219.72 348.733 219.624C349.032 219.517 349.325 219.373 349.613 219.192L350.237 220.344C349.864 220.589 349.448 220.792 348.989 220.952C348.531 221.112 348.051 221.192 347.549 221.192ZM345.453 216.328H348.941C348.941 215.72 348.808 215.245 348.541 214.904C348.285 214.552 347.885 214.376 347.341 214.376C346.872 214.376 346.461 214.541 346.109 214.872C345.757 215.203 345.539 215.688 345.453 216.328ZM354.015 221.192C353.322 221.192 352.762 220.984 352.335 220.568C351.909 220.141 351.695 219.581 351.695 218.888C351.695 218.472 351.781 218.104 351.951 217.784C352.133 217.453 352.41 217.171 352.783 216.936C353.167 216.701 353.647 216.504 354.223 216.344C354.81 216.184 355.509 216.061 356.319 215.976C356.309 215.773 356.277 215.581 356.223 215.4C356.181 215.208 356.101 215.043 355.983 214.904C355.877 214.755 355.733 214.643 355.551 214.568C355.37 214.483 355.146 214.44 354.879 214.44C354.495 214.44 354.117 214.515 353.743 214.664C353.381 214.813 353.023 214.995 352.671 215.208L351.999 213.976C352.437 213.699 352.927 213.459 353.471 213.256C354.015 213.053 354.602 212.952 355.231 212.952C356.213 212.952 356.943 213.245 357.423 213.832C357.914 214.408 358.159 215.245 358.159 216.344V221H356.639L356.511 220.136H356.447C356.095 220.435 355.717 220.685 355.311 220.888C354.917 221.091 354.485 221.192 354.015 221.192ZM354.607 219.752C354.927 219.752 355.215 219.677 355.471 219.528C355.738 219.379 356.021 219.165 356.319 218.888V217.128C355.786 217.192 355.338 217.277 354.975 217.384C354.613 217.491 354.319 217.613 354.095 217.752C353.871 217.88 353.711 218.029 353.615 218.2C353.519 218.371 353.471 218.552 353.471 218.744C353.471 219.096 353.578 219.352 353.791 219.512C354.005 219.672 354.277 219.752 354.607 219.752ZM360.361 221V213.144H361.881L362.009 214.536H362.073C362.351 214.024 362.687 213.635 363.081 213.368C363.476 213.091 363.881 212.952 364.297 212.952C364.671 212.952 364.969 213.005 365.193 213.112L364.873 214.712C364.735 214.669 364.607 214.637 364.489 214.616C364.372 214.595 364.228 214.584 364.057 214.584C363.748 214.584 363.423 214.707 363.081 214.952C362.74 215.187 362.447 215.603 362.201 216.2V221H360.361ZM368.428 221.192C367.884 221.192 367.346 221.091 366.812 220.888C366.29 220.675 365.836 220.413 365.452 220.104L366.316 218.92C366.668 219.197 367.015 219.416 367.356 219.576C367.708 219.725 368.087 219.8 368.492 219.8C368.919 219.8 369.234 219.715 369.436 219.544C369.639 219.363 369.74 219.133 369.74 218.856C369.74 218.696 369.692 218.557 369.596 218.44C369.5 218.312 369.372 218.2 369.212 218.104C369.052 218.008 368.871 217.923 368.668 217.848C368.466 217.763 368.263 217.677 368.06 217.592C367.804 217.496 367.543 217.384 367.276 217.256C367.01 217.128 366.77 216.973 366.556 216.792C366.354 216.611 366.183 216.403 366.044 216.168C365.916 215.923 365.852 215.635 365.852 215.304C365.852 214.611 366.108 214.045 366.62 213.608C367.132 213.171 367.831 212.952 368.716 212.952C369.26 212.952 369.751 213.048 370.188 213.24C370.626 213.432 371.004 213.651 371.324 213.896L370.476 215.016C370.199 214.813 369.916 214.653 369.628 214.536C369.351 214.408 369.058 214.344 368.748 214.344C368.354 214.344 368.06 214.429 367.868 214.6C367.687 214.76 367.596 214.963 367.596 215.208C367.596 215.368 367.639 215.507 367.724 215.624C367.82 215.731 367.943 215.827 368.092 215.912C368.242 215.997 368.412 216.077 368.604 216.152C368.807 216.227 369.015 216.301 369.228 216.376C369.495 216.472 369.762 216.584 370.028 216.712C370.295 216.829 370.535 216.979 370.748 217.16C370.972 217.341 371.148 217.565 371.276 217.832C371.415 218.088 371.484 218.397 371.484 218.76C371.484 219.101 371.415 219.421 371.276 219.72C371.148 220.008 370.956 220.264 370.7 220.488C370.444 220.701 370.124 220.872 369.74 221C369.356 221.128 368.919 221.192 368.428 221.192ZM379.546 221.192C379.055 221.192 378.586 221.101 378.138 220.92C377.69 220.739 377.29 220.472 376.938 220.12C376.597 219.768 376.325 219.336 376.122 218.824C375.919 218.312 375.818 217.731 375.818 217.08C375.818 216.429 375.919 215.848 376.122 215.336C376.325 214.824 376.597 214.392 376.938 214.04C377.29 213.688 377.69 213.421 378.138 213.24C378.586 213.048 379.055 212.952 379.546 212.952C380.037 212.952 380.506 213.048 380.954 213.24C381.413 213.421 381.813 213.688 382.154 214.04C382.495 214.392 382.767 214.824 382.97 215.336C383.183 215.848 383.29 216.429 383.29 217.08C383.29 217.731 383.183 218.312 382.97 218.824C382.767 219.336 382.495 219.768 382.154 220.12C381.813 220.472 381.413 220.739 380.954 220.92C380.506 221.101 380.037 221.192 379.546 221.192ZM379.546 219.688C380.122 219.688 380.575 219.453 380.906 218.984C381.237 218.504 381.402 217.869 381.402 217.08C381.402 216.28 381.237 215.645 380.906 215.176C380.575 214.696 380.122 214.456 379.546 214.456C378.97 214.456 378.517 214.696 378.186 215.176C377.866 215.645 377.706 216.28 377.706 217.08C377.706 217.869 377.866 218.504 378.186 218.984C378.517 219.453 378.97 219.688 379.546 219.688ZM385.369 221V214.6H384.313V213.224L385.369 213.144V212.328C385.369 211.923 385.417 211.549 385.513 211.208C385.609 210.856 385.764 210.557 385.977 210.312C386.19 210.056 386.457 209.859 386.777 209.72C387.108 209.581 387.508 209.512 387.977 209.512C388.254 209.512 388.516 209.539 388.761 209.592C389.017 209.645 389.236 209.709 389.417 209.784L389.065 211.16C388.777 211.032 388.489 210.968 388.201 210.968C387.54 210.968 387.209 211.411 387.209 212.296V213.144H388.745V214.6H387.209V221H385.369ZM393.49 221V210.536H399.794V212.104H395.346V214.776H399.106V216.344H395.346V219.432H399.954V221H393.49ZM400.386 221L402.882 216.904L400.546 213.144H402.53L403.41 214.632C403.527 214.845 403.645 215.069 403.762 215.304C403.89 215.528 404.013 215.747 404.13 215.96H404.194C404.29 215.747 404.391 215.528 404.498 215.304C404.605 215.069 404.706 214.845 404.802 214.632L405.554 213.144H407.458L405.138 217.112L407.634 221H405.65L404.69 219.448C404.562 219.213 404.429 218.979 404.29 218.744C404.162 218.509 404.029 218.28 403.89 218.056H403.826C403.709 218.28 403.591 218.509 403.474 218.744C403.367 218.968 403.255 219.203 403.138 219.448L402.306 221H400.386ZM409.033 224.104V213.144H410.553L410.681 213.976H410.745C411.076 213.699 411.444 213.459 411.849 213.256C412.255 213.053 412.676 212.952 413.113 212.952C413.604 212.952 414.036 213.048 414.409 213.24C414.793 213.421 415.119 213.688 415.385 214.04C415.652 214.392 415.855 214.813 415.993 215.304C416.132 215.795 416.201 216.344 416.201 216.952C416.201 217.624 416.105 218.227 415.913 218.76C415.732 219.283 415.487 219.725 415.177 220.088C414.868 220.44 414.511 220.712 414.105 220.904C413.7 221.096 413.279 221.192 412.841 221.192C412.5 221.192 412.159 221.117 411.817 220.968C411.476 220.819 411.145 220.605 410.825 220.328L410.873 221.64V224.104H409.033ZM412.457 219.672C412.98 219.672 413.417 219.448 413.769 219C414.121 218.541 414.297 217.864 414.297 216.968C414.297 216.179 414.164 215.565 413.897 215.128C413.631 214.691 413.199 214.472 412.601 214.472C412.047 214.472 411.471 214.765 410.873 215.352V219.016C411.161 219.261 411.439 219.432 411.705 219.528C411.972 219.624 412.223 219.672 412.457 219.672ZM421.424 221.192C420.88 221.192 420.374 221.101 419.904 220.92C419.435 220.728 419.024 220.456 418.672 220.104C418.32 219.752 418.043 219.325 417.84 218.824C417.648 218.312 417.552 217.731 417.552 217.08C417.552 216.44 417.654 215.864 417.856 215.352C418.059 214.84 418.326 214.408 418.656 214.056C418.998 213.704 419.387 213.432 419.824 213.24C420.262 213.048 420.71 212.952 421.168 212.952C421.702 212.952 422.171 213.043 422.576 213.224C422.982 213.405 423.318 213.661 423.584 213.992C423.862 214.323 424.07 214.717 424.208 215.176C424.347 215.635 424.416 216.136 424.416 216.68C424.416 216.861 424.406 217.032 424.384 217.192C424.374 217.352 424.358 217.48 424.336 217.576H419.344C419.43 218.28 419.675 218.824 420.08 219.208C420.496 219.581 421.024 219.768 421.664 219.768C422.006 219.768 422.32 219.72 422.608 219.624C422.907 219.517 423.2 219.373 423.488 219.192L424.112 220.344C423.739 220.589 423.323 220.792 422.864 220.952C422.406 221.112 421.926 221.192 421.424 221.192ZM419.328 216.328H422.816C422.816 215.72 422.683 215.245 422.416 214.904C422.16 214.552 421.76 214.376 421.216 214.376C420.747 214.376 420.336 214.541 419.984 214.872C419.632 215.203 419.414 215.688 419.328 216.328ZM426.174 221V213.144H427.694L427.822 214.536H427.886C428.163 214.024 428.499 213.635 428.894 213.368C429.289 213.091 429.694 212.952 430.11 212.952C430.483 212.952 430.782 213.005 431.006 213.112L430.686 214.712C430.547 214.669 430.419 214.637 430.302 214.616C430.185 214.595 430.041 214.584 429.87 214.584C429.561 214.584 429.235 214.707 428.894 214.952C428.553 215.187 428.259 215.603 428.014 216.2V221H426.174ZM435.346 221.192C434.802 221.192 434.296 221.101 433.826 220.92C433.357 220.728 432.946 220.456 432.594 220.104C432.242 219.752 431.965 219.325 431.762 218.824C431.57 218.312 431.474 217.731 431.474 217.08C431.474 216.44 431.576 215.864 431.778 215.352C431.981 214.84 432.248 214.408 432.578 214.056C432.92 213.704 433.309 213.432 433.746 213.24C434.184 213.048 434.632 212.952 435.09 212.952C435.624 212.952 436.093 213.043 436.498 213.224C436.904 213.405 437.24 213.661 437.506 213.992C437.784 214.323 437.992 214.717 438.13 215.176C438.269 215.635 438.338 216.136 438.338 216.68C438.338 216.861 438.328 217.032 438.306 217.192C438.296 217.352 438.28 217.48 438.258 217.576H433.266C433.352 218.28 433.597 218.824 434.002 219.208C434.418 219.581 434.946 219.768 435.586 219.768C435.928 219.768 436.242 219.72 436.53 219.624C436.829 219.517 437.122 219.373 437.41 219.192L438.034 220.344C437.661 220.589 437.245 220.792 436.786 220.952C436.328 221.112 435.848 221.192 435.346 221.192ZM433.25 216.328H436.738C436.738 215.72 436.605 215.245 436.338 214.904C436.082 214.552 435.682 214.376 435.138 214.376C434.669 214.376 434.258 214.541 433.906 214.872C433.554 215.203 433.336 215.688 433.25 216.328ZM440.096 221V213.144H441.936V221H440.096ZM441.024 211.768C440.693 211.768 440.421 211.672 440.208 211.48C439.994 211.288 439.888 211.037 439.888 210.728C439.888 210.419 439.994 210.168 440.208 209.976C440.421 209.773 440.693 209.672 441.024 209.672C441.354 209.672 441.626 209.773 441.84 209.976C442.053 210.168 442.16 210.419 442.16 210.728C442.16 211.037 442.053 211.288 441.84 211.48C441.626 211.672 441.354 211.768 441.024 211.768ZM444.283 221V213.144H445.803L445.931 214.2H445.995C446.347 213.859 446.726 213.565 447.131 213.32C447.547 213.075 448.027 212.952 448.571 212.952C449.414 212.952 450.027 213.224 450.411 213.768C450.795 214.301 450.987 215.069 450.987 216.072V221H449.147V216.312C449.147 215.661 449.051 215.203 448.859 214.936C448.667 214.669 448.353 214.536 447.915 214.536C447.574 214.536 447.27 214.621 447.003 214.792C446.747 214.952 446.454 215.192 446.123 215.512V221H444.283ZM456.516 221.192C455.983 221.192 455.482 221.101 455.012 220.92C454.554 220.739 454.154 220.472 453.812 220.12C453.471 219.768 453.204 219.336 453.012 218.824C452.82 218.312 452.724 217.731 452.724 217.08C452.724 216.429 452.831 215.848 453.044 215.336C453.258 214.824 453.546 214.392 453.908 214.04C454.271 213.688 454.687 213.421 455.156 213.24C455.636 213.048 456.138 212.952 456.66 212.952C457.172 212.952 457.61 213.037 457.972 213.208C458.346 213.379 458.676 213.587 458.964 213.832L458.068 215.032C457.855 214.851 457.642 214.712 457.428 214.616C457.226 214.509 457.002 214.456 456.756 214.456C456.116 214.456 455.599 214.696 455.204 215.176C454.81 215.645 454.612 216.28 454.612 217.08C454.612 217.869 454.804 218.504 455.188 218.984C455.583 219.453 456.09 219.688 456.708 219.688C457.018 219.688 457.306 219.624 457.572 219.496C457.85 219.357 458.1 219.197 458.324 219.016L459.076 220.232C458.703 220.552 458.292 220.792 457.844 220.952C457.407 221.112 456.964 221.192 456.516 221.192ZM463.596 221.192C463.052 221.192 462.546 221.101 462.076 220.92C461.607 220.728 461.196 220.456 460.844 220.104C460.492 219.752 460.215 219.325 460.012 218.824C459.82 218.312 459.724 217.731 459.724 217.08C459.724 216.44 459.826 215.864 460.028 215.352C460.231 214.84 460.498 214.408 460.828 214.056C461.17 213.704 461.559 213.432 461.996 213.24C462.434 213.048 462.882 212.952 463.34 212.952C463.874 212.952 464.343 213.043 464.748 213.224C465.154 213.405 465.49 213.661 465.756 213.992C466.034 214.323 466.242 214.717 466.38 215.176C466.519 215.635 466.588 216.136 466.588 216.68C466.588 216.861 466.578 217.032 466.556 217.192C466.546 217.352 466.53 217.48 466.508 217.576H461.516C461.602 218.28 461.847 218.824 462.252 219.208C462.668 219.581 463.196 219.768 463.836 219.768C464.178 219.768 464.492 219.72 464.78 219.624C465.079 219.517 465.372 219.373 465.66 219.192L466.284 220.344C465.911 220.589 465.495 220.792 465.036 220.952C464.578 221.112 464.098 221.192 463.596 221.192ZM461.5 216.328H464.988C464.988 215.72 464.855 215.245 464.588 214.904C464.332 214.552 463.932 214.376 463.388 214.376C462.919 214.376 462.508 214.541 462.156 214.872C461.804 215.203 461.586 215.688 461.5 216.328Z" fill="black"/>
<defs>
<filter id="filter0_d_64_4479" x="0" y="0" width="469" height="262" filterUnits="userSpaceOnUse" color-interpolation-filters="sRGB">
<feFlood flood-opacity="0" result="BackgroundImageFix"/>
<feColorMatrix in="SourceAlpha" type="matrix" values="0 0 0 0 0 0 0 0 0 0 0 0 0 0 0 0 0 0 127 0" result="hardAlpha"/>
<feOffset dy="4"/>
<feGaussianBlur stdDeviation="2"/>
<feComposite in2="hardAlpha" operator="out"/>
<feColorMatrix type="matrix" values="0 0 0 0 0 0 0 0 0 0 0 0 0 0 0 0 0 0 0.25 0"/>
<feBlend mode="normal" in2="BackgroundImageFix" result="effect1_dropShadow_64_4479"/>
<feBlend mode="normal" in="SourceGraphic" in2="effect1_dropShadow_64_4479" result="shape"/>
</filter>
<filter id="filter1_d_64_4479" x="110" y="90" width="517" height="262" filterUnits="userSpaceOnUse" color-interpolation-filters="sRGB">
<feFlood flood-opacity="0" result="BackgroundImageFix"/>
<feColorMatrix in="SourceAlpha" type="matrix" values="0 0 0 0 0 0 0 0 0 0 0 0 0 0 0 0 0 0 127 0" result="hardAlpha"/>
<feOffset dy="4"/>
<feGaussianBlur stdDeviation="2"/>
<feComposite in2="hardAlpha" operator="out"/>
<feColorMatrix type="matrix" values="0 0 0 0 0 0 0 0 0 0 0 0 0 0 0 0 0 0 0.25 0"/>
<feBlend mode="normal" in2="BackgroundImageFix" result="effect1_dropShadow_64_4479"/>
<feBlend mode="normal" in="SourceGraphic" in2="effect1_dropShadow_64_4479" result="shape"/>
</filter>
</defs>
</svg>
