<svg width="100" height="100" viewBox="0 0 100 100" fill="none" xmlns="http://www.w3.org/2000/svg">
<g opacity="0.5">
<path d="M32.4561 64.9115C37.7852 64.9115 42.1053 60.5915 42.1053 55.2624C42.1053 49.9333 37.7852 45.6133 32.4561 45.6133C27.1271 45.6133 22.807 49.9333 22.807 55.2624C22.807 60.5915 27.1271 64.9115 32.4561 64.9115Z" fill="#3C63B0"/>
<path d="M32.4561 66.6664C26.1684 66.6664 21.0526 61.5506 21.0526 55.2629C21.0526 48.9752 26.1684 43.8594 32.4561 43.8594C38.7438 43.8594 43.8596 48.9752 43.8596 55.2629C43.8596 61.5506 38.7438 66.6664 32.4561 66.6664ZM32.4561 47.3681C28.1035 47.3681 24.5614 50.9103 24.5614 55.2629C24.5614 59.6155 28.1035 63.1576 32.4561 63.1576C36.8088 63.1576 40.3509 59.6155 40.3509 55.2629C40.3509 50.9103 36.8088 47.3681 32.4561 47.3681Z" fill="#3C63B0"/>
<path d="M62.2807 64.9115C67.6098 64.9115 71.9298 60.5915 71.9298 55.2624C71.9298 49.9333 67.6098 45.6133 62.2807 45.6133C56.9517 45.6133 52.6316 49.9333 52.6316 55.2624C52.6316 60.5915 56.9517 64.9115 62.2807 64.9115Z" fill="#3C63B0"/>
<path d="M62.2807 66.6664C55.993 66.6664 50.8772 61.5506 50.8772 55.2629C50.8772 48.9752 55.993 43.8594 62.2807 43.8594C68.5684 43.8594 73.6842 48.9752 73.6842 55.2629C73.6842 61.5506 68.5684 66.6664 62.2807 66.6664ZM62.2807 47.3681C57.9281 47.3681 54.386 50.9103 54.386 55.2629C54.386 59.6155 57.9281 63.1576 62.2807 63.1576C66.6333 63.1576 70.1754 59.6155 70.1754 55.2629C70.1754 50.9103 66.6333 47.3681 62.2807 47.3681Z" fill="#3C63B0"/>
<path d="M22.807 56.14C21.8368 56.14 21.0526 55.3558 21.0526 54.3856C21.0526 40.8418 32.0702 29.8242 45.614 29.8242C46.5842 29.8242 47.3684 30.6084 47.3684 31.5786C47.3684 32.5488 46.5842 33.333 45.614 33.333C34.0052 33.333 24.5614 42.7768 24.5614 54.3856C24.5614 55.3558 23.7772 56.14 22.807 56.14Z" fill="#3C63B0"/>
<path d="M52.6316 56.14C51.6614 56.14 50.8772 55.3558 50.8772 54.3856C50.8772 40.8418 61.8947 29.8242 75.4386 29.8242C76.4088 29.8242 77.193 30.6084 77.193 31.5786C77.193 32.5488 76.4088 33.333 75.4386 33.333C63.8298 33.333 54.386 42.7768 54.386 54.3856C54.386 55.3558 53.6018 56.14 52.6316 56.14Z" fill="#3C63B0"/>
</g>
</svg>
