<svg width="61" height="61" viewBox="0 0 61 61" fill="none" xmlns="http://www.w3.org/2000/svg">
<rect opacity="0.3" width="61" height="61" rx="10" fill="#19BF6F"/>
<path d="M43.3931 24.8942C43.2006 24.7008 42.9716 24.5475 42.7192 24.443C42.4669 24.3386 42.1963 24.2851 41.9231 24.2857H37.7692V23.25C37.7692 21.3272 37.0034 19.4831 35.6401 18.1235C34.2769 16.7638 32.4279 16 30.5 16C28.5721 16 26.7231 16.7638 25.3599 18.1235C23.9966 19.4831 23.2308 21.3272 23.2308 23.25V24.2857H19.0769C18.5261 24.2857 17.9978 24.504 17.6083 24.8924C17.2188 25.2809 17 25.8078 17 26.3571V40.3393C17 42.8638 19.1418 45 21.6731 45H39.3269C40.5513 45.0004 41.7273 44.5229 42.6033 43.6698C43.0441 43.2503 43.3951 42.7461 43.6352 42.1876C43.8753 41.6291 43.9994 41.0279 44 40.4202V26.3571C44.0008 26.0854 43.9476 25.8162 43.8435 25.5651C43.7393 25.3139 43.5862 25.0859 43.3931 24.8942ZM35.4645 31.6652L29.6491 38.9152C29.5536 39.0342 29.4329 39.1307 29.2957 39.1978C29.1585 39.265 29.0081 39.3011 28.8553 39.3036H28.8385C28.6885 39.3036 28.5402 39.2712 28.404 39.2086C28.2678 39.146 28.1467 39.0548 28.0492 38.9411L25.5569 36.0359C25.4683 35.9325 25.4009 35.8128 25.3587 35.6834C25.3165 35.5541 25.3002 35.4177 25.3108 35.2821C25.3214 35.1465 25.3587 35.0143 25.4205 34.8931C25.4823 34.7718 25.5675 34.6639 25.6712 34.5755C25.7748 34.4871 25.8949 34.4199 26.0246 34.3778C26.1542 34.3357 26.291 34.3195 26.4269 34.33C26.5629 34.3406 26.6954 34.3778 26.817 34.4395C26.9386 34.5012 27.0467 34.5861 27.1354 34.6895L28.8125 36.6437L33.8432 30.3705C34.0153 30.1559 34.2659 30.0183 34.5398 29.988C34.8136 29.9576 35.0884 30.037 35.3035 30.2087C35.5187 30.3804 35.6567 30.6303 35.6871 30.9034C35.7175 31.1766 35.6379 31.4506 35.4658 31.6652H35.4645ZM35.6923 24.2857H25.3077V23.25C25.3077 21.8766 25.8547 20.5594 26.8285 19.5882C27.8022 18.617 29.1229 18.0714 30.5 18.0714C31.8771 18.0714 33.1978 18.617 34.1715 19.5882C35.1453 20.5594 35.6923 21.8766 35.6923 23.25V24.2857Z" fill="#19BF6F"/>
</svg>
