<svg width="70" height="70" viewBox="0 0 70 70" fill="none" xmlns="http://www.w3.org/2000/svg">
<circle r="35" transform="matrix(1 0 0 -1 35 35)" fill="#FABF28"/>
<path d="M-nan -nanL32.0174 44.0469L25.382 37.6911C24.9833 37.3093 24.9833 36.6902 25.382 36.3083L26.8256 34.9254C27.2243 34.5436 27.8707 34.5436 28.2693 34.9254C30.7685 37.3193 34.71 37.3193 37.2092 34.9254L42.3134 30.0364C42.712 29.6545 43.3584 29.6545 43.757 30.0364L45.2007 31.4192C45.5993 31.8011 45.5993 32.4202 45.2007 32.8021L33.4611 44.047C33.0624 44.4288 32.4161 44.4288 32.0174 44.0469L-nan -nanZ" fill="white"/>
<path d="M32.5996 40.0808C32.6541 40.1348 32.7187 40.1776 32.7898 40.2066C32.8609 40.2357 32.937 40.2504 33.0137 40.2499C33.0905 40.2504 33.1666 40.2357 33.2377 40.2066C33.3088 40.1776 33.3734 40.1348 33.4279 40.0808L41.6996 31.8149C41.8082 31.7056 41.8692 31.5578 41.8692 31.4037C41.8692 31.2496 41.8082 31.1017 41.6996 30.9924L39.6346 28.9274C39.5253 28.8188 39.3774 28.7578 39.2233 28.7578C39.0692 28.7578 38.9214 28.8188 38.8121 28.9274L33.0429 34.6966L31.3862 32.9466C31.2808 32.834 31.1352 32.7677 30.981 32.7622C30.8269 32.7568 30.6768 32.8126 30.5637 32.9174L30.5346 32.9466L28.4696 35.1691C28.3644 35.2779 28.3057 35.4232 28.3057 35.5745C28.3057 35.7258 28.3644 35.8712 28.4696 35.9799L32.5996 40.0808ZM30.9604 34.1716L32.5996 35.9216C32.6538 35.9763 32.7183 36.0197 32.7894 36.0493C32.8605 36.0789 32.9367 36.0942 33.0137 36.0942C33.0907 36.0942 33.167 36.0789 33.2381 36.0493C33.3092 36.0197 33.3737 35.9763 33.4279 35.9216L39.2146 30.1349L40.4571 31.3774L33.0137 38.8441L29.7004 35.5249L30.9604 34.1716Z" fill="white"/>
<path d="M46.01 45.3712C48.8871 42.4875 50.5029 38.5802 50.5029 34.5067C50.5029 30.4331 48.8871 26.5258 46.01 23.6421V23.6071H45.975C43.0739 20.7881 39.1805 19.2232 35.1355 19.2503C31.0905 19.2775 27.2185 20.8944 24.3555 23.7521C21.4925 26.6097 19.8683 30.4787 19.8336 34.5236C19.7989 38.5686 21.3564 42.4649 24.17 45.3712V45.4062H24.205C27.0897 48.2837 30.9979 49.8997 35.0725 49.8997C39.147 49.8997 43.0552 48.2837 45.94 45.4062H45.975L46.01 45.3712ZM20.8566 35.0871H23.5575C23.6925 37.7439 24.7414 40.2724 26.5266 42.2446L24.59 44.1521C22.3087 41.6695 20.9853 38.4562 20.8566 35.0871ZM26.9233 28.0404C27.1741 27.7312 27.4366 27.4571 27.7108 27.1537C29.622 25.2343 32.2062 24.1357 34.9145 24.0912C37.6228 24.0468 40.2417 25.06 42.2149 26.9157C44.188 28.7714 45.3598 31.3233 45.4815 34.0293C45.6031 36.7352 44.6649 39.3819 42.8661 41.4071C41.0674 43.4323 38.55 44.6764 35.8486 44.8751C33.1473 45.0738 30.4749 44.2114 28.3992 42.4711C26.3236 40.7309 25.0082 38.2499 24.7326 35.5553C24.457 32.8607 25.2429 30.1648 26.9233 28.0404ZM49.3233 33.9204H46.6225C46.4937 31.2622 45.4439 28.7317 43.6533 26.7629L45.59 24.8554C47.877 27.3343 49.2012 30.5499 49.3233 33.9204ZM42.8308 25.9404C40.8612 24.1511 38.3312 23.1015 35.6733 22.9712V20.2704C39.0426 20.3981 42.2563 21.7216 44.7383 24.0037L42.8308 25.9404ZM34.5066 22.9537C31.8452 23.0833 29.3112 24.1327 27.3375 25.9229L25.4358 24.0037C27.9177 21.7177 31.1346 20.3937 34.5066 20.2704V22.9537ZM27.3491 43.0671C29.3214 44.8523 31.8499 45.9012 34.5066 46.0362V48.7371C31.1378 48.6074 27.9248 47.2841 25.4416 45.0037L27.3491 43.0671ZM35.6733 46.0362C38.3305 45.9031 40.8596 44.8539 42.8308 43.0671L44.7383 45.0037C42.2563 47.2859 39.0426 48.6094 35.6733 48.7371V46.0362ZM43.6533 42.2446C45.4431 40.2752 46.4927 37.745 46.6225 35.0871H49.3233C49.2002 38.4574 47.8761 41.6726 45.59 44.1521L43.6533 42.2446ZM23.9191 25.6662C24.1408 25.3921 24.3683 25.1296 24.6016 24.8729L26.4975 26.7687C26.3261 26.9531 26.1664 27.1479 26.0191 27.3521C24.5313 29.2304 23.6685 31.5271 23.5516 33.9204H20.8683C20.9786 30.914 22.0476 28.0217 23.9191 25.6662Z" fill="white"/>
</svg>
